<svg xmlns="http://www.w3.org/2000/svg" viewBox="0 0 33.5 48">
	<path fill="white" d="M24.9,29.9l8.6-8.7V8.5L24.5,0H9L0,8.5v9.7H13.2V13.1l.3-.3h6.6l.3.3v3.5L0,37V48H33.5V29.9Zm8,17.3H.7V37.3L21.1,16.9V12.8l-.8-.8H13.2l-.8.8v4.7H.7V8.7L9.3.7h15l8.6,8V20.9l-9.7,9.6h9.7Z"/>
	<polygon fill="white" points="30.7 19.9 30.7 9.7 23.5 3 10.2 3 3.1 9.7 3.1 15.3 10.3 15.3 10.3 11.9 12.4 9.8 21.4 9.8 23.5 11.9 23.5 17.8 3 38.3 3 45 30.6 45 30.6 32.8 23.4 32.8 23.4 38.3 12.3 38.3 30.7 19.9"/>
	<path fill="white" d="M21.2,32.6,17.8,36h3.4Zm-.8,2.7h-1l1-1Z"/>
</svg>