<svg xmlns="http://www.w3.org/2000/svg" viewBox="0 0 32.2 48">
	<polygon fill="white" points="10.3 18.4 10.3 9.7 27.1 9.7 27.1 3 3 3 3 24.9 19.9 24.9 22 27 22 36.1 19.9 38.2 12.4 38.2 10.3 36.1 10.3 32.7 3 32.7 3 38.3 10.3 45 22 45 29.2 38.3 29.2 24.9 22 18.4 10.3 18.4"/>
	<path fill="white" d="M23.1,15.4H13.2V12.7H30.1V0H0V27.9H18.6l.3.3v6.7l-.3.3H13.5l-.3-.3V29.8H0v9.9L9.1,48h14l9.1-8.3V23.6Zm8.4,23.9-8.7,8H9.3L.7,39.4V30.5H12.5v4.7l.7.8h5.7l.7-.8V27.9l-.7-.8H.7V.7H29.4V12H12.5v4.2H22.9l8.6,7.7Z"/>
</svg>