<svg xmlns="http://www.w3.org/2000/svg" viewBox="0 0 32.2 48">
	<path fill="white" d="M18.9,36l.8-.8h-.1V30l-.7-.7H12.5v5.9l.7.8Zm-5.7-6.1h5.5l.3.4v4.6l-.4.3H13.5l-.3-.3Z"/>
	<path fill="white" d="M10.2,3,3,9.7V38.3L10.2,45H21.9l7.3-6.7V27l-7.3-6.5H10.2V11.9l2.1-2.1h7.5l2.1,2.1v3.4h7.3V9.7L21.9,3Zm9.7,24,2,2v7.1l-2.1,2.1H12.3l-2.1-2.1V27Z"/>
	<path fill="white" d="M32.2,8.3,23.1,0H9.1L0,8.3V39.7L9.1,48h14l9.1-8.3v-14l-8.3-7.5h8.3Zm-.8,9.2H19.6V12.8l-.7-.8H13.2l-.7.8v5.4H22.9L31.5,26V39.3l-8.7,8H9.3L.7,39.4V8.7L9.3.8H22.8l8.6,7.9ZM19,13v4.5H13.3V13l.3-.3h5.1Z"/>
</svg>