<?xml version="1.0" standalone="no"?>
<!DOCTYPE svg PUBLIC "-//W3C//DTD SVG 1.1//EN" "http://www.w3.org/Graphics/SVG/1.1/DTD/svg11.dtd" >
<svg>
<metadata>
Created by FontForge 20090914 at Fri May 26 16:12:01 2017
 By www-data
(c) 1997-2012 Typodermic Fonts Inc. See attached license agreement. If agreement is missing visit typodermicfonts.com for more info. This font is part of the Larabie Fonts collection from Typodermic Fonts.
</metadata>
<defs>
<font id="Droid-Regular" horiz-adv-x="261" >
  <font-face 
    font-family="Droid"
    font-weight="400"
    font-stretch="normal"
    units-per-em="1000"
    panose-1="1 0 4 0 0 0 0 0 0 0"
    ascent="824"
    descent="-176"
    x-height="859"
    cap-height="859"
    bbox="-70 -176.001 578 1024"
    underline-thickness="20"
    underline-position="-123"
    unicode-range="U+0017-U+E005"
  />
<missing-glyph horiz-adv-x="474" 
d="M135 -63c-67.333 0 -101 29.333 -101 88v745c0 59.333 33.667 89 101 89h203c68.667 0 103 -29.667 103 -89v-745c0 -58.667 -34.333 -88 -103 -88h-203zM215 278c4 13.333 9.16699 26.501 15.5 39.501s12.833 25.333 19.5 37s13.167 22.334 19.5 32.001l15.5 23.5
c8 12 16.333 29 25 51s17.167 45 25.5 69s15.666 47 21.999 69l14.5 50c15.333 59.333 23 95.666 23 108.999c0 19.333 -9 36.166 -27 50.499s-42 21.5 -72 21.5c-36 0 -59 -20 -69 -60l-55 -201l67 -19l57 208c3.33301 13.333 9 20 17 20c10 0 15 -5.33301 15 -16
c0 -2.66699 -0.666992 -6.66699 -2 -12l-24 -88c-16.667 -60.667 -32 -110.334 -46 -149.001s-27.667 -66.667 -41 -84c-17.333 -22.667 -31.166 -44.667 -41.499 -66s-17.833 -40.666 -22.5 -57.999l-51 -191l66 -17zM154 57.001l-66 17l-22 -80l66 -18z" />
    <glyph glyph-name="copyright" unicode="&#x28;C&#x29;" horiz-adv-x="600" 
d="M300 -12c-38 0 -74 6 -108 18s-63.5 34.167 -88.5 66.5s-44.833 77 -59.5 134s-22 130.833 -22 221.5s7.33301 164.834 22 222.501s34.5 102.834 59.5 135.501s54.5 55.167 88.5 67.5s70 18.5 108 18.5s74 -6.16699 108 -18.5s63.5 -34.833 88.5 -67.5
s44.833 -77.834 59.5 -135.501s22 -131.834 22 -222.501s-7.33301 -164.5 -22 -221.5s-34.5 -101.667 -59.5 -134s-54.5 -54.5 -88.5 -66.5s-70 -18 -108 -18zM300 36c32 0 62 5.33301 90 16s52.5 30.5 73.5 59.5s37.667 68.833 50 119.5s18.5 116 18.5 196
s-6.16699 145.667 -18.5 197s-29 91.5 -50 120.5s-45.5 49 -73.5 60s-58 16.5 -90 16.5c-31.333 0 -60.833 -5.5 -88.5 -16.5s-52 -31 -73 -60s-37.667 -69.167 -50 -120.5s-18.5 -117 -18.5 -197s6.16699 -145.333 18.5 -196s29 -90.5 50 -119.5s45.333 -48.833 73 -59.5
s57.167 -16 88.5 -16zM315 398h53v-211c0 -46.667 -23.333 -70 -70 -70s-70 23.333 -70 70v482c0 48 23.333 72 70 72s70 -24 70 -72v-183h-53v190c0 12.667 -5.66699 19 -17 19c-10.667 0 -16 -6.33301 -16 -19v-490c0 -14 5.33301 -21 16 -21c11.333 0 17 7 17 21v212z
" />
    <glyph glyph-name="registered" unicode="&#x28;R&#x29;" horiz-adv-x="600" 
d="M300 -12c-38 0 -74 6 -108 18s-63.5 34.167 -88.5 66.5s-44.833 77 -59.5 134s-22 130.833 -22 221.5s7.33301 164.834 22 222.501s34.5 102.834 59.5 135.501s54.5 55.167 88.5 67.5s70 18.5 108 18.5s74 -6.16699 108 -18.5s63.5 -34.833 88.5 -67.5
s44.833 -77.834 59.5 -135.501s22 -131.834 22 -222.501s-7.33301 -164.5 -22 -221.5s-34.5 -101.667 -59.5 -134s-54.5 -54.5 -88.5 -66.5s-70 -18 -108 -18zM300 36c32 0 62 5.33301 90 16s52.5 30.5 73.5 59.5s37.667 68.833 50 119.5s18.5 116 18.5 196
s-6.16699 145.667 -18.5 197s-29 91.5 -50 120.5s-45.5 49 -73.5 60s-58 16.5 -90 16.5c-31.333 0 -60.833 -5.5 -88.5 -16.5s-52 -31 -73 -60s-37.667 -69.167 -50 -120.5s-18.5 -117 -18.5 -197s6.16699 -145.333 18.5 -196s29 -90.5 50 -119.5s45.333 -48.833 73 -59.5
s57.167 -16 88.5 -16zM324 117c-4.66699 11.333 -7 35 -7 71v207c0 16 -11 24 -33 24v-302h-55v623h69c50 0 75 -23 75 -69v-164c0 -36.667 -18.333 -58.334 -55 -65.001c19.333 -2 33.333 -7.16699 42 -15.5s13 -21.166 13 -38.499v-202c0 -31.333 3.33301 -54.333 10 -69
h-59zM317 672c0 16.667 -7 25 -21 25h-12v-231h12c14 0 21 8.33301 21 25v181z" />
    <glyph glyph-name="uni2117" unicode="&#x28;P&#x29;" horiz-adv-x="600" 
d="M300 -12c-38 0 -74 6 -108 18s-63.5 34.167 -88.5 66.5s-44.833 77 -59.5 134s-22 130.833 -22 221.5s7.33301 164.834 22 222.501s34.5 102.834 59.5 135.501s54.5 55.167 88.5 67.5s70 18.5 108 18.5s74 -6.16699 108 -18.5s63.5 -34.833 88.5 -67.5
s44.833 -77.834 59.5 -135.501s22 -131.834 22 -222.501s-7.33301 -164.5 -22 -221.5s-34.5 -101.667 -59.5 -134s-54.5 -54.5 -88.5 -66.5s-70 -18 -108 -18zM300 36c32 0 62 5.33301 90 16s52.5 30.5 73.5 59.5s37.667 68.833 50 119.5s18.5 116 18.5 196
s-6.16699 145.667 -18.5 197s-29 91.5 -50 120.5s-45.5 49 -73.5 60s-58 16.5 -90 16.5c-31.333 0 -60.833 -5.5 -88.5 -16.5s-52 -31 -73 -60s-37.667 -69.167 -50 -120.5s-18.5 -117 -18.5 -197s6.16699 -145.333 18.5 -196s29 -90.5 50 -119.5s45.333 -48.833 73 -59.5
s57.167 -16 88.5 -16zM241 117v623.001h66c52.667 0 79 -23 79 -69v-218c0 -24.667 -6.33301 -42.334 -19 -53.001s-36 -16 -70 -16v-267h-56zM329 671.001c0 17.333 -7 26 -21 26h-11v-268h11c14 0 21 8 21 24v218z" />
    <glyph glyph-name=".notdef" horiz-adv-x="474" 
d="M135 -63c-67.333 0 -101 29.333 -101 88v745c0 59.333 33.667 89 101 89h203c68.667 0 103 -29.667 103 -89v-745c0 -58.667 -34.333 -88 -103 -88h-203zM215 278c4 13.333 9.16699 26.501 15.5 39.501s12.833 25.333 19.5 37s13.167 22.334 19.5 32.001l15.5 23.5
c8 12 16.333 29 25 51s17.167 45 25.5 69s15.666 47 21.999 69l14.5 50c15.333 59.333 23 95.666 23 108.999c0 19.333 -9 36.166 -27 50.499s-42 21.5 -72 21.5c-36 0 -59 -20 -69 -60l-55 -201l67 -19l57 208c3.33301 13.333 9 20 17 20c10 0 15 -5.33301 15 -16
c0 -2.66699 -0.666992 -6.66699 -2 -12l-24 -88c-16.667 -60.667 -32 -110.334 -46 -149.001s-27.667 -66.667 -41 -84c-17.333 -22.667 -31.166 -44.667 -41.499 -66s-17.833 -40.666 -22.5 -57.999l-51 -191l66 -17zM154 57.001l-66 17l-22 -80l66 -18z" />
    <glyph glyph-name="uni0017" horiz-adv-x="98" 
 />
    <glyph glyph-name="space" unicode=" " horiz-adv-x="98" 
 />
    <glyph glyph-name="exclam" unicode="!" horiz-adv-x="176" 
d="M50 150v709h75v-709h-75zM50 0v84h75v-84h-75z" />
    <glyph glyph-name="quotedbl" unicode="&#x22;" horiz-adv-x="229" 
d="M140 662v197h57v-197h-57zM31 662v197h58v-197h-58z" />
    <glyph glyph-name="numbersign" unicode="#" horiz-adv-x="299" 
d="M184 0v277h-73v-277h-53v277h-48v59h50v171h-50v58h48v294h58v-294h69v294h58v-293h44v-59h-47v-171h47v-59h-49v-277h-54zM187 507h-74v-172h74v172z" />
    <glyph glyph-name="dollar" unicode="$" horiz-adv-x="242" 
d="M136 0v125h-15v-125h-32v128c-41.333 7.33301 -62 29 -62 65v126h78v-110c0 -12.667 7.33301 -19 22 -19c15.333 0 23 6.33301 23 19v44c0 9.33301 -0.833008 18.666 -2.5 27.999s-5.5 22.333 -11.5 39l-84 215c-8.66699 24.667 -15 44.834 -19 60.501s-6 30.167 -6 43.5
v28c0 35.333 20.667 57 62 65v127h32v-124h15v124h32v-128c39.333 -8 59 -29.333 59 -64v-115h-77v103c0 11.333 -7.66699 17 -23 17c-14.667 0 -22 -5 -22 -15v-33c0 -8.66699 1 -17.667 3 -27s6.66699 -23.333 14 -42l85 -226c5.33301 -16 10 -30.667 14 -44
s6 -28.333 6 -45v-47c0 -35.333 -19.667 -57 -59 -65v-128h-32z" />
    <glyph glyph-name="percent" unicode="%" horiz-adv-x="392" 
d="M20 783c0 59.333 25.667 89 77 89c50.667 0 76 -29.667 76 -89v-227c0 -59.333 -25.333 -89 -76 -89c-51.333 0 -77 29.667 -77 89v227zM88 0l188 859h37l-188 -859h-37zM218 260c0 60 25.667 90 77 90c50 0 75 -30 75 -90v-182c0 -60 -25 -90 -75 -90
c-51.333 0 -77 30 -77 90v182zM114 801c0 15.333 -5.66699 23 -17 23s-17 -7.33301 -17 -22v-265c0 -16 5.66699 -24 17 -24s17 8 17 24v264zM310 282c0 14 -5.33301 21 -16 21c-11.333 0 -17 -7 -17 -21v-224c0 -15.333 5.66699 -23 17 -23c10.667 0 16 7.66699 16 23v224z
" />
    <glyph glyph-name="ampersand" unicode="&#x26;" horiz-adv-x="295" 
d="M227 0c-10 0 -17.998 2.99902 -23.998 8.99902c-6.66699 -7.33301 -14.5 -12.666 -23.5 -15.999s-21.167 -5 -36.5 -5c-38.667 0 -67.667 11.167 -87 33.5s-29 54.166 -29 95.499v255c0 22.667 2.66699 42.167 8 58.5s16.666 32.833 33.999 49.5
c-18 30.667 -27 59.334 -27 86.001v223c0 31.333 9.16699 53 27.5 65s41.166 18 68.499 18c60 0 90 -27.667 90 -83v-223c0 -33.333 -26 -69 -78 -107l48 -195v176h62v-337c0 -14.667 -2.66699 -29 -8 -43h24v-60h-49zM158.002 788.999
c0 11.333 -1.66797 19.165 -5.00098 23.498s-8.66602 6.5 -15.999 6.5c-14.667 0 -22 -10 -22 -30v-224c0 -5.33301 1.16699 -13.166 3.5 -23.499s4.5 -18.166 6.5 -23.499c22 16 33 31.333 33 46v225zM93.001 396.998l12 -281c1.33301 -26 4.33301 -44 9 -54
s13.667 -15 27 -15c6.66699 0 12.5 0.833008 17.5 2.5s10.167 5.16699 15.5 10.5z" />
    <glyph glyph-name="quotesingle" unicode="'" horiz-adv-x="125" 
d="M31 664v195h58v-195h-58z" />
    <glyph glyph-name="parenleft" unicode="(" horiz-adv-x="190" 
d="M109 -120c-7.33301 14 -14.0049 34.166 -20.0049 60.499s-11.5 56.166 -16.5 89.499s-9.16699 68.5 -12.5 105.5s-6.16602 72.833 -8.49902 107.5s-4.16602 66.667 -5.49902 96s-2 53 -2 71c0 18.667 0.666992 42.667 2 72s3.33301 61.333 6 96
s5.83398 70.334 9.50098 107.001s7.83398 71.5 12.501 104.5s10 62.833 16 89.5s12.333 47.334 19 62.001h64c-7.33301 -15.333 -14.166 -36.5 -20.499 -63.5s-11.833 -57.167 -16.5 -90.5s-8.83398 -68.5 -12.501 -105.5s-6.66699 -72.667 -9 -107s-4 -66 -5 -95
s-1.5 -52.167 -1.5 -69.5s0.5 -40.5 1.5 -69.5s2.66699 -60.833 5 -95.5s5.33301 -70.5 9 -107.5s7.83398 -72.167 12.501 -105.5s10.167 -63.5 16.5 -90.5s13.5 -47.5 21.5 -61.5h-65z" />
    <glyph glyph-name="parenright" unicode=")" horiz-adv-x="190" 
d="M16 -120c8 14 15.1621 34.501 21.4951 61.501s11.833 57.167 16.5 90.5s8.83398 68.5 12.501 105.5s6.66699 72.833 9 107.5s4 66.5 5 95.5s1.5 52.167 1.5 69.5c0 18 -0.5 41.333 -1.5 70s-2.66699 60.167 -5 94.5s-5.33301 70 -9 107s-7.83398 72.167 -12.501 105.5
s-10.167 63.5 -16.5 90.5s-13.166 48.167 -20.499 63.5h64c6.66699 -14.667 13 -35.334 19 -62.001s11.333 -56.5 16 -89.5s8.83398 -67.833 12.501 -104.5s6.83398 -72.334 9.50098 -107.001s4.66699 -66.667 6 -96s2 -53.333 2 -72c0 -18 -0.666992 -41.667 -2 -71
s-3.16602 -61.333 -5.49902 -96s-5.16602 -70.5 -8.49902 -107.5s-7.5 -72.167 -12.5 -105.5s-10.5 -63.166 -16.5 -89.499s-12.667 -46.5 -20 -60.5h-65z" />
    <glyph glyph-name="asterisk" unicode="*" horiz-adv-x="208" 
d="M136 672l-34 50l-36 -51l-40 29l38 51l-58 19l15 46l58 -18l-1 61h50l-1 -61l58 18l15 -46l-58 -19l33 -49z" />
    <glyph glyph-name="plus" unicode="+" horiz-adv-x="317" 
d="M126 259v114h-108v59h108v112h60v-112h109v-59h-109v-114h-60z" />
    <glyph glyph-name="comma" unicode="," horiz-adv-x="125" 
d="M20 -92l24 170h72l-52 -170h-44z" />
    <glyph glyph-name="hyphen" unicode="-" horiz-adv-x="156" 
d="M15 384v56h127v-56h-127z" />
    <glyph glyph-name="period" unicode="." horiz-adv-x="135" 
d="M31 0v82h70v-82h-70z" />
    <glyph glyph-name="slash" unicode="/" horiz-adv-x="255" 
d="M3 0l198 859h51l-200 -859h-49z" />
    <glyph glyph-name="zero" unicode="0" 
d="M30 773c0 66 33.333 99 100 99c67.333 0 101 -33 101 -99v-685c0 -66.667 -33.667 -100 -101 -100c-66.667 0 -100 33.333 -100 100v685zM153 781c0 19.333 -7.66699 29 -23 29c-14.667 0 -22 -9.66699 -22 -29v-697c0 -20.667 7.33301 -31 22 -31
c15.333 0 23 10.333 23 31v697z" />
    <glyph glyph-name="one" unicode="1" horiz-adv-x="173" 
d="M62 0v734h-56v57c35.333 0 59 22.667 71 68h63v-859h-78z" />
    <glyph glyph-name="two" unicode="2" horiz-adv-x="252" 
d="M25 0l0.000976562 36.999c0 4.66699 0.666992 10.5 2 17.5l5.5 27.5c2.33301 11.333 5.5 25.833 9.5 43.5l15 65.5c9.33301 42.667 19.833 86.667 31.5 132s22.5 91.166 32.5 137.499s18.333 92.5 25 138.5s10 91.667 10 137v43c0 19.333 -7.66699 29 -23 29
c-14.667 0 -22 -9.66699 -22 -29v-98h-77v91c0 33.333 7.66699 58.333 23 75s41.666 25 78.999 25c34.667 0 59.5 -6.5 74.5 -19.5s22.5 -38.5 22.5 -76.5v-44c0 -42 -3.16699 -85.833 -9.5 -131.5s-14.5 -92.167 -24.5 -139.5s-21.167 -95 -33.5 -143l-35.5 -143
c-4 -17.333 -8 -35.666 -12 -54.999s-7.33301 -38.666 -10 -57.999h116v-62h-199z" />
    <glyph glyph-name="three" unicode="3" horiz-adv-x="259" 
d="M151 330c0 13.333 -3.5 23 -10.5 29s-17.833 10.667 -32.5 14v60c15.333 3.33301 26.333 9 33 17s10 17.333 10 28v300c0 21.333 -7 32 -21 32c-14.667 0 -22 -10.667 -22 -32v-282h-78v276c0 66.667 33.333 100 100 100c65.333 0 98 -33.333 98 -100v-286
c0 -49.333 -19.333 -76.333 -58 -81c22.667 -3.33301 38 -10 46 -20s12 -26.667 12 -50v-247c0 -33.333 -7.66699 -58.333 -23 -75s-40.333 -25 -75 -25c-66.667 0 -100 33.333 -100 100v247h78v-250c0 -21.333 7.33301 -32 22 -32c14 0 21 10.667 21 32v245z" />
    <glyph glyph-name="four" unicode="4" horiz-adv-x="281" 
d="M150 0v128h-126v731h67v-667h62v667h75v-667h32v-64h-32v-128h-78z" />
    <glyph glyph-name="five" unicode="5" horiz-adv-x="252" 
d="M151 438c0 20 -6.33301 30 -19 30c-6.66699 0 -13.667 -5.66699 -21 -17h-77v408h198v-63h-122v-289c19.333 18.667 40 28 62 28c37.333 0 56 -28.667 56 -86v-364c0 -64.667 -33.333 -97 -100 -97c-65.333 0 -98 33.333 -98 100v311h76v-314
c0 -21.333 7.33301 -32 22 -32c15.333 0 23 10.667 23 32v353z" />
    <glyph glyph-name="six" unicode="6" 
d="M30 772c0 66.667 33.334 99.999 100.001 99.999c67.333 0 101 -33.333 101 -100v-256h-79v263c0 21.333 -7.33301 32 -22 32c-15.333 0 -23 -10.667 -23 -32v-335c18 16 37.333 24 58 24c19.333 0 35.166 -7.16699 47.499 -21.5s18.5 -32.166 18.5 -53.499v-305
c0 -66.667 -33.667 -100 -101 -100c-66.667 0 -100 33.333 -100 100v684zM152.001 371.999c0 20 -7.33301 30 -22 30c-15.333 0 -23 -10 -23 -30v-289c0 -20 7.66699 -30 23 -30c14.667 0 22 10 22 30v289z" />
    <glyph glyph-name="seven" unicode="7" horiz-adv-x="235" 
d="M28 0l120 795h-134v64h210v-65l-113 -794h-83z" />
    <glyph glyph-name="eight" unicode="8" 
d="M30 349c0 42.667 19.333 70.001 58 82.001c-21.333 7.33301 -35.833 16.833 -43.5 28.5s-11.5 29.167 -11.5 52.5v260c0 66.667 32.333 100 97 100c66 0 99 -33.333 99 -100v-258c0 -24.667 -4.83301 -43.334 -14.5 -56.001s-25.167 -21.667 -46.5 -27
c42 -8 63 -34.667 63 -80v-263c0 -66.667 -33.667 -100 -101 -100c-66.667 0 -100 33.333 -100 100v261zM153 780.001c0 20 -7.66699 30 -23 30c-14.667 0 -22 -10 -22 -30v-284c0 -20 7.33301 -30 22 -30c15.333 0 23 10 23 30v284zM153 364.001
c0 20.667 -7.66699 31 -23 31c-14.667 0 -22 -10 -22 -30v-282c0 -20 7.33301 -30 22 -30c15.333 0 23 10.667 23 32v279z" />
    <glyph glyph-name="nine" unicode="9" 
d="M153 377c-16 -16 -34.333 -24 -55 -24c-21.333 0 -38 7.16699 -50 21.5s-18 31.833 -18 52.5v345c0 66.667 33.333 100 100 100c67.333 0 101 -33.333 101 -100v-684c0 -66.667 -33.667 -100 -101 -100c-66.667 0 -100 33.333 -100 100v228h78v-231
c0 -21.333 7.33301 -32 22 -32c15.333 0 23 10.667 23 32v292zM153 776c0 20 -7.66699 30 -23 30c-14.667 0 -22 -10 -22 -30v-325c0 -18.667 7.33301 -28 22 -28c15.333 0 23 9.66699 23 29v324z" />
    <glyph glyph-name="colon" unicode=":" horiz-adv-x="130" 
d="M30 456v81h70v-81h-70zM30 126v83h70v-83h-70z" />
    <glyph glyph-name="semicolon" unicode=";" horiz-adv-x="136" 
d="M39 456v81h69v-81h-69zM18 34l24 172h73l-53 -172h-44z" />
    <glyph glyph-name="less" unicode="&#x3c;" horiz-adv-x="340" 
d="M15 372v56l305 127v-65l-219 -89l219 -91v-62z" />
    <glyph glyph-name="equal" unicode="=" horiz-adv-x="317" 
d="M18 433v59h277v-59h-277zM18 314v58h277v-58h-277z" />
    <glyph glyph-name="greater" unicode="&#x3e;" horiz-adv-x="340" 
d="M15 248v62l219 91l-219 89v65l305 -127v-56z" />
    <glyph glyph-name="question" unicode="?" horiz-adv-x="201" 
d="M64 126l-0.000976562 159.001c0 14.667 0.5 28.167 1.5 40.5s2.66699 25 5 38s5.33301 27.167 9 42.5s8.16699 33 13.5 53c5.33301 20.667 9.5 38.167 12.5 52.5s5.33301 29.666 7 45.999s2.66699 35.833 3 58.5s0.5 53 0.5 91v85c0 16 -5 24 -15 24
c-10.667 0 -16 -8 -16 -24v-210h-70v209c0 54 28.667 81 86 81c17.333 0 31.5 -2 42.5 -6s19.833 -9.66699 26.5 -17s11.167 -16 13.5 -26s3.5 -21 3.5 -33v-89c0 -36 -0.333008 -65.833 -1 -89.5s-1.66699 -44.167 -3 -61.5s-3.33301 -32.833 -6 -46.5
s-6.33398 -28.5 -11.001 -44.5c-7.33301 -24 -13.166 -44.667 -17.499 -62s-7.66602 -32.5 -9.99902 -45.5s-4 -24.833 -5 -35.5s-1.5 -21 -1.5 -31v-159h-68zM63.999 0.000976562v84h68v-84h-68z" />
    <glyph glyph-name="at" unicode="@" horiz-adv-x="324" 
d="M294 -34c0 -13.333 -2 -25.5029 -6 -36.5029s-11 -20.333 -21 -28s-23.5 -13.5 -40.5 -17.5s-38.5 -6 -64.5 -6s-47.5 2 -64.5 6s-30.5 9.83301 -40.5 17.5s-17 17 -21 28s-6 23.5 -6 37.5v709c0 13.333 2 25.333 6 36s11 19.667 21 27s23.5 13 40.5 17s38.5 6 64.5 6
s47.5 -2 64.5 -6s30.5 -9.66699 40.5 -17s17 -16.166 21 -26.499s6 -22.166 6 -35.499v-636h-55l-3 28c-6 -21.333 -22.667 -32 -50 -32c-25.333 0 -38 17.667 -38 53v459c0 37.333 13 56 39 56c24 0 41 -8.66699 51 -26v98c0 9.33301 -6 17.333 -18 24s-32 10 -60 10
s-47.5 -3.33301 -58.5 -10s-16.5 -14.667 -16.5 -24v-710c0 -9.33301 5.5 -17.666 16.5 -24.999s30.5 -11 58.5 -11s48 3.66699 60 11s18 15.333 18 24v30h56v-30zM238 539.997c0 12 -6.33301 18 -19 18c-12 0 -18 -6 -18 -18v-443c0 -12 6 -18 18 -18
c12.667 4 19 11.667 19 23v438z" />
    <glyph glyph-name="A" unicode="A" horiz-adv-x="258" 
d="M153 0c0 3.33301 -0.165039 7.83398 -0.498047 13.501s-0.833008 12.167 -1.5 19.5c-12.667 -26 -30.334 -39 -53.001 -39c-19.333 0 -35.5 5.66699 -48.5 17s-19.5 29.666 -19.5 54.999v315c0 21.333 20 44.666 60 69.999c20 12.667 35 26 45 40s15 28 15 42v265
c0 14.667 -8.33301 22 -25 22s-25 -7.33301 -25 -22v-279h-70v272c0 54 31.667 81 95 81c66 0 99 -27 99 -81v-766c0 -4.66699 0.166992 -9.16699 0.5 -13.5s1.16602 -8.16602 2.49902 -11.499h-74zM150.002 440.001l-27 -18c-6.66699 -4.66699 -11.667 -9 -15 -13
s-5.5 -8 -6.5 -12s-1.5 -8.66699 -1.5 -14v-309c0 -15.333 8.33301 -23 25 -23c8.66699 0 15 2.5 19 7.5s6 11.167 6 18.5v363z" />
    <glyph glyph-name="B" unicode="B" horiz-adv-x="263" 
d="M31 0v859h92c72.667 0 109 -31.333 109 -94v-262c0 -43.333 -25.667 -69.333 -77 -78v-3c51.333 -6 77 -30.333 77 -73v-255c0 -62.667 -36.333 -94 -109 -94h-92zM153 766c0 22.667 -9.33301 34 -28 34h-17v-345h17c18.667 0 28 11.333 28 34v277zM153 359
c0 22 -9.33301 33 -28 33h-17v-328h17c18.667 0 28 11.333 28 34v261z" />
    <glyph glyph-name="C" unicode="C" horiz-adv-x="260" 
d="M152 384h77v-296c0 -66.667 -33 -100 -99 -100c-66.667 0 -100 33.333 -100 100v684c0 66.667 33.333 100 100 100c66 0 99 -33.333 99 -100v-262h-77v268c0 20.667 -7.33301 31 -22 31s-22 -10.333 -22 -31v-693c0 -21.333 7.33301 -32 22 -32s22 10.667 22 32v299z" />
    <glyph glyph-name="D" unicode="D" horiz-adv-x="263" 
d="M31 0v859h92c72.667 0 109 -31.333 109 -94v-671c0 -62.667 -36.333 -94 -109 -94h-92zM153 766c0 22.667 -9.33301 34 -28 34h-17v-736h17c18.667 0 28 11.333 28 34v668z" />
    <glyph glyph-name="E" unicode="E" horiz-adv-x="265" 
d="M156 365h78v-297c0 -25.333 -9.16699 -45 -27.5 -59s-42.833 -21 -73.5 -21c-68.667 0 -103 30.333 -103 91v708c0 27.333 8.5 48.333 25.5 63s42.5 22 76.5 22c32 0 57 -7 75 -21s27 -32.667 27 -56v-393h-126v-334c0 -14 8.33301 -21 25 -21c15.333 0 23 7 23 21v297z
M156 794c0 14.667 -7.66699 22 -23 22c-16.667 0 -25 -7.33301 -25 -22v-339h48v339z" />
    <glyph glyph-name="F" unicode="F" horiz-adv-x="203" 
d="M31 0v859h168v-70h-91v-317h91v-67h-91v-405h-77z" />
    <glyph glyph-name="G" unicode="G" horiz-adv-x="264" 
d="M155 394c-12.667 -23.333 -36 -35 -70 -35c-36 0 -54 25.333 -54 76v357c0 48.667 17.667 73 53 73c37.333 0 60.333 -15 69 -45l3 39h76v-791c0 -14.667 -2.83301 -27 -8.5 -37s-13 -18.167 -22 -24.5s-19.167 -11 -30.5 -14s-22.333 -4.5 -33 -4.5
c-38.667 0 -66.167 6.66699 -82.5 20s-24.5 33.333 -24.5 60v254h74v-256c0 -15.333 8.33301 -23 25 -23s25 7.66699 25 23v328zM155 776c0 15.333 -8.33301 26 -25 32c-16.667 0 -25 -8 -25 -24v-337c0 -16 8.33301 -24 25 -24s25 8 25 24v329z" />
    <glyph glyph-name="H" unicode="H" 
d="M152 0v384h-44v-384h-77v859h77v-403h44v403h77v-859h-77z" />
    <glyph glyph-name="I" unicode="I" horiz-adv-x="143" 
d="M31 0v859h77v-859h-77z" />
    <glyph glyph-name="J" unicode="J" horiz-adv-x="141" 
d="M6 0v58h9c16 0 24 7.66699 24 23v778h68v-783c0 -28 -4.66699 -47.667 -14 -59s-27.333 -17 -54 -17h-33z" />
    <glyph glyph-name="K" unicode="K" horiz-adv-x="259" 
d="M165 0l-55 427v-427h-79v859h79v-404l59 404h80l-72 -411l70 -448h-82z" />
    <glyph glyph-name="L" unicode="L" horiz-adv-x="206" 
d="M31 0v859h77v-789h93v-70h-170z" />
    <glyph glyph-name="M" unicode="M" horiz-adv-x="373" 
d="M267 0l-0.000976562 783c0 16 -8.33301 24 -25 24c-13.333 0 -20 -8 -20 -24v-783h-73v783c0 16 -8.33301 24 -25 24c-12.667 0 -19 -8 -19 -24v-783h-74v859h72v-32c8.66699 25.333 30.334 38 65.001 38c28 0 46 -12.333 54 -37c10 24.667 31.333 37 64 37
c36.667 0 55 -23.667 55 -71v-794h-74z" />
    <glyph glyph-name="N" unicode="N" horiz-adv-x="256" 
d="M150 0v783c0 16 -8.33301 24 -25 24c-13.333 0 -20 -8 -20 -24v-783h-74v859h71v-32c12.667 25.333 35 38 67 38c36 0 54 -23.667 54 -71v-794h-73z" />
    <glyph glyph-name="O" unicode="O" 
d="M30 772c0 66.667 33.333 100 100 100c67.333 0 101 -33.333 101 -100v-684c0 -66.667 -33.667 -100 -101 -100c-66.667 0 -100 33.333 -100 100v684zM153 781c0 19.333 -7.66699 29 -23 29c-14.667 0 -22 -9.66699 -22 -29v-698c0 -20 7.33301 -30 22 -30
c15.333 0 23 10.333 23 31v697z" />
    <glyph glyph-name="P" unicode="P" horiz-adv-x="242" 
d="M31 0v859.001h92c72.667 0 109 -31.333 109 -94v-301c0 -34.667 -9 -59.334 -27 -74.001s-50.333 -22 -97 -22v-368h-77zM153 765.001c0 22.667 -9.33301 34 -28 34h-17v-369h17c18.667 0 28 11.333 28 34v301z" />
    <glyph glyph-name="Q" unicode="Q" horiz-adv-x="259" 
d="M190 -59c-13.333 0 -23.1689 3.83301 -29.502 11.5s-9.5 20.167 -9.5 37.5c-9.33301 -1.33301 -16.166 -2 -20.499 -2h-8.5c-62.667 0 -94 33.333 -94 100v684c0 66.667 33.333 100 100 100c67.333 0 101 -33.333 101 -100v-684c0 -22 -3.16699 -39.833 -9.5 -53.5
s-16.166 -24.5 -29.499 -32.5h44v-61h-44zM151.997 780c0 19.333 -8 29 -24 29c-14 0 -21 -9.66699 -21 -29v-697c0 -20 7 -30 21 -30c16 0 24 10.333 24 31v696z" />
    <glyph glyph-name="R" unicode="R" 
d="M164 0c-7.33301 14.667 -11 47 -11 97v287c0 21.333 -15 32 -45 32v-416h-77v859h96c34 0 60 -7.66699 78 -23s27 -39 27 -71v-228c0 -49.333 -25.667 -79 -77 -89c51.333 -4 77 -28.667 77 -74v-280c0 -44.667 4 -76 12 -94h-80zM153 766c0 22 -9.33301 33 -28 33h-17
v-319h17c18.667 0 28 11.667 28 35v251z" />
    <glyph glyph-name="S" unicode="S" horiz-adv-x="256" 
d="M227 88c0 -66.667 -33.3311 -100.001 -99.998 -100.001s-100 33.333 -100 100v181h78v-184c0 -21.333 7.33301 -32 22 -32c15.333 0 23 10.667 23 32v73c0 16 -0.666992 32.667 -2 50s-5.33301 39.666 -12 66.999c-12.667 54 -27.334 104.833 -44.001 152.5
s-31.334 97.834 -44.001 150.501c-9.33301 36 -15.166 65.833 -17.499 89.5s-3.5 45.167 -3.5 64.5v40c0 66.667 33.333 100 100 100s100 -33.333 100 -100v-166h-77v172c0 21.333 -7.66699 32 -23 32c-14.667 0 -22 -8.66699 -22 -26v-56
c0 -13.333 0.666992 -29.166 2 -47.499s5.66602 -42.5 12.999 -72.5c6.66699 -27.333 14.167 -54 22.5 -80l25 -77.5c8.33301 -25.667 16.333 -51.5 24 -77.5s14.5 -52.667 20.5 -80c10 -48 15 -93.667 15 -137v-68z" />
    <glyph glyph-name="T" unicode="T" horiz-adv-x="233" 
d="M78 0v792h-68v67h212v-67h-67v-792h-77z" />
    <glyph glyph-name="U" unicode="U" horiz-adv-x="255" 
d="M152 859h77v-771c0 -66.667 -33.667 -100 -101 -100c-66.667 0 -100 33.333 -100 100v771h79v-774c0 -21.333 7 -32 21 -32c16 0 24 10.667 24 32v774z" />
    <glyph glyph-name="V" unicode="V" horiz-adv-x="257" 
d="M74 0l-62 859h80l39 -745l38 745h78l-61 -859h-112z" />
    <glyph glyph-name="W" unicode="W" horiz-adv-x="440" 
d="M269 0l-47 687l-45 -687h-111l-50 859h81l26 -745l50 745h102l50 -745l26 745h77l-47 -859h-112z" />
    <glyph glyph-name="X" unicode="X" horiz-adv-x="272" 
d="M173 0l-46 300l-49 -300h-64l83 448l-80 411h93l30 -229l36 229h75l-79 -397l85 -462h-84z" />
    <glyph glyph-name="Y" unicode="Y" horiz-adv-x="267" 
d="M157 377c-7.33301 -8 -15.999 -14 -25.999 -18s-19.667 -6 -29 -6c-21.333 0 -38.666 7.16699 -51.999 21.5s-20 31.833 -20 52.5v432h79v-406c0 -10 2.16699 -17.5 6.5 -22.5s9.16602 -7.5 14.499 -7.5c8 0 14.5 2.5 19.5 7.5s7.5 12.5 7.5 22.5v406h78v-771
c0 -66.667 -35 -100 -105 -100c-66.667 0 -100 33.333 -100 100v228h79v-231c0 -10.667 2.16699 -18.667 6.5 -24s10.166 -8 17.499 -8c16 0 24 10.667 24 32v292z" />
    <glyph glyph-name="Z" unicode="Z" horiz-adv-x="201" 
d="M16 0v42l89 750h-89v67h171v-50l-87 -742h90v-67h-174z" />
    <glyph glyph-name="bracketleft" unicode="[" horiz-adv-x="190" 
d="M55 -65v991h126v-54h-59v-884h59v-53h-126z" />
    <glyph glyph-name="backslash" unicode="\" horiz-adv-x="197" 
d="M143 0l-140 859h50l139 -859h-49z" />
    <glyph glyph-name="bracketright" unicode="]" horiz-adv-x="190" 
d="M135 -65h-127v53h60v884h-60v54h127v-991z" />
    <glyph glyph-name="asciicircum" unicode="^" horiz-adv-x="291" 
d="M240 514l-96 286l-97 -286h-47l119 345h51l120 -345h-50z" />
    <glyph glyph-name="underscore" unicode="_" horiz-adv-x="358" 
d="M0 -122v60h360v-60h-360z" />
    <glyph glyph-name="grave" unicode="`" horiz-adv-x="210" 
d="M99 903l-50 121h86l25 -121h-61z" />
    <glyph glyph-name="a" unicode="a" horiz-adv-x="258" 
d="M153 0c0 3.33301 -0.165039 7.83398 -0.498047 13.501s-0.833008 12.167 -1.5 19.5c-12.667 -26 -30.334 -39 -53.001 -39c-19.333 0 -35.5 5.66699 -48.5 17s-19.5 29.666 -19.5 54.999v315c0 21.333 20 44.666 60 69.999c20 12.667 35 26 45 40s15 28 15 42v265
c0 14.667 -8.33301 22 -25 22s-25 -7.33301 -25 -22v-279h-70v272c0 54 31.667 81 95 81c66 0 99 -27 99 -81v-766c0 -4.66699 0.166992 -9.16699 0.5 -13.5s1.16602 -8.16602 2.49902 -11.499h-74zM150.002 440.001l-27 -18c-6.66699 -4.66699 -11.667 -9 -15 -13
s-5.5 -8 -6.5 -12s-1.5 -8.66699 -1.5 -14v-309c0 -15.333 8.33301 -23 25 -23c8.66699 0 15 2.5 19 7.5s6 11.167 6 18.5v363z" />
    <glyph glyph-name="b" unicode="b" horiz-adv-x="263" 
d="M31 0v859h92c72.667 0 109 -31.333 109 -94v-262c0 -43.333 -25.667 -69.333 -77 -78v-3c51.333 -6 77 -30.333 77 -73v-255c0 -62.667 -36.333 -94 -109 -94h-92zM153 766c0 22.667 -9.33301 34 -28 34h-17v-345h17c18.667 0 28 11.333 28 34v277zM153 359
c0 22 -9.33301 33 -28 33h-17v-328h17c18.667 0 28 11.333 28 34v261z" />
    <glyph glyph-name="c" unicode="c" horiz-adv-x="260" 
d="M152 384h77v-296c0 -66.667 -33 -100 -99 -100c-66.667 0 -100 33.333 -100 100v684c0 66.667 33.333 100 100 100c66 0 99 -33.333 99 -100v-262h-77v268c0 20.667 -7.33301 31 -22 31s-22 -10.333 -22 -31v-693c0 -21.333 7.33301 -32 22 -32s22 10.667 22 32v299z" />
    <glyph glyph-name="d" unicode="d" horiz-adv-x="263" 
d="M31 0v859h92c72.667 0 109 -31.333 109 -94v-671c0 -62.667 -36.333 -94 -109 -94h-92zM153 766c0 22.667 -9.33301 34 -28 34h-17v-736h17c18.667 0 28 11.333 28 34v668z" />
    <glyph glyph-name="e" unicode="e" horiz-adv-x="265" 
d="M156 365h78v-297c0 -25.333 -9.16699 -45 -27.5 -59s-42.833 -21 -73.5 -21c-68.667 0 -103 30.333 -103 91v708c0 27.333 8.5 48.333 25.5 63s42.5 22 76.5 22c32 0 57 -7 75 -21s27 -32.667 27 -56v-393h-126v-334c0 -14 8.33301 -21 25 -21c15.333 0 23 7 23 21v297z
M156 794c0 14.667 -7.66699 22 -23 22c-16.667 0 -25 -7.33301 -25 -22v-339h48v339z" />
    <glyph glyph-name="f" unicode="f" horiz-adv-x="203" 
d="M31 0v859h168v-70h-91v-317h91v-67h-91v-405h-77z" />
    <glyph glyph-name="g" unicode="g" horiz-adv-x="264" 
d="M155 394c-12.667 -23.333 -36 -35 -70 -35c-36 0 -54 25.333 -54 76v357c0 48.667 17.667 73 53 73c37.333 0 60.333 -15 69 -45l3 39h76v-791c0 -14.667 -2.83301 -27 -8.5 -37s-13 -18.167 -22 -24.5s-19.167 -11 -30.5 -14s-22.333 -4.5 -33 -4.5
c-38.667 0 -66.167 6.66699 -82.5 20s-24.5 33.333 -24.5 60v254h74v-256c0 -15.333 8.33301 -23 25 -23s25 7.66699 25 23v328zM155 776c0 15.333 -8.33301 26 -25 32c-16.667 0 -25 -8 -25 -24v-337c0 -16 8.33301 -24 25 -24s25 8 25 24v329z" />
    <glyph glyph-name="h" unicode="h" 
d="M152 0v384h-44v-384h-77v859h77v-403h44v403h77v-859h-77z" />
    <glyph glyph-name="i" unicode="i" horiz-adv-x="143" 
d="M31 0v859h77v-859h-77z" />
    <glyph glyph-name="j" unicode="j" horiz-adv-x="141" 
d="M6 0v58h9c16 0 24 7.66699 24 23v778h68v-783c0 -28 -4.66699 -47.667 -14 -59s-27.333 -17 -54 -17h-33z" />
    <glyph glyph-name="k" unicode="k" horiz-adv-x="259" 
d="M165 0l-55 427v-427h-79v859h79v-404l59 404h80l-72 -411l70 -448h-82z" />
    <glyph glyph-name="l" unicode="l" horiz-adv-x="206" 
d="M31 0v859h77v-789h93v-70h-170z" />
    <glyph glyph-name="m" unicode="m" horiz-adv-x="373" 
d="M267 0l-0.000976562 783c0 16 -8.33301 24 -25 24c-13.333 0 -20 -8 -20 -24v-783h-73v783c0 16 -8.33301 24 -25 24c-12.667 0 -19 -8 -19 -24v-783h-74v859h72v-32c8.66699 25.333 30.334 38 65.001 38c28 0 46 -12.333 54 -37c10 24.667 31.333 37 64 37
c36.667 0 55 -23.667 55 -71v-794h-74z" />
    <glyph glyph-name="n" unicode="n" horiz-adv-x="256" 
d="M150 0v783c0 16 -8.33301 24 -25 24c-13.333 0 -20 -8 -20 -24v-783h-74v859h71v-32c12.667 25.333 35 38 67 38c36 0 54 -23.667 54 -71v-794h-73z" />
    <glyph glyph-name="o" unicode="o" 
d="M30 772c0 66.667 33.333 100 100 100c67.333 0 101 -33.333 101 -100v-684c0 -66.667 -33.667 -100 -101 -100c-66.667 0 -100 33.333 -100 100v684zM153 781c0 19.333 -7.66699 29 -23 29c-14.667 0 -22 -9.66699 -22 -29v-698c0 -20 7.33301 -30 22 -30
c15.333 0 23 10.333 23 31v697z" />
    <glyph glyph-name="p" unicode="p" horiz-adv-x="242" 
d="M31 0v859.001h92c72.667 0 109 -31.333 109 -94v-301c0 -34.667 -9 -59.334 -27 -74.001s-50.333 -22 -97 -22v-368h-77zM153 765.001c0 22.667 -9.33301 34 -28 34h-17v-369h17c18.667 0 28 11.333 28 34v301z" />
    <glyph glyph-name="q" unicode="q" horiz-adv-x="259" 
d="M190 -59c-13.333 0 -23.1689 3.83301 -29.502 11.5s-9.5 20.167 -9.5 37.5c-9.33301 -1.33301 -16.166 -2 -20.499 -2h-8.5c-62.667 0 -94 33.333 -94 100v684c0 66.667 33.333 100 100 100c67.333 0 101 -33.333 101 -100v-684c0 -22 -3.16699 -39.833 -9.5 -53.5
s-16.166 -24.5 -29.499 -32.5h44v-61h-44zM151.997 780c0 19.333 -8 29 -24 29c-14 0 -21 -9.66699 -21 -29v-697c0 -20 7 -30 21 -30c16 0 24 10.333 24 31v696z" />
    <glyph glyph-name="r" unicode="r" 
d="M164 0c-7.33301 14.667 -11 47 -11 97v287c0 21.333 -15 32 -45 32v-416h-77v859h96c34 0 60 -7.66699 78 -23s27 -39 27 -71v-228c0 -49.333 -25.667 -79 -77 -89c51.333 -4 77 -28.667 77 -74v-280c0 -44.667 4 -76 12 -94h-80zM153 766c0 22 -9.33301 33 -28 33h-17
v-319h17c18.667 0 28 11.667 28 35v251z" />
    <glyph glyph-name="s" unicode="s" horiz-adv-x="256" 
d="M227 88c0 -66.667 -33.3311 -100.001 -99.998 -100.001s-100 33.333 -100 100v181h78v-184c0 -21.333 7.33301 -32 22 -32c15.333 0 23 10.667 23 32v73c0 16 -0.666992 32.667 -2 50s-5.33301 39.666 -12 66.999c-12.667 54 -27.334 104.833 -44.001 152.5
s-31.334 97.834 -44.001 150.501c-9.33301 36 -15.166 65.833 -17.499 89.5s-3.5 45.167 -3.5 64.5v40c0 66.667 33.333 100 100 100s100 -33.333 100 -100v-166h-77v172c0 21.333 -7.66699 32 -23 32c-14.667 0 -22 -8.66699 -22 -26v-56
c0 -13.333 0.666992 -29.166 2 -47.499s5.66602 -42.5 12.999 -72.5c6.66699 -27.333 14.167 -54 22.5 -80l25 -77.5c8.33301 -25.667 16.333 -51.5 24 -77.5s14.5 -52.667 20.5 -80c10 -48 15 -93.667 15 -137v-68z" />
    <glyph glyph-name="t" unicode="t" horiz-adv-x="233" 
d="M78 0v792h-68v67h212v-67h-67v-792h-77z" />
    <glyph glyph-name="u" unicode="u" horiz-adv-x="255" 
d="M152 859h77v-771c0 -66.667 -33.667 -100 -101 -100c-66.667 0 -100 33.333 -100 100v771h79v-774c0 -21.333 7 -32 21 -32c16 0 24 10.667 24 32v774z" />
    <glyph glyph-name="v" unicode="v" horiz-adv-x="257" 
d="M74 0l-62 859h80l39 -745l38 745h78l-61 -859h-112z" />
    <glyph glyph-name="w" unicode="w" horiz-adv-x="440" 
d="M269 0l-47 687l-45 -687h-111l-50 859h81l26 -745l50 745h102l50 -745l26 745h77l-47 -859h-112z" />
    <glyph glyph-name="x" unicode="x" horiz-adv-x="272" 
d="M173 0l-46 300l-49 -300h-64l83 448l-80 411h93l30 -229l36 229h75l-79 -397l85 -462h-84z" />
    <glyph glyph-name="y" unicode="y" horiz-adv-x="267" 
d="M157 377c-7.33301 -8 -15.999 -14 -25.999 -18s-19.667 -6 -29 -6c-21.333 0 -38.666 7.16699 -51.999 21.5s-20 31.833 -20 52.5v432h79v-406c0 -10 2.16699 -17.5 6.5 -22.5s9.16602 -7.5 14.499 -7.5c8 0 14.5 2.5 19.5 7.5s7.5 12.5 7.5 22.5v406h78v-771
c0 -66.667 -35 -100 -105 -100c-66.667 0 -100 33.333 -100 100v228h79v-231c0 -10.667 2.16699 -18.667 6.5 -24s10.166 -8 17.499 -8c16 0 24 10.667 24 32v292z" />
    <glyph glyph-name="z" unicode="z" horiz-adv-x="201" 
d="M16 0v42l89 750h-89v67h171v-50l-87 -742h90v-67h-174z" />
    <glyph glyph-name="braceleft" unicode="{" horiz-adv-x="273" 
d="M257 -73c-28 0.666992 -51.167 3.66992 -69.5 9.00293s-32.833 14 -43.5 26s-18.167 27.833 -22.5 47.5s-6.5 44.5 -6.5 74.5c0 55.333 -0.666992 103 -2 143s-5 73 -11 99s-15.333 45.333 -28 58s-30 19 -52 19v59c22 0 39.333 6 52 18s22 30.667 28 56
s9.66699 57.666 11 96.999s2 86.666 2 141.999c0 30 2.16699 54.833 6.5 74.5s11.833 35.667 22.5 48s25.167 21.166 43.5 26.499s41.5 8.33301 69.5 9v-61c-20.667 0 -37.167 -6.5 -49.5 -19.5s-18.5 -35.5 -18.5 -67.5c0 -42.667 -1.16699 -84 -3.5 -124
s-6.5 -76 -12.5 -108s-14.5 -58.667 -25.5 -80s-25.167 -35 -42.5 -41c17.333 -6 31.5 -20 42.5 -42s19.5 -49.333 25.5 -82s10.167 -69.167 12.5 -109.5s3.5 -81.833 3.5 -124.5c0 -31.333 6.16699 -53.5 18.5 -66.5s28.833 -19.5 49.5 -19.5v-61z" />
    <glyph glyph-name="bar" unicode="|" horiz-adv-x="191" 
d="M62 -128v1081h63v-1081h-63z" />
    <glyph glyph-name="braceright" unicode="}" horiz-adv-x="273" 
d="M16 -12c20.667 0 37.167 6.49707 49.5 19.4971s18.5 35.167 18.5 66.5c0 42.667 1.16699 84.167 3.5 124.5s6.5 76.833 12.5 109.5s14.5 60 25.5 82s25.167 36 42.5 42c-17.333 6 -31.5 19.667 -42.5 41s-19.5 48 -25.5 80s-10.167 68 -12.5 108s-3.5 81.333 -3.5 124
c0 32 -6.16699 54.5 -18.5 67.5s-28.833 19.5 -49.5 19.5v61c28 -0.666992 51.167 -3.66699 69.5 -9s32.666 -14.166 42.999 -26.499s17.666 -28.333 21.999 -48s6.5 -44.5 6.5 -74.5c0 -55.333 0.666992 -102.666 2 -141.999s5.16602 -71.666 11.499 -96.999
s15.833 -44 28.5 -56s30 -18 52 -18v-59c-22 0 -39.333 -6.33301 -52 -19s-22.167 -32 -28.5 -58s-10.166 -59 -11.499 -99s-2 -87.667 -2 -143c0 -30 -2.16699 -54.833 -6.5 -74.5s-11.666 -35.5 -21.999 -47.5s-24.666 -20.667 -42.999 -26s-41.5 -8.33301 -69.5 -9v61z
" />
    <glyph glyph-name="asciitilde" unicode="~" horiz-adv-x="363" 
d="M339 498c0 -37.333 -8.49805 -66.166 -25.498 -86.499s-39.167 -30.5 -66.5 -30.5c-6.66699 0 -14.667 0.666992 -24 2s-19 3.66602 -29 6.99902c-10 4 -20 8.66699 -30 14s-19.833 10.333 -29.5 15s-18.667 8.5 -27 11.5s-15.5 4.5 -21.5 4.5
c-10.667 0 -17.834 -3.83301 -21.501 -11.5s-5.5 -21.5 -5.5 -41.5h-35c1.33301 40 9.66602 69.333 24.999 88s38 28 68 28c16.667 0 36 -4 58 -12c10 -4 20 -8.5 30 -13.5s19.5 -9.5 28.5 -13.5s17.333 -7.5 25 -10.5s14.167 -4.5 19.5 -4.5c11.333 0 18.5 3.5 21.5 10.5
s5.16699 21.5 6.5 43.5h33z" />
    <glyph glyph-name="nonbreakingspace" unicode="&#xa0;" horiz-adv-x="98" 
 />
    <glyph glyph-name="exclamdown" unicode="&#xa1;" horiz-adv-x="176" 
d="M50 0v709h75v-709h-75zM50 775v84h75v-84h-75z" />
    <glyph glyph-name="cent" unicode="&#xa2;" horiz-adv-x="242" 
d="M109 0v126c-54.667 5.33301 -82 38 -82 98v412c0 59.333 27.333 92 82 98v125h32v-125c56.667 -4 85 -36.667 85 -98v-126h-77v132c0 20 -7.33301 30 -22 30s-22 -10 -22 -30v-421c0 -20.667 7.33301 -31 22 -31s22 10.333 22 31v163h77v-160
c0 -60.667 -28.333 -93.667 -85 -99v-125h-32z" />
    <glyph glyph-name="sterling" unicode="&#xa3;" horiz-adv-x="290" 
d="M14 0v70h46v339h-44v59h44v304c0 66.667 33 100 99 100s99 -33.333 99 -100v-231h-77v237c0 20.667 -7.33301 31 -22 31c-14 0 -21 -10.333 -21 -31v-310h78v-59h-78v-339h125v-70h-249z" />
    <glyph glyph-name="currency" unicode="&#xa4;" horiz-adv-x="371" 
d="M279 280c-26.667 -20.667 -57.667 -31 -93 -31c-34.667 0 -66 10.333 -94 31l-50 -52l-36 36l52 50c-20.667 26.667 -31 58 -31 94c0 34 10.333 65 31 93l-51 50l36 35l48 -51c13.333 10 28 17.833 44 23.5s33 8.5 51 8.5c17.333 0 34 -2.83301 50 -8.5
s30.667 -13.5 44 -23.5l48 51l36 -35l-50 -50c20.667 -28 31 -59 31 -93c0 -36 -10.333 -67.333 -31 -94l51 -50l-36 -36zM300 408c0 16 -3 31 -9 45s-14 26 -24 36s-22 18 -36 24s-29 9 -45 9s-31 -3 -45 -9s-26.167 -14 -36.5 -24s-18.5 -22 -24.5 -36s-9 -29 -9 -45
s3 -31 9 -45s14.167 -26 24.5 -36s22.5 -18 36.5 -24s29 -9 45 -9s31 3 45 9s26 14 36 24s18 22 24 36s9 29 9 45z" />
    <glyph glyph-name="yen" unicode="&#xa5;" horiz-adv-x="257" 
d="M93 0v262h-73v56h73v49h-73v56h69l-77 436h80l39 -306l38 306h78l-73 -436h68v-56h-72v-49h72v-56h-72v-262h-77z" />
    <glyph glyph-name="brokenbar" unicode="&#xa6;" horiz-adv-x="191" 
d="M62 -128v424h63v-424h-63zM62 543v410h63v-410h-63z" />
    <glyph glyph-name="section" unicode="&#xa7;" horiz-adv-x="256" 
d="M177 18c0 -53.333 -26.333 -79.998 -79 -79.998c-53.333 0 -80 26.667 -80 80v145h62v-147c0 -16.667 6 -25 18 -25s18 8.33301 18 25v58c0 39.333 -5.16699 77.833 -15.5 115.5s-21.5 75.167 -33.5 112.5s-23.167 75.166 -33.5 113.499s-15.5 78.166 -15.5 119.499v31
c0 52 24.667 79 74 81c-5.33301 26 -8.83301 47.5 -10.5 64.5s-2.5 32.833 -2.5 47.5v33c0 53.333 26.333 80 79 80c53.333 0 80 -26.667 80 -80v-133h-61v138c0 16.667 -6.33301 25 -19 25c-11.333 0 -17 -7 -17 -21v-45c0 -36 5 -72.667 15 -110s21.167 -75.333 33.5 -114
s23.5 -77.5 33.5 -116.5s15 -78.167 15 -117.5v-55c0 -50 -23 -76.333 -69 -79c3.33301 -16 5.5 -31.5 6.5 -46.5s1.5 -30.167 1.5 -45.5v-54zM158 215.002c12.667 0 18.999 8.33105 18.999 24.998v59c0 12.667 -0.5 26 -1.5 40s-4.16699 31.667 -9.5 53
c-8.66699 36.667 -18.5 71.334 -29.5 104.001s-21.5 66 -31.5 100c-0.666992 0.666992 -3 1 -7 1c-5.33301 0 -9.66602 -1.66699 -12.999 -5s-5 -8.66602 -5 -15.999v-44c0 -26 2.5 -51.667 7.5 -77s11.333 -51 19 -77s16 -52.5 25 -79.5s17.5 -54.833 25.5 -83.5h1z" />
    <glyph glyph-name="dieresis" unicode="&#xa8;" horiz-adv-x="290" 
d="M166 917v82h69v-82h-69zM53 917v82h70v-82h-70z" />
    <glyph glyph-name="ordfeminine" unicode="&#xaa;" horiz-adv-x="208" 
d="M119 524v17.001c-3.33301 -7.33301 -8.83301 -12.666 -16.5 -15.999s-14.167 -5 -19.5 -5c-14 0 -25.833 4.33301 -35.5 13s-14.5 22.667 -14.5 42v76c0 7.33301 4 15.166 12 23.499s16.667 16.833 26 25.5s18 17.167 26 25.5s12 16.166 12 23.499v46c0 4 -3 6 -9 6
c-6.66699 0 -10 -2 -10 -6v-62h-57v57c0 40 22.333 60 67 60c48 0 72 -20 72 -60v-241c0 -5.33301 0.166992 -9.5 0.5 -12.5s1.5 -7.16699 3.5 -12.5h-57zM109 677.001c-8 -5.33301 -13.167 -9.5 -15.5 -12.5s-3.5 -7.16699 -3.5 -12.5v-72c0 -4.66699 3.33301 -7 10 -7
c6 0 9 2.66699 9 8v96z" />
    <glyph glyph-name="guillemotleft" unicode="&#xab;" horiz-adv-x="266" 
d="M15 386v71l104 74v-58l-59 -52l59 -52v-57zM148 386v71l104 74v-58l-59 -52l59 -52v-57z" />
    <glyph glyph-name="logicalnot" unicode="&#xac;" horiz-adv-x="317" 
d="M235 154v219h-217v59h277v-278h-60z" />
    <glyph glyph-name="macron" unicode="&#xaf;" horiz-adv-x="290" 
d="M33 938v40h223v-40h-223z" />
    <glyph glyph-name="degree" unicode="&#xb0;" horiz-adv-x="213" 
d="M106 662c-32 0 -55.5 9 -70.5 27s-22.5 44 -22.5 78s7.5 60 22.5 78s38.5 27 70.5 27s55.667 -9 71 -27s23 -44 23 -78s-7.66699 -60 -23 -78s-39 -27 -71 -27zM106 701c38 0 57 22.333 57 67c0 44 -19 66 -57 66c-37.333 0 -56 -22 -56 -66c0 -44.667 18.667 -67 56 -67
z" />
    <glyph glyph-name="plusminus" unicode="&#xb1;" horiz-adv-x="317" 
d="M126 259v114h-108v59h108v112h60v-112h109v-59h-109v-114h-60zM20 59v59h277v-59h-277z" />
    <glyph glyph-name="twosuperior" unicode="&#xb2;" horiz-adv-x="183" 
d="M30 449v22c0 2.66699 0.333008 6.16699 1 10.5s1.83398 10 3.50098 17l6 26l8.5 38.5c6 26 12.5 48.667 19.5 68l19.5 54c6 16.667 11 32.834 15 48.501s6 33.167 6 52.5v30c0 11.333 -4.66699 17 -14 17c-8 0 -12 -5.66699 -12 -17v-64h-47v60
c0 19.333 4.5 34.166 13.5 44.499s25.167 15.5 48.5 15.5c21.333 0 36.166 -4 44.499 -12s12.5 -23.333 12.5 -46v-30c0 -23.333 -3 -45.5 -9 -66.5s-13 -43 -21 -66s-16.167 -47.833 -24.5 -74.5s-14.833 -57 -19.5 -91h69v-37h-120z" />
    <glyph glyph-name="threesuperior" unicode="&#xb3;" horiz-adv-x="187" 
d="M106 595c0 8 -1.83301 13.832 -5.5 17.499s-10.167 6.5 -19.5 8.5v36c9.33301 1.33301 15.833 4.5 19.5 9.5s5.5 10.833 5.5 17.5v131c0 12.667 -4.33301 19 -13 19c-8 0 -12 -6.33301 -12 -19v-121h-47v118c0 40 19.667 60 59 60s59 -20 59 -60v-124
c0 -29.333 -11.667 -45.333 -35 -48c14 -2.66699 23.333 -7 28 -13s7 -16 7 -30v-100c0 -19.333 -4.5 -34.166 -13.5 -44.499s-24.167 -15.5 -45.5 -15.5c-39.333 0 -59 20 -59 60v100h47v-101c0 -12.667 4 -19 12 -19c8.66699 0 13 6.33301 13 19v99z" />
    <glyph glyph-name="acute" unicode="&#xb4;" horiz-adv-x="210" 
d="M49 903l25 121h86l-48 -121h-63z" />
    <glyph glyph-name="paragraph" unicode="&#xb6;" horiz-adv-x="298" 
d="M210 -62v861h-39v-861h-56v609c-38.667 0 -65.167 7.33301 -79.5 22s-21.5 39 -21.5 73v123c0 62.667 29.667 94 89 94h162v-921h-55zM115 799h-16c-19.333 0 -29 -11.333 -29 -34v-123c0 -22.667 9.66699 -34 29 -34h16v191z" />
    <glyph glyph-name="periodcentered" unicode="&#xb7;" horiz-adv-x="135" 
d="M31 399v81h70v-81h-70z" />
    <glyph glyph-name="cedilla" unicode="&#xb8;" horiz-adv-x="98" 
d="M12 -176l11 138h65l-30 -138h-46z" />
    <glyph glyph-name="onesuperior" unicode="&#xb9;" horiz-adv-x="135" 
d="M52 449v336h-32v33c20.667 0 34.667 13.667 42 41h38v-410h-48z" />
    <glyph glyph-name="ordmasculine" unicode="&#xba;" horiz-adv-x="210" 
d="M33 777c0 48.667 23.333 73 70 73c48.667 0 73 -24.333 73 -73v-189c0 -47.333 -24.333 -71 -73 -71c-46.667 0 -70 23.667 -70 71v189zM111 784c0 7.33301 -2.66699 11 -8 11c-4 0 -6 -3.66699 -6 -11v-199c0 -7.33301 2 -11 6 -11c5.33301 0 8 4 8 12v198z" />
    <glyph glyph-name="guillemotright" unicode="&#xbb;" horiz-adv-x="266" 
d="M15 312v57l58 52l-58 52v58l104 -74v-71zM148 312v57l58 52l-58 52v58l104 -74v-71z" />
    <glyph glyph-name="onequarter" unicode="&#xbc;" horiz-adv-x="347" 
d="M62 449v336h-32v33c20.667 0 34.667 13.667 42 41h38v-410h-48zM34 0l177 859h47l-177 -859h-47zM251 0v77h-76v333h40v-295h38v295h44v-295h20v-38h-20v-77h-46z" />
    <glyph glyph-name="onehalf" unicode="&#xbd;" horiz-adv-x="326" 
d="M62 449v336h-32v33c20.667 0 34.667 13.667 42 41h38v-410h-48zM34 0l177 859h47l-177 -859h-47zM171 0v22c0 2.66699 0.333008 6.16699 1 10.5s1.83398 10 3.50098 17l6 26l8.5 38.5c6 26 12.5 48.667 19.5 68l19.5 54c6 16.667 11 32.834 15 48.501s6 33.167 6 52.5v30
c0 11.333 -4.66699 17 -14 17c-8 0 -12 -5.66699 -12 -17v-64h-47v60c0 19.333 4.5 34.166 13.5 44.499s25.167 15.5 48.5 15.5c21.333 0 36.166 -4 44.499 -12s12.5 -23.333 12.5 -46v-30c0 -23.333 -3 -45.5 -9 -66.5s-13 -43 -21 -66s-16.167 -47.833 -24.5 -74.5
s-14.833 -57 -19.5 -91h69v-37h-120z" />
    <glyph glyph-name="threequarters" unicode="&#xbe;" horiz-adv-x="374" 
d="M104 595c0 8 -1.83301 13.832 -5.5 17.499s-10.167 6.5 -19.5 8.5v36c9.33301 1.33301 15.833 4.5 19.5 9.5s5.5 10.833 5.5 17.5v131c0 12.667 -4.33301 19 -13 19c-8 0 -12 -6.33301 -12 -19v-121h-47v118c0 40 19.667 60 59 60s59 -20 59 -60v-124
c0 -29.333 -11.667 -45.333 -35 -48c14 -2.66699 23.333 -7 28 -13s7 -16 7 -30v-100c0 -19.333 -4.5 -34.166 -13.5 -44.499s-24.167 -15.5 -45.5 -15.5c-39.333 0 -59 20 -59 60v100h47v-101c0 -12.667 4 -19 12 -19c8.66699 0 13 6.33301 13 19v99zM61 -0.000976562
l177 859h47l-177 -859h-47zM278 -0.000976562v77h-76v333h40v-295h38v295h44v-295h20v-38h-20v-77h-46z" />
    <glyph glyph-name="questiondown" unicode="&#xbf;" horiz-adv-x="201" 
d="M116 277l70.9932 -0.000976562v-209c0 -54 -28.667 -81 -86 -81c-17.333 0 -31.666 2 -42.999 6s-20.166 9.66699 -26.499 17s-10.666 16 -12.999 26s-3.5 21 -3.5 33v89c0 36 0.166992 65.833 0.5 89.5s1.33301 44.167 3 61.5s3.83398 32.833 6.50098 46.5
s6.33398 28.5 11.001 44.5c6.66699 24 12.167 44.667 16.5 62s7.66602 32.5 9.99902 45.5s4 24.833 5 35.5s1.5 21 1.5 31v159h68v-159c0 -14.667 -0.5 -28.167 -1.5 -40.5s-2.66699 -25 -5 -38s-5.33301 -27.167 -9 -42.5s-8.16699 -33 -13.5 -53
c-5.33301 -20.667 -9.66602 -38.167 -12.999 -52.5s-5.66602 -29.666 -6.99902 -45.999s-2.16602 -35.833 -2.49902 -58.5s-0.5 -53 -0.5 -91v-85c0 -16 5.33301 -24 16 -24c10 0 15 8 15 24v210zM68.9932 774.999v84h68v-84h-68z" />
    <glyph glyph-name="Agrave" unicode="&#xc0;" horiz-adv-x="258" 
d="M153 0c0 3.33301 -0.165039 7.83398 -0.498047 13.501s-0.833008 12.167 -1.5 19.5c-12.667 -26 -30.334 -39 -53.001 -39c-19.333 0 -35.5 5.66699 -48.5 17s-19.5 29.666 -19.5 54.999v315c0 21.333 20 44.666 60 69.999c20 12.667 35 26 45 40s15 28 15 42v265
c0 14.667 -8.33301 22 -25 22s-25 -7.33301 -25 -22v-279h-70v272c0 54 31.667 81 95 81c66 0 99 -27 99 -81v-766c0 -4.66699 0.166992 -9.16699 0.5 -13.5s1.16602 -8.16602 2.49902 -11.499h-74zM150.002 440.001l-27 -18c-6.66699 -4.66699 -11.667 -9 -15 -13
s-5.5 -8 -6.5 -12s-1.5 -8.66699 -1.5 -14v-309c0 -15.333 8.33301 -23 25 -23c8.66699 0 15 2.5 19 7.5s6 11.167 6 18.5v363zM99.002 903.001l-50 121h86l25 -121h-61z" />
    <glyph glyph-name="Aacute" unicode="&#xc1;" horiz-adv-x="258" 
d="M153 0c0 3.33301 -0.165039 7.83398 -0.498047 13.501s-0.833008 12.167 -1.5 19.5c-12.667 -26 -30.334 -39 -53.001 -39c-19.333 0 -35.5 5.66699 -48.5 17s-19.5 29.666 -19.5 54.999v315c0 21.333 20 44.666 60 69.999c20 12.667 35 26 45 40s15 28 15 42v265
c0 14.667 -8.33301 22 -25 22s-25 -7.33301 -25 -22v-279h-70v272c0 54 31.667 81 95 81c66 0 99 -27 99 -81v-766c0 -4.66699 0.166992 -9.16699 0.5 -13.5s1.16602 -8.16602 2.49902 -11.499h-74zM150.002 440.001l-27 -18c-6.66699 -4.66699 -11.667 -9 -15 -13
s-5.5 -8 -6.5 -12s-1.5 -8.66699 -1.5 -14v-309c0 -15.333 8.33301 -23 25 -23c8.66699 0 15 2.5 19 7.5s6 11.167 6 18.5v363zM97.002 903.001l25 121h86l-48 -121h-63z" />
    <glyph glyph-name="Acircumflex" unicode="&#xc2;" horiz-adv-x="258" 
d="M153 0c0 3.33301 -0.165039 7.83398 -0.498047 13.501s-0.833008 12.167 -1.5 19.5c-12.667 -26 -30.334 -39 -53.001 -39c-19.333 0 -35.5 5.66699 -48.5 17s-19.5 29.666 -19.5 54.999v315c0 21.333 20 44.666 60 69.999c20 12.667 35 26 45 40s15 28 15 42v265
c0 14.667 -8.33301 22 -25 22s-25 -7.33301 -25 -22v-279h-70v272c0 54 31.667 81 95 81c66 0 99 -27 99 -81v-766c0 -4.66699 0.166992 -9.16699 0.5 -13.5s1.16602 -8.16602 2.49902 -11.499h-74zM150.002 440.001l-27 -18c-6.66699 -4.66699 -11.667 -9 -15 -13
s-5.5 -8 -6.5 -12s-1.5 -8.66699 -1.5 -14v-309c0 -15.333 8.33301 -23 25 -23c8.66699 0 15 2.5 19 7.5s6 11.167 6 18.5v363zM170.002 903.001l-40 68l-40 -68h-45l58 121h55l57 -121h-45z" />
    <glyph glyph-name="Atilde" unicode="&#xc3;" horiz-adv-x="258" 
d="M153 0c0 3.33301 -0.165039 7.83398 -0.498047 13.501s-0.833008 12.167 -1.5 19.5c-12.667 -26 -30.334 -39 -53.001 -39c-19.333 0 -35.5 5.66699 -48.5 17s-19.5 29.666 -19.5 54.999v315c0 21.333 20 44.666 60 69.999c20 12.667 35 26 45 40s15 28 15 42v265
c0 14.667 -8.33301 22 -25 22s-25 -7.33301 -25 -22v-279h-70v272c0 54 31.667 81 95 81c66 0 99 -27 99 -81v-766c0 -4.66699 0.166992 -9.16699 0.5 -13.5s1.16602 -8.16602 2.49902 -11.499h-74zM150.002 440.001l-27 -18c-6.66699 -4.66699 -11.667 -9 -15 -13
s-5.5 -8 -6.5 -12s-1.5 -8.66699 -1.5 -14v-309c0 -15.333 8.33301 -23 25 -23c8.66699 0 15 2.5 19 7.5s6 11.167 6 18.5v363zM231.002 1015c0 -32 -5.50098 -56.499 -16.501 -73.499s-25.167 -25.5 -42.5 -25.5c-4 0 -9 0.5 -15 1.5s-12 3.16699 -18 6.5
s-12.333 7.16602 -19 11.499l-19 12.5c-6 4 -11.667 7.33301 -17 10s-10 4 -14 4c-7.33301 0 -12.166 -3.33301 -14.499 -10s-3.5 -18.334 -3.5 -35.001h-22c0.666992 65.333 20.667 98 60 98c4.66699 0 10.167 -0.833008 16.5 -2.5s12.833 -4.16699 19.5 -7.5
c12.667 -7.33301 25.167 -15.166 37.5 -23.499s21.833 -12.5 28.5 -12.5c7.33301 0 12 3 14 9s3.33301 18.333 4 37h21z" />
    <glyph glyph-name="Adieresis" unicode="&#xc4;" horiz-adv-x="258" 
d="M153 0c0 3.33301 -0.165039 7.83398 -0.498047 13.501s-0.833008 12.167 -1.5 19.5c-12.667 -26 -30.334 -39 -53.001 -39c-19.333 0 -35.5 5.66699 -48.5 17s-19.5 29.666 -19.5 54.999v315c0 21.333 20 44.666 60 69.999c20 12.667 35 26 45 40s15 28 15 42v265
c0 14.667 -8.33301 22 -25 22s-25 -7.33301 -25 -22v-279h-70v272c0 54 31.667 81 95 81c66 0 99 -27 99 -81v-766c0 -4.66699 0.166992 -9.16699 0.5 -13.5s1.16602 -8.16602 2.49902 -11.499h-74zM150.002 440.001l-27 -18c-6.66699 -4.66699 -11.667 -9 -15 -13
s-5.5 -8 -6.5 -12s-1.5 -8.66699 -1.5 -14v-309c0 -15.333 8.33301 -23 25 -23c8.66699 0 15 2.5 19 7.5s6 11.167 6 18.5v363zM151.002 917.001v82h69v-82h-69zM38.002 917.001v82h70v-82h-70z" />
    <glyph glyph-name="Aring" unicode="&#xc5;" horiz-adv-x="258" 
d="M153 0c0 3.33301 -0.165039 7.83398 -0.498047 13.501s-0.833008 12.167 -1.5 19.5c-12.667 -26 -30.334 -39 -53.001 -39c-19.333 0 -35.5 5.66699 -48.5 17s-19.5 29.666 -19.5 54.999v315c0 21.333 20 44.666 60 69.999c20 12.667 35 26 45 40s15 28 15 42v265
c0 14.667 -8.33301 22 -25 22s-25 -7.33301 -25 -22v-279h-70v272c0 54 31.667 81 95 81c66 0 99 -27 99 -81v-766c0 -4.66699 0.166992 -9.16699 0.5 -13.5s1.16602 -8.16602 2.49902 -11.499h-74zM150.002 440.001l-27 -18c-6.66699 -4.66699 -11.667 -9 -15 -13
s-5.5 -8 -6.5 -12s-1.5 -8.66699 -1.5 -14v-309c0 -15.333 8.33301 -23 25 -23c8.66699 0 15 2.5 19 7.5s6 11.167 6 18.5v363zM125.002 888.001c-22 0 -38.334 6 -49.001 18s-16 28.667 -16 50c0 45.333 21.667 68 65 68c44 0 66 -22.667 66 -68
c0 -21.333 -5.66699 -38 -17 -50s-27.666 -18 -48.999 -18zM125.001 914.001c26 0 39 14.333 39 43s-13 43 -39 43c-25.333 0 -38 -14.333 -38 -43s12.667 -43 38 -43z" />
    <glyph glyph-name="AE" unicode="&#xc6;" horiz-adv-x="377" 
d="M267 365l78.001 0.000976562v-297c0 -13.333 -2.66699 -25 -8 -35s-12.166 -18.333 -20.499 -25s-17.833 -11.667 -28.5 -15s-21.334 -5 -32.001 -5c-19.333 0 -34.5 4.33301 -45.5 13s-19.833 21.667 -26.5 39c-7.33301 -17.333 -16.833 -30.333 -28.5 -39
s-30.834 -13 -57.501 -13c-19.333 0 -35.333 7.16699 -48 21.5s-19 31.166 -19 50.499v321c0 10 5.33301 21 16 33s22.667 23.5 36 34.5l38 30c12 9 19.333 15.833 22 20.5v287c0 16 -6 24 -18 24c-16.667 0 -25 -8 -25 -24v-267h-69v259c0 54 31.333 81 94 81h119
c67.333 0 101 -23.333 101 -70v-387h-123v-334c0 -14 7.33301 -21 22 -21c15.333 0 23 7 23 21v297zM267.001 787.001c0 14.667 -7.66699 22 -23 22c-14.667 0 -22 -7.33301 -22 -22v-332h45v332zM143.001 434.001c-28.667 -16.667 -43 -33.667 -43 -51v-315
c0 -15.333 8.33301 -23 25 -23c12 0 18 7.66699 18 23v366z" />
    <glyph glyph-name="Ccedilla" unicode="&#xc7;" horiz-adv-x="260" 
d="M152 384h77v-296c0 -66.667 -33 -100 -99 -100c-66.667 0 -100 33.333 -100 100v684c0 66.667 33.333 100 100 100c66 0 99 -33.333 99 -100v-262h-77v268c0 20.667 -7.33301 31 -22 31s-22 -10.333 -22 -31v-693c0 -21.333 7.33301 -32 22 -32s22 10.667 22 32v299z
M85 -176l11 138h65l-30 -138h-46z" />
    <glyph glyph-name="Egrave" unicode="&#xc8;" horiz-adv-x="265" 
d="M156 365h78v-297c0 -25.333 -9.16699 -45 -27.5 -59s-42.833 -21 -73.5 -21c-68.667 0 -103 30.333 -103 91v708c0 27.333 8.5 48.333 25.5 63s42.5 22 76.5 22c32 0 57 -7 75 -21s27 -32.667 27 -56v-393h-126v-334c0 -14 8.33301 -21 25 -21c15.333 0 23 7 23 21v297z
M156 794c0 14.667 -7.66699 22 -23 22c-16.667 0 -25 -7.33301 -25 -22v-339h48v339zM102 903l-50 121h86l25 -121h-61z" />
    <glyph glyph-name="Eacute" unicode="&#xc9;" horiz-adv-x="265" 
d="M156 365h78v-297c0 -25.333 -9.16699 -45 -27.5 -59s-42.833 -21 -73.5 -21c-68.667 0 -103 30.333 -103 91v708c0 27.333 8.5 48.333 25.5 63s42.5 22 76.5 22c32 0 57 -7 75 -21s27 -32.667 27 -56v-393h-126v-334c0 -14 8.33301 -21 25 -21c15.333 0 23 7 23 21v297z
M156 794c0 14.667 -7.66699 22 -23 22c-16.667 0 -25 -7.33301 -25 -22v-339h48v339zM100 903l25 121h86l-48 -121h-63z" />
    <glyph glyph-name="Ecircumflex" unicode="&#xca;" horiz-adv-x="265" 
d="M156 365h78v-297c0 -25.333 -9.16699 -45 -27.5 -59s-42.833 -21 -73.5 -21c-68.667 0 -103 30.333 -103 91v708c0 27.333 8.5 48.333 25.5 63s42.5 22 76.5 22c32 0 57 -7 75 -21s27 -32.667 27 -56v-393h-126v-334c0 -14 8.33301 -21 25 -21c15.333 0 23 7 23 21v297z
M156 794c0 14.667 -7.66699 22 -23 22c-16.667 0 -25 -7.33301 -25 -22v-339h48v339zM173 903l-40 68l-40 -68h-45l58 121h55l57 -121h-45z" />
    <glyph glyph-name="Edieresis" unicode="&#xcb;" horiz-adv-x="265" 
d="M156 365h78v-297c0 -25.333 -9.16699 -45 -27.5 -59s-42.833 -21 -73.5 -21c-68.667 0 -103 30.333 -103 91v708c0 27.333 8.5 48.333 25.5 63s42.5 22 76.5 22c32 0 57 -7 75 -21s27 -32.667 27 -56v-393h-126v-334c0 -14 8.33301 -21 25 -21c15.333 0 23 7 23 21v297z
M156 794c0 14.667 -7.66699 22 -23 22c-16.667 0 -25 -7.33301 -25 -22v-339h48v339zM155 917v82h69v-82h-69zM42 917v82h70v-82h-70z" />
    <glyph glyph-name="Igrave" unicode="&#xcc;" horiz-adv-x="143" 
d="M31 0v859h77v-859h-77zM42 903l-50 121h86l25 -121h-61z" />
    <glyph glyph-name="Iacute" unicode="&#xcd;" horiz-adv-x="143" 
d="M31 0v859h77v-859h-77zM41 903l25 121h86l-48 -121h-63z" />
    <glyph glyph-name="Icircumflex" unicode="&#xce;" horiz-adv-x="143" 
d="M31 0v859h77v-859h-77zM112 903l-40 68l-40 -68h-45l58 121h55l57 -121h-45z" />
    <glyph glyph-name="Idieresis" unicode="&#xcf;" horiz-adv-x="143" 
d="M31 0v859h77v-859h-77zM94 917v82h69v-82h-69zM-19 917v82h70v-82h-70z" />
    <glyph glyph-name="Eth" unicode="&#xd0;" horiz-adv-x="256" 
d="M24 0v402h-24v50h24v407h92c72 0 108 -31.333 108 -94v-671c0 -62.667 -36 -94 -108 -94h-92zM148 766c0 22.667 -10.333 34 -31 34h-16v-348h23v-50h-23v-338h16c20.667 0 31 11.333 31 34v668z" />
    <glyph glyph-name="Ntilde" unicode="&#xd1;" horiz-adv-x="256" 
d="M150 0v783c0 16 -8.33301 24 -25 24c-13.333 0 -20 -8 -20 -24v-783h-74v859h71v-32c12.667 25.333 35 38 67 38c36 0 54 -23.667 54 -71v-794h-73zM229 1015c0 -32 -5.50098 -56.499 -16.501 -73.499s-25.167 -25.5 -42.5 -25.5c-4 0 -9 0.5 -15 1.5
s-12 3.16699 -18 6.5s-12.333 7.16602 -19 11.499l-19 12.5c-6 4 -11.667 7.33301 -17 10s-10 4 -14 4c-7.33301 0 -12.166 -3.33301 -14.499 -10s-3.5 -18.334 -3.5 -35.001h-22c0.666992 65.333 20.667 98 60 98c4.66699 0 10.167 -0.833008 16.5 -2.5
s12.833 -4.16699 19.5 -7.5c12.667 -7.33301 25.167 -15.166 37.5 -23.499s21.833 -12.5 28.5 -12.5c7.33301 0 12 3 14 9s3.33301 18.333 4 37h21z" />
    <glyph glyph-name="Ograve" unicode="&#xd2;" 
d="M30 772c0 66.667 33.333 100 100 100c67.333 0 101 -33.333 101 -100v-684c0 -66.667 -33.667 -100 -101 -100c-66.667 0 -100 33.333 -100 100v684zM153 781c0 19.333 -7.66699 29 -23 29c-14.667 0 -22 -9.66699 -22 -29v-698c0 -20 7.33301 -30 22 -30
c15.333 0 23 10.333 23 31v697zM100 903l-50 121h86l25 -121h-61z" />
    <glyph glyph-name="Oacute" unicode="&#xd3;" 
d="M30 772c0 66.667 33.333 100 100 100c67.333 0 101 -33.333 101 -100v-684c0 -66.667 -33.667 -100 -101 -100c-66.667 0 -100 33.333 -100 100v684zM153 781c0 19.333 -7.66699 29 -23 29c-14.667 0 -22 -9.66699 -22 -29v-698c0 -20 7.33301 -30 22 -30
c15.333 0 23 10.333 23 31v697zM98 903l25 121h86l-48 -121h-63z" />
    <glyph glyph-name="Ocircumflex" unicode="&#xd4;" 
d="M30 772c0 66.667 33.333 100 100 100c67.333 0 101 -33.333 101 -100v-684c0 -66.667 -33.667 -100 -101 -100c-66.667 0 -100 33.333 -100 100v684zM153 781c0 19.333 -7.66699 29 -23 29c-14.667 0 -22 -9.66699 -22 -29v-698c0 -20 7.33301 -30 22 -30
c15.333 0 23 10.333 23 31v697zM172 903l-40 68l-40 -68h-45l58 121h55l57 -121h-45z" />
    <glyph glyph-name="Otilde" unicode="&#xd5;" 
d="M30 772c0 66.667 33.333 100 100 100c67.333 0 101 -33.333 101 -100v-684c0 -66.667 -33.667 -100 -101 -100c-66.667 0 -100 33.333 -100 100v684zM153 781c0 19.333 -7.66699 29 -23 29c-14.667 0 -22 -9.66699 -22 -29v-698c0 -20 7.33301 -30 22 -30
c15.333 0 23 10.333 23 31v697zM232 1015c0 -32 -5.50098 -56.499 -16.501 -73.499s-25.167 -25.5 -42.5 -25.5c-4 0 -9 0.5 -15 1.5s-12 3.16699 -18 6.5s-12.333 7.16602 -19 11.499l-19 12.5c-6 4 -11.667 7.33301 -17 10s-10 4 -14 4
c-7.33301 0 -12.166 -3.33301 -14.499 -10s-3.5 -18.334 -3.5 -35.001h-22c0.666992 65.333 20.667 98 60 98c4.66699 0 10.167 -0.833008 16.5 -2.5s12.833 -4.16699 19.5 -7.5c12.667 -7.33301 25.167 -15.166 37.5 -23.499s21.833 -12.5 28.5 -12.5c7.33301 0 12 3 14 9
s3.33301 18.333 4 37h21z" />
    <glyph glyph-name="Odieresis" unicode="&#xd6;" 
d="M30 772c0 66.667 33.333 100 100 100c67.333 0 101 -33.333 101 -100v-684c0 -66.667 -33.667 -100 -101 -100c-66.667 0 -100 33.333 -100 100v684zM153 781c0 19.333 -7.66699 29 -23 29c-14.667 0 -22 -9.66699 -22 -29v-698c0 -20 7.33301 -30 22 -30
c15.333 0 23 10.333 23 31v697zM153 917v82h69v-82h-69zM40 917v82h70v-82h-70z" />
    <glyph glyph-name="multiply" unicode="&#xd7;" horiz-adv-x="317" 
d="M157 360l-80 -80l-43 43l80 80l-75 75l41 42l76 -76l79 80l43 -43l-80 -79l78 -77l-42 -42z" />
    <glyph glyph-name="Oslash" unicode="&#xd8;" horiz-adv-x="272" 
d="M2 0l33.001 116v656c0 66.667 33 100 99 100c48.667 0 80 -18.333 94 -55l13 47l22 -7l-28 -100v-669c0 -66.667 -33.667 -100 -101 -100c-54.667 0 -86.334 21.333 -95.001 64l-17 -59zM158.001 483l-45 -164v-236c0 -20 7 -30 21 -30c16 0 24 10.333 24 31v399z
M158.001 564v217c0 19.333 -8 29 -24 29c-14 0 -21 -9.66699 -21 -29v-382z" />
    <glyph glyph-name="Ugrave" unicode="&#xd9;" horiz-adv-x="255" 
d="M152 859h77v-771c0 -66.667 -33.667 -100 -101 -100c-66.667 0 -100 33.333 -100 100v771h79v-774c0 -21.333 7 -32 21 -32c16 0 24 10.667 24 32v774zM99 903l-50 121h86l25 -121h-61z" />
    <glyph glyph-name="Uacute" unicode="&#xda;" horiz-adv-x="255" 
d="M152 859h77v-771c0 -66.667 -33.667 -100 -101 -100c-66.667 0 -100 33.333 -100 100v771h79v-774c0 -21.333 7 -32 21 -32c16 0 24 10.667 24 32v774zM94 903l25 121h86l-48 -121h-63z" />
    <glyph glyph-name="Ucircumflex" unicode="&#xdb;" horiz-adv-x="255" 
d="M152 859h77v-771c0 -66.667 -33.667 -100 -101 -100c-66.667 0 -100 33.333 -100 100v771h79v-774c0 -21.333 7 -32 21 -32c16 0 24 10.667 24 32v774zM169 903l-40 68l-40 -68h-45l58 121h55l57 -121h-45z" />
    <glyph glyph-name="Udieresis" unicode="&#xdc;" horiz-adv-x="255" 
d="M152 859h77v-771c0 -66.667 -33.667 -100 -101 -100c-66.667 0 -100 33.333 -100 100v771h79v-774c0 -21.333 7 -32 21 -32c16 0 24 10.667 24 32v774zM150 917v82h69v-82h-69zM37 917v82h70v-82h-70z" />
    <glyph glyph-name="Yacute" unicode="&#xdd;" horiz-adv-x="267" 
d="M157 377c-7.33301 -8 -15.999 -14 -25.999 -18s-19.667 -6 -29 -6c-21.333 0 -38.666 7.16699 -51.999 21.5s-20 31.833 -20 52.5v432h79v-406c0 -10 2.16699 -17.5 6.5 -22.5s9.16602 -7.5 14.499 -7.5c8 0 14.5 2.5 19.5 7.5s7.5 12.5 7.5 22.5v406h78v-771
c0 -66.667 -35 -100 -105 -100c-66.667 0 -100 33.333 -100 100v228h79v-231c0 -10.667 2.16699 -18.667 6.5 -24s10.166 -8 17.499 -8c16 0 24 10.667 24 32v292zM101.001 903l25 121h86l-48 -121h-63z" />
    <glyph glyph-name="Thorn" unicode="&#xde;" horiz-adv-x="240" 
d="M31 0v859h77v-207h16c72.667 0 109 -31.333 109 -94v-301c0 -35.333 -9 -60 -27 -74s-50.333 -21 -97 -21v-162h-78zM155 558c0 23.333 -9.66699 35 -29 35h-17v-370h17c19.333 0 29 11.333 29 34v301z" />
    <glyph glyph-name="germandbls" unicode="&#xdf;" horiz-adv-x="494" 
d="M227 88c0 -66.667 -33.3311 -100.001 -99.998 -100.001s-100 33.333 -100 100v181h78v-184c0 -21.333 7.33301 -32 22 -32c15.333 0 23 10.667 23 32v73c0 16 -0.666992 32.667 -2 50s-5.33301 39.666 -12 66.999c-12.667 54 -27.334 104.833 -44.001 152.5
s-31.334 97.834 -44.001 150.501c-9.33301 36 -15.166 65.833 -17.499 89.5s-3.5 45.167 -3.5 64.5v40c0 66.667 33.333 100 100 100s100 -33.333 100 -100v-166h-77v172c0 21.333 -7.66699 32 -23 32c-14.667 0 -22 -8.66699 -22 -26v-56
c0 -13.333 0.666992 -29.166 2 -47.499s5.66602 -42.5 12.999 -72.5c6.66699 -27.333 14.167 -54 22.5 -80l25 -77.5c8.33301 -25.667 16.333 -51.5 24 -77.5s14.5 -52.667 20.5 -80c10 -48 15 -93.667 15 -137v-68zM465.002 87.999
c0 -66.667 -33.3311 -100.001 -99.998 -100.001s-100 33.333 -100 100v181h78v-184c0 -21.333 7.33301 -32 22 -32c15.333 0 23 10.667 23 32v73c0 16 -0.666992 32.667 -2 50s-5.33301 39.666 -12 66.999c-12.667 54 -27.334 104.833 -44.001 152.5
s-31.334 97.834 -44.001 150.501c-9.33301 36 -15.166 65.833 -17.499 89.5s-3.5 45.167 -3.5 64.5v40c0 66.667 33.333 100 100 100s100 -33.333 100 -100v-166h-77v172c0 21.333 -7.66699 32 -23 32c-14.667 0 -22 -8.66699 -22 -26v-56
c0 -13.333 0.666992 -29.166 2 -47.499s5.66602 -42.5 12.999 -72.5c6.66699 -27.333 14.167 -54 22.5 -80l25 -77.5c8.33301 -25.667 16.333 -51.5 24 -77.5s14.5 -52.667 20.5 -80c10 -48 15 -93.667 15 -137v-68z" />
    <glyph glyph-name="agrave" unicode="&#xe0;" horiz-adv-x="258" 
d="M153 0c0 3.33301 -0.165039 7.83398 -0.498047 13.501s-0.833008 12.167 -1.5 19.5c-12.667 -26 -30.334 -39 -53.001 -39c-19.333 0 -35.5 5.66699 -48.5 17s-19.5 29.666 -19.5 54.999v315c0 21.333 20 44.666 60 69.999c20 12.667 35 26 45 40s15 28 15 42v265
c0 14.667 -8.33301 22 -25 22s-25 -7.33301 -25 -22v-279h-70v272c0 54 31.667 81 95 81c66 0 99 -27 99 -81v-766c0 -4.66699 0.166992 -9.16699 0.5 -13.5s1.16602 -8.16602 2.49902 -11.499h-74zM150.002 440.001l-27 -18c-6.66699 -4.66699 -11.667 -9 -15 -13
s-5.5 -8 -6.5 -12s-1.5 -8.66699 -1.5 -14v-309c0 -15.333 8.33301 -23 25 -23c8.66699 0 15 2.5 19 7.5s6 11.167 6 18.5v363zM99.002 903.001l-50 121h86l25 -121h-61z" />
    <glyph glyph-name="aacute" unicode="&#xe1;" horiz-adv-x="258" 
d="M153 0c0 3.33301 -0.165039 7.83398 -0.498047 13.501s-0.833008 12.167 -1.5 19.5c-12.667 -26 -30.334 -39 -53.001 -39c-19.333 0 -35.5 5.66699 -48.5 17s-19.5 29.666 -19.5 54.999v315c0 21.333 20 44.666 60 69.999c20 12.667 35 26 45 40s15 28 15 42v265
c0 14.667 -8.33301 22 -25 22s-25 -7.33301 -25 -22v-279h-70v272c0 54 31.667 81 95 81c66 0 99 -27 99 -81v-766c0 -4.66699 0.166992 -9.16699 0.5 -13.5s1.16602 -8.16602 2.49902 -11.499h-74zM150.002 440.001l-27 -18c-6.66699 -4.66699 -11.667 -9 -15 -13
s-5.5 -8 -6.5 -12s-1.5 -8.66699 -1.5 -14v-309c0 -15.333 8.33301 -23 25 -23c8.66699 0 15 2.5 19 7.5s6 11.167 6 18.5v363zM97.002 903.001l25 121h86l-48 -121h-63z" />
    <glyph glyph-name="acircumflex" unicode="&#xe2;" horiz-adv-x="258" 
d="M153 0c0 3.33301 -0.165039 7.83398 -0.498047 13.501s-0.833008 12.167 -1.5 19.5c-12.667 -26 -30.334 -39 -53.001 -39c-19.333 0 -35.5 5.66699 -48.5 17s-19.5 29.666 -19.5 54.999v315c0 21.333 20 44.666 60 69.999c20 12.667 35 26 45 40s15 28 15 42v265
c0 14.667 -8.33301 22 -25 22s-25 -7.33301 -25 -22v-279h-70v272c0 54 31.667 81 95 81c66 0 99 -27 99 -81v-766c0 -4.66699 0.166992 -9.16699 0.5 -13.5s1.16602 -8.16602 2.49902 -11.499h-74zM150.002 440.001l-27 -18c-6.66699 -4.66699 -11.667 -9 -15 -13
s-5.5 -8 -6.5 -12s-1.5 -8.66699 -1.5 -14v-309c0 -15.333 8.33301 -23 25 -23c8.66699 0 15 2.5 19 7.5s6 11.167 6 18.5v363zM170.002 903.001l-40 68l-40 -68h-45l58 121h55l57 -121h-45z" />
    <glyph glyph-name="atilde" unicode="&#xe3;" horiz-adv-x="258" 
d="M153 0c0 3.33301 -0.165039 7.83398 -0.498047 13.501s-0.833008 12.167 -1.5 19.5c-12.667 -26 -30.334 -39 -53.001 -39c-19.333 0 -35.5 5.66699 -48.5 17s-19.5 29.666 -19.5 54.999v315c0 21.333 20 44.666 60 69.999c20 12.667 35 26 45 40s15 28 15 42v265
c0 14.667 -8.33301 22 -25 22s-25 -7.33301 -25 -22v-279h-70v272c0 54 31.667 81 95 81c66 0 99 -27 99 -81v-766c0 -4.66699 0.166992 -9.16699 0.5 -13.5s1.16602 -8.16602 2.49902 -11.499h-74zM150.002 440.001l-27 -18c-6.66699 -4.66699 -11.667 -9 -15 -13
s-5.5 -8 -6.5 -12s-1.5 -8.66699 -1.5 -14v-309c0 -15.333 8.33301 -23 25 -23c8.66699 0 15 2.5 19 7.5s6 11.167 6 18.5v363zM231.002 1015c0 -32 -5.50098 -56.499 -16.501 -73.499s-25.167 -25.5 -42.5 -25.5c-4 0 -9 0.5 -15 1.5s-12 3.16699 -18 6.5
s-12.333 7.16602 -19 11.499l-19 12.5c-6 4 -11.667 7.33301 -17 10s-10 4 -14 4c-7.33301 0 -12.166 -3.33301 -14.499 -10s-3.5 -18.334 -3.5 -35.001h-22c0.666992 65.333 20.667 98 60 98c4.66699 0 10.167 -0.833008 16.5 -2.5s12.833 -4.16699 19.5 -7.5
c12.667 -7.33301 25.167 -15.166 37.5 -23.499s21.833 -12.5 28.5 -12.5c7.33301 0 12 3 14 9s3.33301 18.333 4 37h21z" />
    <glyph glyph-name="adieresis" unicode="&#xe4;" horiz-adv-x="258" 
d="M153 0c0 3.33301 -0.165039 7.83398 -0.498047 13.501s-0.833008 12.167 -1.5 19.5c-12.667 -26 -30.334 -39 -53.001 -39c-19.333 0 -35.5 5.66699 -48.5 17s-19.5 29.666 -19.5 54.999v315c0 21.333 20 44.666 60 69.999c20 12.667 35 26 45 40s15 28 15 42v265
c0 14.667 -8.33301 22 -25 22s-25 -7.33301 -25 -22v-279h-70v272c0 54 31.667 81 95 81c66 0 99 -27 99 -81v-766c0 -4.66699 0.166992 -9.16699 0.5 -13.5s1.16602 -8.16602 2.49902 -11.499h-74zM150.002 440.001l-27 -18c-6.66699 -4.66699 -11.667 -9 -15 -13
s-5.5 -8 -6.5 -12s-1.5 -8.66699 -1.5 -14v-309c0 -15.333 8.33301 -23 25 -23c8.66699 0 15 2.5 19 7.5s6 11.167 6 18.5v363zM151.002 917.001v82h69v-82h-69zM38.002 917.001v82h70v-82h-70z" />
    <glyph glyph-name="aring" unicode="&#xe5;" horiz-adv-x="258" 
d="M153 0c0 3.33301 -0.165039 7.83398 -0.498047 13.501s-0.833008 12.167 -1.5 19.5c-12.667 -26 -30.334 -39 -53.001 -39c-19.333 0 -35.5 5.66699 -48.5 17s-19.5 29.666 -19.5 54.999v315c0 21.333 20 44.666 60 69.999c20 12.667 35 26 45 40s15 28 15 42v265
c0 14.667 -8.33301 22 -25 22s-25 -7.33301 -25 -22v-279h-70v272c0 54 31.667 81 95 81c66 0 99 -27 99 -81v-766c0 -4.66699 0.166992 -9.16699 0.5 -13.5s1.16602 -8.16602 2.49902 -11.499h-74zM150.002 440.001l-27 -18c-6.66699 -4.66699 -11.667 -9 -15 -13
s-5.5 -8 -6.5 -12s-1.5 -8.66699 -1.5 -14v-309c0 -15.333 8.33301 -23 25 -23c8.66699 0 15 2.5 19 7.5s6 11.167 6 18.5v363zM125.002 888.001c-22 0 -38.334 6 -49.001 18s-16 28.667 -16 50c0 45.333 21.667 68 65 68c44 0 66 -22.667 66 -68
c0 -21.333 -5.66699 -38 -17 -50s-27.666 -18 -48.999 -18zM125.001 914.001c26 0 39 14.333 39 43s-13 43 -39 43c-25.333 0 -38 -14.333 -38 -43s12.667 -43 38 -43z" />
    <glyph glyph-name="ae" unicode="&#xe6;" horiz-adv-x="377" 
d="M267 365l78.001 0.000976562v-297c0 -13.333 -2.66699 -25 -8 -35s-12.166 -18.333 -20.499 -25s-17.833 -11.667 -28.5 -15s-21.334 -5 -32.001 -5c-19.333 0 -34.5 4.33301 -45.5 13s-19.833 21.667 -26.5 39c-7.33301 -17.333 -16.833 -30.333 -28.5 -39
s-30.834 -13 -57.501 -13c-19.333 0 -35.333 7.16699 -48 21.5s-19 31.166 -19 50.499v321c0 10 5.33301 21 16 33s22.667 23.5 36 34.5l38 30c12 9 19.333 15.833 22 20.5v287c0 16 -6 24 -18 24c-16.667 0 -25 -8 -25 -24v-267h-69v259c0 54 31.333 81 94 81h119
c67.333 0 101 -23.333 101 -70v-387h-123v-334c0 -14 7.33301 -21 22 -21c15.333 0 23 7 23 21v297zM267.001 787.001c0 14.667 -7.66699 22 -23 22c-14.667 0 -22 -7.33301 -22 -22v-332h45v332zM143.001 434.001c-28.667 -16.667 -43 -33.667 -43 -51v-315
c0 -15.333 8.33301 -23 25 -23c12 0 18 7.66699 18 23v366z" />
    <glyph glyph-name="ccedilla" unicode="&#xe7;" horiz-adv-x="260" 
d="M152 384h77v-296c0 -66.667 -33 -100 -99 -100c-66.667 0 -100 33.333 -100 100v684c0 66.667 33.333 100 100 100c66 0 99 -33.333 99 -100v-262h-77v268c0 20.667 -7.33301 31 -22 31s-22 -10.333 -22 -31v-693c0 -21.333 7.33301 -32 22 -32s22 10.667 22 32v299z
M85 -176l11 138h65l-30 -138h-46z" />
    <glyph glyph-name="egrave" unicode="&#xe8;" horiz-adv-x="265" 
d="M156 365h78v-297c0 -25.333 -9.16699 -45 -27.5 -59s-42.833 -21 -73.5 -21c-68.667 0 -103 30.333 -103 91v708c0 27.333 8.5 48.333 25.5 63s42.5 22 76.5 22c32 0 57 -7 75 -21s27 -32.667 27 -56v-393h-126v-334c0 -14 8.33301 -21 25 -21c15.333 0 23 7 23 21v297z
M156 794c0 14.667 -7.66699 22 -23 22c-16.667 0 -25 -7.33301 -25 -22v-339h48v339zM102 903l-50 121h86l25 -121h-61z" />
    <glyph glyph-name="eacute" unicode="&#xe9;" horiz-adv-x="265" 
d="M156 365h78v-297c0 -25.333 -9.16699 -45 -27.5 -59s-42.833 -21 -73.5 -21c-68.667 0 -103 30.333 -103 91v708c0 27.333 8.5 48.333 25.5 63s42.5 22 76.5 22c32 0 57 -7 75 -21s27 -32.667 27 -56v-393h-126v-334c0 -14 8.33301 -21 25 -21c15.333 0 23 7 23 21v297z
M156 794c0 14.667 -7.66699 22 -23 22c-16.667 0 -25 -7.33301 -25 -22v-339h48v339zM100 903l25 121h86l-48 -121h-63z" />
    <glyph glyph-name="ecircumflex" unicode="&#xea;" horiz-adv-x="265" 
d="M156 365h78v-297c0 -25.333 -9.16699 -45 -27.5 -59s-42.833 -21 -73.5 -21c-68.667 0 -103 30.333 -103 91v708c0 27.333 8.5 48.333 25.5 63s42.5 22 76.5 22c32 0 57 -7 75 -21s27 -32.667 27 -56v-393h-126v-334c0 -14 8.33301 -21 25 -21c15.333 0 23 7 23 21v297z
M156 794c0 14.667 -7.66699 22 -23 22c-16.667 0 -25 -7.33301 -25 -22v-339h48v339zM173 903l-40 68l-40 -68h-45l58 121h55l57 -121h-45z" />
    <glyph glyph-name="edieresis" unicode="&#xeb;" horiz-adv-x="265" 
d="M156 365h78v-297c0 -25.333 -9.16699 -45 -27.5 -59s-42.833 -21 -73.5 -21c-68.667 0 -103 30.333 -103 91v708c0 27.333 8.5 48.333 25.5 63s42.5 22 76.5 22c32 0 57 -7 75 -21s27 -32.667 27 -56v-393h-126v-334c0 -14 8.33301 -21 25 -21c15.333 0 23 7 23 21v297z
M156 794c0 14.667 -7.66699 22 -23 22c-16.667 0 -25 -7.33301 -25 -22v-339h48v339zM155 917v82h69v-82h-69zM42 917v82h70v-82h-70z" />
    <glyph glyph-name="igrave" unicode="&#xec;" horiz-adv-x="143" 
d="M31 0v859h77v-859h-77zM42 903l-50 121h86l25 -121h-61z" />
    <glyph glyph-name="iacute" unicode="&#xed;" horiz-adv-x="143" 
d="M31 0v859h77v-859h-77zM41 903l25 121h86l-48 -121h-63z" />
    <glyph glyph-name="icircumflex" unicode="&#xee;" horiz-adv-x="143" 
d="M31 0v859h77v-859h-77zM112 903l-40 68l-40 -68h-45l58 121h55l57 -121h-45z" />
    <glyph glyph-name="idieresis" unicode="&#xef;" horiz-adv-x="143" 
d="M31 0v859h77v-859h-77zM94 917v82h69v-82h-69zM-19 917v82h70v-82h-70z" />
    <glyph glyph-name="eth" unicode="&#xf0;" horiz-adv-x="256" 
d="M24 0v402h-24v50h24v407h92c72 0 108 -31.333 108 -94v-671c0 -62.667 -36 -94 -108 -94h-92zM148 766c0 22.667 -10.333 34 -31 34h-16v-348h23v-50h-23v-338h16c20.667 0 31 11.333 31 34v668z" />
    <glyph glyph-name="ntilde" unicode="&#xf1;" horiz-adv-x="256" 
d="M150 0v783c0 16 -8.33301 24 -25 24c-13.333 0 -20 -8 -20 -24v-783h-74v859h71v-32c12.667 25.333 35 38 67 38c36 0 54 -23.667 54 -71v-794h-73zM229 1015c0 -32 -5.50098 -56.499 -16.501 -73.499s-25.167 -25.5 -42.5 -25.5c-4 0 -9 0.5 -15 1.5
s-12 3.16699 -18 6.5s-12.333 7.16602 -19 11.499l-19 12.5c-6 4 -11.667 7.33301 -17 10s-10 4 -14 4c-7.33301 0 -12.166 -3.33301 -14.499 -10s-3.5 -18.334 -3.5 -35.001h-22c0.666992 65.333 20.667 98 60 98c4.66699 0 10.167 -0.833008 16.5 -2.5
s12.833 -4.16699 19.5 -7.5c12.667 -7.33301 25.167 -15.166 37.5 -23.499s21.833 -12.5 28.5 -12.5c7.33301 0 12 3 14 9s3.33301 18.333 4 37h21z" />
    <glyph glyph-name="ograve" unicode="&#xf2;" 
d="M30 772c0 66.667 33.333 100 100 100c67.333 0 101 -33.333 101 -100v-684c0 -66.667 -33.667 -100 -101 -100c-66.667 0 -100 33.333 -100 100v684zM153 781c0 19.333 -7.66699 29 -23 29c-14.667 0 -22 -9.66699 -22 -29v-698c0 -20 7.33301 -30 22 -30
c15.333 0 23 10.333 23 31v697zM100 903l-50 121h86l25 -121h-61z" />
    <glyph glyph-name="oacute" unicode="&#xf3;" 
d="M30 772c0 66.667 33.333 100 100 100c67.333 0 101 -33.333 101 -100v-684c0 -66.667 -33.667 -100 -101 -100c-66.667 0 -100 33.333 -100 100v684zM153 781c0 19.333 -7.66699 29 -23 29c-14.667 0 -22 -9.66699 -22 -29v-698c0 -20 7.33301 -30 22 -30
c15.333 0 23 10.333 23 31v697zM98 903l25 121h86l-48 -121h-63z" />
    <glyph glyph-name="ocircumflex" unicode="&#xf4;" 
d="M30 772c0 66.667 33.333 100 100 100c67.333 0 101 -33.333 101 -100v-684c0 -66.667 -33.667 -100 -101 -100c-66.667 0 -100 33.333 -100 100v684zM153 781c0 19.333 -7.66699 29 -23 29c-14.667 0 -22 -9.66699 -22 -29v-698c0 -20 7.33301 -30 22 -30
c15.333 0 23 10.333 23 31v697zM172 903l-40 68l-40 -68h-45l58 121h55l57 -121h-45z" />
    <glyph glyph-name="otilde" unicode="&#xf5;" 
d="M30 772c0 66.667 33.333 100 100 100c67.333 0 101 -33.333 101 -100v-684c0 -66.667 -33.667 -100 -101 -100c-66.667 0 -100 33.333 -100 100v684zM153 781c0 19.333 -7.66699 29 -23 29c-14.667 0 -22 -9.66699 -22 -29v-698c0 -20 7.33301 -30 22 -30
c15.333 0 23 10.333 23 31v697zM232 1015c0 -32 -5.50098 -56.499 -16.501 -73.499s-25.167 -25.5 -42.5 -25.5c-4 0 -9 0.5 -15 1.5s-12 3.16699 -18 6.5s-12.333 7.16602 -19 11.499l-19 12.5c-6 4 -11.667 7.33301 -17 10s-10 4 -14 4
c-7.33301 0 -12.166 -3.33301 -14.499 -10s-3.5 -18.334 -3.5 -35.001h-22c0.666992 65.333 20.667 98 60 98c4.66699 0 10.167 -0.833008 16.5 -2.5s12.833 -4.16699 19.5 -7.5c12.667 -7.33301 25.167 -15.166 37.5 -23.499s21.833 -12.5 28.5 -12.5c7.33301 0 12 3 14 9
s3.33301 18.333 4 37h21z" />
    <glyph glyph-name="odieresis" unicode="&#xf6;" 
d="M30 772c0 66.667 33.333 100 100 100c67.333 0 101 -33.333 101 -100v-684c0 -66.667 -33.667 -100 -101 -100c-66.667 0 -100 33.333 -100 100v684zM153 781c0 19.333 -7.66699 29 -23 29c-14.667 0 -22 -9.66699 -22 -29v-698c0 -20 7.33301 -30 22 -30
c15.333 0 23 10.333 23 31v697zM153 917v82h69v-82h-69zM40 917v82h70v-82h-70z" />
    <glyph glyph-name="divide" unicode="&#xf7;" horiz-adv-x="317" 
d="M18 373v59h277v-59h-277zM123 539v82h70v-82h-70zM123 183v82h70v-82h-70z" />
    <glyph glyph-name="oslash" unicode="&#xf8;" horiz-adv-x="272" 
d="M2 0l33.001 116v656c0 66.667 33 100 99 100c48.667 0 80 -18.333 94 -55l13 47l22 -7l-28 -100v-669c0 -66.667 -33.667 -100 -101 -100c-54.667 0 -86.334 21.333 -95.001 64l-17 -59zM158.001 483l-45 -164v-236c0 -20 7 -30 21 -30c16 0 24 10.333 24 31v399z
M158.001 564v217c0 19.333 -8 29 -24 29c-14 0 -21 -9.66699 -21 -29v-382z" />
    <glyph glyph-name="ugrave" unicode="&#xf9;" horiz-adv-x="255" 
d="M152 859h77v-771c0 -66.667 -33.667 -100 -101 -100c-66.667 0 -100 33.333 -100 100v771h79v-774c0 -21.333 7 -32 21 -32c16 0 24 10.667 24 32v774zM99 903l-50 121h86l25 -121h-61z" />
    <glyph glyph-name="uacute" unicode="&#xfa;" horiz-adv-x="255" 
d="M152 859h77v-771c0 -66.667 -33.667 -100 -101 -100c-66.667 0 -100 33.333 -100 100v771h79v-774c0 -21.333 7 -32 21 -32c16 0 24 10.667 24 32v774zM94 903l25 121h86l-48 -121h-63z" />
    <glyph glyph-name="ucircumflex" unicode="&#xfb;" horiz-adv-x="255" 
d="M152 859h77v-771c0 -66.667 -33.667 -100 -101 -100c-66.667 0 -100 33.333 -100 100v771h79v-774c0 -21.333 7 -32 21 -32c16 0 24 10.667 24 32v774zM169 903l-40 68l-40 -68h-45l58 121h55l57 -121h-45z" />
    <glyph glyph-name="udieresis" unicode="&#xfc;" horiz-adv-x="255" 
d="M152 859h77v-771c0 -66.667 -33.667 -100 -101 -100c-66.667 0 -100 33.333 -100 100v771h79v-774c0 -21.333 7 -32 21 -32c16 0 24 10.667 24 32v774zM150 917v82h69v-82h-69zM37 917v82h70v-82h-70z" />
    <glyph glyph-name="yacute" unicode="&#xfd;" horiz-adv-x="267" 
d="M157 377c-7.33301 -8 -15.999 -14 -25.999 -18s-19.667 -6 -29 -6c-21.333 0 -38.666 7.16699 -51.999 21.5s-20 31.833 -20 52.5v432h79v-406c0 -10 2.16699 -17.5 6.5 -22.5s9.16602 -7.5 14.499 -7.5c8 0 14.5 2.5 19.5 7.5s7.5 12.5 7.5 22.5v406h78v-771
c0 -66.667 -35 -100 -105 -100c-66.667 0 -100 33.333 -100 100v228h79v-231c0 -10.667 2.16699 -18.667 6.5 -24s10.166 -8 17.499 -8c16 0 24 10.667 24 32v292zM101.001 903l25 121h86l-48 -121h-63z" />
    <glyph glyph-name="thorn" unicode="&#xfe;" horiz-adv-x="240" 
d="M31 0v859h77v-207h16c72.667 0 109 -31.333 109 -94v-301c0 -35.333 -9 -60 -27 -74s-50.333 -21 -97 -21v-162h-78zM155 558c0 23.333 -9.66699 35 -29 35h-17v-370h17c19.333 0 29 11.333 29 34v301z" />
    <glyph glyph-name="ydieresis" unicode="&#xff;" horiz-adv-x="267" 
d="M157 377c-7.33301 -8 -15.999 -14 -25.999 -18s-19.667 -6 -29 -6c-21.333 0 -38.666 7.16699 -51.999 21.5s-20 31.833 -20 52.5v432h79v-406c0 -10 2.16699 -17.5 6.5 -22.5s9.16602 -7.5 14.499 -7.5c8 0 14.5 2.5 19.5 7.5s7.5 12.5 7.5 22.5v406h78v-771
c0 -66.667 -35 -100 -105 -100c-66.667 0 -100 33.333 -100 100v228h79v-231c0 -10.667 2.16699 -18.667 6.5 -24s10.166 -8 17.499 -8c16 0 24 10.667 24 32v292zM157.001 917v82h69v-82h-69zM44.001 917v82h70v-82h-70z" />
    <glyph glyph-name="Amacron" unicode="&#x100;" horiz-adv-x="258" 
d="M153 0c0 3.33301 -0.165039 7.83398 -0.498047 13.501s-0.833008 12.167 -1.5 19.5c-12.667 -26 -30.334 -39 -53.001 -39c-19.333 0 -35.5 5.66699 -48.5 17s-19.5 29.666 -19.5 54.999v315c0 21.333 20 44.666 60 69.999c20 12.667 35 26 45 40s15 28 15 42v265
c0 14.667 -8.33301 22 -25 22s-25 -7.33301 -25 -22v-279h-70v272c0 54 31.667 81 95 81c66 0 99 -27 99 -81v-766c0 -4.66699 0.166992 -9.16699 0.5 -13.5s1.16602 -8.16602 2.49902 -11.499h-74zM150.002 440.001l-27 -18c-6.66699 -4.66699 -11.667 -9 -15 -13
s-5.5 -8 -6.5 -12s-1.5 -8.66699 -1.5 -14v-309c0 -15.333 8.33301 -23 25 -23c8.66699 0 15 2.5 19 7.5s6 11.167 6 18.5v363zM19.002 938.001v40h223v-40h-223z" />
    <glyph glyph-name="amacron" unicode="&#x101;" horiz-adv-x="258" 
d="M153 0c0 3.33301 -0.165039 7.83398 -0.498047 13.501s-0.833008 12.167 -1.5 19.5c-12.667 -26 -30.334 -39 -53.001 -39c-19.333 0 -35.5 5.66699 -48.5 17s-19.5 29.666 -19.5 54.999v315c0 21.333 20 44.666 60 69.999c20 12.667 35 26 45 40s15 28 15 42v265
c0 14.667 -8.33301 22 -25 22s-25 -7.33301 -25 -22v-279h-70v272c0 54 31.667 81 95 81c66 0 99 -27 99 -81v-766c0 -4.66699 0.166992 -9.16699 0.5 -13.5s1.16602 -8.16602 2.49902 -11.499h-74zM150.002 440.001l-27 -18c-6.66699 -4.66699 -11.667 -9 -15 -13
s-5.5 -8 -6.5 -12s-1.5 -8.66699 -1.5 -14v-309c0 -15.333 8.33301 -23 25 -23c8.66699 0 15 2.5 19 7.5s6 11.167 6 18.5v363zM19.002 938.001v40h223v-40h-223z" />
    <glyph glyph-name="Abreve" unicode="&#x102;" horiz-adv-x="258" 
d="M153 0c0 3.33301 -0.165039 7.83398 -0.498047 13.501s-0.833008 12.167 -1.5 19.5c-12.667 -26 -30.334 -39 -53.001 -39c-19.333 0 -35.5 5.66699 -48.5 17s-19.5 29.666 -19.5 54.999v315c0 21.333 20 44.666 60 69.999c20 12.667 35 26 45 40s15 28 15 42v265
c0 14.667 -8.33301 22 -25 22s-25 -7.33301 -25 -22v-279h-70v272c0 54 31.667 81 95 81c66 0 99 -27 99 -81v-766c0 -4.66699 0.166992 -9.16699 0.5 -13.5s1.16602 -8.16602 2.49902 -11.499h-74zM150.002 440.001l-27 -18c-6.66699 -4.66699 -11.667 -9 -15 -13
s-5.5 -8 -6.5 -12s-1.5 -8.66699 -1.5 -14v-309c0 -15.333 8.33301 -23 25 -23c8.66699 0 15 2.5 19 7.5s6 11.167 6 18.5v363zM231.002 1024c0 -88.667 -33.667 -133 -101 -133c-66 0 -99 44.333 -99 133h47c0 -26 3.83301 -48.167 11.5 -66.5s21.167 -27.5 40.5 -27.5
c20 0 34.333 9.16699 43 27.5s13 40.5 13 66.5h45z" />
    <glyph glyph-name="abreve" unicode="&#x103;" horiz-adv-x="258" 
d="M153 0c0 3.33301 -0.165039 7.83398 -0.498047 13.501s-0.833008 12.167 -1.5 19.5c-12.667 -26 -30.334 -39 -53.001 -39c-19.333 0 -35.5 5.66699 -48.5 17s-19.5 29.666 -19.5 54.999v315c0 21.333 20 44.666 60 69.999c20 12.667 35 26 45 40s15 28 15 42v265
c0 14.667 -8.33301 22 -25 22s-25 -7.33301 -25 -22v-279h-70v272c0 54 31.667 81 95 81c66 0 99 -27 99 -81v-766c0 -4.66699 0.166992 -9.16699 0.5 -13.5s1.16602 -8.16602 2.49902 -11.499h-74zM150.002 440.001l-27 -18c-6.66699 -4.66699 -11.667 -9 -15 -13
s-5.5 -8 -6.5 -12s-1.5 -8.66699 -1.5 -14v-309c0 -15.333 8.33301 -23 25 -23c8.66699 0 15 2.5 19 7.5s6 11.167 6 18.5v363zM231.002 1024c0 -88.667 -33.667 -133 -101 -133c-66 0 -99 44.333 -99 133h47c0 -26 3.83301 -48.167 11.5 -66.5s21.167 -27.5 40.5 -27.5
c20 0 34.333 9.16699 43 27.5s13 40.5 13 66.5h45z" />
    <glyph glyph-name="Aogonek" unicode="&#x104;" horiz-adv-x="258" 
d="M226 -103c0 -27.333 -6.66504 -46.333 -19.998 -57s-33 -16 -59 -16c-26.667 0 -46.667 5.16699 -60 15.5s-20 27.5 -20 51.5c0 24.667 9.33301 44 28 58l59 38l-3 46c-12.667 -26 -30.334 -39 -53.001 -39c-19.333 0 -35.5 7.16699 -48.5 21.5
s-19.5 31.166 -19.5 50.499v315c0 21.333 20 44.666 60 69.999c20 12.667 35 26 45 40s15 28 15 42v265c0 14.667 -8.33301 22 -25 22s-25 -7.33301 -25 -22v-279h-70v272c0 54 31.667 81 95 81c66 0 99 -27 99 -81v-766v-13.5c0 -4.33301 0.666992 -8.16602 2 -11.499
l-78 -59c-7.33301 -5.33301 -12.333 -11.166 -15 -17.499s-4 -15.833 -4 -28.5c0 -9.33301 1.5 -15.5 4.5 -18.5s7.5 -4.5 13.5 -4.5c5.33301 0 9.66602 1.5 12.999 4.5s5 9.16699 5 18.5v18h61v-16zM150.002 440l-27 -18c-6.66699 -4.66699 -11.667 -9 -15 -13
s-5.5 -8 -6.5 -12s-1.5 -8.66699 -1.5 -14v-309c0 -15.333 8.33301 -23 25 -23c8.66699 0 15 2.5 19 7.5s6 11.167 6 18.5v363z" />
    <glyph glyph-name="aogonek" unicode="&#x105;" horiz-adv-x="258" 
d="M226 -103c0 -27.333 -6.66504 -46.333 -19.998 -57s-33 -16 -59 -16c-26.667 0 -46.667 5.16699 -60 15.5s-20 27.5 -20 51.5c0 24.667 9.33301 44 28 58l59 38l-3 46c-12.667 -26 -30.334 -39 -53.001 -39c-19.333 0 -35.5 7.16699 -48.5 21.5
s-19.5 31.166 -19.5 50.499v315c0 21.333 20 44.666 60 69.999c20 12.667 35 26 45 40s15 28 15 42v265c0 14.667 -8.33301 22 -25 22s-25 -7.33301 -25 -22v-279h-70v272c0 54 31.667 81 95 81c66 0 99 -27 99 -81v-766v-13.5c0 -4.33301 0.666992 -8.16602 2 -11.499
l-78 -59c-7.33301 -5.33301 -12.333 -11.166 -15 -17.499s-4 -15.833 -4 -28.5c0 -9.33301 1.5 -15.5 4.5 -18.5s7.5 -4.5 13.5 -4.5c5.33301 0 9.66602 1.5 12.999 4.5s5 9.16699 5 18.5v18h61v-16zM150.002 440l-27 -18c-6.66699 -4.66699 -11.667 -9 -15 -13
s-5.5 -8 -6.5 -12s-1.5 -8.66699 -1.5 -14v-309c0 -15.333 8.33301 -23 25 -23c8.66699 0 15 2.5 19 7.5s6 11.167 6 18.5v363z" />
    <glyph glyph-name="Cacute" unicode="&#x106;" horiz-adv-x="260" 
d="M152 384h77v-296c0 -66.667 -33 -100 -99 -100c-66.667 0 -100 33.333 -100 100v684c0 66.667 33.333 100 100 100c66 0 99 -33.333 99 -100v-262h-77v268c0 20.667 -7.33301 31 -22 31s-22 -10.333 -22 -31v-693c0 -21.333 7.33301 -32 22 -32s22 10.667 22 32v299z
M106 903l25 121h86l-48 -121h-63z" />
    <glyph glyph-name="cacute" unicode="&#x107;" horiz-adv-x="260" 
d="M152 384h77v-296c0 -66.667 -33 -100 -99 -100c-66.667 0 -100 33.333 -100 100v684c0 66.667 33.333 100 100 100c66 0 99 -33.333 99 -100v-262h-77v268c0 20.667 -7.33301 31 -22 31s-22 -10.333 -22 -31v-693c0 -21.333 7.33301 -32 22 -32s22 10.667 22 32v299z
M106 903l25 121h86l-48 -121h-63z" />
    <glyph glyph-name="Cdotaccent" unicode="&#x10a;" horiz-adv-x="260" 
d="M152 384h77v-296c0 -66.667 -33 -100 -99 -100c-66.667 0 -100 33.333 -100 100v684c0 66.667 33.333 100 100 100c66 0 99 -33.333 99 -100v-262h-77v268c0 20.667 -7.33301 31 -22 31s-22 -10.333 -22 -31v-693c0 -21.333 7.33301 -32 22 -32s22 10.667 22 32v299z
M95 917v82h70v-82h-70z" />
    <glyph glyph-name="cdotaccent" unicode="&#x10b;" horiz-adv-x="260" 
d="M152 384h77v-296c0 -66.667 -33 -100 -99 -100c-66.667 0 -100 33.333 -100 100v684c0 66.667 33.333 100 100 100c66 0 99 -33.333 99 -100v-262h-77v268c0 20.667 -7.33301 31 -22 31s-22 -10.333 -22 -31v-693c0 -21.333 7.33301 -32 22 -32s22 10.667 22 32v299z
M95 917v82h70v-82h-70z" />
    <glyph glyph-name="Ccaron" unicode="&#x10c;" horiz-adv-x="260" 
d="M152 384h77v-296c0 -66.667 -33 -100 -99 -100c-66.667 0 -100 33.333 -100 100v684c0 66.667 33.333 100 100 100c66 0 99 -33.333 99 -100v-262h-77v268c0 20.667 -7.33301 31 -22 31s-22 -10.333 -22 -31v-693c0 -21.333 7.33301 -32 22 -32s22 10.667 22 32v299z
M103 903l-57 121h45l40 -68l40 68h45l-58 -121h-55z" />
    <glyph glyph-name="ccaron" unicode="&#x10d;" horiz-adv-x="260" 
d="M152 384h77v-296c0 -66.667 -33 -100 -99 -100c-66.667 0 -100 33.333 -100 100v684c0 66.667 33.333 100 100 100c66 0 99 -33.333 99 -100v-262h-77v268c0 20.667 -7.33301 31 -22 31s-22 -10.333 -22 -31v-693c0 -21.333 7.33301 -32 22 -32s22 10.667 22 32v299z
M103 903l-57 121h45l40 -68l40 68h45l-58 -121h-55z" />
    <glyph glyph-name="Dcaron" unicode="&#x10e;" horiz-adv-x="263" 
d="M31 0v859h92c72.667 0 109 -31.333 109 -94v-671c0 -62.667 -36.333 -94 -109 -94h-92zM153 766c0 22.667 -9.33301 34 -28 34h-17v-736h17c18.667 0 28 11.333 28 34v668zM105 903l-57 121h45l40 -68l40 68h45l-58 -121h-55z" />
    <glyph glyph-name="dcaron" unicode="&#x10f;" horiz-adv-x="263" 
d="M31 0v859h92c72.667 0 109 -31.333 109 -94v-671c0 -62.667 -36.333 -94 -109 -94h-92zM153 766c0 22.667 -9.33301 34 -28 34h-17v-736h17c18.667 0 28 11.333 28 34v668zM105 903l-57 121h45l40 -68l40 68h45l-58 -121h-55z" />
    <glyph glyph-name="Dcroat" unicode="&#x110;" horiz-adv-x="256" 
d="M24 0v402h-24v50h24v407h92c72 0 108 -31.333 108 -94v-671c0 -62.667 -36 -94 -108 -94h-92zM148 766c0 22.667 -10.333 34 -31 34h-16v-348h23v-50h-23v-338h16c20.667 0 31 11.333 31 34v668z" />
    <glyph glyph-name="dcroat" unicode="&#x111;" horiz-adv-x="256" 
d="M24 0v402h-24v50h24v407h92c72 0 108 -31.333 108 -94v-671c0 -62.667 -36 -94 -108 -94h-92zM148 766c0 22.667 -10.333 34 -31 34h-16v-348h23v-50h-23v-338h16c20.667 0 31 11.333 31 34v668z" />
    <glyph glyph-name="Emacron" unicode="&#x112;" horiz-adv-x="265" 
d="M156 365h78v-297c0 -25.333 -9.16699 -45 -27.5 -59s-42.833 -21 -73.5 -21c-68.667 0 -103 30.333 -103 91v708c0 27.333 8.5 48.333 25.5 63s42.5 22 76.5 22c32 0 57 -7 75 -21s27 -32.667 27 -56v-393h-126v-334c0 -14 8.33301 -21 25 -21c15.333 0 23 7 23 21v297z
M156 794c0 14.667 -7.66699 22 -23 22c-16.667 0 -25 -7.33301 -25 -22v-339h48v339zM22 938v40h223v-40h-223z" />
    <glyph glyph-name="emacron" unicode="&#x113;" horiz-adv-x="265" 
d="M156 365h78v-297c0 -25.333 -9.16699 -45 -27.5 -59s-42.833 -21 -73.5 -21c-68.667 0 -103 30.333 -103 91v708c0 27.333 8.5 48.333 25.5 63s42.5 22 76.5 22c32 0 57 -7 75 -21s27 -32.667 27 -56v-393h-126v-334c0 -14 8.33301 -21 25 -21c15.333 0 23 7 23 21v297z
M156 794c0 14.667 -7.66699 22 -23 22c-16.667 0 -25 -7.33301 -25 -22v-339h48v339zM22 938v40h223v-40h-223z" />
    <glyph glyph-name="Ebreve" unicode="&#x114;" horiz-adv-x="265" 
d="M156 365h78v-297c0 -25.333 -9.16699 -45 -27.5 -59s-42.833 -21 -73.5 -21c-68.667 0 -103 30.333 -103 91v708c0 27.333 8.5 48.333 25.5 63s42.5 22 76.5 22c32 0 57 -7 75 -21s27 -32.667 27 -56v-393h-126v-334c0 -14 8.33301 -21 25 -21c15.333 0 23 7 23 21v297z
M156 794c0 14.667 -7.66699 22 -23 22c-16.667 0 -25 -7.33301 -25 -22v-339h48v339zM234 1024c0 -88.667 -33.667 -133 -101 -133c-66 0 -99 44.333 -99 133h47c0 -26 3.83301 -48.167 11.5 -66.5s21.167 -27.5 40.5 -27.5c20 0 34.333 9.16699 43 27.5s13 40.5 13 66.5h45
z" />
    <glyph glyph-name="ebreve" unicode="&#x115;" horiz-adv-x="265" 
d="M156 365h78v-297c0 -25.333 -9.16699 -45 -27.5 -59s-42.833 -21 -73.5 -21c-68.667 0 -103 30.333 -103 91v708c0 27.333 8.5 48.333 25.5 63s42.5 22 76.5 22c32 0 57 -7 75 -21s27 -32.667 27 -56v-393h-126v-334c0 -14 8.33301 -21 25 -21c15.333 0 23 7 23 21v297z
M156 794c0 14.667 -7.66699 22 -23 22c-16.667 0 -25 -7.33301 -25 -22v-339h48v339zM234 1024c0 -88.667 -33.667 -133 -101 -133c-66 0 -99 44.333 -99 133h47c0 -26 3.83301 -48.167 11.5 -66.5s21.167 -27.5 40.5 -27.5c20 0 34.333 9.16699 43 27.5s13 40.5 13 66.5h45
z" />
    <glyph glyph-name="Edotaccent" unicode="&#x116;" horiz-adv-x="265" 
d="M156 365h78v-297c0 -25.333 -9.16699 -45 -27.5 -59s-42.833 -21 -73.5 -21c-68.667 0 -103 30.333 -103 91v708c0 27.333 8.5 48.333 25.5 63s42.5 22 76.5 22c32 0 57 -7 75 -21s27 -32.667 27 -56v-393h-126v-334c0 -14 8.33301 -21 25 -21c15.333 0 23 7 23 21v297z
M156 794c0 14.667 -7.66699 22 -23 22c-16.667 0 -25 -7.33301 -25 -22v-339h48v339zM97 917v82h70v-82h-70z" />
    <glyph glyph-name="edotaccent" unicode="&#x117;" horiz-adv-x="265" 
d="M156 365h78v-297c0 -25.333 -9.16699 -45 -27.5 -59s-42.833 -21 -73.5 -21c-68.667 0 -103 30.333 -103 91v708c0 27.333 8.5 48.333 25.5 63s42.5 22 76.5 22c32 0 57 -7 75 -21s27 -32.667 27 -56v-393h-126v-334c0 -14 8.33301 -21 25 -21c15.333 0 23 7 23 21v297z
M156 794c0 14.667 -7.66699 22 -23 22c-16.667 0 -25 -7.33301 -25 -22v-339h48v339zM97 917v82h70v-82h-70z" />
    <glyph glyph-name="Eogonek" unicode="&#x118;" horiz-adv-x="265" 
d="M196 -103c0 -27.333 -6.49902 -46.333 -19.499 -57s-32.833 -16 -59.5 -16c-26 0 -45.667 5.16699 -59 15.5s-20 27.5 -20 51.5c0 24.667 9.33301 44 28 58l56 39c-61.333 5.33301 -92 39.333 -92 102v680c0 68 34 102 102 102c31.333 0 56.166 -7 74.499 -21
s27.5 -32.667 27.5 -56v-393h-126v-334c0 -14 8.33301 -21 25 -21c15.333 0 23 7 23 21v297h78v-297c0 -12.667 -3.16699 -24 -9.5 -34s-14.5 -19 -24.5 -27l-81 -66c-6.66699 -5.33301 -11.5 -11 -14.5 -17s-4.5 -15.667 -4.5 -29c0 -9.33301 1.5 -15.5 4.5 -18.5
s7.16699 -4.5 12.5 -4.5c6 0 10.5 1.5 13.5 4.5s4.5 9.16699 4.5 18.5v18h61v-16zM156.001 794c0 14.667 -7.66699 22 -23 22c-16.667 0 -25 -7.33301 -25 -22v-339h48v339z" />
    <glyph glyph-name="eogonek" unicode="&#x119;" horiz-adv-x="265" 
d="M196 -103c0 -27.333 -6.49902 -46.333 -19.499 -57s-32.833 -16 -59.5 -16c-26 0 -45.667 5.16699 -59 15.5s-20 27.5 -20 51.5c0 24.667 9.33301 44 28 58l56 39c-61.333 5.33301 -92 39.333 -92 102v680c0 68 34 102 102 102c31.333 0 56.166 -7 74.499 -21
s27.5 -32.667 27.5 -56v-393h-126v-334c0 -14 8.33301 -21 25 -21c15.333 0 23 7 23 21v297h78v-297c0 -12.667 -3.16699 -24 -9.5 -34s-14.5 -19 -24.5 -27l-81 -66c-6.66699 -5.33301 -11.5 -11 -14.5 -17s-4.5 -15.667 -4.5 -29c0 -9.33301 1.5 -15.5 4.5 -18.5
s7.16699 -4.5 12.5 -4.5c6 0 10.5 1.5 13.5 4.5s4.5 9.16699 4.5 18.5v18h61v-16zM156.001 794c0 14.667 -7.66699 22 -23 22c-16.667 0 -25 -7.33301 -25 -22v-339h48v339z" />
    <glyph glyph-name="Ecaron" unicode="&#x11a;" horiz-adv-x="265" 
d="M156 365h78v-297c0 -25.333 -9.16699 -45 -27.5 -59s-42.833 -21 -73.5 -21c-68.667 0 -103 30.333 -103 91v708c0 27.333 8.5 48.333 25.5 63s42.5 22 76.5 22c32 0 57 -7 75 -21s27 -32.667 27 -56v-393h-126v-334c0 -14 8.33301 -21 25 -21c15.333 0 23 7 23 21v297z
M156 794c0 14.667 -7.66699 22 -23 22c-16.667 0 -25 -7.33301 -25 -22v-339h48v339zM106 903l-57 121h45l40 -68l40 68h45l-58 -121h-55z" />
    <glyph glyph-name="ecaron" unicode="&#x11b;" horiz-adv-x="265" 
d="M156 365h78v-297c0 -25.333 -9.16699 -45 -27.5 -59s-42.833 -21 -73.5 -21c-68.667 0 -103 30.333 -103 91v708c0 27.333 8.5 48.333 25.5 63s42.5 22 76.5 22c32 0 57 -7 75 -21s27 -32.667 27 -56v-393h-126v-334c0 -14 8.33301 -21 25 -21c15.333 0 23 7 23 21v297z
M156 794c0 14.667 -7.66699 22 -23 22c-16.667 0 -25 -7.33301 -25 -22v-339h48v339zM106 903l-57 121h45l40 -68l40 68h45l-58 -121h-55z" />
    <glyph glyph-name="Gbreve" unicode="&#x11e;" horiz-adv-x="264" 
d="M155 394c-12.667 -23.333 -36 -35 -70 -35c-36 0 -54 25.333 -54 76v357c0 48.667 17.667 73 53 73c37.333 0 60.333 -15 69 -45l3 39h76v-791c0 -14.667 -2.83301 -27 -8.5 -37s-13 -18.167 -22 -24.5s-19.167 -11 -30.5 -14s-22.333 -4.5 -33 -4.5
c-38.667 0 -66.167 6.66699 -82.5 20s-24.5 33.333 -24.5 60v254h74v-256c0 -15.333 8.33301 -23 25 -23s25 7.66699 25 23v328zM155 776c0 15.333 -8.33301 26 -25 32c-16.667 0 -25 -8 -25 -24v-337c0 -16 8.33301 -24 25 -24s25 8 25 24v329zM234 1024
c0 -88.667 -33.667 -133 -101 -133c-66 0 -99 44.333 -99 133h47c0 -26 3.83301 -48.167 11.5 -66.5s21.167 -27.5 40.5 -27.5c20 0 34.333 9.16699 43 27.5s13 40.5 13 66.5h45z" />
    <glyph glyph-name="gbreve" unicode="&#x11f;" horiz-adv-x="264" 
d="M155 394c-12.667 -23.333 -36 -35 -70 -35c-36 0 -54 25.333 -54 76v357c0 48.667 17.667 73 53 73c37.333 0 60.333 -15 69 -45l3 39h76v-791c0 -14.667 -2.83301 -27 -8.5 -37s-13 -18.167 -22 -24.5s-19.167 -11 -30.5 -14s-22.333 -4.5 -33 -4.5
c-38.667 0 -66.167 6.66699 -82.5 20s-24.5 33.333 -24.5 60v254h74v-256c0 -15.333 8.33301 -23 25 -23s25 7.66699 25 23v328zM155 776c0 15.333 -8.33301 26 -25 32c-16.667 0 -25 -8 -25 -24v-337c0 -16 8.33301 -24 25 -24s25 8 25 24v329zM234 1024
c0 -88.667 -33.667 -133 -101 -133c-66 0 -99 44.333 -99 133h47c0 -26 3.83301 -48.167 11.5 -66.5s21.167 -27.5 40.5 -27.5c20 0 34.333 9.16699 43 27.5s13 40.5 13 66.5h45z" />
    <glyph glyph-name="Gdotaccent" unicode="&#x120;" horiz-adv-x="264" 
d="M155 394c-12.667 -23.333 -36 -35 -70 -35c-36 0 -54 25.333 -54 76v357c0 48.667 17.667 73 53 73c37.333 0 60.333 -15 69 -45l3 39h76v-791c0 -14.667 -2.83301 -27 -8.5 -37s-13 -18.167 -22 -24.5s-19.167 -11 -30.5 -14s-22.333 -4.5 -33 -4.5
c-38.667 0 -66.167 6.66699 -82.5 20s-24.5 33.333 -24.5 60v254h74v-256c0 -15.333 8.33301 -23 25 -23s25 7.66699 25 23v328zM155 776c0 15.333 -8.33301 26 -25 32c-16.667 0 -25 -8 -25 -24v-337c0 -16 8.33301 -24 25 -24s25 8 25 24v329zM97 917v82h70v-82h-70z" />
    <glyph glyph-name="gdotaccent" unicode="&#x121;" horiz-adv-x="264" 
d="M155 394c-12.667 -23.333 -36 -35 -70 -35c-36 0 -54 25.333 -54 76v357c0 48.667 17.667 73 53 73c37.333 0 60.333 -15 69 -45l3 39h76v-791c0 -14.667 -2.83301 -27 -8.5 -37s-13 -18.167 -22 -24.5s-19.167 -11 -30.5 -14s-22.333 -4.5 -33 -4.5
c-38.667 0 -66.167 6.66699 -82.5 20s-24.5 33.333 -24.5 60v254h74v-256c0 -15.333 8.33301 -23 25 -23s25 7.66699 25 23v328zM155 776c0 15.333 -8.33301 26 -25 32c-16.667 0 -25 -8 -25 -24v-337c0 -16 8.33301 -24 25 -24s25 8 25 24v329zM97 917v82h70v-82h-70z" />
    <glyph glyph-name="Gcommaaccent" unicode="&#x122;" horiz-adv-x="264" 
d="M155 394c-12.667 -23.333 -36 -35 -70 -35c-36 0 -54 25.333 -54 76v357c0 48.667 17.667 73 53 73c37.333 0 60.333 -15 69 -45l3 39h76v-791c0 -14.667 -2.83301 -27 -8.5 -37s-13 -18.167 -22 -24.5s-19.167 -11 -30.5 -14s-22.333 -4.5 -33 -4.5
c-38.667 0 -66.167 6.66699 -82.5 20s-24.5 33.333 -24.5 60v254h74v-256c0 -15.333 8.33301 -23 25 -23s25 7.66699 25 23v328zM155 776c0 15.333 -8.33301 26 -25 32c-16.667 0 -25 -8 -25 -24v-337c0 -16 8.33301 -24 25 -24s25 8 25 24v329zM88 -176l11 138h65l-30 -138
h-46z" />
    <glyph glyph-name="gcommaaccent" unicode="&#x123;" horiz-adv-x="264" 
d="M155 394c-12.667 -23.333 -36 -35 -70 -35c-36 0 -54 25.333 -54 76v357c0 48.667 17.667 73 53 73c37.333 0 60.333 -15 69 -45l3 39h76v-791c0 -14.667 -2.83301 -27 -8.5 -37s-13 -18.167 -22 -24.5s-19.167 -11 -30.5 -14s-22.333 -4.5 -33 -4.5
c-38.667 0 -66.167 6.66699 -82.5 20s-24.5 33.333 -24.5 60v254h74v-256c0 -15.333 8.33301 -23 25 -23s25 7.66699 25 23v328zM155 776c0 15.333 -8.33301 26 -25 32c-16.667 0 -25 -8 -25 -24v-337c0 -16 8.33301 -24 25 -24s25 8 25 24v329zM88 -176l11 138h65l-30 -138
h-46z" />
    <glyph glyph-name="Hbar" unicode="&#x126;" 
d="M152 0v384h-44v-384h-77v859h77v-169h44v169h77v-859h-77zM152 633h-44v-177h44v177z" />
    <glyph glyph-name="hbar" unicode="&#x127;" 
d="M152 0v384h-44v-384h-77v859h77v-169h44v169h77v-859h-77zM152 633h-44v-177h44v177z" />
    <glyph glyph-name="uni012A" unicode="&#x12a;" horiz-adv-x="143" 
d="M31 0v859h77v-859h-77zM-38 938v40h223v-40h-223z" />
    <glyph glyph-name="imacron" unicode="&#x12b;" horiz-adv-x="143" 
d="M31 0v859h77v-859h-77zM-38 938v40h223v-40h-223z" />
    <glyph glyph-name="Ibreve" unicode="&#x12c;" horiz-adv-x="143" 
d="M31 0v859h77v-859h-77zM173 1024c0 -88.667 -33.667 -133 -101 -133c-66 0 -99 44.333 -99 133h47c0 -26 3.83301 -48.167 11.5 -66.5s21.167 -27.5 40.5 -27.5c20 0 34.333 9.16699 43 27.5s13 40.5 13 66.5h45z" />
    <glyph glyph-name="ibreve" unicode="&#x12d;" horiz-adv-x="143" 
d="M31 0v859h77v-859h-77zM173 1024c0 -88.667 -33.667 -133 -101 -133c-66 0 -99 44.333 -99 133h47c0 -26 3.83301 -48.167 11.5 -66.5s21.167 -27.5 40.5 -27.5c20 0 34.333 9.16699 43 27.5s13 40.5 13 66.5h45z" />
    <glyph glyph-name="Iogonek" unicode="&#x12e;" horiz-adv-x="143" 
d="M108 -103c0 -27.333 -6.49902 -46.334 -19.499 -57.001s-32.833 -16 -59.5 -16c-26 0 -45.667 5.16699 -59 15.5s-20 27.5 -20 51.5c0 11.333 2.16699 22 6.5 32s11.5 18.667 21.5 26l53 35v875h77v-859l-78 -59c-6.66699 -5.33301 -11.334 -11.166 -14.001 -17.499
s-4 -15.833 -4 -28.5c0 -9.33301 1.5 -15.5 4.5 -18.5s7.16699 -4.5 12.5 -4.5c6 0 10.5 1.5 13.5 4.5s4.5 9.16699 4.5 18.5v18h61v-16z" />
    <glyph glyph-name="iogonek" unicode="&#x12f;" horiz-adv-x="143" 
d="M108 -103c0 -27.333 -6.49902 -46.334 -19.499 -57.001s-32.833 -16 -59.5 -16c-26 0 -45.667 5.16699 -59 15.5s-20 27.5 -20 51.5c0 11.333 2.16699 22 6.5 32s11.5 18.667 21.5 26l53 35v875h77v-859l-78 -59c-6.66699 -5.33301 -11.334 -11.166 -14.001 -17.499
s-4 -15.833 -4 -28.5c0 -9.33301 1.5 -15.5 4.5 -18.5s7.16699 -4.5 12.5 -4.5c6 0 10.5 1.5 13.5 4.5s4.5 9.16699 4.5 18.5v18h61v-16z" />
    <glyph glyph-name="Idotaccent" unicode="&#x130;" horiz-adv-x="143" 
d="M31 0v859h77v-859h-77zM37 917v82h70v-82h-70z" />
    <glyph glyph-name="dotlessi" unicode="&#x131;" horiz-adv-x="143" 
d="M31 0v859h77v-859h-77z" />
    <glyph glyph-name="IJ" unicode="&#x132;" horiz-adv-x="283" 
d="M31 0v859h77v-859h-77zM149 0v58h9c16 0 24 7.66699 24 23v778h68v-783c0 -28 -4.66699 -47.667 -14 -59s-27.333 -17 -54 -17h-33z" />
    <glyph glyph-name="ij" unicode="&#x133;" horiz-adv-x="283" 
d="M31 0v859h77v-859h-77zM149 0v58h9c16 0 24 7.66699 24 23v778h68v-783c0 -28 -4.66699 -47.667 -14 -59s-27.333 -17 -54 -17h-33z" />
    <glyph glyph-name="Kcommaaccent" unicode="&#x136;" horiz-adv-x="259" 
d="M165 0l-55 427v-427h-79v859h79v-404l59 404h80l-72 -411l70 -448h-82zM95 -176l11 138h65l-30 -138h-46z" />
    <glyph glyph-name="kcommaaccent" unicode="&#x137;" horiz-adv-x="259" 
d="M165 0l-55 427v-427h-79v859h79v-404l59 404h80l-72 -411l70 -448h-82zM95 -176l11 138h65l-30 -138h-46z" />
    <glyph glyph-name="Lacute" unicode="&#x139;" horiz-adv-x="206" 
d="M31 0v859h77v-789h93v-70h-170zM57 903l25 121h86l-48 -121h-63z" />
    <glyph glyph-name="lacute" unicode="&#x13a;" horiz-adv-x="206" 
d="M31 0v859h77v-789h93v-70h-170zM57 903l25 121h86l-48 -121h-63z" />
    <glyph glyph-name="Lcommaaccent" unicode="&#x13b;" horiz-adv-x="206" 
d="M31 0v859h77v-789h93v-70h-170zM69 -176l11 138h65l-30 -138h-46z" />
    <glyph glyph-name="lcommaaccent" unicode="&#x13c;" horiz-adv-x="206" 
d="M31 0v859h77v-789h93v-70h-170zM69 -176l11 138h65l-30 -138h-46z" />
    <glyph glyph-name="Lcaron" unicode="&#x13d;" horiz-adv-x="206" 
d="M31 0v859h77v-789h93v-70h-170zM143 664v195h58v-195h-58z" />
    <glyph glyph-name="lcaron" unicode="&#x13e;" horiz-adv-x="206" 
d="M31 0v859h77v-789h93v-70h-170zM143 664v195h58v-195h-58z" />
    <glyph glyph-name="Ldot" unicode="&#x13f;" horiz-adv-x="206" 
d="M31 0v859h77v-789h93v-70h-170zM136 385v82h70v-82h-70z" />
    <glyph glyph-name="ldot" unicode="&#x140;" horiz-adv-x="206" 
d="M31 0v859h77v-789h93v-70h-170zM136 385v82h70v-82h-70z" />
    <glyph glyph-name="Lslash" unicode="&#x141;" horiz-adv-x="206" 
d="M31 0v378l-36 -17v55l36 17v426h77v-391l75 33v-55l-75 -34v-342h93v-70h-170z" />
    <glyph glyph-name="lslash" unicode="&#x142;" horiz-adv-x="206" 
d="M31 0v378l-36 -17v55l36 17v426h77v-391l75 33v-55l-75 -34v-342h93v-70h-170z" />
    <glyph glyph-name="Nacute" unicode="&#x143;" horiz-adv-x="256" 
d="M150 0v783c0 16 -8.33301 24 -25 24c-13.333 0 -20 -8 -20 -24v-783h-74v859h71v-32c12.667 25.333 35 38 67 38c36 0 54 -23.667 54 -71v-794h-73zM104 903l25 121h86l-48 -121h-63z" />
    <glyph glyph-name="nacute" unicode="&#x144;" horiz-adv-x="256" 
d="M150 0v783c0 16 -8.33301 24 -25 24c-13.333 0 -20 -8 -20 -24v-783h-74v859h71v-32c12.667 25.333 35 38 67 38c36 0 54 -23.667 54 -71v-794h-73zM104 903l25 121h86l-48 -121h-63z" />
    <glyph glyph-name="Ncommaaccent" unicode="&#x145;" horiz-adv-x="256" 
d="M150 0v783c0 16 -8.33301 24 -25 24c-13.333 0 -20 -8 -20 -24v-783h-74v859h71v-32c12.667 25.333 35 38 67 38c36 0 54 -23.667 54 -71v-794h-73zM94 -176l11 138h65l-30 -138h-46z" />
    <glyph glyph-name="ncommaaccent" unicode="&#x146;" horiz-adv-x="256" 
d="M150 0v783c0 16 -8.33301 24 -25 24c-13.333 0 -20 -8 -20 -24v-783h-74v859h71v-32c12.667 25.333 35 38 67 38c36 0 54 -23.667 54 -71v-794h-73zM94 -176l11 138h65l-30 -138h-46z" />
    <glyph glyph-name="Ncaron" unicode="&#x147;" horiz-adv-x="256" 
d="M150 0v783c0 16 -8.33301 24 -25 24c-13.333 0 -20 -8 -20 -24v-783h-74v859h71v-32c12.667 25.333 35 38 67 38c36 0 54 -23.667 54 -71v-794h-73zM101 903l-57 121h45l40 -68l40 68h45l-58 -121h-55z" />
    <glyph glyph-name="ncaron" unicode="&#x148;" horiz-adv-x="256" 
d="M150 0v783c0 16 -8.33301 24 -25 24c-13.333 0 -20 -8 -20 -24v-783h-74v859h71v-32c12.667 25.333 35 38 67 38c36 0 54 -23.667 54 -71v-794h-73zM101 903l-57 121h45l40 -68l40 68h45l-58 -121h-55z" />
    <glyph glyph-name="Eng" unicode="&#x14a;" horiz-adv-x="256" 
d="M117 -176l0.000976562 57c11.333 1.33301 19.666 4.33301 24.999 9s8 9.66699 8 15v878c0 16 -8.33301 24 -25 24c-13.333 0 -20 -8 -20 -24v-783h-74v859h71v-32c12.667 25.333 35 38 67 38c36 0 54 -23.667 54 -71v-902c0 -24.667 -3.83301 -42.167 -11.5 -52.5
s-24.167 -15.5 -49.5 -15.5h-45z" />
    <glyph glyph-name="eng" unicode="&#x14b;" horiz-adv-x="256" 
d="M117 -176l0.000976562 57c11.333 1.33301 19.666 4.33301 24.999 9s8 9.66699 8 15v878c0 16 -8.33301 24 -25 24c-13.333 0 -20 -8 -20 -24v-783h-74v859h71v-32c12.667 25.333 35 38 67 38c36 0 54 -23.667 54 -71v-902c0 -24.667 -3.83301 -42.167 -11.5 -52.5
s-24.167 -15.5 -49.5 -15.5h-45z" />
    <glyph glyph-name="Omacron" unicode="&#x14c;" 
d="M30 772c0 66.667 33.333 100 100 100c67.333 0 101 -33.333 101 -100v-684c0 -66.667 -33.667 -100 -101 -100c-66.667 0 -100 33.333 -100 100v684zM153 781c0 19.333 -7.66699 29 -23 29c-14.667 0 -22 -9.66699 -22 -29v-698c0 -20 7.33301 -30 22 -30
c15.333 0 23 10.333 23 31v697zM20 938v40h223v-40h-223z" />
    <glyph glyph-name="omacron" unicode="&#x14d;" 
d="M30 772c0 66.667 33.333 100 100 100c67.333 0 101 -33.333 101 -100v-684c0 -66.667 -33.667 -100 -101 -100c-66.667 0 -100 33.333 -100 100v684zM153 781c0 19.333 -7.66699 29 -23 29c-14.667 0 -22 -9.66699 -22 -29v-698c0 -20 7.33301 -30 22 -30
c15.333 0 23 10.333 23 31v697zM20 938v40h223v-40h-223z" />
    <glyph glyph-name="Obreve" unicode="&#x14e;" 
d="M30 772c0 66.667 33.333 100 100 100c67.333 0 101 -33.333 101 -100v-684c0 -66.667 -33.667 -100 -101 -100c-66.667 0 -100 33.333 -100 100v684zM153 781c0 19.333 -7.66699 29 -23 29c-14.667 0 -22 -9.66699 -22 -29v-698c0 -20 7.33301 -30 22 -30
c15.333 0 23 10.333 23 31v697zM232 1024c0 -88.667 -33.667 -133 -101 -133c-66 0 -99 44.333 -99 133h47c0 -26 3.83301 -48.167 11.5 -66.5s21.167 -27.5 40.5 -27.5c20 0 34.333 9.16699 43 27.5s13 40.5 13 66.5h45z" />
    <glyph glyph-name="obreve" unicode="&#x14f;" 
d="M30 772c0 66.667 33.333 100 100 100c67.333 0 101 -33.333 101 -100v-684c0 -66.667 -33.667 -100 -101 -100c-66.667 0 -100 33.333 -100 100v684zM153 781c0 19.333 -7.66699 29 -23 29c-14.667 0 -22 -9.66699 -22 -29v-698c0 -20 7.33301 -30 22 -30
c15.333 0 23 10.333 23 31v697zM232 1024c0 -88.667 -33.667 -133 -101 -133c-66 0 -99 44.333 -99 133h47c0 -26 3.83301 -48.167 11.5 -66.5s21.167 -27.5 40.5 -27.5c20 0 34.333 9.16699 43 27.5s13 40.5 13 66.5h45z" />
    <glyph glyph-name="Ohungarumlaut" unicode="&#x150;" 
d="M30 772c0 66.667 33.333 100 100 100c67.333 0 101 -33.333 101 -100v-684c0 -66.667 -33.667 -100 -101 -100c-66.667 0 -100 33.333 -100 100v684zM153 781c0 19.333 -7.66699 29 -23 29c-14.667 0 -22 -9.66699 -22 -29v-698c0 -20 7.33301 -30 22 -30
c15.333 0 23 10.333 23 31v697zM153 903l25 121h86l-48 -121h-63zM49 903l26 121h86l-49 -121h-63z" />
    <glyph glyph-name="ohungarumlaut" unicode="&#x151;" 
d="M30 772c0 66.667 33.333 100 100 100c67.333 0 101 -33.333 101 -100v-684c0 -66.667 -33.667 -100 -101 -100c-66.667 0 -100 33.333 -100 100v684zM153 781c0 19.333 -7.66699 29 -23 29c-14.667 0 -22 -9.66699 -22 -29v-698c0 -20 7.33301 -30 22 -30
c15.333 0 23 10.333 23 31v697zM153 903l25 121h86l-48 -121h-63zM49 903l26 121h86l-49 -121h-63z" />
    <glyph glyph-name="OE" unicode="&#x152;" horiz-adv-x="389" 
d="M280 365h78.002v-297c0 -23.333 -9.33301 -42.5 -28 -57.5s-43 -22.5 -73 -22.5c-25.333 0 -46.666 4.66699 -63.999 14c-16.667 -9.33301 -37.334 -14 -62.001 -14c-66.667 0 -100 33.333 -100 100v684c0 66.667 33.333 100 100 100c12.667 0 24.167 -1.33301 34.5 -4
s19.5 -6.33398 27.5 -11.001c8 4.66699 17.167 8.33398 27.5 11.001s22.166 4 35.499 4c31.333 0 56.166 -7 74.499 -21s27.5 -32.667 27.5 -56v-393h-126v-334c0 -14 8.33301 -21 25 -21c15.333 0 23 7 23 21v297zM153.002 780c0 20 -7.33301 30 -22 30
s-22 -9.66699 -22 -29v-698c0 -20 7.33301 -30 22 -30c7.33301 0 12.833 2.33301 16.5 7s5.5 12.667 5.5 24v696zM280.002 794c0 14.667 -7.66699 22 -23 22c-16.667 0 -25 -7.33301 -25 -22v-339h48v339z" />
    <glyph glyph-name="oe" unicode="&#x153;" horiz-adv-x="389" 
d="M280 365h78.002v-297c0 -23.333 -9.33301 -42.5 -28 -57.5s-43 -22.5 -73 -22.5c-25.333 0 -46.666 4.66699 -63.999 14c-16.667 -9.33301 -37.334 -14 -62.001 -14c-66.667 0 -100 33.333 -100 100v684c0 66.667 33.333 100 100 100c12.667 0 24.167 -1.33301 34.5 -4
s19.5 -6.33398 27.5 -11.001c8 4.66699 17.167 8.33398 27.5 11.001s22.166 4 35.499 4c31.333 0 56.166 -7 74.499 -21s27.5 -32.667 27.5 -56v-393h-126v-334c0 -14 8.33301 -21 25 -21c15.333 0 23 7 23 21v297zM153.002 780c0 20 -7.33301 30 -22 30
s-22 -9.66699 -22 -29v-698c0 -20 7.33301 -30 22 -30c7.33301 0 12.833 2.33301 16.5 7s5.5 12.667 5.5 24v696zM280.002 794c0 14.667 -7.66699 22 -23 22c-16.667 0 -25 -7.33301 -25 -22v-339h48v339z" />
    <glyph glyph-name="Racute" unicode="&#x154;" 
d="M164 0c-7.33301 14.667 -11 47 -11 97v287c0 21.333 -15 32 -45 32v-416h-77v859h96c34 0 60 -7.66699 78 -23s27 -39 27 -71v-228c0 -49.333 -25.667 -79 -77 -89c51.333 -4 77 -28.667 77 -74v-280c0 -44.667 4 -76 12 -94h-80zM153 766c0 22 -9.33301 33 -28 33h-17
v-319h17c18.667 0 28 11.667 28 35v251zM106 903l25 121h86l-48 -121h-63z" />
    <glyph glyph-name="racute" unicode="&#x155;" 
d="M164 0c-7.33301 14.667 -11 47 -11 97v287c0 21.333 -15 32 -45 32v-416h-77v859h96c34 0 60 -7.66699 78 -23s27 -39 27 -71v-228c0 -49.333 -25.667 -79 -77 -89c51.333 -4 77 -28.667 77 -74v-280c0 -44.667 4 -76 12 -94h-80zM153 766c0 22 -9.33301 33 -28 33h-17
v-319h17c18.667 0 28 11.667 28 35v251zM106 903l25 121h86l-48 -121h-63z" />
    <glyph glyph-name="Rcommaaccent" unicode="&#x156;" 
d="M164 0c-7.33301 14.667 -11 47 -11 97v287c0 21.333 -15 32 -45 32v-416h-77v859h96c34 0 60 -7.66699 78 -23s27 -39 27 -71v-228c0 -49.333 -25.667 -79 -77 -89c51.333 -4 77 -28.667 77 -74v-280c0 -44.667 4 -76 12 -94h-80zM153 766c0 22 -9.33301 33 -28 33h-17
v-319h17c18.667 0 28 11.667 28 35v251zM96 -176l11 138h65l-30 -138h-46z" />
    <glyph glyph-name="rcommaaccent" unicode="&#x157;" 
d="M164 0c-7.33301 14.667 -11 47 -11 97v287c0 21.333 -15 32 -45 32v-416h-77v859h96c34 0 60 -7.66699 78 -23s27 -39 27 -71v-228c0 -49.333 -25.667 -79 -77 -89c51.333 -4 77 -28.667 77 -74v-280c0 -44.667 4 -76 12 -94h-80zM153 766c0 22 -9.33301 33 -28 33h-17
v-319h17c18.667 0 28 11.667 28 35v251zM96 -176l11 138h65l-30 -138h-46z" />
    <glyph glyph-name="Rcaron" unicode="&#x158;" 
d="M164 0c-7.33301 14.667 -11 47 -11 97v287c0 21.333 -15 32 -45 32v-416h-77v859h96c34 0 60 -7.66699 78 -23s27 -39 27 -71v-228c0 -49.333 -25.667 -79 -77 -89c51.333 -4 77 -28.667 77 -74v-280c0 -44.667 4 -76 12 -94h-80zM153 766c0 22 -9.33301 33 -28 33h-17
v-319h17c18.667 0 28 11.667 28 35v251zM104 903l-57 121h45l40 -68l40 68h45l-58 -121h-55z" />
    <glyph glyph-name="rcaron" unicode="&#x159;" 
d="M164 0c-7.33301 14.667 -11 47 -11 97v287c0 21.333 -15 32 -45 32v-416h-77v859h96c34 0 60 -7.66699 78 -23s27 -39 27 -71v-228c0 -49.333 -25.667 -79 -77 -89c51.333 -4 77 -28.667 77 -74v-280c0 -44.667 4 -76 12 -94h-80zM153 766c0 22 -9.33301 33 -28 33h-17
v-319h17c18.667 0 28 11.667 28 35v251zM104 903l-57 121h45l40 -68l40 68h45l-58 -121h-55z" />
    <glyph glyph-name="Sacute" unicode="&#x15a;" horiz-adv-x="256" 
d="M227 88c0 -66.667 -33.3311 -100.001 -99.998 -100.001s-100 33.333 -100 100v181h78v-184c0 -21.333 7.33301 -32 22 -32c15.333 0 23 10.667 23 32v73c0 16 -0.666992 32.667 -2 50s-5.33301 39.666 -12 66.999c-12.667 54 -27.334 104.833 -44.001 152.5
s-31.334 97.834 -44.001 150.501c-9.33301 36 -15.166 65.833 -17.499 89.5s-3.5 45.167 -3.5 64.5v40c0 66.667 33.333 100 100 100s100 -33.333 100 -100v-166h-77v172c0 21.333 -7.66699 32 -23 32c-14.667 0 -22 -8.66699 -22 -26v-56
c0 -13.333 0.666992 -29.166 2 -47.499s5.66602 -42.5 12.999 -72.5c6.66699 -27.333 14.167 -54 22.5 -80l25 -77.5c8.33301 -25.667 16.333 -51.5 24 -77.5s14.5 -52.667 20.5 -80c10 -48 15 -93.667 15 -137v-68zM104.002 902.999l25 121h86l-48 -121h-63z" />
    <glyph glyph-name="sacute" unicode="&#x15b;" horiz-adv-x="256" 
d="M227 88c0 -66.667 -33.3311 -100.001 -99.998 -100.001s-100 33.333 -100 100v181h78v-184c0 -21.333 7.33301 -32 22 -32c15.333 0 23 10.667 23 32v73c0 16 -0.666992 32.667 -2 50s-5.33301 39.666 -12 66.999c-12.667 54 -27.334 104.833 -44.001 152.5
s-31.334 97.834 -44.001 150.501c-9.33301 36 -15.166 65.833 -17.499 89.5s-3.5 45.167 -3.5 64.5v40c0 66.667 33.333 100 100 100s100 -33.333 100 -100v-166h-77v172c0 21.333 -7.66699 32 -23 32c-14.667 0 -22 -8.66699 -22 -26v-56
c0 -13.333 0.666992 -29.166 2 -47.499s5.66602 -42.5 12.999 -72.5c6.66699 -27.333 14.167 -54 22.5 -80l25 -77.5c8.33301 -25.667 16.333 -51.5 24 -77.5s14.5 -52.667 20.5 -80c10 -48 15 -93.667 15 -137v-68zM104.002 902.999l25 121h86l-48 -121h-63z" />
    <glyph glyph-name="Scedilla" unicode="&#x15e;" horiz-adv-x="256" 
d="M227 88c0 -66.667 -33.3311 -100.001 -99.998 -100.001s-100 33.333 -100 100v181h78v-184c0 -21.333 7.33301 -32 22 -32c15.333 0 23 10.667 23 32v73c0 16 -0.666992 32.667 -2 50s-5.33301 39.666 -12 66.999c-12.667 54 -27.334 104.833 -44.001 152.5
s-31.334 97.834 -44.001 150.501c-9.33301 36 -15.166 65.833 -17.499 89.5s-3.5 45.167 -3.5 64.5v40c0 66.667 33.333 100 100 100s100 -33.333 100 -100v-166h-77v172c0 21.333 -7.66699 32 -23 32c-14.667 0 -22 -8.66699 -22 -26v-56
c0 -13.333 0.666992 -29.166 2 -47.499s5.66602 -42.5 12.999 -72.5c6.66699 -27.333 14.167 -54 22.5 -80l25 -77.5c8.33301 -25.667 16.333 -51.5 24 -77.5s14.5 -52.667 20.5 -80c10 -48 15 -93.667 15 -137v-68zM83.002 -176.001l11 138h65l-30 -138h-46z" />
    <glyph glyph-name="scedilla" unicode="&#x15f;" horiz-adv-x="256" 
d="M227 88c0 -66.667 -33.3311 -100.001 -99.998 -100.001s-100 33.333 -100 100v181h78v-184c0 -21.333 7.33301 -32 22 -32c15.333 0 23 10.667 23 32v73c0 16 -0.666992 32.667 -2 50s-5.33301 39.666 -12 66.999c-12.667 54 -27.334 104.833 -44.001 152.5
s-31.334 97.834 -44.001 150.501c-9.33301 36 -15.166 65.833 -17.499 89.5s-3.5 45.167 -3.5 64.5v40c0 66.667 33.333 100 100 100s100 -33.333 100 -100v-166h-77v172c0 21.333 -7.66699 32 -23 32c-14.667 0 -22 -8.66699 -22 -26v-56
c0 -13.333 0.666992 -29.166 2 -47.499s5.66602 -42.5 12.999 -72.5c6.66699 -27.333 14.167 -54 22.5 -80l25 -77.5c8.33301 -25.667 16.333 -51.5 24 -77.5s14.5 -52.667 20.5 -80c10 -48 15 -93.667 15 -137v-68zM83.002 -176.001l11 138h65l-30 -138h-46z" />
    <glyph glyph-name="Scaron" unicode="&#x160;" horiz-adv-x="256" 
d="M227 88c0 -66.667 -33.3311 -100.001 -99.998 -100.001s-100 33.333 -100 100v181h78v-184c0 -21.333 7.33301 -32 22 -32c15.333 0 23 10.667 23 32v73c0 16 -0.666992 32.667 -2 50s-5.33301 39.666 -12 66.999c-12.667 54 -27.334 104.833 -44.001 152.5
s-31.334 97.834 -44.001 150.501c-9.33301 36 -15.166 65.833 -17.499 89.5s-3.5 45.167 -3.5 64.5v40c0 66.667 33.333 100 100 100s100 -33.333 100 -100v-166h-77v172c0 21.333 -7.66699 32 -23 32c-14.667 0 -22 -8.66699 -22 -26v-56
c0 -13.333 0.666992 -29.166 2 -47.499s5.66602 -42.5 12.999 -72.5c6.66699 -27.333 14.167 -54 22.5 -80l25 -77.5c8.33301 -25.667 16.333 -51.5 24 -77.5s14.5 -52.667 20.5 -80c10 -48 15 -93.667 15 -137v-68zM101.002 902.999l-57 121h45l40 -68l40 68h45l-58 -121
h-55z" />
    <glyph glyph-name="scaron" unicode="&#x161;" horiz-adv-x="256" 
d="M227 88c0 -66.667 -33.3311 -100.001 -99.998 -100.001s-100 33.333 -100 100v181h78v-184c0 -21.333 7.33301 -32 22 -32c15.333 0 23 10.667 23 32v73c0 16 -0.666992 32.667 -2 50s-5.33301 39.666 -12 66.999c-12.667 54 -27.334 104.833 -44.001 152.5
s-31.334 97.834 -44.001 150.501c-9.33301 36 -15.166 65.833 -17.499 89.5s-3.5 45.167 -3.5 64.5v40c0 66.667 33.333 100 100 100s100 -33.333 100 -100v-166h-77v172c0 21.333 -7.66699 32 -23 32c-14.667 0 -22 -8.66699 -22 -26v-56
c0 -13.333 0.666992 -29.166 2 -47.499s5.66602 -42.5 12.999 -72.5c6.66699 -27.333 14.167 -54 22.5 -80l25 -77.5c8.33301 -25.667 16.333 -51.5 24 -77.5s14.5 -52.667 20.5 -80c10 -48 15 -93.667 15 -137v-68zM101.002 902.999l-57 121h45l40 -68l40 68h45l-58 -121
h-55z" />
    <glyph glyph-name="Tcommaaccent" unicode="&#x162;" horiz-adv-x="233" 
d="M78 0v792h-68v67h212v-67h-67v-792h-77zM75 -176l11 138h65l-30 -138h-46z" />
    <glyph glyph-name="tcommaaccent" unicode="&#x163;" horiz-adv-x="233" 
d="M78 0v792h-68v67h212v-67h-67v-792h-77zM75 -176l11 138h65l-30 -138h-46z" />
    <glyph glyph-name="Tcaron" unicode="&#x164;" horiz-adv-x="233" 
d="M78 0v792h-68v67h212v-67h-67v-792h-77zM90 903l-57 121h45l40 -68l40 68h45l-58 -121h-55z" />
    <glyph glyph-name="tcaron" unicode="&#x165;" horiz-adv-x="233" 
d="M78 0v792h-68v67h212v-67h-67v-792h-77zM90 903l-57 121h45l40 -68l40 68h45l-58 -121h-55z" />
    <glyph glyph-name="Tbar" unicode="&#x166;" horiz-adv-x="233" 
d="M78 0v478h-57v56h57v258h-68v67h212v-67h-67v-258h56v-56h-56v-478h-77z" />
    <glyph glyph-name="tbar" unicode="&#x167;" horiz-adv-x="233" 
d="M78 0v478h-57v56h57v258h-68v67h212v-67h-67v-258h56v-56h-56v-478h-77z" />
    <glyph glyph-name="Utilde" unicode="&#x168;" horiz-adv-x="255" 
d="M152 859h77v-771c0 -66.667 -33.667 -100 -101 -100c-66.667 0 -100 33.333 -100 100v771h79v-774c0 -21.333 7 -32 21 -32c16 0 24 10.667 24 32v774zM229 1015c0 -32 -5.50098 -56.499 -16.501 -73.499s-25.167 -25.5 -42.5 -25.5c-4 0 -9 0.5 -15 1.5
s-12 3.16699 -18 6.5s-12.333 7.16602 -19 11.499l-19 12.5c-6 4 -11.667 7.33301 -17 10s-10 4 -14 4c-7.33301 0 -12.166 -3.33301 -14.499 -10s-3.5 -18.334 -3.5 -35.001h-22c0.666992 65.333 20.667 98 60 98c4.66699 0 10.167 -0.833008 16.5 -2.5
s12.833 -4.16699 19.5 -7.5c12.667 -7.33301 25.167 -15.166 37.5 -23.499s21.833 -12.5 28.5 -12.5c7.33301 0 12 3 14 9s3.33301 18.333 4 37h21z" />
    <glyph glyph-name="utilde" unicode="&#x169;" horiz-adv-x="255" 
d="M152 859h77v-771c0 -66.667 -33.667 -100 -101 -100c-66.667 0 -100 33.333 -100 100v771h79v-774c0 -21.333 7 -32 21 -32c16 0 24 10.667 24 32v774zM229 1015c0 -32 -5.50098 -56.499 -16.501 -73.499s-25.167 -25.5 -42.5 -25.5c-4 0 -9 0.5 -15 1.5
s-12 3.16699 -18 6.5s-12.333 7.16602 -19 11.499l-19 12.5c-6 4 -11.667 7.33301 -17 10s-10 4 -14 4c-7.33301 0 -12.166 -3.33301 -14.499 -10s-3.5 -18.334 -3.5 -35.001h-22c0.666992 65.333 20.667 98 60 98c4.66699 0 10.167 -0.833008 16.5 -2.5
s12.833 -4.16699 19.5 -7.5c12.667 -7.33301 25.167 -15.166 37.5 -23.499s21.833 -12.5 28.5 -12.5c7.33301 0 12 3 14 9s3.33301 18.333 4 37h21z" />
    <glyph glyph-name="Umacron" unicode="&#x16a;" horiz-adv-x="255" 
d="M152 859h77v-771c0 -66.667 -33.667 -100 -101 -100c-66.667 0 -100 33.333 -100 100v771h79v-774c0 -21.333 7 -32 21 -32c16 0 24 10.667 24 32v774zM17 938v40h223v-40h-223z" />
    <glyph glyph-name="umacron" unicode="&#x16b;" horiz-adv-x="255" 
d="M152 859h77v-771c0 -66.667 -33.667 -100 -101 -100c-66.667 0 -100 33.333 -100 100v771h79v-774c0 -21.333 7 -32 21 -32c16 0 24 10.667 24 32v774zM17 938v40h223v-40h-223z" />
    <glyph glyph-name="Ubreve" unicode="&#x16c;" horiz-adv-x="255" 
d="M152 859h77v-771c0 -66.667 -33.667 -100 -101 -100c-66.667 0 -100 33.333 -100 100v771h79v-774c0 -21.333 7 -32 21 -32c16 0 24 10.667 24 32v774zM228 1024c0 -88.667 -33.667 -133 -101 -133c-66 0 -99 44.333 -99 133h47c0 -26 3.83301 -48.167 11.5 -66.5
s21.167 -27.5 40.5 -27.5c20 0 34.333 9.16699 43 27.5s13 40.5 13 66.5h45z" />
    <glyph glyph-name="ubreve" unicode="&#x16d;" horiz-adv-x="255" 
d="M152 859h77v-771c0 -66.667 -33.667 -100 -101 -100c-66.667 0 -100 33.333 -100 100v771h79v-774c0 -21.333 7 -32 21 -32c16 0 24 10.667 24 32v774zM228 1024c0 -88.667 -33.667 -133 -101 -133c-66 0 -99 44.333 -99 133h47c0 -26 3.83301 -48.167 11.5 -66.5
s21.167 -27.5 40.5 -27.5c20 0 34.333 9.16699 43 27.5s13 40.5 13 66.5h45z" />
    <glyph glyph-name="Uring" unicode="&#x16e;" horiz-adv-x="255" 
d="M152 859h77v-771c0 -66.667 -33.667 -100 -101 -100c-66.667 0 -100 33.333 -100 100v771h79v-774c0 -21.333 7 -32 21 -32c16 0 24 10.667 24 32v774zM124 888c-22 0 -38.334 6 -49.001 18s-16 28.667 -16 50c0 45.333 21.667 68 65 68c44 0 66 -22.667 66 -68
c0 -21.333 -5.66699 -38 -17 -50s-27.666 -18 -48.999 -18zM123.999 914c26 0 39 14.333 39 43s-13 43 -39 43c-25.333 0 -38 -14.333 -38 -43s12.667 -43 38 -43z" />
    <glyph glyph-name="uring" unicode="&#x16f;" horiz-adv-x="255" 
d="M152 859h77v-771c0 -66.667 -33.667 -100 -101 -100c-66.667 0 -100 33.333 -100 100v771h79v-774c0 -21.333 7 -32 21 -32c16 0 24 10.667 24 32v774zM124 888c-22 0 -38.334 6 -49.001 18s-16 28.667 -16 50c0 45.333 21.667 68 65 68c44 0 66 -22.667 66 -68
c0 -21.333 -5.66699 -38 -17 -50s-27.666 -18 -48.999 -18zM123.999 914c26 0 39 14.333 39 43s-13 43 -39 43c-25.333 0 -38 -14.333 -38 -43s12.667 -43 38 -43z" />
    <glyph glyph-name="Uhungarumlaut" unicode="&#x170;" horiz-adv-x="255" 
d="M152 859h77v-771c0 -66.667 -33.667 -100 -101 -100c-66.667 0 -100 33.333 -100 100v771h79v-774c0 -21.333 7 -32 21 -32c16 0 24 10.667 24 32v774zM140 903l25 121h86l-48 -121h-63zM36 903l26 121h86l-49 -121h-63z" />
    <glyph glyph-name="uhungarumlaut" unicode="&#x171;" horiz-adv-x="255" 
d="M152 859h77v-771c0 -66.667 -33.667 -100 -101 -100c-66.667 0 -100 33.333 -100 100v771h79v-774c0 -21.333 7 -32 21 -32c16 0 24 10.667 24 32v774zM140 903l25 121h86l-48 -121h-63zM36 903l26 121h86l-49 -121h-63z" />
    <glyph glyph-name="Uogonek" unicode="&#x172;" horiz-adv-x="255" 
d="M186 -103c0 -27.333 -6.66699 -46.3311 -20 -56.998s-33 -16 -59 -16s-45.833 5.16699 -59.5 15.5s-20.5 27.5 -20.5 51.5c0 11.333 2.33301 22 7 32s12 18.667 22 26l59 41c-58 4 -87 36.667 -87 98v771h79v-774c0 -21.333 7 -32 21 -32c16 0 24 10.667 24 32v774h77
v-771c0 -38 -10.333 -64.667 -31 -80l-90 -67c-7.33301 -4.66699 -12.333 -10.334 -15 -17.001s-4 -16.334 -4 -29.001c0 -9.33301 1.5 -15.5 4.5 -18.5s7.5 -4.5 13.5 -4.5s10.5 1.5 13.5 4.5s4.5 9.16699 4.5 18.5v18h61v-16z" />
    <glyph glyph-name="uogonek" unicode="&#x173;" horiz-adv-x="255" 
d="M186 -103c0 -27.333 -6.66699 -46.3311 -20 -56.998s-33 -16 -59 -16s-45.833 5.16699 -59.5 15.5s-20.5 27.5 -20.5 51.5c0 11.333 2.33301 22 7 32s12 18.667 22 26l59 41c-58 4 -87 36.667 -87 98v771h79v-774c0 -21.333 7 -32 21 -32c16 0 24 10.667 24 32v774h77
v-771c0 -38 -10.333 -64.667 -31 -80l-90 -67c-7.33301 -4.66699 -12.333 -10.334 -15 -17.001s-4 -16.334 -4 -29.001c0 -9.33301 1.5 -15.5 4.5 -18.5s7.5 -4.5 13.5 -4.5s10.5 1.5 13.5 4.5s4.5 9.16699 4.5 18.5v18h61v-16z" />
    <glyph glyph-name="Wcircumflex" unicode="&#x174;" horiz-adv-x="440" 
d="M269 0l-47 687l-45 -687h-111l-50 859h81l26 -745l50 745h102l50 -745l26 745h77l-47 -859h-112zM259 903l-40 68l-40 -68h-45l58 121h55l57 -121h-45z" />
    <glyph glyph-name="wcircumflex" unicode="&#x175;" horiz-adv-x="440" 
d="M269 0l-47 687l-45 -687h-111l-50 859h81l26 -745l50 745h102l50 -745l26 745h77l-47 -859h-112zM259 903l-40 68l-40 -68h-45l58 121h55l57 -121h-45z" />
    <glyph glyph-name="Ycircumflex" unicode="&#x176;" horiz-adv-x="267" 
d="M157 377c-7.33301 -8 -15.999 -14 -25.999 -18s-19.667 -6 -29 -6c-21.333 0 -38.666 7.16699 -51.999 21.5s-20 31.833 -20 52.5v432h79v-406c0 -10 2.16699 -17.5 6.5 -22.5s9.16602 -7.5 14.499 -7.5c8 0 14.5 2.5 19.5 7.5s7.5 12.5 7.5 22.5v406h78v-771
c0 -66.667 -35 -100 -105 -100c-66.667 0 -100 33.333 -100 100v228h79v-231c0 -10.667 2.16699 -18.667 6.5 -24s10.166 -8 17.499 -8c16 0 24 10.667 24 32v292zM175.001 903l-40 68l-40 -68h-45l58 121h55l57 -121h-45z" />
    <glyph glyph-name="ycircumflex" unicode="&#x177;" horiz-adv-x="267" 
d="M157 377c-7.33301 -8 -15.999 -14 -25.999 -18s-19.667 -6 -29 -6c-21.333 0 -38.666 7.16699 -51.999 21.5s-20 31.833 -20 52.5v432h79v-406c0 -10 2.16699 -17.5 6.5 -22.5s9.16602 -7.5 14.499 -7.5c8 0 14.5 2.5 19.5 7.5s7.5 12.5 7.5 22.5v406h78v-771
c0 -66.667 -35 -100 -105 -100c-66.667 0 -100 33.333 -100 100v228h79v-231c0 -10.667 2.16699 -18.667 6.5 -24s10.166 -8 17.499 -8c16 0 24 10.667 24 32v292zM175.001 903l-40 68l-40 -68h-45l58 121h55l57 -121h-45z" />
    <glyph glyph-name="Ydieresis" unicode="&#x178;" horiz-adv-x="267" 
d="M157 377c-7.33301 -8 -15.999 -14 -25.999 -18s-19.667 -6 -29 -6c-21.333 0 -38.666 7.16699 -51.999 21.5s-20 31.833 -20 52.5v432h79v-406c0 -10 2.16699 -17.5 6.5 -22.5s9.16602 -7.5 14.499 -7.5c8 0 14.5 2.5 19.5 7.5s7.5 12.5 7.5 22.5v406h78v-771
c0 -66.667 -35 -100 -105 -100c-66.667 0 -100 33.333 -100 100v228h79v-231c0 -10.667 2.16699 -18.667 6.5 -24s10.166 -8 17.499 -8c16 0 24 10.667 24 32v292zM157.001 917v82h69v-82h-69zM44.001 917v82h70v-82h-70z" />
    <glyph glyph-name="Zacute" unicode="&#x179;" horiz-adv-x="201" 
d="M16 0v42l89 750h-89v67h171v-50l-87 -742h90v-67h-174zM76 903l25 121h86l-48 -121h-63z" />
    <glyph glyph-name="zacute" unicode="&#x17a;" horiz-adv-x="201" 
d="M16 0v42l89 750h-89v67h171v-50l-87 -742h90v-67h-174zM76 903l25 121h86l-48 -121h-63z" />
    <glyph glyph-name="Zdotaccent" unicode="&#x17b;" horiz-adv-x="201" 
d="M16 0v42l89 750h-89v67h171v-50l-87 -742h90v-67h-174zM66 917v82h70v-82h-70z" />
    <glyph glyph-name="zdotaccent" unicode="&#x17c;" horiz-adv-x="201" 
d="M16 0v42l89 750h-89v67h171v-50l-87 -742h90v-67h-174zM66 917v82h70v-82h-70z" />
    <glyph glyph-name="Zcaron" unicode="&#x17d;" horiz-adv-x="201" 
d="M16 0v42l89 750h-89v67h171v-50l-87 -742h90v-67h-174zM74 903l-57 121h45l40 -68l40 68h45l-58 -121h-55z" />
    <glyph glyph-name="zcaron" unicode="&#x17e;" horiz-adv-x="201" 
d="M16 0v42l89 750h-89v67h171v-50l-87 -742h90v-67h-174zM74 903l-57 121h45l40 -68l40 68h45l-58 -121h-55z" />
    <glyph glyph-name="florin" unicode="&#x192;" horiz-adv-x="203" 
d="M-8 -176l0.000976562 56.998c21.333 0 33 8 35 24l40 423h-38v59h43l39 404c2 26 7.5 43.833 16.5 53.5s26.167 14.5 51.5 14.5h34v-58c-13.333 -1.33301 -22.333 -3.66602 -27 -6.99902s-7.33398 -8.66602 -8.00098 -15.999l-37 -391h33v-59h-40l-42 -436
c-2 -24.667 -7.5 -42.167 -16.5 -52.5s-25.833 -15.5 -50.5 -15.5h-33z" />
    <glyph glyph-name="Scommaaccent" unicode="&#x218;" horiz-adv-x="256" 
d="M227 88c0 -66.667 -33.3311 -100.001 -99.998 -100.001s-100 33.333 -100 100v181h78v-184c0 -21.333 7.33301 -32 22 -32c15.333 0 23 10.667 23 32v73c0 16 -0.666992 32.667 -2 50s-5.33301 39.666 -12 66.999c-12.667 54 -27.334 104.833 -44.001 152.5
s-31.334 97.834 -44.001 150.501c-9.33301 36 -15.166 65.833 -17.499 89.5s-3.5 45.167 -3.5 64.5v40c0 66.667 33.333 100 100 100s100 -33.333 100 -100v-166h-77v172c0 21.333 -7.66699 32 -23 32c-14.667 0 -22 -8.66699 -22 -26v-56
c0 -13.333 0.666992 -29.166 2 -47.499s5.66602 -42.5 12.999 -72.5c6.66699 -27.333 14.167 -54 22.5 -80l25 -77.5c8.33301 -25.667 16.333 -51.5 24 -77.5s14.5 -52.667 20.5 -80c10 -48 15 -93.667 15 -137v-68zM83.002 -176.001l11 138h65l-30 -138h-46z" />
    <glyph glyph-name="scommaaccent" unicode="&#x219;" horiz-adv-x="256" 
d="M227 88c0 -66.667 -33.3311 -100.001 -99.998 -100.001s-100 33.333 -100 100v181h78v-184c0 -21.333 7.33301 -32 22 -32c15.333 0 23 10.667 23 32v73c0 16 -0.666992 32.667 -2 50s-5.33301 39.666 -12 66.999c-12.667 54 -27.334 104.833 -44.001 152.5
s-31.334 97.834 -44.001 150.501c-9.33301 36 -15.166 65.833 -17.499 89.5s-3.5 45.167 -3.5 64.5v40c0 66.667 33.333 100 100 100s100 -33.333 100 -100v-166h-77v172c0 21.333 -7.66699 32 -23 32c-14.667 0 -22 -8.66699 -22 -26v-56
c0 -13.333 0.666992 -29.166 2 -47.499s5.66602 -42.5 12.999 -72.5c6.66699 -27.333 14.167 -54 22.5 -80l25 -77.5c8.33301 -25.667 16.333 -51.5 24 -77.5s14.5 -52.667 20.5 -80c10 -48 15 -93.667 15 -137v-68zM83.002 -176.001l11 138h65l-30 -138h-46z" />
    <glyph glyph-name="uni021A" unicode="&#x21a;" horiz-adv-x="233" 
d="M78 0v792h-68v67h212v-67h-67v-792h-77zM75 -176l11 138h65l-30 -138h-46z" />
    <glyph glyph-name="uni021B" unicode="&#x21b;" horiz-adv-x="233" 
d="M78 0v792h-68v67h212v-67h-67v-792h-77zM75 -176l11 138h65l-30 -138h-46z" />
    <glyph glyph-name="circumflex" unicode="&#x2c6;" horiz-adv-x="297" 
d="M188 903l-40 68l-40 -68h-45l58 121h55l57 -121h-45z" />
    <glyph glyph-name="caron" unicode="&#x2c7;" horiz-adv-x="297" 
d="M120 903l-57 121h45l40 -68l40 68h45l-58 -121h-55z" />
    <glyph glyph-name="breve" unicode="&#x2d8;" horiz-adv-x="322" 
d="M260 1024c0 -88.667 -33.667 -133 -101 -133c-66 0 -99 44.333 -99 133h47c0 -26 3.83301 -48.167 11.5 -66.5s21.167 -27.5 40.5 -27.5c20 0 34.333 9.16699 43 27.5s13 40.5 13 66.5h45z" />
    <glyph glyph-name="dotaccent" unicode="&#x2d9;" horiz-adv-x="175" 
d="M53 917v82h70v-82h-70z" />
    <glyph glyph-name="ring" unicode="&#x2da;" horiz-adv-x="240" 
d="M117 888c-22 0 -38.334 6 -49.001 18s-16 28.667 -16 50c0 45.333 21.667 68 65 68c44 0 66 -22.667 66 -68c0 -21.333 -5.66699 -38 -17 -50s-27.666 -18 -48.999 -18zM116.999 914c26 0 39 14.333 39 43s-13 43 -39 43c-25.333 0 -38 -14.333 -38 -43
s12.667 -43 38 -43z" />
    <glyph glyph-name="ogonek" unicode="&#x2db;" horiz-adv-x="260" 
d="M229 -103c0 -27.333 -6.66699 -46.334 -20 -57.001s-33 -16 -59 -16s-45.833 5.16699 -59.5 15.5s-20.5 27.5 -20.5 51.5c0 11.333 2.33301 22 7 32s12 18.667 22 26l77 51h53l-78 -59c-7.33301 -5.33301 -12.333 -11.166 -15 -17.499s-4 -15.833 -4 -28.5
c0 -9.33301 1.5 -15.5 4.5 -18.5s7.5 -4.5 13.5 -4.5s10.5 1.5 13.5 4.5s4.5 9.16699 4.5 18.5v18h61v-16z" />
    <glyph glyph-name="tilde" unicode="&#x2dc;" horiz-adv-x="322" 
d="M261 1015c0 -32 -5.50098 -56.499 -16.501 -73.499s-25.167 -25.5 -42.5 -25.5c-4 0 -9 0.5 -15 1.5s-12 3.16699 -18 6.5s-12.333 7.16602 -19 11.499l-19 12.5c-6 4 -11.667 7.33301 -17 10s-10 4 -14 4c-7.33301 0 -12.166 -3.33301 -14.499 -10
s-3.5 -18.334 -3.5 -35.001h-22c0.666992 65.333 20.667 98 60 98c4.66699 0 10.167 -0.833008 16.5 -2.5s12.833 -4.16699 19.5 -7.5c12.667 -7.33301 25.167 -15.166 37.5 -23.499s21.833 -12.5 28.5 -12.5c7.33301 0 12 3 14 9s3.33301 18.333 4 37h21z" />
    <glyph glyph-name="hungarumlaut" unicode="&#x2dd;" horiz-adv-x="234" 
d="M111 903l25 121h86l-48 -121h-63zM7 903l26 121h86l-49 -121h-63z" />
    <glyph glyph-name="Delta" unicode="&#x394;" horiz-adv-x="257" 
d="M12 0l60 859h112l63 -859h-235zM127 745l-35 -675h70z" />
    <glyph glyph-name="Omega" unicode="&#x3a9;" 
d="M144 0v266c6 6 9 15.333 9 28v487c0 19.333 -7.66699 29 -23 29s-23 -9.66699 -23 -29v-487c0 -12.667 3 -22 9 -28v-266h-99v70h44v147c-21.333 16 -32 43 -32 81v474c0 66.667 33.667 100 101 100s101 -33.333 101 -100v-474c0 -38 -10.667 -65 -32 -81v-147h44v-70
h-99z" />
    <glyph glyph-name="mu" unicode="&#x3bc;" horiz-adv-x="256" 
d="M102 -176h-71v845h74v-598c0 -16 6.66699 -24 20 -24c16.667 0 25 8 25 24v598h73v-609c0 -48 -18 -72 -54 -72c-32 0 -54.333 13 -67 39v-203z" />
    <glyph glyph-name="pi" unicode="&#x3c0;" 
d="M152 0v597h-44v-597h-77v669h198v-669h-77z" />
    <glyph glyph-name="afii10023" unicode="&#x401;" horiz-adv-x="265" 
d="M156 365h78v-297c0 -25.333 -9.16699 -45 -27.5 -59s-42.833 -21 -73.5 -21c-68.667 0 -103 30.333 -103 91v708c0 27.333 8.5 48.333 25.5 63s42.5 22 76.5 22c32 0 57 -7 75 -21s27 -32.667 27 -56v-393h-126v-334c0 -14 8.33301 -21 25 -21c15.333 0 23 7 23 21v297z
M156 794c0 14.667 -7.66699 22 -23 22c-16.667 0 -25 -7.33301 -25 -22v-339h48v339zM155 917v82h69v-82h-69zM42 917v82h70v-82h-70z" />
    <glyph glyph-name="afii10052" unicode="&#x403;" horiz-adv-x="203" 
d="M31 0v859h168v-70h-91v-789h-77zM67 903l25 121h86l-48 -121h-63z" />
    <glyph glyph-name="afii10053" unicode="&#x404;" horiz-adv-x="260" 
d="M152 367h77v-279c0 -66.667 -33 -100 -99 -100c-66.667 0 -100 33.333 -100 100v684c0 66.667 33.333 100 100 100c66 0 99 -33.333 99 -100v-262h-77v268c0 20.667 -7.33301 31 -22 31s-22 -10.333 -22 -31v-306h44v-67h-44v-320c0 -21.333 7.33301 -32 22 -32
s22 10.667 22 32v282z" />
    <glyph glyph-name="afii10054" unicode="&#x405;" horiz-adv-x="256" 
d="M227 88c0 -66.667 -33.3311 -100.001 -99.998 -100.001s-100 33.333 -100 100v181h78v-184c0 -21.333 7.33301 -32 22 -32c15.333 0 23 10.667 23 32v73c0 16 -0.666992 32.667 -2 50s-5.33301 39.666 -12 66.999c-12.667 54 -27.334 104.833 -44.001 152.5
s-31.334 97.834 -44.001 150.501c-9.33301 36 -15.166 65.833 -17.499 89.5s-3.5 45.167 -3.5 64.5v40c0 66.667 33.333 100 100 100s100 -33.333 100 -100v-166h-77v172c0 21.333 -7.66699 32 -23 32c-14.667 0 -22 -8.66699 -22 -26v-56
c0 -13.333 0.666992 -29.166 2 -47.499s5.66602 -42.5 12.999 -72.5c6.66699 -27.333 14.167 -54 22.5 -80l25 -77.5c8.33301 -25.667 16.333 -51.5 24 -77.5s14.5 -52.667 20.5 -80c10 -48 15 -93.667 15 -137v-68z" />
    <glyph glyph-name="afii10055" unicode="&#x406;" horiz-adv-x="143" 
d="M31 0v859h77v-859h-77z" />
    <glyph glyph-name="afii10056" unicode="&#x407;" horiz-adv-x="143" 
d="M31 0v859h77v-859h-77zM94 917v82h69v-82h-69zM-19 917v82h70v-82h-70z" />
    <glyph glyph-name="afii10057" unicode="&#x408;" horiz-adv-x="141" 
d="M6 0v58h9c16 0 24 7.66699 24 23v778h68v-783c0 -28 -4.66699 -47.667 -14 -59s-27.333 -17 -54 -17h-33z" />
    <glyph glyph-name="afii10058" unicode="&#x409;" horiz-adv-x="373" 
d="M152 0l-0.000976562 787.001h-44v-687c0 -66.667 -33.667 -100 -101 -100v65c16 0 24 10.667 24 32v762h198v-368c46.667 0 78.834 -7.33301 96.501 -22s26.5 -39.334 26.5 -74.001v-301c0 -62.667 -36.333 -94 -109 -94h-91zM273.999 395.001
c0 22.667 -9.66699 34 -29 34h-16v-369h16c19.333 0 29 11.333 29 34v301z" />
    <glyph glyph-name="afii10061" unicode="&#x40c;" horiz-adv-x="259" 
d="M165 0l-55 427v-427h-79v859h79v-404l59 404h80l-72 -411l70 -448h-82zM101 903l25 121h86l-48 -121h-63z" />
    <glyph glyph-name="afii10017" unicode="&#x410;" horiz-adv-x="258" 
d="M153 0c0 3.33301 -0.165039 7.83398 -0.498047 13.501s-0.833008 12.167 -1.5 19.5c-12.667 -26 -30.334 -39 -53.001 -39c-19.333 0 -35.5 5.66699 -48.5 17s-19.5 29.666 -19.5 54.999v315c0 21.333 20 44.666 60 69.999c20 12.667 35 26 45 40s15 28 15 42v265
c0 14.667 -8.33301 22 -25 22s-25 -7.33301 -25 -22v-279h-70v272c0 54 31.667 81 95 81c66 0 99 -27 99 -81v-766c0 -4.66699 0.166992 -9.16699 0.5 -13.5s1.16602 -8.16602 2.49902 -11.499h-74zM150.002 440.001l-27 -18c-6.66699 -4.66699 -11.667 -9 -15 -13
s-5.5 -8 -6.5 -12s-1.5 -8.66699 -1.5 -14v-309c0 -15.333 8.33301 -23 25 -23c8.66699 0 15 2.5 19 7.5s6 11.167 6 18.5v363z" />
    <glyph glyph-name="afii10018" unicode="&#x411;" horiz-adv-x="242" 
d="M31 0v859.001h168v-70h-91v-298c46.667 0 79 -7.33301 97 -22s27 -39.334 27 -74.001v-301c0 -62.667 -36.333 -94 -109 -94h-92zM153 395.001c0 22.667 -9.33301 34 -28 34h-17v-369h17c18.667 0 28 11.333 28 34v301z" />
    <glyph glyph-name="afii10019" unicode="&#x412;" horiz-adv-x="263" 
d="M31 0v859h92c72.667 0 109 -31.333 109 -94v-262c0 -43.333 -25.667 -69.333 -77 -78v-3c51.333 -6 77 -30.333 77 -73v-255c0 -62.667 -36.333 -94 -109 -94h-92zM153 766c0 22.667 -9.33301 34 -28 34h-17v-345h17c18.667 0 28 11.333 28 34v277zM153 359
c0 22 -9.33301 33 -28 33h-17v-328h17c18.667 0 28 11.333 28 34v261z" />
    <glyph glyph-name="afii10020" unicode="&#x413;" horiz-adv-x="203" 
d="M31 0v859h168v-70h-91v-789h-77z" />
    <glyph glyph-name="afii10021" unicode="&#x414;" horiz-adv-x="305" 
d="M243 -76v76h-181v-76h-58v143h18c16 0 24 10.667 24 32v760h197v-792h58v-143h-58zM167 787h-44v-633c0 -42.667 -14 -71.667 -42 -87h86v720z" />
    <glyph glyph-name="afii10022" unicode="&#x415;" horiz-adv-x="265" 
d="M156 365h78v-297c0 -25.333 -9.16699 -45 -27.5 -59s-42.833 -21 -73.5 -21c-68.667 0 -103 30.333 -103 91v708c0 27.333 8.5 48.333 25.5 63s42.5 22 76.5 22c32 0 57 -7 75 -21s27 -32.667 27 -56v-393h-126v-334c0 -14 8.33301 -21 25 -21c15.333 0 23 7 23 21v297z
M156 794c0 14.667 -7.66699 22 -23 22c-16.667 0 -25 -7.33301 -25 -22v-339h48v339z" />
    <glyph glyph-name="afii10024" unicode="&#x416;" horiz-adv-x="414" 
d="M303 0l-54 427v-427h-79v427l-55 -427h-81l69 448l-72 411h80l59 -404v404h79v-404l58 404h80l-71 -411l69 -448h-82z" />
    <glyph glyph-name="afii10025" unicode="&#x417;" horiz-adv-x="259" 
d="M151 330c0 19.333 -14.333 33.667 -43 43v60c28.667 12 43 27 43 45v300c0 21.333 -7 32 -21 32c-14.667 0 -22 -10.667 -22 -32v-302h-78v296c0 66.667 33.333 100 100 100c65.333 0 98 -33.333 98 -100v-286c0 -49.333 -19.333 -76.333 -58 -81
c22.667 -3.33301 38 -10 46 -20s12 -26.667 12 -50v-247c0 -66.667 -32.667 -100 -98 -100c-66.667 0 -100 33.333 -100 100v247h78v-250c0 -21.333 7.33301 -32 22 -32c14 0 21 10.667 21 32v245z" />
    <glyph glyph-name="afii10026" unicode="&#x418;" 
d="M152 0v524l-44 -524h-77v859h77v-544l44 544h77v-859h-77z" />
    <glyph glyph-name="afii10027" unicode="&#x419;" 
d="M152 0v524l-44 -524h-77v859h77v-544l44 544h77v-859h-77zM228 1024c0 -88.667 -33.667 -133 -101 -133c-66 0 -99 44.333 -99 133h47c0 -26 3.83301 -48.167 11.5 -66.5s21.167 -27.5 40.5 -27.5c20 0 34.333 9.16699 43 27.5s13 40.5 13 66.5h45z" />
    <glyph glyph-name="afii10028" unicode="&#x41a;" horiz-adv-x="259" 
d="M165 0l-55 427v-427h-79v859h79v-404l59 404h80l-72 -411l70 -448h-82z" />
    <glyph glyph-name="afii10029" unicode="&#x41b;" 
d="M152 0v787h-44v-687c0 -66.667 -33.667 -100 -101 -100v65c16 0 24 10.667 24 32v762h198v-859h-77z" />
    <glyph glyph-name="afii10030" unicode="&#x41c;" horiz-adv-x="397" 
d="M298 0v415v340h-3l-40 -755h-111l-39 755h3v-340v-415h-77v859h131l38 -745l38 745h130v-859h-70z" />
    <glyph glyph-name="afii10031" unicode="&#x41d;" 
d="M152 0v384h-44v-384h-77v859h77v-403h44v403h77v-859h-77z" />
    <glyph glyph-name="afii10032" unicode="&#x41e;" 
d="M30 772c0 66.667 33.333 100 100 100c67.333 0 101 -33.333 101 -100v-684c0 -66.667 -33.667 -100 -101 -100c-66.667 0 -100 33.333 -100 100v684zM153 781c0 19.333 -7.66699 29 -23 29c-14.667 0 -22 -9.66699 -22 -29v-698c0 -20 7.33301 -30 22 -30
c15.333 0 23 10.333 23 31v697z" />
    <glyph glyph-name="afii10033" unicode="&#x41f;" 
d="M152 0v787h-44v-787h-77v859h198v-859h-77z" />
    <glyph glyph-name="afii10034" unicode="&#x420;" horiz-adv-x="242" 
d="M31 0v859.001h92c72.667 0 109 -31.333 109 -94v-301c0 -34.667 -9 -59.334 -27 -74.001s-50.333 -22 -97 -22v-368h-77zM153 765.001c0 22.667 -9.33301 34 -28 34h-17v-369h17c18.667 0 28 11.333 28 34v301z" />
    <glyph glyph-name="afii10035" unicode="&#x421;" horiz-adv-x="260" 
d="M152 384h77v-296c0 -66.667 -33 -100 -99 -100c-66.667 0 -100 33.333 -100 100v684c0 66.667 33.333 100 100 100c66 0 99 -33.333 99 -100v-262h-77v268c0 20.667 -7.33301 31 -22 31s-22 -10.333 -22 -31v-693c0 -21.333 7.33301 -32 22 -32s22 10.667 22 32v299z" />
    <glyph glyph-name="afii10036" unicode="&#x422;" horiz-adv-x="233" 
d="M78 0v792h-68v67h212v-67h-67v-792h-77z" />
    <glyph glyph-name="afii10037" unicode="&#x423;" horiz-adv-x="267" 
d="M157 377c-7.33301 -8 -15.999 -14 -25.999 -18s-19.667 -6 -29 -6c-21.333 0 -38.666 7.16699 -51.999 21.5s-20 31.833 -20 52.5v432h79v-406c0 -10 2.16699 -17.5 6.5 -22.5s9.16602 -7.5 14.499 -7.5c8 0 14.5 2.5 19.5 7.5s7.5 12.5 7.5 22.5v406h78v-771
c0 -66.667 -35 -100 -105 -100c-66.667 0 -100 33.333 -100 100v228h79v-231c0 -10.667 2.16699 -18.667 6.5 -24s10.166 -8 17.499 -8c16 0 24 10.667 24 32v292z" />
    <glyph glyph-name="afii10038" unicode="&#x424;" horiz-adv-x="389" 
d="M155 0v162c-46.667 0 -79 7 -97 21s-27 38.667 -27 74v406c0 62.667 36.667 94 110 94h15v102h77v-102h16c72.667 0 109 -31.333 109 -94v-406c0 -35.333 -9 -60 -27 -74s-50.333 -21 -97 -21v-162h-79zM155 698h-17c-19.333 0 -29 -11.667 -29 -35v-406
c0 -22.667 9.66699 -34 29 -34h17v475zM280 663c0 23.333 -9.66699 35 -29 35h-17v-475h17c19.333 0 29 11.333 29 34v406z" />
    <glyph glyph-name="afii10039" unicode="&#x425;" horiz-adv-x="272" 
d="M173 0l-46 300l-49 -300h-64l83 448l-80 411h93l30 -229l36 229h75l-79 -397l85 -462h-84z" />
    <glyph glyph-name="afii10040" unicode="&#x426;" 
d="M209 -93v93h-178v859h77v-787h44v787h77v-782h50v-170h-70z" />
    <glyph glyph-name="afii10041" unicode="&#x427;" horiz-adv-x="267" 
d="M153 0l-0.000976562 377c-16 -16 -33 -24 -51 -24c-21.333 0 -38.666 7.16699 -51.999 21.5s-20 31.833 -20 52.5v432h83v-406c0 -20 5.66699 -30 17 -30c15.333 0 23 10 23 30v406h82v-859h-82z" />
    <glyph glyph-name="afii10042" unicode="&#x428;" horiz-adv-x="381" 
d="M31 0v859h77v-787h44v787h77v-787h44v787h76v-859h-318z" />
    <glyph glyph-name="afii10043" unicode="&#x429;" horiz-adv-x="381" 
d="M329 -93v93h-298v859h77v-787h44v787h77v-787h44v787h76v-782h51v-170h-71z" />
    <glyph glyph-name="afii10044" unicode="&#x42a;" horiz-adv-x="242" 
d="M31 0v803.001h-47v56h124v-368c46.667 0 79 -7.33301 97 -22s27 -39.334 27 -74.001v-301c0 -62.667 -36.333 -94 -109 -94h-92zM153 395.001c0 22.667 -9.33301 34 -28 34h-17v-369h17c18.667 0 28 11.333 28 34v301z" />
    <glyph glyph-name="afii10045" unicode="&#x42b;" horiz-adv-x="371" 
d="M31 0v859.001h77v-368c46.667 0 79 -7.33301 97 -22s27 -39.334 27 -74.001v-301c0 -62.667 -36.333 -94 -109 -94h-92zM153 395.001c0 22.667 -9.33301 34 -28 34h-17v-369h17c18.667 0 28 11.333 28 34v301zM263 0.000976562v859h77v-859h-77z" />
    <glyph glyph-name="afii10046" unicode="&#x42c;" horiz-adv-x="242" 
d="M31 0v859.001h77v-368c46.667 0 79 -7.33301 97 -22s27 -39.334 27 -74.001v-301c0 -62.667 -36.333 -94 -109 -94h-92zM153 395.001c0 22.667 -9.33301 34 -28 34h-17v-369h17c18.667 0 28 11.333 28 34v301z" />
    <glyph glyph-name="afii10047" unicode="&#x42d;" horiz-adv-x="260" 
d="M151 405h-44v67h44v306c0 20.667 -7.33301 31 -22 31s-22 -10.333 -22 -31v-268h-77v262c0 66.667 33 100 99 100c66.667 0 100 -33.333 100 -100v-684c0 -66.667 -33.333 -100 -100 -100c-66 0 -99 33.333 -99 100v279h77v-282c0 -21.333 7.33301 -32 22 -32
s22 10.667 22 32v320z" />
    <glyph glyph-name="afii10048" unicode="&#x42e;" horiz-adv-x="382" 
d="M31 0v859h77v-403h42v316c0 66.667 33.333 100 100 100s100 -33.333 100 -100v-684c0 -66.667 -33.333 -100 -100 -100s-100 33.333 -100 100v296h-42v-384h-77zM273 781c0 19.333 -7.66699 29 -23 29c-14.667 0 -22 -9.66699 -22 -29v-698c0 -20 7.33301 -30 22 -30
c15.333 0 23 10.333 23 31v697z" />
    <glyph glyph-name="afii10049" unicode="&#x42f;" 
d="M156 0v416c-30 0 -45 -10.667 -45 -32v-287c0 -49.333 -3.33301 -81.666 -10 -96.999h-81c8.66699 19.333 13 50.666 13 93.999v280c0 45.333 25.333 70 76 74c-50.667 10 -76 39.667 -76 89v228c0 62.667 36.333 94 109 94h91v-859h-77zM156 799h-16
c-19.333 0 -29 -11 -29 -33v-251c0 -23.333 9.66699 -35 29 -35h16v319z" />
    <glyph glyph-name="afii10065" unicode="&#x430;" horiz-adv-x="258" 
d="M153 0c0 3.33301 -0.165039 7.83398 -0.498047 13.501s-0.833008 12.167 -1.5 19.5c-12.667 -26 -30.334 -39 -53.001 -39c-19.333 0 -35.5 5.66699 -48.5 17s-19.5 29.666 -19.5 54.999v315c0 21.333 20 44.666 60 69.999c20 12.667 35 26 45 40s15 28 15 42v265
c0 14.667 -8.33301 22 -25 22s-25 -7.33301 -25 -22v-279h-70v272c0 54 31.667 81 95 81c66 0 99 -27 99 -81v-766c0 -4.66699 0.166992 -9.16699 0.5 -13.5s1.16602 -8.16602 2.49902 -11.499h-74zM150.002 440.001l-27 -18c-6.66699 -4.66699 -11.667 -9 -15 -13
s-5.5 -8 -6.5 -12s-1.5 -8.66699 -1.5 -14v-309c0 -15.333 8.33301 -23 25 -23c8.66699 0 15 2.5 19 7.5s6 11.167 6 18.5v363z" />
    <glyph glyph-name="afii10066" unicode="&#x431;" horiz-adv-x="242" 
d="M31 0v859.001h168v-70h-91v-298c46.667 0 79 -7.33301 97 -22s27 -39.334 27 -74.001v-301c0 -62.667 -36.333 -94 -109 -94h-92zM153 395.001c0 22.667 -9.33301 34 -28 34h-17v-369h17c18.667 0 28 11.333 28 34v301z" />
    <glyph glyph-name="afii10067" unicode="&#x432;" horiz-adv-x="263" 
d="M31 0v859h92c72.667 0 109 -31.333 109 -94v-262c0 -43.333 -25.667 -69.333 -77 -78v-3c51.333 -6 77 -30.333 77 -73v-255c0 -62.667 -36.333 -94 -109 -94h-92zM153 766c0 22.667 -9.33301 34 -28 34h-17v-345h17c18.667 0 28 11.333 28 34v277zM153 359
c0 22 -9.33301 33 -28 33h-17v-328h17c18.667 0 28 11.333 28 34v261z" />
    <glyph glyph-name="afii10068" unicode="&#x433;" horiz-adv-x="203" 
d="M31 0v859h168v-70h-91v-789h-77z" />
    <glyph glyph-name="afii10069" unicode="&#x434;" horiz-adv-x="305" 
d="M243 -76v76h-181v-76h-58v143h18c16 0 24 10.667 24 32v760h197v-792h58v-143h-58zM167 787h-44v-633c0 -42.667 -14 -71.667 -42 -87h86v720z" />
    <glyph glyph-name="afii10070" unicode="&#x435;" horiz-adv-x="265" 
d="M156 365h78v-297c0 -25.333 -9.16699 -45 -27.5 -59s-42.833 -21 -73.5 -21c-68.667 0 -103 30.333 -103 91v708c0 27.333 8.5 48.333 25.5 63s42.5 22 76.5 22c32 0 57 -7 75 -21s27 -32.667 27 -56v-393h-126v-334c0 -14 8.33301 -21 25 -21c15.333 0 23 7 23 21v297z
M156 794c0 14.667 -7.66699 22 -23 22c-16.667 0 -25 -7.33301 -25 -22v-339h48v339z" />
    <glyph glyph-name="afii10072" unicode="&#x436;" horiz-adv-x="414" 
d="M303 0l-54 427v-427h-79v427l-55 -427h-81l69 448l-72 411h80l59 -404v404h79v-404l58 404h80l-71 -411l69 -448h-82z" />
    <glyph glyph-name="afii10073" unicode="&#x437;" horiz-adv-x="259" 
d="M151 330c0 19.333 -14.333 33.667 -43 43v60c28.667 12 43 27 43 45v300c0 21.333 -7 32 -21 32c-14.667 0 -22 -10.667 -22 -32v-302h-78v296c0 66.667 33.333 100 100 100c65.333 0 98 -33.333 98 -100v-286c0 -49.333 -19.333 -76.333 -58 -81
c22.667 -3.33301 38 -10 46 -20s12 -26.667 12 -50v-247c0 -66.667 -32.667 -100 -98 -100c-66.667 0 -100 33.333 -100 100v247h78v-250c0 -21.333 7.33301 -32 22 -32c14 0 21 10.667 21 32v245z" />
    <glyph glyph-name="afii10074" unicode="&#x438;" 
d="M152 0v524l-44 -524h-77v859h77v-544l44 544h77v-859h-77z" />
    <glyph glyph-name="afii10075" unicode="&#x439;" 
d="M152 0v524l-44 -524h-77v859h77v-544l44 544h77v-859h-77zM228 1024c0 -88.667 -33.667 -133 -101 -133c-66 0 -99 44.333 -99 133h47c0 -26 3.83301 -48.167 11.5 -66.5s21.167 -27.5 40.5 -27.5c20 0 34.333 9.16699 43 27.5s13 40.5 13 66.5h45z" />
    <glyph glyph-name="afii10076" unicode="&#x43a;" horiz-adv-x="259" 
d="M165 0l-55 427v-427h-79v859h79v-404l59 404h80l-72 -411l70 -448h-82z" />
    <glyph glyph-name="afii10077" unicode="&#x43b;" 
d="M152 0v787h-44v-687c0 -66.667 -33.667 -100 -101 -100v65c16 0 24 10.667 24 32v762h198v-859h-77z" />
    <glyph glyph-name="afii10078" unicode="&#x43c;" horiz-adv-x="397" 
d="M298 0v415v340h-3l-40 -755h-111l-39 755h3v-340v-415h-77v859h131l38 -745l38 745h130v-859h-70z" />
    <glyph glyph-name="afii10079" unicode="&#x43d;" 
d="M152 0v384h-44v-384h-77v859h77v-403h44v403h77v-859h-77z" />
    <glyph glyph-name="afii10080" unicode="&#x43e;" 
d="M30 772c0 66.667 33.333 100 100 100c67.333 0 101 -33.333 101 -100v-684c0 -66.667 -33.667 -100 -101 -100c-66.667 0 -100 33.333 -100 100v684zM153 781c0 19.333 -7.66699 29 -23 29c-14.667 0 -22 -9.66699 -22 -29v-698c0 -20 7.33301 -30 22 -30
c15.333 0 23 10.333 23 31v697z" />
    <glyph glyph-name="afii10081" unicode="&#x43f;" 
d="M152 0v787h-44v-787h-77v859h198v-859h-77z" />
    <glyph glyph-name="afii10082" unicode="&#x440;" horiz-adv-x="242" 
d="M31 0v859.001h92c72.667 0 109 -31.333 109 -94v-301c0 -34.667 -9 -59.334 -27 -74.001s-50.333 -22 -97 -22v-368h-77zM153 765.001c0 22.667 -9.33301 34 -28 34h-17v-369h17c18.667 0 28 11.333 28 34v301z" />
    <glyph glyph-name="afii10083" unicode="&#x441;" horiz-adv-x="260" 
d="M152 384h77v-296c0 -66.667 -33 -100 -99 -100c-66.667 0 -100 33.333 -100 100v684c0 66.667 33.333 100 100 100c66 0 99 -33.333 99 -100v-262h-77v268c0 20.667 -7.33301 31 -22 31s-22 -10.333 -22 -31v-693c0 -21.333 7.33301 -32 22 -32s22 10.667 22 32v299z" />
    <glyph glyph-name="afii10084" unicode="&#x442;" horiz-adv-x="233" 
d="M78 0v792h-68v67h212v-67h-67v-792h-77z" />
    <glyph glyph-name="afii10085" unicode="&#x443;" horiz-adv-x="267" 
d="M157 377c-7.33301 -8 -15.999 -14 -25.999 -18s-19.667 -6 -29 -6c-21.333 0 -38.666 7.16699 -51.999 21.5s-20 31.833 -20 52.5v432h79v-406c0 -10 2.16699 -17.5 6.5 -22.5s9.16602 -7.5 14.499 -7.5c8 0 14.5 2.5 19.5 7.5s7.5 12.5 7.5 22.5v406h78v-771
c0 -66.667 -35 -100 -105 -100c-66.667 0 -100 33.333 -100 100v228h79v-231c0 -10.667 2.16699 -18.667 6.5 -24s10.166 -8 17.499 -8c16 0 24 10.667 24 32v292z" />
    <glyph glyph-name="afii10086" unicode="&#x444;" horiz-adv-x="389" 
d="M155 0v162c-46.667 0 -79 7 -97 21s-27 38.667 -27 74v406c0 62.667 36.667 94 110 94h15v102h77v-102h16c72.667 0 109 -31.333 109 -94v-406c0 -35.333 -9 -60 -27 -74s-50.333 -21 -97 -21v-162h-79zM155 698h-17c-19.333 0 -29 -11.667 -29 -35v-406
c0 -22.667 9.66699 -34 29 -34h17v475zM280 663c0 23.333 -9.66699 35 -29 35h-17v-475h17c19.333 0 29 11.333 29 34v406z" />
    <glyph glyph-name="afii10087" unicode="&#x445;" horiz-adv-x="272" 
d="M173 0l-46 300l-49 -300h-64l83 448l-80 411h93l30 -229l36 229h75l-79 -397l85 -462h-84z" />
    <glyph glyph-name="afii10088" unicode="&#x446;" 
d="M209 -93v93h-178v859h77v-787h44v787h77v-782h50v-170h-70z" />
    <glyph glyph-name="afii10089" unicode="&#x447;" horiz-adv-x="267" 
d="M153 0l-0.000976562 377c-16 -16 -33 -24 -51 -24c-21.333 0 -38.666 7.16699 -51.999 21.5s-20 31.833 -20 52.5v432h83v-406c0 -20 5.66699 -30 17 -30c15.333 0 23 10 23 30v406h82v-859h-82z" />
    <glyph glyph-name="afii10090" unicode="&#x448;" horiz-adv-x="381" 
d="M31 0v859h77v-787h44v787h77v-787h44v787h76v-859h-318z" />
    <glyph glyph-name="afii10091" unicode="&#x449;" horiz-adv-x="381" 
d="M329 -93v93h-298v859h77v-787h44v787h77v-787h44v787h76v-782h51v-170h-71z" />
    <glyph glyph-name="afii10092" unicode="&#x44a;" horiz-adv-x="242" 
d="M31 0v803.001h-47v56h124v-368c46.667 0 79 -7.33301 97 -22s27 -39.334 27 -74.001v-301c0 -62.667 -36.333 -94 -109 -94h-92zM153 395.001c0 22.667 -9.33301 34 -28 34h-17v-369h17c18.667 0 28 11.333 28 34v301z" />
    <glyph glyph-name="afii10093" unicode="&#x44b;" horiz-adv-x="371" 
d="M31 0v859.001h77v-368c46.667 0 79 -7.33301 97 -22s27 -39.334 27 -74.001v-301c0 -62.667 -36.333 -94 -109 -94h-92zM153 395.001c0 22.667 -9.33301 34 -28 34h-17v-369h17c18.667 0 28 11.333 28 34v301zM263 0.000976562v859h77v-859h-77z" />
    <glyph glyph-name="afii10094" unicode="&#x44c;" horiz-adv-x="242" 
d="M31 0v859.001h77v-368c46.667 0 79 -7.33301 97 -22s27 -39.334 27 -74.001v-301c0 -62.667 -36.333 -94 -109 -94h-92zM153 395.001c0 22.667 -9.33301 34 -28 34h-17v-369h17c18.667 0 28 11.333 28 34v301z" />
    <glyph glyph-name="afii10095" unicode="&#x44d;" horiz-adv-x="260" 
d="M151 405h-44v67h44v306c0 20.667 -7.33301 31 -22 31s-22 -10.333 -22 -31v-268h-77v262c0 66.667 33 100 99 100c66.667 0 100 -33.333 100 -100v-684c0 -66.667 -33.333 -100 -100 -100c-66 0 -99 33.333 -99 100v279h77v-282c0 -21.333 7.33301 -32 22 -32
s22 10.667 22 32v320z" />
    <glyph glyph-name="afii10096" unicode="&#x44e;" horiz-adv-x="382" 
d="M31 0v859h77v-403h42v316c0 66.667 33.333 100 100 100s100 -33.333 100 -100v-684c0 -66.667 -33.333 -100 -100 -100s-100 33.333 -100 100v296h-42v-384h-77zM273 781c0 19.333 -7.66699 29 -23 29c-14.667 0 -22 -9.66699 -22 -29v-698c0 -20 7.33301 -30 22 -30
c15.333 0 23 10.333 23 31v697z" />
    <glyph glyph-name="afii10097" unicode="&#x44f;" 
d="M156 0v416c-30 0 -45 -10.667 -45 -32v-287c0 -49.333 -3.33301 -81.666 -10 -96.999h-81c8.66699 19.333 13 50.666 13 93.999v280c0 45.333 25.333 70 76 74c-50.667 10 -76 39.667 -76 89v228c0 62.667 36.333 94 109 94h91v-859h-77zM156 799h-16
c-19.333 0 -29 -11 -29 -33v-251c0 -23.333 9.66699 -35 29 -35h16v319z" />
    <glyph glyph-name="afii10071" unicode="&#x451;" horiz-adv-x="265" 
d="M156 365h78v-297c0 -25.333 -9.16699 -45 -27.5 -59s-42.833 -21 -73.5 -21c-68.667 0 -103 30.333 -103 91v708c0 27.333 8.5 48.333 25.5 63s42.5 22 76.5 22c32 0 57 -7 75 -21s27 -32.667 27 -56v-393h-126v-334c0 -14 8.33301 -21 25 -21c15.333 0 23 7 23 21v297z
M156 794c0 14.667 -7.66699 22 -23 22c-16.667 0 -25 -7.33301 -25 -22v-339h48v339zM155 917v82h69v-82h-69zM42 917v82h70v-82h-70z" />
    <glyph glyph-name="afii10100" unicode="&#x453;" horiz-adv-x="203" 
d="M31 0v859h168v-70h-91v-789h-77zM67 903l25 121h86l-48 -121h-63z" />
    <glyph glyph-name="afii10101" unicode="&#x454;" horiz-adv-x="260" 
d="M152 367h77v-279c0 -66.667 -33 -100 -99 -100c-66.667 0 -100 33.333 -100 100v684c0 66.667 33.333 100 100 100c66 0 99 -33.333 99 -100v-262h-77v268c0 20.667 -7.33301 31 -22 31s-22 -10.333 -22 -31v-306h44v-67h-44v-320c0 -21.333 7.33301 -32 22 -32
s22 10.667 22 32v282z" />
    <glyph glyph-name="afii10102" unicode="&#x455;" horiz-adv-x="256" 
d="M227 88c0 -66.667 -33.3311 -100.001 -99.998 -100.001s-100 33.333 -100 100v181h78v-184c0 -21.333 7.33301 -32 22 -32c15.333 0 23 10.667 23 32v73c0 16 -0.666992 32.667 -2 50s-5.33301 39.666 -12 66.999c-12.667 54 -27.334 104.833 -44.001 152.5
s-31.334 97.834 -44.001 150.501c-9.33301 36 -15.166 65.833 -17.499 89.5s-3.5 45.167 -3.5 64.5v40c0 66.667 33.333 100 100 100s100 -33.333 100 -100v-166h-77v172c0 21.333 -7.66699 32 -23 32c-14.667 0 -22 -8.66699 -22 -26v-56
c0 -13.333 0.666992 -29.166 2 -47.499s5.66602 -42.5 12.999 -72.5c6.66699 -27.333 14.167 -54 22.5 -80l25 -77.5c8.33301 -25.667 16.333 -51.5 24 -77.5s14.5 -52.667 20.5 -80c10 -48 15 -93.667 15 -137v-68z" />
    <glyph glyph-name="afii10103" unicode="&#x456;" horiz-adv-x="143" 
d="M31 0v859h77v-859h-77z" />
    <glyph glyph-name="afii10104" unicode="&#x457;" horiz-adv-x="143" 
d="M31 0v859h77v-859h-77zM94 917v82h69v-82h-69zM-19 917v82h70v-82h-70z" />
    <glyph glyph-name="afii10105" unicode="&#x458;" horiz-adv-x="141" 
d="M6 0v58h9c16 0 24 7.66699 24 23v778h68v-783c0 -28 -4.66699 -47.667 -14 -59s-27.333 -17 -54 -17h-33z" />
    <glyph glyph-name="afii10106" unicode="&#x459;" horiz-adv-x="373" 
d="M152 0l-0.000976562 787.001h-44v-687c0 -66.667 -33.667 -100 -101 -100v65c16 0 24 10.667 24 32v762h198v-368c46.667 0 78.834 -7.33301 96.501 -22s26.5 -39.334 26.5 -74.001v-301c0 -62.667 -36.333 -94 -109 -94h-91zM273.999 395.001
c0 22.667 -9.66699 34 -29 34h-16v-369h16c19.333 0 29 11.333 29 34v301z" />
    <glyph glyph-name="afii10109" unicode="&#x45c;" horiz-adv-x="259" 
d="M165 0l-55 427v-427h-79v859h79v-404l59 404h80l-72 -411l70 -448h-82zM101 903l25 121h86l-48 -121h-63z" />
    <glyph glyph-name="afii10050" unicode="&#x490;" horiz-adv-x="203" 
d="M31 0v859h98v100h70v-170h-91v-789h-77z" />
    <glyph glyph-name="afii10098" unicode="&#x491;" horiz-adv-x="203" 
d="M31 0v859h98v100h70v-170h-91v-789h-77z" />
    <glyph glyph-name="Wgrave" unicode="&#x1e80;" horiz-adv-x="440" 
d="M269 0l-47 687l-45 -687h-111l-50 859h81l26 -745l50 745h102l50 -745l26 745h77l-47 -859h-112zM182 903l-50 121h86l25 -121h-61z" />
    <glyph glyph-name="wgrave" unicode="&#x1e81;" horiz-adv-x="440" 
d="M269 0l-47 687l-45 -687h-111l-50 859h81l26 -745l50 745h102l50 -745l26 745h77l-47 -859h-112zM182 903l-50 121h86l25 -121h-61z" />
    <glyph glyph-name="Wacute" unicode="&#x1e82;" horiz-adv-x="440" 
d="M269 0l-47 687l-45 -687h-111l-50 859h81l26 -745l50 745h102l50 -745l26 745h77l-47 -859h-112zM195 903l25 121h86l-48 -121h-63z" />
    <glyph glyph-name="wacute" unicode="&#x1e83;" horiz-adv-x="440" 
d="M269 0l-47 687l-45 -687h-111l-50 859h81l26 -745l50 745h102l50 -745l26 745h77l-47 -859h-112zM195 903l25 121h86l-48 -121h-63z" />
    <glyph glyph-name="Wdieresis" unicode="&#x1e84;" horiz-adv-x="440" 
d="M269 0l-47 687l-45 -687h-111l-50 859h81l26 -745l50 745h102l50 -745l26 745h77l-47 -859h-112zM242 917v82h69v-82h-69zM129 917v82h70v-82h-70z" />
    <glyph glyph-name="wdieresis" unicode="&#x1e85;" horiz-adv-x="440" 
d="M269 0l-47 687l-45 -687h-111l-50 859h81l26 -745l50 745h102l50 -745l26 745h77l-47 -859h-112zM242 917v82h69v-82h-69zM129 917v82h70v-82h-70z" />
    <glyph glyph-name="Ygrave" unicode="&#x1ef2;" horiz-adv-x="267" 
d="M157 377c-7.33301 -8 -15.999 -14 -25.999 -18s-19.667 -6 -29 -6c-21.333 0 -38.666 7.16699 -51.999 21.5s-20 31.833 -20 52.5v432h79v-406c0 -10 2.16699 -17.5 6.5 -22.5s9.16602 -7.5 14.499 -7.5c8 0 14.5 2.5 19.5 7.5s7.5 12.5 7.5 22.5v406h78v-771
c0 -66.667 -35 -100 -105 -100c-66.667 0 -100 33.333 -100 100v228h79v-231c0 -10.667 2.16699 -18.667 6.5 -24s10.166 -8 17.499 -8c16 0 24 10.667 24 32v292zM98.001 903l-50 121h86l25 -121h-61z" />
    <glyph glyph-name="ygrave" unicode="&#x1ef3;" horiz-adv-x="267" 
d="M157 377c-7.33301 -8 -15.999 -14 -25.999 -18s-19.667 -6 -29 -6c-21.333 0 -38.666 7.16699 -51.999 21.5s-20 31.833 -20 52.5v432h79v-406c0 -10 2.16699 -17.5 6.5 -22.5s9.16602 -7.5 14.499 -7.5c8 0 14.5 2.5 19.5 7.5s7.5 12.5 7.5 22.5v406h78v-771
c0 -66.667 -35 -100 -105 -100c-66.667 0 -100 33.333 -100 100v228h79v-231c0 -10.667 2.16699 -18.667 6.5 -24s10.166 -8 17.499 -8c16 0 24 10.667 24 32v292zM98.001 903l-50 121h86l25 -121h-61z" />
    <glyph glyph-name="endash" unicode="&#x2013;" horiz-adv-x="329" 
d="M15 384v56h300v-56h-300z" />
    <glyph glyph-name="emdash" unicode="&#x2014;" horiz-adv-x="578" 
d="M15 384v56h548v-56h-548z" />
    <glyph glyph-name="quoteleft" unicode="&#x2018;" horiz-adv-x="125" 
d="M31 664v195h58v-195h-58z" />
    <glyph glyph-name="quoteright" unicode="&#x2019;" horiz-adv-x="125" 
d="M31 664v195h58v-195h-58z" />
    <glyph glyph-name="quotesinglbase" unicode="&#x201a;" horiz-adv-x="148" 
d="M20 -92l24 170h72l-52 -170h-44z" />
    <glyph glyph-name="quotedblleft" unicode="&#x201c;" horiz-adv-x="229" 
d="M140 660v197h57v-197h-57zM31 660v197h58v-197h-58z" />
    <glyph glyph-name="quotedblright" unicode="&#x201d;" horiz-adv-x="229" 
d="M140 660v197h57v-197h-57zM31 660v197h58v-197h-58z" />
    <glyph glyph-name="quotedblbase" unicode="&#x201e;" horiz-adv-x="337" 
d="M205 -92l24 170h72l-52 -170h-44zM20 -92l24 170h72l-52 -170h-44z" />
    <glyph glyph-name="dagger" unicode="&#x2020;" horiz-adv-x="317" 
d="M126 0v583h-108v59h108v217h60v-217h109v-59h-109v-583h-60z" />
    <glyph glyph-name="daggerdbl" unicode="&#x2021;" horiz-adv-x="317" 
d="M126 0v217h-108v59h108v307h-108v59h108v217h60v-217h109v-59h-109v-307h109v-59h-109v-217h-60z" />
    <glyph glyph-name="bullet" unicode="&#x2022;" horiz-adv-x="252" 
d="M126 319c-14.667 0 -28.168 2.83301 -40.501 8.5s-23.166 13.167 -32.499 22.5s-16.666 20.5 -21.999 33.5s-8 26.833 -8 41.5c0 29.333 10 53.833 30 73.5s44.667 29.5 74 29.5s54 -9.83301 74 -29.5s30 -44.167 30 -73.5c0 -14.667 -2.83301 -28.5 -8.5 -41.5
s-13.167 -24.167 -22.5 -33.5s-20.333 -16.833 -33 -22.5s-26.334 -8.5 -41.001 -8.5z" />
    <glyph glyph-name="ellipsis" unicode="&#x2026;" horiz-adv-x="435" 
d="M31 0v82h70v-82h-70zM176 0v82h70v-82h-70zM322 0v82h70v-82h-70z" />
    <glyph glyph-name="perthousand" unicode="&#x2030;" horiz-adv-x="434" 
d="M30 812c0 40 17.333 60 52 60s52 -20 52 -60v-311c0 -39.333 -17.333 -59 -52 -59s-52 19.667 -52 59v311zM94 817c0 11.333 -4 17 -12 17c-7.33301 0 -11 -5.66699 -11 -17v-318c0 -12 3.66699 -18 11 -18c8 0 12 6 12 18v318zM58 0l152 859h41l-153 -859h-40zM173 359
c0 40 17 60 51 60c35.333 0 53 -20 53 -60v-311c0 -40 -17.667 -60 -53 -60c-34 0 -51 20 -51 60v311zM237 364c0 11.333 -4.33301 17 -13 17c-6.66699 0 -10 -5.66699 -10 -17v-318c0 -12 3.33301 -18 10 -18c8.66699 0 13 6 13 18v318zM300 359c0 40 17 60 51 60
c35.333 0 53 -20 53 -60v-311c0 -40 -17.667 -60 -53 -60c-34 0 -51 20 -51 60v311zM364 364c0 11.333 -4.33301 17 -13 17c-6.66699 0 -10 -5.66699 -10 -17v-318c0 -12 3.33301 -18 10 -18c8.66699 0 13 6 13 18v318z" />
    <glyph glyph-name="guilsinglleft" unicode="&#x2039;" horiz-adv-x="133" 
d="M15 386v71l104 74v-58l-59 -52l59 -52v-57z" />
    <glyph glyph-name="guilsinglright" unicode="&#x203a;" horiz-adv-x="133" 
d="M15 312v57l58 52l-58 52v58l104 -74v-71z" />
    <glyph glyph-name="fraction" unicode="&#x2044;" horiz-adv-x="83" 
d="M-70 0l177 859h47l-177 -859h-47z" />
    <glyph glyph-name="zerosuperior" unicode="&#x2070;" horiz-adv-x="188" 
d="M34 812c0 40 19.667 60 59 60c40.667 0 61 -20 61 -60v-315c0 -40 -20.333 -60 -61 -60c-39.333 0 -59 20 -59 60v315zM108 817c0 11.333 -5 17 -15 17c-8 0 -12 -5.66699 -12 -17v-322c0 -12 4 -18 12 -18c10 0 15 6 15 18v322z" />
    <glyph glyph-name="foursuperior" unicode="&#x2074;" horiz-adv-x="200" 
d="M106 449v77h-76v333h40v-295h38v295h44v-295h20v-38h-20v-77h-46z" />
    <glyph glyph-name="fivesuperior" unicode="&#x2075;" horiz-adv-x="183" 
d="M106 660c0 12 -3.66602 18 -10.999 18c-4.66699 0 -8.66699 -3.66699 -12 -11h-47v192h119v-38h-73v-120c11.333 11.333 23.666 17 36.999 17c22 0 33 -17.333 33 -52v-170c0 -39.333 -20 -59 -60 -59c-38.667 0 -58 20 -58 60v139h46v-140c0 -12.667 4 -19 12 -19
c9.33301 0 14 6.33301 14 19v164z" />
    <glyph glyph-name="sixsuperior" unicode="&#x2076;" horiz-adv-x="188" 
d="M34 812c0 40 19.668 60.001 59.001 60.001c40.667 0 61 -20 61 -60v-106h-47v110c0 12.667 -4.66699 19 -14 19c-8.66699 0 -13 -6.33301 -13 -19v-153c11.333 10 22.666 15 33.999 15s20.833 -4.33301 28.5 -13s11.5 -19.334 11.5 -32.001v-136
c0 -40 -20.333 -60 -61 -60c-39.333 0 -59 20 -59 60v315zM107.001 620.001c0 12 -4.66699 18 -14 18c-8.66699 0 -13 -6 -13 -18v-126c0 -11.333 4.33301 -17 13 -17c9.33301 0 14 5.66699 14 17v126z" />
    <glyph glyph-name="sevensuperior" unicode="&#x2077;" horiz-adv-x="172" 
d="M33 449l72 372h-81v38h126v-39l-67 -371h-50z" />
    <glyph glyph-name="eightsuperior" unicode="&#x2078;" horiz-adv-x="188" 
d="M154 497c0 -40 -20.333 -59.999 -61 -59.999c-39.333 0 -59 20 -59 60v109c0 24.667 11.333 41.334 34 50.001c-12.667 4 -21.167 9.5 -25.5 16.5s-6.5 17.5 -6.5 31.5v108c0 40 19 60 57 60c40 0 60 -20 60 -60v-107c0 -14.667 -2.83301 -25.834 -8.5 -33.501
s-15.167 -12.834 -28.5 -15.501c25.333 -6 38 -22.333 38 -49v-110zM108 816.001c0 12 -5 18 -15 18c-8 0 -12 -6 -12 -18v-122c0 -12 4 -18 12 -18c10 0 15 6 15 18v122zM108 615.001c0 12.667 -5 19 -15 19c-8 0 -12 -6 -12 -18v-122c0 -11.333 4 -17 12 -17
c10 0 15 6.33301 15 19v119z" />
    <glyph glyph-name="ninesuperior" unicode="&#x2079;" horiz-adv-x="188" 
d="M108 622c-9.33301 -9.33301 -20.667 -14 -34 -14c-12.667 0 -22.5 4.33301 -29.5 13s-10.5 19 -10.5 31v160c0 40 19.667 60 59 60c40.667 0 61 -20 61 -60v-315c0 -40 -20.333 -60 -61 -60c-39.333 0 -59 20 -59 60v89h47v-90c0 -12.667 4 -19 12 -19
c10 0 15 6.33301 15 19v126zM107.999 814c0 12 -5 18 -15 18c-8 0 -12 -6 -12 -18v-147c0 -11.333 4 -17 12 -17c10 0 15 6 15 18v146z" />
    <glyph glyph-name="zeroinferior" unicode="&#x2080;" horiz-adv-x="188" 
d="M34 363c0 40 19.667 60 59 60c40.667 0 61 -20 61 -60v-315c0 -40 -20.333 -60 -61 -60c-39.333 0 -59 20 -59 60v315zM108 368c0 11.333 -5 17 -15 17c-8 0 -12 -5.66699 -12 -17v-322c0 -12 4 -18 12 -18c10 0 15 6 15 18v322z" />
    <glyph glyph-name="oneinferior" unicode="&#x2081;" horiz-adv-x="135" 
d="M52 0v336h-32v33c20.667 0 34.667 13.667 42 41h38v-410h-48z" />
    <glyph glyph-name="twoinferior" unicode="&#x2082;" horiz-adv-x="183" 
d="M30 0v22c0 2.66699 0.333008 6.16699 1 10.5s1.83398 10 3.50098 17l6 26l8.5 38.5c6 26 12.5 48.667 19.5 68l19.5 54c6 16.667 11 32.834 15 48.501s6 33.167 6 52.5v30c0 11.333 -4.66699 17 -14 17c-8 0 -12 -5.66699 -12 -17v-64h-47v60
c0 19.333 4.5 34.166 13.5 44.499s25.167 15.5 48.5 15.5c21.333 0 36.166 -4 44.499 -12s12.5 -23.333 12.5 -46v-30c0 -23.333 -3 -45.5 -9 -66.5s-13 -43 -21 -66s-16.167 -47.833 -24.5 -74.5s-14.833 -57 -19.5 -91h69v-37h-120z" />
    <glyph glyph-name="threeinferior" unicode="&#x2083;" horiz-adv-x="187" 
d="M106 146c0 8 -1.83301 13.832 -5.5 17.499s-10.167 6.5 -19.5 8.5v36c9.33301 1.33301 15.833 4.5 19.5 9.5s5.5 10.833 5.5 17.5v131c0 12.667 -4.33301 19 -13 19c-8 0 -12 -6.33301 -12 -19v-121h-47v118c0 40 19.667 60 59 60s59 -20 59 -60v-124
c0 -29.333 -11.667 -45.333 -35 -48c14 -2.66699 23.333 -7 28 -13s7 -16 7 -30v-100c0 -19.333 -4.5 -34.166 -13.5 -44.499s-24.167 -15.5 -45.5 -15.5c-39.333 0 -59 20 -59 60v100h47v-101c0 -12.667 4 -19 12 -19c8.66699 0 13 6.33301 13 19v99z" />
    <glyph glyph-name="fourinferior" unicode="&#x2084;" horiz-adv-x="200" 
d="M106 0v77h-76v333h40v-295h38v295h44v-295h20v-38h-20v-77h-46z" />
    <glyph glyph-name="fiveinferior" unicode="&#x2085;" horiz-adv-x="183" 
d="M106 211c0 12 -3.66602 18 -10.999 18c-4.66699 0 -8.66699 -3.66699 -12 -11h-47v192h119v-38h-73v-120c11.333 11.333 23.666 17 36.999 17c22 0 33 -17.333 33 -52v-170c0 -39.333 -20 -59 -60 -59c-38.667 0 -58 20 -58 60v139h46v-140c0 -12.667 4 -19 12 -19
c9.33301 0 14 6.33301 14 19v164z" />
    <glyph glyph-name="sixinferior" unicode="&#x2086;" horiz-adv-x="188" 
d="M34 363c0 40 19.668 60.001 59.001 60.001c40.667 0 61 -20 61 -60v-106h-47v110c0 12.667 -4.66699 19 -14 19c-8.66699 0 -13 -6.33301 -13 -19v-153c11.333 10 22.666 15 33.999 15s20.833 -4.33301 28.5 -13s11.5 -19.334 11.5 -32.001v-136
c0 -40 -20.333 -60 -61 -60c-39.333 0 -59 20 -59 60v315zM107.001 171.001c0 12 -4.66699 18 -14 18c-8.66699 0 -13 -6 -13 -18v-126c0 -11.333 4.33301 -17 13 -17c9.33301 0 14 5.66699 14 17v126z" />
    <glyph glyph-name="seveninferior" unicode="&#x2087;" horiz-adv-x="172" 
d="M33 0l72 372h-81v38h126v-39l-67 -371h-50z" />
    <glyph glyph-name="eightinferior" unicode="&#x2088;" horiz-adv-x="188" 
d="M154 48c0 -40 -20.333 -59.999 -61 -59.999c-39.333 0 -59 20 -59 60v109c0 24.667 11.333 41.334 34 50.001c-12.667 4 -21.167 9.5 -25.5 16.5s-6.5 17.5 -6.5 31.5v108c0 40 19 60 57 60c40 0 60 -20 60 -60v-107c0 -14.667 -2.83301 -25.834 -8.5 -33.501
s-15.167 -12.834 -28.5 -15.501c25.333 -6 38 -22.333 38 -49v-110zM108 367.001c0 12 -5 18 -15 18c-8 0 -12 -6 -12 -18v-122c0 -12 4 -18 12 -18c10 0 15 6 15 18v122zM108 166.001c0 12.667 -5 19 -15 19c-8 0 -12 -6 -12 -18v-122c0 -11.333 4 -17 12 -17
c10 0 15 6.33301 15 19v119z" />
    <glyph glyph-name="nineinferior" unicode="&#x2089;" horiz-adv-x="188" 
d="M108 173c-9.33301 -9.33301 -20.667 -14 -34 -14c-12.667 0 -22.5 4.33301 -29.5 13s-10.5 19 -10.5 31v160c0 40 19.667 60 59 60c40.667 0 61 -20 61 -60v-315c0 -40 -20.333 -60 -61 -60c-39.333 0 -59 20 -59 60v89h47v-90c0 -12.667 4 -19 12 -19
c10 0 15 6.33301 15 19v126zM107.999 365c0 12 -5 18 -15 18c-8 0 -12 -6 -12 -18v-147c0 -11.333 4 -17 12 -17c10 0 15 6 15 18v146z" />
    <glyph glyph-name="Euro" unicode="&#x20ac;" horiz-adv-x="290" 
d="M183 240h76v-152c0 -66.667 -33.333 -100 -100 -100c-66 0 -99 33.333 -99 100v230h-44v58h44v86h-44v58h44v252c0 66.667 33 100 99 100c23.333 0 44 -1.33301 62 -4s34 -6.66699 48 -12l-12 -76c-1.33301 19.333 -34 29 -98 29c-14 0 -21 -10.333 -21 -31v-258h78
l-9 -58h-69v-86h54l-9 -58h-45v-233c0 -21.333 7 -32 21 -32c16 0 24 10.667 24 32v155z" />
    <glyph glyph-name="uni20B9" unicode="&#x20b9;" 
d="M146 0c-7.33301 14.667 -11 46.998 -11 96.998v287c0 20.667 -14 31.334 -42 32.001v64h14c18.667 0 28 11.667 28 35v106h-121v60h121v85c0 20 -8 31 -24 33h-97v60h234v-60h-38c1.33301 -5.33301 2.33301 -10.833 3 -16.5s1 -11.5 1 -17.5v-84h34v-60h-34v-84
c0 -49.333 -25.667 -79 -77 -89c51.333 -4 77 -28.667 77 -74v-280c0 -45.333 4.33301 -76.666 13 -93.999h-81z" />
    <glyph glyph-name="trademark" unicode="&#x2122;" horiz-adv-x="297" 
d="M50 701v127h-41v31h115v-31h-40v-127h-34zM241 701v88l-33 -89l-39 92v-91h-31v158h38l31 -82l29 82h38v-158h-33z" />
    <glyph glyph-name="onethird" unicode="&#x2153;" horiz-adv-x="340" 
d="M62 449v336h-32v33c20.667 0 34.667 13.667 42 41h38v-410h-48zM44 0l177 859h47l-177 -859h-47zM263 146c0 8 -1.83301 13.832 -5.5 17.499s-10.167 6.5 -19.5 8.5v36c9.33301 1.33301 15.833 4.5 19.5 9.5s5.5 10.833 5.5 17.5v131c0 12.667 -4.33301 19 -13 19
c-8 0 -12 -6.33301 -12 -19v-121h-47v118c0 40 19.667 60 59 60s59 -20 59 -60v-124c0 -29.333 -11.667 -45.333 -35 -48c14 -2.66699 23.333 -7 28 -13s7 -16 7 -30v-100c0 -19.333 -4.5 -34.166 -13.5 -44.499s-24.167 -15.5 -45.5 -15.5c-39.333 0 -59 20 -59 60v100h47
v-101c0 -12.667 4 -19 12 -19c8.66699 0 13 6.33301 13 19v99z" />
    <glyph glyph-name="twothirds" unicode="&#x2154;" horiz-adv-x="378" 
d="M30 449v22c0 2.66699 0.333008 6.16699 1 10.5s1.83398 10 3.50098 17l6 26l8.5 38.5c6 26 12.5 48.667 19.5 68l19.5 54c6 16.667 11 32.834 15 48.501s6 33.167 6 52.5v30c0 11.333 -4.66699 17 -14 17c-8 0 -12 -5.66699 -12 -17v-64h-47v60
c0 19.333 4.5 34.166 13.5 44.499s25.167 15.5 48.5 15.5c21.333 0 36.166 -4 44.499 -12s12.5 -23.333 12.5 -46v-30c0 -23.333 -3 -45.5 -9 -66.5s-13 -43 -21 -66s-16.167 -47.833 -24.5 -74.5s-14.833 -57 -19.5 -91h69v-37h-120zM81 0l177 859h47l-177 -859h-47z
M301 146c0 8 -1.83301 13.832 -5.5 17.499s-10.167 6.5 -19.5 8.5v36c9.33301 1.33301 15.833 4.5 19.5 9.5s5.5 10.833 5.5 17.5v131c0 12.667 -4.33301 19 -13 19c-8 0 -12 -6.33301 -12 -19v-121h-47v118c0 40 19.667 60 59 60s59 -20 59 -60v-124
c0 -29.333 -11.667 -45.333 -35 -48c14 -2.66699 23.333 -7 28 -13s7 -16 7 -30v-100c0 -19.333 -4.5 -34.166 -13.5 -44.499s-24.167 -15.5 -45.5 -15.5c-39.333 0 -59 20 -59 60v100h47v-101c0 -12.667 4 -19 12 -19c8.66699 0 13 6.33301 13 19v99z" />
    <glyph glyph-name="oneeighth" unicode="&#x215b;" horiz-adv-x="330" 
d="M62 449v336h-32v33c20.667 0 34.667 13.667 42 41h38v-410h-48zM37 0l177 859h47l-177 -859h-47zM300 48c0 -40 -20.333 -59.999 -61 -59.999c-39.333 0 -59 20 -59 60v109c0 24.667 11.333 41.334 34 50.001c-12.667 4 -21.167 9.5 -25.5 16.5s-6.5 17.5 -6.5 31.5v108
c0 40 19 60 57 60c40 0 60 -20 60 -60v-107c0 -14.667 -2.83301 -25.834 -8.5 -33.501s-15.167 -12.834 -28.5 -15.501c25.333 -6 38 -22.333 38 -49v-110zM254 367.001c0 12 -5 18 -15 18c-8 0 -12 -6 -12 -18v-122c0 -12 4 -18 12 -18c10 0 15 6 15 18v122zM254 166.001
c0 12.667 -5 19 -15 19c-8 0 -12 -6 -12 -18v-122c0 -11.333 4 -17 12 -17c10 0 15 6.33301 15 19v119z" />
    <glyph glyph-name="threeeighths" unicode="&#x215c;" horiz-adv-x="357" 
d="M104 595c0 8 -1.83301 13.832 -5.5 17.499s-10.167 6.5 -19.5 8.5v36c9.33301 1.33301 15.833 4.5 19.5 9.5s5.5 10.833 5.5 17.5v131c0 12.667 -4.33301 19 -13 19c-8 0 -12 -6.33301 -12 -19v-121h-47v118c0 40 19.667 60 59 60s59 -20 59 -60v-124
c0 -29.333 -11.667 -45.333 -35 -48c14 -2.66699 23.333 -7 28 -13s7 -16 7 -30v-100c0 -19.333 -4.5 -34.166 -13.5 -44.499s-24.167 -15.5 -45.5 -15.5c-39.333 0 -59 20 -59 60v100h47v-101c0 -12.667 4 -19 12 -19c8.66699 0 13 6.33301 13 19v99zM67 -0.000976562
l177 859h47l-177 -859h-47zM326 47.999c0 -40 -20.333 -59.999 -61 -59.999c-39.333 0 -59 20 -59 60v109c0 24.667 11.333 41.334 34 50.001c-12.667 4 -21.167 9.5 -25.5 16.5s-6.5 17.5 -6.5 31.5v108c0 40 19 60 57 60c40 0 60 -20 60 -60v-107
c0 -14.667 -2.83301 -25.834 -8.5 -33.501s-15.167 -12.834 -28.5 -15.501c25.333 -6 38 -22.333 38 -49v-110zM280 367c0 12 -5 18 -15 18c-8 0 -12 -6 -12 -18v-122c0 -12 4 -18 12 -18c10 0 15 6 15 18v122zM280 166c0 12.667 -5 19 -15 19c-8 0 -12 -6 -12 -18v-122
c0 -11.333 4 -17 12 -17c10 0 15 6.33301 15 19v119z" />
    <glyph glyph-name="fiveeighths" unicode="&#x215d;" horiz-adv-x="362" 
d="M104 660c0 12 -3.66602 18 -10.999 18c-4.66699 0 -8.66699 -3.66699 -12 -11h-47v192h119v-38h-73v-120c11.333 11.333 23.666 17 36.999 17c22 0 33 -17.333 33 -52v-170c0 -39.333 -20 -59 -60 -59c-38.667 0 -58 20 -58 60v139h46v-140c0 -12.667 4 -19 12 -19
c9.33301 0 14 6.33301 14 19v164zM66.001 0l177 859h47l-177 -859h-47zM331.001 48c0 -40 -20.333 -59.999 -61 -59.999c-39.333 0 -59 20 -59 60v109c0 24.667 11.333 41.334 34 50.001c-12.667 4 -21.167 9.5 -25.5 16.5s-6.5 17.5 -6.5 31.5v108c0 40 19 60 57 60
c40 0 60 -20 60 -60v-107c0 -14.667 -2.83301 -25.834 -8.5 -33.501s-15.167 -12.834 -28.5 -15.501c25.333 -6 38 -22.333 38 -49v-110zM285.001 367.001c0 12 -5 18 -15 18c-8 0 -12 -6 -12 -18v-122c0 -12 4 -18 12 -18c10 0 15 6 15 18v122zM285.001 166.001
c0 12.667 -5 19 -15 19c-8 0 -12 -6 -12 -18v-122c0 -11.333 4 -17 12 -17c10 0 15 6.33301 15 19v119z" />
    <glyph glyph-name="seveneighths" unicode="&#x215e;" horiz-adv-x="339" 
d="M39 449l72 372h-81v38h126v-39l-67 -371h-50zM45 0l177 859h47l-177 -859h-47zM308 48c0 -40 -20.333 -59.999 -61 -59.999c-39.333 0 -59 20 -59 60v109c0 24.667 11.333 41.334 34 50.001c-12.667 4 -21.167 9.5 -25.5 16.5s-6.5 17.5 -6.5 31.5v108c0 40 19 60 57 60
c40 0 60 -20 60 -60v-107c0 -14.667 -2.83301 -25.834 -8.5 -33.501s-15.167 -12.834 -28.5 -15.501c25.333 -6 38 -22.333 38 -49v-110zM262 367.001c0 12 -5 18 -15 18c-8 0 -12 -6 -12 -18v-122c0 -12 4 -18 12 -18c10 0 15 6 15 18v122zM262 166.001
c0 12.667 -5 19 -15 19c-8 0 -12 -6 -12 -18v-122c0 -11.333 4 -17 12 -17c10 0 15 6.33301 15 19v119z" />
    <glyph glyph-name="partialdiff" unicode="&#x2202;" horiz-adv-x="286" 
d="M171 88c-11.333 -66.667 -42.666 -99.999 -93.999 -99.999c-45.333 0 -68 23.667 -68 71c0 4 0.333008 8.5 1 13.5s1.66699 10.167 3 15.5l45 305c3.33301 21.333 10.666 39.166 21.999 53.499s25 21.5 41 21.5c16.667 0 31 -8 43 -24l50 335
c0.666992 3.33301 1 7.33301 1 12c0 13.333 -5 20 -15 20c-11.333 0 -18.666 -10.667 -21.999 -32l-40 -263h-62l38 256c5.33301 33.333 15.666 58.333 30.999 75s37 25 65 25c44 0 66 -23.667 66 -71c0 -4 -0.166992 -8.5 -0.5 -13.5s-0.833008 -10.167 -1.5 -15.5z
M73 83.001c-0.666992 -2 -0.999023 -4.16699 -0.999023 -6.5v-5.5c0 -12 5 -18 15 -18c11.333 0 18.666 10 21.999 30l44 289c0 2 0.166992 4 0.5 6s0.5 3.66699 0.5 5c0 12.667 -5.33301 19 -16 19c-10 0 -17.333 -10 -22 -30z" />
    <glyph glyph-name="product" unicode="&#x220f;" horiz-adv-x="349" 
d="M237 -128v1024h-126v-1024h-63v1081h252v-1081h-63z" />
    <glyph glyph-name="summation" unicode="&#x2211;" horiz-adv-x="275" 
d="M16 -65v44l124 450l-124 453v44h242v-54h-179l118 -437l-119 -447h180v-53h-242z" />
    <glyph glyph-name="minus" unicode="&#x2212;" horiz-adv-x="317" 
d="M18 373v59h277v-59h-277z" />
    <glyph glyph-name="radical" unicode="&#x221a;" horiz-adv-x="483" 
d="M189 0l-120 373h-61v59h106l104 -350l193 777h63l-224 -859h-61z" />
    <glyph glyph-name="infinity" unicode="&#x221e;" horiz-adv-x="432" 
d="M283 330c-38 0 -60.333 21.333 -67 64c-6.66699 -42.667 -29 -64 -67 -64h-46c-56.667 0 -85 34 -85 102c0 67.333 28.333 101 85 101h44c36 0 59 -19.667 69 -59c10.667 39.333 33.667 59 69 59h44c56.667 0 85 -33.667 85 -101c0 -68 -28.333 -102 -85 -102h-46z
M272 454c-16.667 0 -25 -7.33301 -25 -22c0 -15.333 8.66699 -23 26 -23h60c17.333 0 26 7.66699 26 23c0 14.667 -8 22 -24 22h-63zM98 454c-16.667 0 -25 -7.33301 -25 -22c0 -15.333 9 -23 27 -23h59c18 0 27 7.66699 27 23c0 14.667 -8.66699 22 -26 22h-62z" />
    <glyph glyph-name="integral" unicode="&#x222b;" horiz-adv-x="274" 
d="M31 -12c20.667 0 37.335 6.50098 50.002 19.501s19 35.167 19 66.5v701c0 30 2.16699 54.833 6.5 74.5s11.666 35.667 21.999 48s24.666 21.166 42.999 26.499s41.5 8.33301 69.5 9v-61c-20.667 0 -37.167 -6.5 -49.5 -19.5s-18.5 -35.5 -18.5 -67.5v-701
c0 -30 -2.16699 -54.833 -6.5 -74.5s-11.833 -35.5 -22.5 -47.5s-25.167 -20.667 -43.5 -26s-41.5 -8.33301 -69.5 -9v61z" />
    <glyph glyph-name="approxequal" unicode="&#x2248;" horiz-adv-x="363" 
d="M339 373c0 -37.333 -8.49805 -66.166 -25.498 -86.499s-39.167 -30.5 -66.5 -30.5c-6.66699 0 -14.667 0.666992 -24 2s-19 3.66602 -29 6.99902c-10 4 -20 8.66699 -30 14s-19.833 10.333 -29.5 15s-18.667 8.5 -27 11.5s-15.5 4.5 -21.5 4.5
c-10.667 0 -17.834 -3.83301 -21.501 -11.5s-5.5 -21.5 -5.5 -41.5h-35c1.33301 40 9.66602 69.333 24.999 88s38 28 68 28c16.667 0 36 -4 58 -12c10 -4 20 -8.5 30 -13.5s19.5 -9.5 28.5 -13.5s17.333 -7.5 25 -10.5s14.167 -4.5 19.5 -4.5c11.333 0 18.5 3.5 21.5 10.5
s5.16699 21.5 6.5 43.5h33zM339.002 624c0 -37.333 -8.49805 -66.166 -25.498 -86.499s-39.167 -30.5 -66.5 -30.5c-6.66699 0 -14.667 0.666992 -24 2s-19 3.66602 -29 6.99902c-10 4 -20 8.66699 -30 14s-19.833 10.333 -29.5 15s-18.667 8.5 -27 11.5
s-15.5 4.5 -21.5 4.5c-10.667 0 -17.834 -3.83301 -21.501 -11.5s-5.5 -21.5 -5.5 -41.5h-35c1.33301 40 9.66602 69.333 24.999 88s38 28 68 28c16.667 0 36 -4 58 -12c10 -4 20 -8.5 30 -13.5s19.5 -9.5 28.5 -13.5s17.333 -7.5 25 -10.5s14.167 -4.5 19.5 -4.5
c11.333 0 18.5 3.5 21.5 10.5s5.16699 21.5 6.5 43.5h33z" />
    <glyph glyph-name="notequal" unicode="&#x2260;" horiz-adv-x="317" 
d="M154 314l-39 -120h-49l39 120h-87v58h106l20 61h-126v59h145l37 115h51l-38 -115h82v-59h-101l-20 -61h121v-58h-141z" />
    <glyph glyph-name="lessequal" unicode="&#x2264;" horiz-adv-x="340" 
d="M15 372v56l305 127v-65l-219 -89l219 -91v-62zM25 59v59h277v-59h-277z" />
    <glyph glyph-name="greaterequal" unicode="&#x2265;" horiz-adv-x="340" 
d="M15 248v62l219 91l-219 89v65l305 -127v-56zM25 59v59h277v-59h-277z" />
    <glyph glyph-name="lozenge" unicode="&#x25ca;" horiz-adv-x="319" 
d="M133 80l-118 345l118 345h52l119 -345l-119 -345h-52zM255 425l-97 286l-96 -286l96 -287z" />
    <glyph glyph-name="W.1" unicode="&#xe000;" horiz-adv-x="370" 
d="M269 0l-0.000976562 31c-10 -24.667 -33.667 -37 -71 -37c-25.333 0 -41.333 12 -48 36c-9.33301 -24 -32.666 -36 -69.999 -36c-32.667 0 -49 23.333 -49 70v795h71v-785c0 -15.333 7.66699 -23 23 -23c16.667 0 25 7.66699 25 23v785h70v-785
c0 -15.333 7.33301 -23 22 -23c16.667 0 25 8.33301 25 25v783h72v-859h-70z" />
    <glyph glyph-name="R.1" unicode="&#xe001;" horiz-adv-x="239" 
d="M150 582v201c0 16 -8.33301 24 -25 24c-13.333 0 -20 -8 -20 -24v-783h-74v859h71v-32c12.667 25.333 35 38 67 38c18.667 0 32 -6 40 -18s12 -29.667 12 -53v-212h-71z" />
    <glyph glyph-name="I.1" unicode="&#xe002;" horiz-adv-x="143" 
d="M31 0v711h77v-711h-77zM31 756v103h77v-103h-77z" />
    <glyph glyph-name="T.1" unicode="&#xe003;" horiz-adv-x="244" 
d="M0 662h28v197h79v-197h110v-67h-110v-510c0 -21.333 7 -32 21 -32c16 0 24 10.667 24 32v455h71v-452c0 -33.333 -7.33301 -58.333 -22 -75s-39 -25 -73 -25c-66.667 0 -100 33.333 -100 100v507h-28v67z" />
    <glyph glyph-name="E.1" unicode="&#xe004;" horiz-adv-x="221" 
d="M108 70h91v-70h-168v859h167v-70h-90v-317h89v-67h-89v-335z" />
    <glyph glyph-name="A.1" unicode="&#xe005;" horiz-adv-x="257" 
d="M185 859l62 -859h-80l-10 178h-58l-9 -178h-78l61 859h112zM102 245h52l-26 500z" />
    <glyph glyph-name="nonmarkingreturn" horiz-adv-x="147" 
 />
    <glyph glyph-name=".null" horiz-adv-x="0" 
 />
    </font>
</defs>
</svg>
