<svg xmlns="http://www.w3.org/2000/svg" viewBox="0 0 429.14 136.53">
	<defs>
		<style>.cls-1{fill:#c1001f;}.cls-2{fill:#581419;}</style>
	</defs>
	<title>9 мая</title>
	
	<path id="path0_fill" data-name="path0 fill" class="cls-1" d="M36.43,72.86l-.72.86-24,31.1H53.28L76.61,72.14c6.77-9.36,12.67-20.74,12.67-33.55C89.28,12.38,68.4,0,44.64,0S0,13.25,0,38.88c0,21.74,17.28,34,34.85,34Zm8.21-24.19c-6.48,0-10.8-4.46-10.8-10.22s4.32-10.51,10.8-10.51A10.22,10.22,0,0,1,55.15,38.45C55.15,44.21,50.83,48.67,44.64,48.67Zm71,56.16h29.52V62.06h.43l14,42.77h20.74l14.11-42.62.72.14v42.48h30.38V29.09H183.34l-12,40.75H171L157.28,29.09H115.66Zm160.58,2c6.62,0,14.83-2.3,18.58-8.06h.29v6h30.1V64.94c0-21.31-7.63-38.74-36.43-38.74-13.39,0-26.93,5-36,13.82l16.56,16.42c4.18-3.46,9.94-6.48,16-6.48,5.18,0,8.64,2.16,8.64,6.77V57c-20,0-44.06,4.32-44.06,25.49C249.89,100.51,264.43,106.85,276.24,106.85Zm9.36-20c-3.17,0-7.63-1.73-7.63-5.9,0-5.76,6.48-7.49,16.27-7.49h1.87V76C296.11,82.37,291.94,86.83,285.6,86.83Zm60,18h37.58l9.5-22.46h3v22.46h33.41V29.09H380.76c-16,0-32.26,7.49-32.26,26.93,0,12,5.47,18.86,13.25,22.61ZM389,63.07c-4.9,0-9.22-1.44-9.22-7.2,0-5,4.61-7.06,9.22-7.06h8.5V63.07Z"/>

	<path id="path1_fill" data-name="path1 fill" class="cls-2" d="M25,131.83H22.93V117.89H15.21v13.94H13.15V116.19H25Zm11.72,0a4.17,4.17,0,0,1-.28-1.22A4.43,4.43,0,0,1,33.14,132a4.14,4.14,0,0,1-2.83-1,3.17,3.17,0,0,1-1.1-2.47,3.28,3.28,0,0,1,1.38-2.81,6.51,6.51,0,0,1,3.89-1h1.93v-.91a2.21,2.21,0,0,0-.62-1.65,2.49,2.49,0,0,0-1.84-.62,2.9,2.9,0,0,0-1.78.54,1.58,1.58,0,0,0-.72,1.3h-2a2.74,2.74,0,0,1,.61-1.68,4.25,4.25,0,0,1,1.68-1.29,5.67,5.67,0,0,1,2.33-.47,4.58,4.58,0,0,1,3.15,1,3.61,3.61,0,0,1,1.18,2.76v5.35a6.54,6.54,0,0,0,.41,2.55v.17Zm-3.3-1.51a3.49,3.49,0,0,0,1.77-.48,2.92,2.92,0,0,0,1.21-1.26v-2.38H34.86q-3.65,0-3.65,2.14a1.81,1.81,0,0,0,.62,1.46A2.39,2.39,0,0,0,33.43,130.32Zm15.88-1.12,4-9h2.48v11.62h-2v-8.45L50,131.83H48.62l-3.83-8.64v8.64h-2V120.21h2.58Zm19.62-9v11.62h-2v-4.52h-3l-2.74,4.52H59L62,127a3.51,3.51,0,0,1-1.72-1.26,3.44,3.44,0,0,1-.59-2,3.13,3.13,0,0,1,1.19-2.56,4.92,4.92,0,0,1,3.19-1Zm-7.27,3.57a1.77,1.77,0,0,0,.58,1.38,2.27,2.27,0,0,0,1.54.53h3.16v-3.86H64.07a2.66,2.66,0,0,0-1.76.55A1.73,1.73,0,0,0,61.66,123.78Zm20.2-2H78v10H76v-10H72.14v-1.61h9.71Zm12.53,10h-2v-5H87.06v5h-2V120.21h2v5H92.4v-5h2Zm6.47-7.62h3a4.65,4.65,0,0,1,3.13,1,3.46,3.46,0,0,1,1.15,2.74,3.56,3.56,0,0,1-1.18,2.79,4.6,4.6,0,0,1-3.18,1.05H98.87V120.21h2Zm11.44,7.62h-2V120.21h2Zm-11.44-6v4.37h3a2.44,2.44,0,0,0,1.73-.57,2.07,2.07,0,0,0,.61-1.58,2.16,2.16,0,0,0-.6-1.58,2.25,2.25,0,0,0-1.67-.64ZM121.69,132a5.09,5.09,0,0,1-3.85-1.55,5.78,5.78,0,0,1-1.48-4.16V126a7,7,0,0,1,.65-3.08,5.16,5.16,0,0,1,1.85-2.13,4.65,4.65,0,0,1,2.58-.77,4.35,4.35,0,0,1,3.52,1.49,6.46,6.46,0,0,1,1.26,4.28v.83h-7.87a4.17,4.17,0,0,0,1,2.78,3.18,3.18,0,0,0,2.45,1.05,3.46,3.46,0,0,0,1.78-.43,4.48,4.48,0,0,0,1.28-1.14l1.21.95A4.88,4.88,0,0,1,121.69,132Zm-.25-10.42a2.65,2.65,0,0,0-2,.88,4.23,4.23,0,0,0-1,2.45h5.82v-.15a3.76,3.76,0,0,0-.82-2.34A2.49,2.49,0,0,0,121.44,121.63Zm14.32,4.61a8.07,8.07,0,0,1,1.13-4.58A3.55,3.55,0,0,1,140,120a3.84,3.84,0,0,1,1.6.31v-5h2v5a3.89,3.89,0,0,1,1.76-.38,3.56,3.56,0,0,1,3.11,1.67,8.54,8.54,0,0,1,1.13,4.8,6.68,6.68,0,0,1-1.13,4.08,3.62,3.62,0,0,1-3.08,1.51,4.21,4.21,0,0,1-1.78-.34v4.59h-2v-4.55a4,4,0,0,1-1.62.31,3.64,3.64,0,0,1-3.08-1.51,6.86,6.86,0,0,1-1.12-4.15Zm11.82,0a6.42,6.42,0,0,0-.75-3.39,2.33,2.33,0,0,0-2.07-1.21,3,3,0,0,0-1.18.21v8.41a3.43,3.43,0,0,0,1.2.18,2.38,2.38,0,0,0,2.06-1A5.46,5.46,0,0,0,147.58,126.24Zm-9.83.23a5.21,5.21,0,0,0,.7,3,2.29,2.29,0,0,0,2,1,3.13,3.13,0,0,0,1.13-.19v-8.43a3,3,0,0,0-1.11-.18,2.24,2.24,0,0,0-2,1.17A7.3,7.3,0,0,0,137.75,126.46Zm19.18,2.46,2.71-8.71h2.13l-4.67,13.42q-1.09,2.9-3.45,2.9l-.38,0-.74-.14v-1.61l.54,0a2.62,2.62,0,0,0,1.57-.41,2.93,2.93,0,0,0,.93-1.49l.44-1.18-4.15-11.49H154Zm16.35-7.1h-3.9v10h-2v-10h-3.82v-1.61h9.71Zm8.14-.95a4.46,4.46,0,0,1,3.5,1.47,5.53,5.53,0,0,1,1.32,3.86v.18a6.62,6.62,0,0,1-.63,2.94,4.72,4.72,0,0,1-1.83,2A5.2,5.2,0,0,1,181,132a4.87,4.87,0,0,1-3.77-1.56,6,6,0,0,1-1.43-4.2v-1a10.87,10.87,0,0,1,1.35-5.82,5.71,5.71,0,0,1,4-2.63,5.32,5.32,0,0,0,2-.66,1.25,1.25,0,0,0,.53-1.06h1.63a3.23,3.23,0,0,1-.61,2.09,3.36,3.36,0,0,1-1.93,1.06l-1.48.33a5,5,0,0,0-2.66,1.42,5.1,5.1,0,0,0-1.15,2.64A4.9,4.9,0,0,1,181.42,120.88Zm-.39,1.63a2.92,2.92,0,0,0-2.32,1,4,4,0,0,0-.86,2.72v.17a4.68,4.68,0,0,0,.86,3,2.84,2.84,0,0,0,2.34,1.08,2.82,2.82,0,0,0,2.34-1.1,5.11,5.11,0,0,0,.86-3.2,3.84,3.84,0,0,0-.87-2.63A2.94,2.94,0,0,0,181,122.51Zm8,3.41a6.91,6.91,0,0,1,.67-3.07,5.05,5.05,0,0,1,1.87-2.11,5.12,5.12,0,0,1,2.74-.74,4.89,4.89,0,0,1,3.84,1.64,6.31,6.31,0,0,1,1.47,4.37v.14a6.92,6.92,0,0,1-.65,3.05,4.9,4.9,0,0,1-1.86,2.09,5.12,5.12,0,0,1-2.77.75,4.9,4.9,0,0,1-3.83-1.64,6.31,6.31,0,0,1-1.46-4.35Zm2,.24a5,5,0,0,0,.89,3.1,2.89,2.89,0,0,0,2.41,1.17,2.86,2.86,0,0,0,2.41-1.18,5.46,5.46,0,0,0,.89-3.33,4.92,4.92,0,0,0-.91-3.09,3,3,0,0,0-4.78,0A5.4,5.4,0,0,0,191,126.15Zm21.53-5.94v11.62h-2v-10h-4l-.24,4.35a9.55,9.55,0,0,1-1,4.29,2.92,2.92,0,0,1-2.57,1.34H202v-1.75l.57,0a1.64,1.64,0,0,0,1.39-1.12,12.61,12.61,0,0,0,.54-3.74l.21-5Zm7.91,6.67H219v5h-2V120.21h2v4.92h1.3l3.91-4.92h2.41l-4.6,5.59,5,6h-2.53Zm16.88-6.67h2v11.62h-2v-8.48L232,131.83h-2V120.21h2v8.49Zm6.21,14.74-1.13-.77a5.18,5.18,0,0,0,1.05-2.9v-1.79h1.95V131a4.85,4.85,0,0,1-.54,2.17A5,5,0,0,1,243.58,134.95Zm16.7-4.52a2.86,2.86,0,0,0,1.86-.64,2.27,2.27,0,0,0,.88-1.61h1.88a3.6,3.6,0,0,1-.69,1.9,4.51,4.51,0,0,1-1.7,1.44,5.17,5.17,0,0,1-6-1,6.35,6.35,0,0,1-1.4-4.34v-.33a7,7,0,0,1,.62-3,4.76,4.76,0,0,1,1.78-2.05,5.11,5.11,0,0,1,2.76-.73,4.64,4.64,0,0,1,3.24,1.17,4.18,4.18,0,0,1,1.39,3H263a2.71,2.71,0,0,0-.86-1.85,2.62,2.62,0,0,0-1.89-.73,2.79,2.79,0,0,0-2.35,1.1,5.12,5.12,0,0,0-.83,3.15v.38a5,5,0,0,0,.83,3.09A2.8,2.8,0,0,0,260.28,130.42Zm8.14,1.41V120.21H273a6.45,6.45,0,0,1,3.56.82,2.65,2.65,0,0,1,1.25,2.37,2.4,2.4,0,0,1-.48,1.46,3,3,0,0,1-1.43,1,3.13,3.13,0,0,1,1.69,1,2.49,2.49,0,0,1,.65,1.72A2.83,2.83,0,0,1,277,131a5.59,5.59,0,0,1-3.32.85Zm2-5.1v3.5h3.29a3.08,3.08,0,0,0,1.86-.46,1.52,1.52,0,0,0,.62-1.3q0-1.74-2.56-1.74Zm0-1.59H273q2.79,0,2.79-1.63t-2.64-1.69h-2.72Zm19-4.93h2v11.62h-2v-8.48l-5.36,8.48h-2V120.21h2v8.49Zm14.91,1.61h-3.9v10h-2v-10h-3.82v-1.61h9.71Zm5.2-1.61v10h4.25v-10h2v10H320v-10h2v11.62H307.54V120.21Zm16.19,5.7a6.91,6.91,0,0,1,.67-3.07,5.05,5.05,0,0,1,1.87-2.11A5.11,5.11,0,0,1,331,120a4.89,4.89,0,0,1,3.83,1.64,6.31,6.31,0,0,1,1.47,4.37v.14a6.92,6.92,0,0,1-.65,3.05,4.9,4.9,0,0,1-1.86,2.09A5.12,5.12,0,0,1,331,132a4.91,4.91,0,0,1-3.83-1.64,6.31,6.31,0,0,1-1.46-4.35Zm2,.24a5,5,0,0,0,.89,3.1,3,3,0,0,0,4.81,0,5.46,5.46,0,0,0,.89-3.33,4.92,4.92,0,0,0-.91-3.09,3,3,0,0,0-4.78,0A5.4,5.4,0,0,0,327.73,126.15Zm20.57-4.33h-3.9v10h-2v-10H338.6v-1.61h9.71Zm5.2,2.4h3a4.65,4.65,0,0,1,3.13,1,3.46,3.46,0,0,1,1.15,2.74,3.56,3.56,0,0,1-1.18,2.79,4.6,4.6,0,0,1-3.18,1.05h-4.92V120.21h2ZM365,131.83h-2V120.21h2Zm-11.44-6v4.37h3a2.44,2.44,0,0,0,1.73-.57,2.07,2.07,0,0,0,.61-1.58,2.16,2.16,0,0,0-.6-1.58,2.25,2.25,0,0,0-1.67-.64Zm15.95,9.11-1.13-.77a5.18,5.18,0,0,0,1.05-2.9v-1.79h1.95V131a4.85,4.85,0,0,1-.54,2.17A5,5,0,0,1,369.46,134.95Zm15.94-10.5,2.58-4.24h2.32l-3.8,5.75,3.92,5.88h-2.3l-2.69-4.35-2.68,4.35h-2.31l3.92-5.88-3.8-5.75h2.3Zm11.92,4.47,2.71-8.71h2.13l-4.67,13.42q-1.08,2.9-3.45,2.9l-.38,0-.74-.14v-1.61l.54,0a2.62,2.62,0,0,0,1.57-.41,2.93,2.93,0,0,0,.93-1.49l.44-1.18-4.15-11.49h2.17Zm7,1.29.69-.85a8.06,8.06,0,0,0,1.32-4.51l.18-4.64H414v10h1.49v5h-2v-3.42h-8.11v3.42h-2v-5Zm2.35,0H412V122h-3.58l-.12,2.77A9.61,9.61,0,0,1,406.69,130.21Zm19.64-10h2v11.62h-2v-8.48L421,131.83h-2V120.21h2v8.49Z"/>

	<path id="path2_fill" data-name="path2 fill" class="cls-2" d="M121.12,9.81h-1.9v7h-2.06V1.19h2.06v6.9h1.61l5.47-6.9h2.57l-6,7.58,6.41,8.06h-2.52Zm16.94,7a4.17,4.17,0,0,1-.28-1.22A4.43,4.43,0,0,1,134.47,17a4.14,4.14,0,0,1-2.83-1,3.17,3.17,0,0,1-1.1-2.47,3.28,3.28,0,0,1,1.38-2.81,6.51,6.51,0,0,1,3.89-1h1.93V8.87a2.21,2.21,0,0,0-.62-1.65,2.49,2.49,0,0,0-1.84-.62,2.9,2.9,0,0,0-1.78.54,1.58,1.58,0,0,0-.72,1.3h-2a2.74,2.74,0,0,1,.61-1.68,4.25,4.25,0,0,1,1.68-1.29A5.68,5.68,0,0,1,135.4,5a4.58,4.58,0,0,1,3.15,1,3.61,3.61,0,0,1,1.18,2.76v5.35a6.54,6.54,0,0,0,.41,2.55v.17Zm-3.3-1.51a3.49,3.49,0,0,0,1.77-.48,2.92,2.92,0,0,0,1.21-1.26V11.19h-1.56q-3.65,0-3.65,2.14a1.81,1.81,0,0,0,.62,1.46A2.39,2.39,0,0,0,134.76,15.32Zm12.75.11a2.86,2.86,0,0,0,1.86-.64,2.27,2.27,0,0,0,.88-1.61h1.88a3.6,3.6,0,0,1-.69,1.9,4.52,4.52,0,0,1-1.7,1.44,5.17,5.17,0,0,1-6-1,6.35,6.35,0,0,1-1.4-4.34v-.33a7,7,0,0,1,.62-3,4.76,4.76,0,0,1,1.78-2.05A5.11,5.11,0,0,1,147.5,5a4.64,4.64,0,0,1,3.24,1.17,4.18,4.18,0,0,1,1.39,3h-1.88a2.71,2.71,0,0,0-.86-1.85,2.63,2.63,0,0,0-1.89-.73,2.79,2.79,0,0,0-2.35,1.1,5.12,5.12,0,0,0-.83,3.15v.38a5,5,0,0,0,.83,3.09A2.79,2.79,0,0,0,147.51,15.42ZM163,6.82h-3.9v10h-2v-10h-3.82V5.21H163Zm1,4.09a6.91,6.91,0,0,1,.67-3.07,5.06,5.06,0,0,1,1.87-2.11A5.12,5.12,0,0,1,169.23,5a4.89,4.89,0,0,1,3.83,1.64A6.31,6.31,0,0,1,174.54,11v.14a6.91,6.91,0,0,1-.66,3.05A4.9,4.9,0,0,1,172,16.29a5.12,5.12,0,0,1-2.77.75,4.91,4.91,0,0,1-3.83-1.64A6.31,6.31,0,0,1,164,11.05Zm2,.24a5,5,0,0,0,.89,3.1,3,3,0,0,0,4.81,0,5.46,5.46,0,0,0,.89-3.33,4.92,4.92,0,0,0-.91-3.09,3,3,0,0,0-4.78,0A5.4,5.4,0,0,0,166,11.15Zm17.77,3.05,4-9h2.48V16.83h-2V8.38l-3.76,8.45H183L179.2,8.2v8.64h-2V5.21h2.58Zm17.16-9h2V16.83h-2V8.36l-5.36,8.48h-2V5.21h2V13.7Zm11.57,3.18a1.53,1.53,0,0,0-.62-1.29,2.72,2.72,0,0,0-1.71-.48,2.8,2.8,0,0,0-1.76.55,1.61,1.61,0,0,0-.7,1.29h-2A3,3,0,0,1,206.95,6a5.92,5.92,0,0,1,6.35-.09,3,3,0,0,1,1.14,2.49A2.41,2.41,0,0,1,214,9.82a3.22,3.22,0,0,1-1.34,1,2.66,2.66,0,0,1,2,2.71,3,3,0,0,1-1.24,2.54,5.33,5.33,0,0,1-3.3.93,5.4,5.4,0,0,1-3.32-1,3.17,3.17,0,0,1-1.3-2.66h2a1.83,1.83,0,0,0,.75,1.46,3.36,3.36,0,0,0,3.73.08,1.63,1.63,0,0,0,.7-1.36,1.59,1.59,0,0,0-.59-1.4,3.07,3.07,0,0,0-1.82-.43h-2V10.06h2.16Q212.45,10,212.45,8.39Zm12.3-3.18h2V16.83h-2V8.36l-5.36,8.48h-2V5.21h2V13.7Zm15,5.94a7,7,0,0,1-1.21,4.28A3.89,3.89,0,0,1,235.24,17a4.26,4.26,0,0,1-3.33-1.34v5.6h-2V5.21h1.82l.1,1.29A4.09,4.09,0,0,1,235.21,5a4,4,0,0,1,3.31,1.58A7,7,0,0,1,239.74,11Zm-2-.23a5.14,5.14,0,0,0-.84-3.1,2.7,2.7,0,0,0-2.3-1.14,2.92,2.92,0,0,0-2.71,1.6v5.55a2.93,2.93,0,0,0,2.73,1.59,2.68,2.68,0,0,0,2.27-1.13A5.6,5.6,0,0,0,237.75,10.92Zm4,0a6.91,6.91,0,0,1,.67-3.07,5.06,5.06,0,0,1,1.87-2.11A5.11,5.11,0,0,1,247,5a4.89,4.89,0,0,1,3.83,1.64A6.31,6.31,0,0,1,252.33,11v.14a6.92,6.92,0,0,1-.65,3.05,4.9,4.9,0,0,1-1.86,2.09A5.12,5.12,0,0,1,247,17a4.91,4.91,0,0,1-3.84-1.64,6.31,6.31,0,0,1-1.46-4.35Zm2,.24a5,5,0,0,0,.89,3.1,3,3,0,0,0,4.81,0,5.46,5.46,0,0,0,.89-3.33,4.92,4.92,0,0,0-.91-3.09,3,3,0,0,0-4.78,0A5.4,5.4,0,0,0,243.75,11.15ZM255,16.83V5.21h4.53a6.45,6.45,0,0,1,3.55.82,2.65,2.65,0,0,1,1.25,2.37,2.4,2.4,0,0,1-.48,1.46,3,3,0,0,1-1.43,1,3.13,3.13,0,0,1,1.69,1,2.49,2.49,0,0,1,.64,1.72A2.83,2.83,0,0,1,263.58,16a5.59,5.59,0,0,1-3.32.85Zm2-5.1v3.5h3.29a3.07,3.07,0,0,0,1.86-.46,1.52,1.52,0,0,0,.62-1.3q0-1.74-2.56-1.74Zm0-1.59h2.57q2.79,0,2.79-1.63t-2.64-1.69H257Zm17.57,6.69a4.18,4.18,0,0,1-.28-1.22A4.44,4.44,0,0,1,271,17a4.14,4.14,0,0,1-2.83-1,3.17,3.17,0,0,1-1.1-2.47,3.28,3.28,0,0,1,1.38-2.81,6.51,6.51,0,0,1,3.89-1h1.93V8.87a2.22,2.22,0,0,0-.62-1.65,2.49,2.49,0,0,0-1.84-.62,2.9,2.9,0,0,0-1.78.54,1.58,1.58,0,0,0-.72,1.3h-2a2.74,2.74,0,0,1,.61-1.68,4.24,4.24,0,0,1,1.68-1.29A5.68,5.68,0,0,1,271.92,5a4.58,4.58,0,0,1,3.15,1,3.61,3.61,0,0,1,1.18,2.76v5.35a6.54,6.54,0,0,0,.41,2.55v.17Zm-3.3-1.51a3.5,3.5,0,0,0,1.77-.48,2.93,2.93,0,0,0,1.21-1.26V11.19H272.7q-3.65,0-3.65,2.14a1.81,1.81,0,0,0,.62,1.46A2.39,2.39,0,0,0,271.27,15.32Zm17.59,1.51h-2v-5h-5.34v5h-2V5.21h2v5h5.34v-5h2Zm12.7,0h-2v-5h-5.34v5h-2V5.21h2v5h5.34v-5h2Zm10.38,0a4.21,4.21,0,0,1-.28-1.22A4.43,4.43,0,0,1,308.34,17a4.14,4.14,0,0,1-2.83-1,3.17,3.17,0,0,1-1.1-2.47,3.28,3.28,0,0,1,1.38-2.81,6.5,6.5,0,0,1,3.89-1h1.93V8.87A2.22,2.22,0,0,0,311,7.22a2.49,2.49,0,0,0-1.84-.62,2.9,2.9,0,0,0-1.78.54,1.58,1.58,0,0,0-.72,1.3h-2a2.74,2.74,0,0,1,.61-1.68,4.25,4.25,0,0,1,1.68-1.29A5.67,5.67,0,0,1,309.28,5a4.58,4.58,0,0,1,3.15,1,3.6,3.6,0,0,1,1.18,2.76v5.35a6.54,6.54,0,0,0,.41,2.55v.17Zm-3.3-1.51a3.49,3.49,0,0,0,1.77-.48,2.92,2.92,0,0,0,1.21-1.26V11.19h-1.56q-3.65,0-3.65,2.14a1.81,1.81,0,0,0,.62,1.46A2.39,2.39,0,0,0,308.63,15.32Zm17-10.11V16.83h-2V12.31h-3l-2.74,4.52h-2.15L318.64,12a3.51,3.51,0,0,1-1.72-1.26,3.44,3.44,0,0,1-.59-2,3.13,3.13,0,0,1,1.19-2.56,4.92,4.92,0,0,1,3.19-1Zm-7.27,3.57a1.77,1.77,0,0,0,.58,1.37,2.27,2.27,0,0,0,1.54.53h3.16V6.82h-2.86a2.66,2.66,0,0,0-1.76.55A1.73,1.73,0,0,0,318.33,8.78Zm15.39,2.14a6.91,6.91,0,0,1,.67-3.07,5.06,5.06,0,0,1,1.87-2.11A5.11,5.11,0,0,1,339,5a4.89,4.89,0,0,1,3.84,1.64A6.31,6.31,0,0,1,344.31,11v.14a6.91,6.91,0,0,1-.65,3.05,4.9,4.9,0,0,1-1.86,2.09A5.12,5.12,0,0,1,339,17a4.91,4.91,0,0,1-3.84-1.64,6.31,6.31,0,0,1-1.46-4.35Zm2,.24a5,5,0,0,0,.89,3.1,3,3,0,0,0,4.81,0,5.46,5.46,0,0,0,.89-3.33,4.92,4.92,0,0,0-.91-3.09,3,3,0,0,0-4.78,0A5.39,5.39,0,0,0,335.72,11.15Zm10.21,4.06.69-.85a8.06,8.06,0,0,0,1.32-4.51l.18-4.64h7.49v10h1.49v5h-2V16.83H347v3.42h-2v-5Zm2.35,0h5.34V7H350l-.12,2.77A9.62,9.62,0,0,1,348.28,15.21ZM364.13,17a5.09,5.09,0,0,1-3.85-1.55,5.78,5.78,0,0,1-1.48-4.16V11a7,7,0,0,1,.65-3.08,5.16,5.16,0,0,1,1.85-2.13A4.65,4.65,0,0,1,363.88,5a4.35,4.35,0,0,1,3.52,1.49,6.46,6.46,0,0,1,1.26,4.28v.83h-7.87a4.17,4.17,0,0,0,1,2.78,3.18,3.18,0,0,0,2.45,1.05A3.46,3.46,0,0,0,366,15a4.49,4.49,0,0,0,1.28-1.14l1.21.95A4.88,4.88,0,0,1,364.13,17Zm-.25-10.42a2.64,2.64,0,0,0-2,.88,4.23,4.23,0,0,0-1,2.45h5.82V9.81a3.76,3.76,0,0,0-.82-2.34A2.49,2.49,0,0,0,363.88,6.63Zm16.36,5.16h-1.4v5h-2v-5h-1.4l-3.26,5h-2.51l4.16-6-3.76-5.61h2.41l3,4.81h1.36V5.21h2V10h1.35l3-4.81h2.41l-3.77,5.62,4.16,6h-2.51Zm7.48,3.43.69-.85a8,8,0,0,0,1.32-4.51l.18-4.64h7.49v10h1.49v5h-2V16.83h-8.11v3.42h-2v-5Zm2.35,0h5.34V7h-3.58l-.12,2.77A9.62,9.62,0,0,1,390.07,15.21Zm18.2,1.62a4.21,4.21,0,0,1-.28-1.22A4.43,4.43,0,0,1,404.68,17a4.14,4.14,0,0,1-2.83-1,3.17,3.17,0,0,1-1.1-2.47,3.28,3.28,0,0,1,1.38-2.81,6.5,6.5,0,0,1,3.89-1H408V8.87a2.22,2.22,0,0,0-.62-1.65,2.49,2.49,0,0,0-1.84-.62,2.9,2.9,0,0,0-1.78.54,1.58,1.58,0,0,0-.72,1.3h-2a2.74,2.74,0,0,1,.61-1.68,4.25,4.25,0,0,1,1.68-1.29A5.68,5.68,0,0,1,405.61,5a4.58,4.58,0,0,1,3.15,1,3.6,3.6,0,0,1,1.18,2.76v5.35a6.54,6.54,0,0,0,.41,2.55v.17ZM405,15.32a3.49,3.49,0,0,0,1.77-.48A2.92,2.92,0,0,0,408,13.58V11.19H406.4q-3.65,0-3.65,2.14a1.81,1.81,0,0,0,.62,1.46A2.39,2.39,0,0,0,405,15.32Zm17.17-3.44h-1.45v5h-2V5.21h2v4.92H422l3.91-4.92h2.41l-4.6,5.59,5,6h-2.52Z"/>

</svg>