<svg width="32" height="32" viewBox="0 0 32 32" version="1.1" xmlns="http://www.w3.org/2000/svg" xmlns:xlink="http://www.w3.org/1999/xlink" xmlns:figma="http://www.figma.com/figma/ns">
<title>Add_to_cart</title>
<desc>Created using Figma</desc>
<g id="Canvas" transform="translate(-25769 8102)" figma:type="canvas">
<g id="Add_to_cart" figma:type="vector-operation">
<use xlink:href="#path0_stroke" transform="translate(25770 -8101)" fill="#FFFFFF"/>
</g>
</g>
<defs>
<path id="path0_stroke" d="M 22.7051 2.7793L 22.6603 2.03063L 22.6567 2.03086L 22.7051 2.7793ZM 29.9668 5.86523L 29.2168 5.86523L 29.2168 6.61523L 29.9668 6.61523L 29.9668 5.86523ZM 9.33789 3.74219L 8.59033 3.80266L 8.65063 4.54801L 9.39615 4.48992L 9.33789 3.74219ZM 0.996094 0L 0.996094 -0.75L 0.952492 -0.75L 0.909183 -0.744947L 0.996094 0ZM 0.929688 3.16113L 0.895846 3.91037L 0.912758 3.91113L 0.929688 3.91113L 0.929688 3.16113ZM 7.4043 21.7285L 6.65547 21.6866L 6.61026 22.4945L 7.41925 22.4784L 7.4043 21.7285ZM 21.3203 21.5215L 21.0873 22.2344L 21.0904 22.2354L 21.3203 21.5215ZM 30 5.86523L 30.75 5.86523L 30.75 5.11523L 30 5.11523L 30 5.86523ZM 8.99219 24.499L 9.40315 25.1264L 9.40427 25.1257L 8.99219 24.499ZM 12.8516 24.873L 13.3778 24.3386L 13.3769 24.3377L 12.8516 24.873ZM 11.8594 29.7715L 12.1413 30.4665L 12.1423 30.4661L 11.8594 29.7715ZM 10.0938 29.9424L 9.94969 30.6784L 9.9504 30.6786L 10.0938 29.9424ZM 8.52734 29.1201L 8.0007 29.6541L 8.00192 29.6553L 8.52734 29.1201ZM 7.69141 27.582L 8.4267 27.4342L 8.42665 27.434L 7.69141 27.582ZM 7.86523 25.8467L 7.17479 25.5538L 7.17373 25.5563L 7.86523 25.8467ZM 23.4727 24.499L 23.8836 25.1264L 23.8847 25.1257L 23.4727 24.499ZM 27.332 24.873L 27.8582 24.3386L 27.8573 24.3377L 27.332 24.873ZM 26.3398 29.7715L 26.6217 30.4665L 26.6228 30.4661L 26.3398 29.7715ZM 24.5742 29.9424L 24.4302 30.6784L 24.4309 30.6786L 24.5742 29.9424ZM 23.0078 29.1201L 22.4812 29.6541L 22.4824 29.6553L 23.0078 29.1201ZM 22.1719 27.582L 22.9072 27.4342L 22.9071 27.434L 22.1719 27.582ZM 22.3457 25.8467L 21.6553 25.5538L 21.6542 25.5563L 22.3457 25.8467ZM 15 6.80273L 15.3749 7.45229L 15.3751 7.45218L 15 6.80273ZM 12.8027 14.999L 13.4523 14.6242L 13.4523 14.6241L 12.8027 14.999ZM 23.1953 8.99902L 23.8449 8.62416L 23.8449 8.62407L 23.1953 8.99902ZM 21 17.1953L 21.3748 17.845L 21.3751 17.8448L 21 17.1953ZM 14.5723 11.25C 14.1581 11.25 13.8223 11.5858 13.8223 12C 13.8223 12.4142 14.1581 12.75 14.5723 12.75L 14.5723 11.25ZM 21.4297 12.75C 21.8439 12.75 22.1797 12.4142 22.1797 12C 22.1797 11.5858 21.8439 11.25 21.4297 11.25L 21.4297 12.75ZM 18.75 8.57129C 18.75 8.15708 18.4142 7.82129 18 7.82129C 17.5858 7.82129 17.25 8.15708 17.25 8.57129L 18.75 8.57129ZM 17.25 15.4287C 17.25 15.8429 17.5858 16.1787 18 16.1787C 18.4142 16.1787 18.75 15.8429 18.75 15.4287L 17.25 15.4287ZM 22.7499 3.52796C 24.719 3.41009 26.3997 3.36783 27.5831 3.71104C 28.1551 3.87695 28.5456 4.1161 28.7969 4.42432C 29.0419 4.72497 29.2168 5.16751 29.2168 5.86523L 30.7168 5.86523C 30.7168 4.90378 30.4693 4.10194 29.9595 3.47656C 29.4559 2.85876 28.7589 2.49024 28.0009 2.2704C 26.5242 1.84213 24.5739 1.91609 22.6603 2.03064L 22.7499 3.52796ZM 9.33789 3.74219C 9.39615 4.48992 9.39618 4.48992 9.39623 4.48991C 9.39629 4.48991 9.39637 4.4899 9.39648 4.4899C 9.3967 4.48988 9.39704 4.48985 9.39748 4.48982C 9.39839 4.48975 9.39973 4.48964 9.40152 4.4895C 9.40512 4.48922 9.41048 4.48881 9.4176 4.48825C 9.43187 4.48714 9.4531 4.48549 9.48109 4.48332C 9.5371 4.47898 9.61996 4.47256 9.72759 4.46425C 9.94293 4.44762 10.257 4.42346 10.6525 4.39325C 11.4437 4.33283 12.5597 4.24833 13.8606 4.15188C 16.4629 3.95894 19.8011 3.71847 22.7534 3.52774L 22.6567 2.03086C 19.6989 2.22196 16.3535 2.46293 13.7497 2.65598C 12.4476 2.75252 11.33 2.83715 10.5383 2.89761C 10.1424 2.92785 9.82766 2.95206 9.61212 2.9687C 9.5043 2.97702 9.42118 2.98346 9.36507 2.98782C 9.337 2.98999 9.31563 2.99165 9.30132 2.99277C 9.29416 2.99332 9.28873 2.99375 9.28512 2.99403C 9.2833 2.99417 9.28193 2.99427 9.28102 2.99435C 9.28056 2.99438 9.28021 2.99441 9.27998 2.99443C 9.27987 2.99444 9.27978 2.99444 9.27972 2.99445C 9.27966 2.99445 9.27963 2.99445 9.33789 3.74219ZM 5.31055 0.75C 6.8575 0.75 7.63886 1.49842 8.07177 2.24668C 8.30722 2.64571 8.42507 3.01407 8.50424 3.33717C 8.54219 3.4894 8.5622 3.60201 8.57612 3.69409C 8.58253 3.73584 8.58581 3.76219 8.58841 3.78517C 8.58951 3.79462 8.58992 3.79881 8.59041 3.80383C 8.59056 3.80534 8.59067 3.80661 8.5906 3.80581C 8.5906 3.8059 8.59051 3.80485 8.59052 3.80489C 8.59054 3.80515 8.59043 3.80381 8.59044 3.80394C 8.59042 3.80376 8.5904 3.80344 8.59039 3.80334C 8.59036 3.80301 8.59033 3.80266 9.33789 3.74219C 10.0854 3.68171 10.0854 3.68134 10.0854 3.68095C 10.0854 3.6808 10.0853 3.68039 10.0853 3.68009C 10.0853 3.67974 10.0852 3.67884 10.0852 3.67812C 10.0851 3.67718 10.0849 3.67502 10.0847 3.67314C 10.0845 3.67034 10.0839 3.66464 10.0834 3.65908C 10.0825 3.64993 10.0808 3.63311 10.0787 3.61516C 10.0751 3.58332 10.0682 3.52927 10.0591 3.46869C 10.0419 3.35612 10.0092 3.17637 9.96055 2.97778C 9.86656 2.59921 9.67593 2.03202 9.37013 1.49551C 8.72051 0.37267 7.48821 -0.75 5.31055 -0.75L 5.31055 0.75ZM 0.996094 0.75L 5.31055 0.75L 5.31055 -0.75L 0.996094 -0.75L 0.996094 0.75ZM 0.75 1.61816C 0.75 1.05097 0.92854 0.865468 0.99051 0.811517C 1.03823 0.761726 1.04297 0.765148 1.09946 0.745485C 1.11377 0.739386 1.1299 0.737107 1.11749 0.739733C 1.11765 0.739832 1.10914 0.741342 1.10839 0.741436C 1.11106 0.741019 1.09675 0.743209 1.09794 0.743035C 1.10002 0.742748 1.09005 0.744092 1.09106 0.743961C 1.0923 0.743803 1.08657 0.744523 1.08718 0.744448C 1.08785 0.744366 1.0848 0.744736 1.08513 0.744696C 1.08478 0.744738 1.08425 0.744801 1.08408 0.744821C 1.08354 0.744884 1.083 0.744947 0.996094 0C 0.909183 -0.744947 0.908637 -0.744883 0.908088 -0.744819C 0.907899 -0.744796 0.907344 -0.74473 0.906966 -0.744685C 0.906572 -0.744638 0.905433 -0.744501 0.904643 -0.744404C 0.90379 -0.744299 0.9014 -0.744 0.899685 -0.743781C 0.897717 -0.743526 0.892493 -0.742828 0.888532 -0.742276C 0.883572 -0.74157 0.87138 -0.739727 0.86142 -0.738092C 0.847572 -0.735751 0.816497 -0.729891 0.789098 -0.723879C 0.747033 -0.714282 0.66052 -0.690497 0.581452 -0.662233C 0.451166 -0.613171 0.20689 -0.486824 0.0055834 -0.319818C -0.430493 0.0598252 -0.75 0.683402 -0.75 1.61816L 0.75 1.61816ZM 0.929688 3.16113C 0.963529 2.4119 0.964116 2.41192 0.9647 2.41195C 0.96489 2.41196 0.965472 2.41199 0.965853 2.41201C 0.965485 2.41199 0.96885 2.41216 0.96811 2.41212C 0.967423 2.41208 0.973814 2.41243 0.972427 2.41235C 0.971247 2.41228 0.982714 2.41303 0.980292 2.41286C 0.978683 2.41274 0.996652 2.41426 0.993124 2.41394C 0.99272 2.41387 1.01113 2.41612 1.00859 2.41587C 1.01752 2.41712 1.01654 2.4189 1.00927 2.41562C 0.963691 2.40265 0.981902 2.41768 0.95138 2.38174C 0.923748 2.35819 0.75 2.20377 0.75 1.61816L -0.75 1.61816C -0.75 2.53353 -0.458904 3.1506 -0.0216927 3.52329C 0.180208 3.68547 0.43084 3.80481 0.559577 3.84662C 0.639461 3.87073 0.728983 3.89001 0.770894 3.89692C 0.798857 3.90125 0.831346 3.90522 0.845369 3.90665C 0.855707 3.90764 0.868622 3.9087 0.873749 3.90907C 0.87793 3.90936 0.883527 3.90972 0.8856 3.90984C 0.887435 3.90994 0.890014 3.91008 0.890926 3.91013C 0.891778 3.91017 0.893012 3.91024 0.893437 3.91026C 0.893847 3.91028 0.89445 3.9103 0.894654 3.91031C 0.895252 3.91034 0.895846 3.91037 0.929688 3.16113ZM 4.22266 2.41113L 0.929688 2.41113L 0.929688 3.91113L 4.22266 3.91113L 4.22266 2.41113ZM 7.4043 21.7285C 8.15312 21.7704 8.15313 21.7703 8.15315 21.77C 8.15316 21.7699 8.15317 21.7696 8.15319 21.7692C 8.15322 21.7686 8.15328 21.7676 8.15335 21.7664C 8.15348 21.764 8.15368 21.7603 8.15394 21.7556C 8.15443 21.7465 8.15518 21.7325 8.15613 21.7144C 8.15799 21.6788 8.16072 21.6252 8.16406 21.5562C 8.17069 21.4192 8.17993 21.2165 8.19011 20.9605C 8.21037 20.4503 8.23472 19.7169 8.25058 18.8409C 8.28214 17.0931 8.27983 14.7438 8.14499 12.4016C 8.00957 10.0596 7.73218 7.65703 7.22167 5.85671C 6.95984 4.94307 6.59836 4.0954 6.17415 3.51295C 5.71325 2.88982 5.06875 2.41113 4.22266 2.41113L 4.22266 3.91113C 4.43174 3.91113 4.67805 4.01268 4.96819 4.40495C 5.29502 4.8379 5.54483 5.44081 5.77912 6.26786C 6.26086 7.94892 6.51509 10.1882 6.64749 12.488C 6.78047 14.7877 6.78219 17.0802 6.75082 18.8138C 6.73522 19.6785 6.71137 20.3957 6.69129 20.9009C 6.6813 21.1526 6.67234 21.3488 6.66581 21.4837C 6.66257 21.5508 6.65998 21.6014 6.65817 21.6361C 6.65728 21.6532 6.6566 21.6658 6.65613 21.6745C 6.6559 21.6787 6.65574 21.6818 6.65562 21.6839C 6.65556 21.6849 6.65553 21.6856 6.6555 21.6861C 6.65548 21.6863 6.65548 21.6865 6.65547 21.6866C 6.65547 21.6866 6.65547 21.6866 7.4043 21.7285ZM 21.5534 20.8086C 21.5114 20.7961 21.4472 20.782 21.423 20.7781C 21.4071 20.7758 21.3818 20.7729 21.3685 20.7717C 21.3482 20.7699 21.3184 20.768 21.2961 20.767C 21.2569 20.7653 21.2013 20.7638 21.1416 20.7629C 21.0256 20.7612 20.8613 20.7608 20.6619 20.7613C 20.265 20.7624 19.7091 20.7677 19.0509 20.7759C 17.7354 20.7922 16.0004 20.8202 14.2731 20.8502C 12.5458 20.8802 10.8247 20.9124 9.5358 20.937C 8.89129 20.9493 8.35466 20.9597 7.97924 20.967C 7.79151 20.9707 7.64403 20.9736 7.54352 20.9756C 7.49326 20.9766 7.45471 20.9774 7.42875 20.9779C 7.41576 20.9781 7.40591 20.9783 7.39931 20.9785C 7.39601 20.9785 7.39352 20.9786 7.39186 20.9786C 7.39102 20.9786 7.3904 20.9786 7.38998 20.9787C 7.38977 20.9787 7.38961 20.9787 7.38951 20.9787C 7.3894 20.9787 7.38934 20.9787 7.4043 21.7285C 7.41925 22.4784 7.4193 22.4784 7.4194 22.4784C 7.41951 22.4784 7.41966 22.4784 7.41987 22.4784C 7.42028 22.4783 7.4209 22.4783 7.42173 22.4783C 7.42339 22.4783 7.42587 22.4782 7.42916 22.4782C 7.43574 22.478 7.44557 22.4778 7.45853 22.4776C 7.48447 22.4771 7.52295 22.4763 7.57317 22.4753C 7.67364 22.4733 7.82097 22.4704 8.0086 22.4668C 8.3839 22.4594 8.92017 22.449 9.56442 22.4367C 10.853 22.4121 12.5728 22.38 14.2992 22.35C 16.0255 22.32 17.7568 22.292 19.0695 22.2758C 19.7255 22.2676 20.2743 22.2624 20.6662 22.2613C 20.8612 22.2608 21.0123 22.2612 21.1195 22.2628C 21.1714 22.2635 21.2044 22.2643 21.2289 22.2655C 21.2386 22.2659 21.2325 22.2656 21.2335 22.2656C 21.2371 22.2659 21.1936 22.2606 21.2032 22.2619C 21.1964 22.2609 21.1478 22.2542 21.0873 22.2344L 21.5534 20.8086ZM 29.25 5.86523C 29.25 13.908 27.1619 17.5884 25.2416 19.274C 24.2724 20.1392 23.3619 20.492 22.5937 20.6669C 22.2285 20.7526 21.9514 20.7794 21.7239 20.7874C 21.6188 20.7916 21.5516 20.7902 21.492 20.7868C 21.4671 20.7856 21.4604 20.785 21.4495 20.7836C 21.4209 20.7803 21.4766 20.7839 21.5503 20.8076L 21.0904 22.2354C 21.1767 22.2632 21.2613 22.2719 21.2767 22.2736C 21.3098 22.2774 21.3622 22.2819 21.4105 22.2846C 21.4974 22.2892 21.6331 22.2915 21.7792 22.2864C 22.0542 22.2759 22.4726 22.2326 22.9307 22.1285C 23.809 21.9239 25.0558 21.4184 26.2311 20.4013C 28.5998 18.3222 30.75 14.1418 30.75 5.86523L 29.25 5.86523ZM 29.9668 6.61523L 30 6.61523L 30 5.11523L 29.9668 5.11523L 29.9668 6.61523ZM 10.6895 23.2432C 9.97575 23.251 9.17763 23.489 8.58011 23.8724L 9.40427 25.1257C 9.81065 24.8489 10.1922 24.7353 10.6895 24.7432L 10.6895 23.2432ZM 13.3769 24.3377C 12.6613 23.6355 11.6949 23.2432 10.6895 23.2432L 10.6895 24.7432C 11.3051 24.7432 11.8934 24.9836 12.3263 25.4084L 13.3769 24.3377ZM 14.4961 26.9961C 14.4961 25.9967 14.0914 25.0413 13.3778 24.3386L 12.3254 25.4075C 12.7563 25.8318 12.9961 26.4037 12.9961 26.9961L 14.4961 26.9961ZM 13.8507 29.0867C 14.2422 28.4963 14.4876 27.703 14.4961 26.9961L 12.9961 26.9961C 13.0045 27.4786 12.8907 27.8455 12.6102 28.2434L 13.8507 29.0867ZM 12.1423 30.4661C 12.7991 30.1899 13.4462 29.6673 13.8507 29.0867L 12.6102 28.2434C 12.3429 28.6511 12.0369 28.898 11.5764 29.0769L 12.1423 30.4661ZM 9.9504 30.6786C 10.6496 30.8068 11.4797 30.7264 12.1413 30.4665L 11.5775 29.0765C 11.1218 29.2697 10.7215 29.3085 10.2371 29.2062L 9.9504 30.6786ZM 8.00192 29.6553C 8.51331 30.1461 9.25102 30.5336 9.94969 30.6784L 10.2378 29.2063C 9.74898 29.1187 9.39685 28.934 9.05276 28.5849L 8.00192 29.6553ZM 6.95611 27.7298C 7.10397 28.4219 7.50296 29.1521 8.0007 29.6541L 9.05399 28.5861C 8.70016 28.2483 8.51322 27.9081 8.4267 27.4342L 6.95611 27.7298ZM 7.17373 25.5563C 6.90784 26.2109 6.82513 27.0371 6.95616 27.7301L 8.42665 27.434C 8.3233 26.9629 8.36169 26.5801 8.55674 26.1371L 7.17373 25.5563ZM 8.58123 23.8716C 7.98897 24.2695 7.45727 24.9084 7.1748 25.5538L 8.55567 26.1396C 8.73804 25.6892 8.98759 25.3887 9.40315 25.1264L 8.58123 23.8716ZM 25.1699 23.2432C 24.4562 23.251 23.6581 23.489 23.0606 23.8724L 23.8847 25.1257C 24.2911 24.8489 24.6727 24.7353 25.1699 24.7432L 25.1699 23.2432ZM 27.8573 24.3377C 27.1418 23.6355 26.1753 23.2432 25.1699 23.2432L 25.1699 24.7432C 25.7856 24.7432 26.3739 24.9836 26.8067 25.4084L 27.8573 24.3377ZM 28.9766 26.9961C 28.9766 25.9967 28.5719 25.0413 27.8582 24.3386L 26.8058 25.4075C 27.2367 25.8318 27.4766 26.4037 27.4766 26.9961L 28.9766 26.9961ZM 28.3312 29.0867C 28.7226 28.4963 28.9681 27.703 28.9766 26.9961L 27.4766 26.9961C 27.485 27.4786 27.3711 27.8455 27.0907 28.2434L 28.3312 29.0867ZM 26.6228 30.4661C 27.2795 30.1899 27.9267 29.6673 28.3312 29.0867L 27.0907 28.2434C 26.8233 28.6511 26.5173 28.898 26.0569 29.0769L 26.6228 30.4661ZM 24.4309 30.6786C 25.1301 30.8068 25.9602 30.7264 26.6217 30.4665L 26.058 29.0765C 25.6023 29.2697 25.2019 29.3085 24.7176 29.2062L 24.4309 30.6786ZM 22.4824 29.6553C 22.9938 30.1461 23.7315 30.5336 24.4302 30.6784L 24.7183 29.2063C 24.2295 29.1187 23.8773 28.934 23.5332 28.5849L 22.4824 29.6553ZM 21.4366 27.7298C 21.5844 28.4219 21.9834 29.1521 22.4812 29.6541L 23.5345 28.5861C 23.1806 28.2483 22.9937 27.9081 22.9072 27.4342L 21.4366 27.7298ZM 21.6542 25.5563C 21.3883 26.2109 21.3056 27.0371 21.4366 27.7301L 22.9071 27.434C 22.8038 26.9629 22.8422 26.5801 23.0372 26.1371L 21.6542 25.5563ZM 23.0617 23.8716C 22.4694 24.2695 21.9377 24.9084 21.6553 25.5538L 23.0361 26.1396C 23.2185 25.6892 23.4681 25.3887 23.8836 25.1264L 23.0617 23.8716ZM 14.6251 6.15318C 11.3951 8.01753 10.2899 12.1462 12.1532 15.374L 13.4523 14.6241C 12.0031 12.1136 12.8627 8.90239 15.3749 7.45229L 14.6251 6.15318ZM 23.8449 8.62407C 21.9816 5.39634 17.853 4.28873 14.6249 6.15329L 15.3751 7.45218C 17.8853 6.00229 21.0965 6.86343 22.5458 9.37398L 23.8449 8.62407ZM 21.3751 17.8448C 24.603 15.9803 25.708 11.8528 23.8449 8.62416L 22.5457 9.37389C 23.9951 11.8855 23.1353 15.0958 20.6249 16.5459L 21.3751 17.8448ZM 12.1531 15.3739C 14.0167 18.6032 18.1454 19.7079 21.3748 17.845L 20.6252 16.5457C 18.1124 17.9952 14.9013 17.1351 13.4523 14.6242L 12.1531 15.3739ZM 14.5723 12.75L 21.4297 12.75L 21.4297 11.25L 14.5723 11.25L 14.5723 12.75ZM 17.25 8.57129L 17.25 15.4287L 18.75 15.4287L 18.75 8.57129L 17.25 8.57129Z"/>
</defs>
</svg>
