<svg width="19" height="21" viewBox="0 0 19 21" version="1.1" xmlns="http://www.w3.org/2000/svg" xmlns:xlink="http://www.w3.org/1999/xlink" xmlns:figma="http://www.figma.com/figma/ns">
<title>Rus~iphone</title>
<desc>Created using Figma</desc>
<g id="Canvas" transform="translate(-25079 8087)" figma:type="canvas">
<g id="Rus~iphone" figma:type="frame">
<g id="&#208;&#161;&#208;&#187;&#208;&#190;&#208;&#185; 2" figma:type="frame">
<g id="&#208;&#161;&#208;&#187;&#208;&#190;&#208;&#185; 1" figma:type="frame">
<g id="Vector" figma:type="vector">
<use xlink:href="#path0_fill" transform="translate(25079 -8087)" fill="#2B2B2B"/>
</g>
<g id="Vector" figma:type="vector">
<use xlink:href="#path1_fill" transform="translate(25086.4 -8077.71)" fill="#2B2B2B"/>
</g>
</g>
</g>
</g>
</g>
<defs>
<path id="path0_fill" d="M 19 7.71834L 18.0273 7.57429C 18.3465 7.24696 18.5931 6.85402 18.7504 6.42187L 17.6502 6.60626C 18.2003 6.14241 18.5746 5.60077 18.3761 4.80848L 16.7597 6.20579L 16.7313 6.16834L 17.1057 5.74194C 17.3042 5.51434 17.5084 5.2925 17.6955 5.05913C 17.9292 4.7942 18.0536 4.44812 18.0431 4.09254C 18.0325 3.73697 17.8878 3.39913 17.6388 3.14899C 17.2718 3.91347 16.7938 4.61759 16.2209 5.23776C 16.1075 5.36452 16.0479 5.61805 15.7813 5.54891C 15.7813 5.54891 15.7473 5.61229 15.7246 5.64398C 15.5431 5.90328 15.3673 6.16834 15.1716 6.41323C 15.1036 6.49966 15.0554 6.70133 14.8654 6.58033C 14.8654 6.58033 14.8228 6.61778 14.8001 6.63795L 13.5099 7.89409C 13.4309 7.96761 13.357 8.04654 13.2887 8.13033C 13.2274 8.19578 13.1799 8.27316 13.1489 8.35779C 13.1179 8.44242 13.1041 8.53256 13.1083 8.62276C 13.1126 8.71296 13.1347 8.80135 13.1735 8.8826C 13.2123 8.96385 13.2669 9.03627 13.334 9.09549C 13.5184 9.28564 13.6545 9.4729 13.5269 9.75237C 13.4723 9.89503 13.373 10.0155 13.2444 10.0951C 13.1158 10.1748 12.9649 10.2093 12.8151 10.1932C 12.6852 10.1925 12.5569 10.163 12.4394 10.1067C 12.3219 10.0505 12.2178 9.96889 12.1345 9.86761C 12.7016 9.42393 12.7839 9.2309 12.5684 8.82179C 12.3964 8.94928 12.2047 9.04666 12.0012 9.10989C 11.8707 9.12718 11.7176 8.96584 11.573 8.85348C 11.7207 8.82171 11.8591 8.75544 11.9772 8.65993C 12.0953 8.56442 12.19 8.44229 12.2536 8.3032C 12.1213 8.31076 11.9888 8.31076 11.8566 8.3032C 11.7379 8.29414 11.6234 8.25526 11.5232 8.19004C 11.423 8.12482 11.3404 8.03532 11.2827 7.92959C 11.2251 7.82387 11.1942 7.70523 11.1929 7.58436C 11.1916 7.4635 11.2199 7.3442 11.2752 7.23721C 11.479 6.94141 11.7171 6.67155 11.9842 6.43339C 12.0154 6.4017 12.0948 6.43339 12.1515 6.41323C 12.2393 6.41026 12.3259 6.39072 12.4067 6.3556C 12.8831 6.04733 13.2575 6.23172 13.317 6.79641C 13.317 6.82522 13.317 6.85691 13.317 6.8886C 13.5127 6.76183 13.5467 6.60049 13.4616 6.17986C 13.7679 6.4939 14.1025 6.62354 14.474 6.45068C 14.6924 6.34984 14.7406 6.11071 14.7888 5.83701C 14.728 5.91958 14.6513 5.98873 14.5634 6.04025C 14.4755 6.09177 14.3782 6.12459 14.2774 6.13671C 14.1766 6.14884 14.0744 6.14002 13.9771 6.11079C 13.8798 6.08155 13.7893 6.03252 13.7112 5.96666C 13.5828 5.89434 13.4502 5.82989 13.3142 5.77363C 13.4559 5.71367 13.6117 5.69673 13.7627 5.72485C 13.9136 5.75297 14.0534 5.82496 14.1649 5.93209C 14.2668 5.83577 14.3438 5.71553 14.3893 5.58192C 14.4348 5.44831 14.4473 5.30541 14.4258 5.16573C 14.3726 5.03629 14.2839 4.92511 14.1703 4.84543C 14.0567 4.76575 13.9229 4.72092 13.7849 4.71629C 13.6564 4.68201 13.5326 4.63169 13.4163 4.56647C 13.6709 4.48319 13.9192 4.38112 14.1593 4.26108C 14.5846 4.00755 14.664 3.77418 14.5733 3.2844C 14.5449 3.13747 14.5449 2.9963 14.5307 2.83784C 14.6819 2.86622 14.8315 2.90277 14.9788 2.94732C 15.3645 3.08561 15.4325 3.31321 15.1943 3.65318C 15.0755 3.78743 15.0043 3.95817 14.992 4.13826C 14.9796 4.31836 15.0269 4.49747 15.1263 4.64714C 15.2596 4.85458 15.1915 5.03032 14.993 5.17437C 15.0822 5.22608 15.1866 5.24376 15.2874 5.22422C 15.3883 5.20467 15.479 5.1492 15.5431 5.06777C 15.753 4.88051 15.77 4.76526 15.6481 4.44547C 16.0848 4.44547 16.0848 4.44547 16.2152 4.62121C 16.2825 4.56997 16.3334 4.49976 16.3616 4.41933C 16.3899 4.33889 16.3942 4.25179 16.374 4.16888C 16.3372 3.99314 16.1954 3.95857 16.0422 3.93552C 15.7984 3.90095 15.7813 3.84909 15.926 3.64741C 15.9839 3.57516 16.0343 3.49695 16.0763 3.41405C 16.1081 3.36149 16.1269 3.30191 16.1312 3.24037C 16.1354 3.17884 16.125 3.11716 16.1008 3.06059C 16.0766 3.00402 16.0393 2.95423 15.992 2.91545C 15.9448 2.87667 15.8891 2.85004 15.8296 2.83784C 15.5135 2.75613 15.2379 2.55927 15.0554 2.28468C 14.9946 2.21907 14.9212 2.16682 14.8397 2.13115C 14.7583 2.09547 14.6705 2.07713 14.5818 2.07724C 13.8473 2.09165 13.6261 2.30772 13.8615 3.0568C 13.9069 3.19797 13.9636 3.3449 14.0146 3.47167C 14.1706 3.89518 14.0572 4.11414 13.6204 4.22939C 13.5691 4.24314 13.517 4.25373 13.4645 4.26108C 13.4239 4.2643 13.3831 4.2643 13.3425 4.26108C 13.3652 4.18041 13.3822 4.11126 13.4049 4.045C 13.4683 3.88778 13.5232 3.72716 13.5694 3.56386C 13.6488 3.20085 13.5269 3.02223 13.1667 2.9502C 13.093 2.93579 13.0164 2.93003 12.9484 2.92139C 12.92 2.82055 12.8888 2.72548 12.8661 2.63328C 12.8612 2.61327 12.8605 2.59244 12.8639 2.57212C 12.8673 2.55179 12.8748 2.5324 12.886 2.51516C 13.0448 2.36823 12.9455 2.24146 12.8349 2.16079C 12.7936 2.13237 12.7456 2.11554 12.6958 2.112C 12.646 2.10846 12.5962 2.11833 12.5513 2.14062C 12.4493 2.22705 12.3415 2.33942 12.4804 2.52092C 12.54 2.59871 12.4804 2.77445 12.4804 2.91275C 12.3466 2.9336 12.214 2.96246 12.0834 2.99918C 12.0328 3.0067 11.9844 3.02536 11.9416 3.05386C 11.8988 3.08236 11.8626 3.12001 11.8356 3.16418C 11.8086 3.20835 11.7914 3.25797 11.7852 3.30959C 11.779 3.36121 11.784 3.41357 11.7999 3.46303C 11.8468 3.65793 11.9036 3.85026 11.97 4.03924C 11.9955 4.12279 12.0125 4.20922 12.0381 4.32734C 11.6168 4.30295 11.2187 4.12376 10.9179 3.82316C 10.3366 3.24695 10.416 3.46879 10.6967 2.78886C 10.7704 2.61023 10.864 2.43737 10.9293 2.25587C 10.9763 2.12148 10.9899 1.97735 10.9687 1.83635C 10.9476 1.69534 10.8925 1.56183 10.8083 1.44773C 10.724 1.33362 10.6133 1.24247 10.486 1.1824C 10.3586 1.12233 10.2187 1.0952 10.0785 1.10344C 9.99952 1.12641 9.92479 1.16242 9.85731 1.21004C 9.66448 1.01701 10.0785 0.705858 9.72119 0.561805C 9.94239 0.452325 9.95373 0.296749 9.79776 0.172863C 9.76373 0.146934 9.77791 0.0605021 9.77224 8.58625e-11L 9.40925 8.58625e-11C 9.37928 0.0576378 9.34314 0.111744 9.30149 0.161339C 9.21925 0.242009 9.27313 0.449444 9.40925 0.524352C 9.33586 0.581023 9.28731 0.664709 9.27405 0.757391C 9.26079 0.850073 9.28388 0.944339 9.33836 1.01989C 9.35537 1.04582 9.32134 1.11785 9.29582 1.1553C 9.2703 1.19276 9.22493 1.16971 9.19657 1.1553C 9.09672 1.11848 8.99057 1.1026 8.88451 1.10864C 8.77846 1.11469 8.67472 1.14252 8.57955 1.19045C 8.48439 1.23839 8.39978 1.30544 8.33085 1.38754C 8.26192 1.46964 8.21009 1.5651 8.17851 1.66813C 8.14724 1.87447 8.16276 2.08535 8.22388 2.28468C 8.31887 2.57108 8.43158 2.8511 8.56134 3.12306C 8.59016 3.17763 8.59857 3.24094 8.58502 3.30131C 8.57146 3.36168 8.53687 3.41503 8.48761 3.4515C 8.14731 3.76554 7.8297 4.10838 7.35328 4.1977C 7.2994 4.1977 7.24836 4.21786 7.19448 4.22651C 7.15199 4.22943 7.10935 4.22943 7.06687 4.22651C 7.09522 4.12855 7.11507 4.045 7.14343 3.96433C 7.19448 3.81163 7.26537 3.67622 7.30224 3.50624C 7.39298 3.12018 7.26537 2.93003 6.8797 2.87241C 6.81164 2.87241 6.74358 2.85801 6.68403 2.85224L 6.59328 2.46906C 6.73224 2.36246 6.8003 2.21553 6.59328 2.08588C 6.55169 2.05864 6.50455 2.04137 6.45542 2.03538C 6.40628 2.02939 6.35645 2.03484 6.3097 2.05131C 6.13955 2.16655 6.14522 2.30484 6.29269 2.48635C 6.25913 2.5351 6.23063 2.58723 6.20761 2.64193C 6.19481 2.69961 6.18815 2.75854 6.18776 2.81767C 5.50716 2.91275 5.3909 3.10578 5.6206 3.77418L 5.75388 4.14007C 5.18672 4.1977 4.90313 3.85197 5.09313 3.35067C 5.18641 3.12995 5.2669 2.90388 5.33418 2.67362C 5.36732 2.60393 5.38311 2.52704 5.38015 2.44971C 5.37719 2.37237 5.35557 2.29696 5.31721 2.23009C 5.27884 2.16323 5.22489 2.10697 5.16011 2.06625C 5.09533 2.02553 5.02169 2.0016 4.94567 1.99657C 4.793 1.9464 4.63158 1.9297 4.47209 1.94759C 4.31207 1.97919 4.16664 2.06318 4.05806 2.18672C 3.89814 2.4115 3.66675 2.5733 3.40299 2.64481C 3.00881 2.74564 2.90955 3.04239 3.14209 3.38812L 3.32642 3.67622C 3.12791 3.8318 2.75925 3.69063 2.7394 4.04212C 2.75047 4.18975 2.79513 4.33275 2.86985 4.45987C 3.01164 4.14584 3.24985 4.31582 3.46537 4.27836C 3.39661 4.36563 3.36329 4.47631 3.37225 4.58773C 3.38122 4.69914 3.43178 4.80286 3.51358 4.87762C 3.57886 4.96233 3.66991 5.02269 3.77252 5.04927C 3.87513 5.07586 3.98351 5.06716 4.08075 5.02456C 3.74896 4.8056 3.89925 4.58088 4.03537 4.34175C 4.09055 4.24292 4.11956 4.13125 4.11956 4.01763C 4.11956 3.90401 4.09055 3.79234 4.03537 3.69351C 3.98433 3.58979 3.91343 3.49472 3.85955 3.40541C 3.82921 3.3553 3.81037 3.2989 3.80442 3.24038C 3.79846 3.18186 3.80556 3.12274 3.82517 3.06739C 3.84478 3.01204 3.87641 2.96188 3.91771 2.92065C 3.95901 2.87941 4.00892 2.84816 4.06373 2.82919C 4.17716 2.78598 4.2906 2.737 4.4097 2.70243C 4.47209 2.68514 4.57701 2.66497 4.59687 2.70243C 4.6294 2.76728 4.63939 2.8414 4.62522 2.91275C 4.60821 3.02799 4.56851 3.13747 4.54582 3.25271C 4.49157 3.41529 4.49699 3.59232 4.56109 3.75115C 4.62519 3.90999 4.74365 4.03993 4.89463 4.11703C 5.13284 4.24667 5.38522 4.34463 5.65463 4.4714C 5.55821 4.52037 5.45612 4.60969 5.35403 4.61257C 5.21553 4.60414 5.07765 4.63735 4.95761 4.70806C 4.83758 4.77877 4.74071 4.88384 4.6791 5.01015C 4.54866 5.29826 4.70179 5.53162 4.8606 5.77363C 5.12149 5.64975 5.36821 5.45383 5.68299 5.62382C 4.93149 6.02716 4.79537 6.1741 4.2906 5.7333C 4.28093 5.84145 4.29942 5.95029 4.34422 6.04889C 4.38901 6.1475 4.45854 6.23241 4.54582 6.2951C 4.92015 6.47085 5.24343 6.3556 5.55821 6.03869C 5.51284 6.32679 5.4306 6.58033 5.68582 6.79064C 5.68582 6.70133 5.68582 6.64083 5.70567 6.58321C 5.71197 6.48374 5.74544 6.38803 5.80233 6.30684C 5.85922 6.22564 5.93727 6.16216 6.02772 6.12355C 6.11816 6.08494 6.21741 6.07272 6.31431 6.08827C 6.41122 6.10381 6.50193 6.14651 6.57627 6.21155C 6.67991 6.26225 6.79104 6.29535 6.90522 6.30951C 6.95343 6.30951 7.02149 6.30951 7.04985 6.35272C 7.27031 6.55362 7.46814 6.77876 7.6397 7.02401C 7.99134 7.62903 7.61134 8.23693 6.92224 8.21677L 6.74642 8.21677C 6.79638 8.35044 6.88101 8.46788 6.99135 8.55665C 7.10169 8.64541 7.23361 8.70218 7.37313 8.72095C 7.06119 9.10989 6.90806 9.09837 6.43448 8.66909C 6.17075 9.09261 6.27284 9.38647 6.80313 9.74084C 6.70766 9.87217 6.57674 9.97256 6.42624 10.0298C 6.27575 10.0871 6.11213 10.0988 5.95522 10.0635C 5.81046 10.0469 5.67553 9.98079 5.57251 9.87613C 5.46949 9.77146 5.40446 9.63439 5.38806 9.48731C 5.38839 9.32185 5.44784 9.16214 5.55537 9.03787C 5.95239 8.59418 5.96657 8.2571 5.55537 7.82494C 5.14649 7.33201 4.69158 6.88046 4.19701 6.47661C 3.84252 6.18158 3.54287 5.82446 3.31224 5.42214C 3.26119 5.35012 3.12507 5.34724 3.05985 5.28097C 2.8871 5.11529 2.72954 4.934 2.5891 4.73933C 2.19776 4.16312 1.82343 3.56963 1.45478 2.99341C 1.21154 3.24253 1.07202 3.5772 1.06515 3.92802C 1.05829 4.27884 1.18461 4.61889 1.41791 4.87762C 1.72134 5.2464 2.03896 5.60365 2.32254 5.99835L 0.711791 4.55783C 0.653904 4.71865 0.629071 4.88982 0.638826 5.06078C 0.648581 5.23173 0.692716 5.39884 0.768507 5.55179C 0.933937 5.81723 1.11382 6.07308 1.30731 6.31815L 0.360149 6.12512L 0.320448 6.19715C 0.469231 6.59676 0.693717 6.96284 0.981194 7.27466L 0 7.43888L 0 7.48498L 0.813881 8.4098L 0.0368657 8.6979L 0 8.80162L 0.728806 9.40952L 0.360149 9.66305C 0.235373 9.74949 0.204179 9.85608 0.328955 9.96556C 0.504776 10.1211 0.686269 10.2681 0.896119 10.4323C 0.896119 10.4553 0.870597 10.5591 0.896119 10.5792C 1.00269 10.6447 1.11466 10.7006 1.23075 10.7463C 1.2961 10.766 1.35753 10.7972 1.41224 10.8385C 1.45014 10.8967 1.47795 10.961 1.49448 11.0287L 1.68164 10.876C 1.70304 10.8554 1.72294 10.8332 1.74119 10.8097C 1.84875 10.9108 1.91896 11.0463 1.94012 11.1936C 1.96127 11.3409 1.9321 11.4912 1.85746 11.6193C 1.83608 11.6522 1.82157 11.6892 1.81485 11.7281C 1.80812 11.7669 1.80931 11.8067 1.81835 11.8451C 1.82739 11.8834 1.84408 11.9195 1.86739 11.951C 1.89071 11.9826 1.92014 12.0089 1.95388 12.0284L 2.08716 11.9794C 2.01948 12.1537 1.9645 12.3328 1.92269 12.5153C 1.9 12.6421 1.88866 12.8034 2.06731 12.8639C 2.15315 12.9077 2.2498 12.9248 2.34515 12.913C 2.44049 12.9012 2.53029 12.8611 2.60328 12.7976C 2.74791 12.6449 2.88687 12.4807 3.04 12.3309C 2.95309 12.4439 2.89241 12.5754 2.86246 12.7156C 2.83251 12.8558 2.83406 13.001 2.86701 13.1405C 2.91239 13.2644 2.99746 13.4286 3.09955 13.4632C 3.21177 13.4923 3.33008 13.4858 3.43857 13.4446C 3.54706 13.4034 3.64053 13.3295 3.70642 13.2327C 3.74328 13.1664 3.77731 13.0973 3.81418 13.0281C 3.84297 13.1954 3.88469 13.3602 3.93896 13.5208C 3.99567 13.6562 4.0609 13.8291 4.26224 13.7916C 4.46358 13.7541 4.68761 13.6965 4.76418 13.4459C 4.80041 13.3091 4.84396 13.1745 4.89463 13.0425C 4.8606 13.443 5.19522 13.5611 5.38239 13.7599C 6.10836 13.5726 5.87582 12.9705 5.92403 12.5095L 6.39761 12.2877C 6.54224 12.3511 6.68119 12.4029 6.80881 12.4721C 6.83862 12.4873 6.86492 12.5088 6.88594 12.5351C 6.90696 12.5614 6.92224 12.592 6.93075 12.6248C 6.94493 12.9734 6.9506 13.3249 6.93075 13.6735C 6.92255 13.7542 6.88393 13.8285 6.82298 13.8809C 6.6163 14.0247 6.37533 14.1093 6.12537 14.1258C 5.8161 14.1803 5.5209 14.2979 5.25761 14.4715C 5.00806 14.6358 5.0194 14.9556 5.03358 15.2408C 5.03358 15.3416 5.03358 15.4424 5.03358 15.5433C 5.03358 15.8083 4.98254 15.8602 4.73299 15.9034C 4.89463 16.1915 4.96269 16.2088 5.54687 16.0532L 5.51 16.6294L 5.84179 16.422L 5.89 16.5862L 6.09985 16.2981C 6.22463 16.4652 6.21045 16.5862 5.98925 16.6871C 5.58886 16.8567 5.17993 17.0048 4.76418 17.1307C 4.57127 17.179 4.37295 17.2013 4.17433 17.197C 4.10535 17.2053 4.03578 17.1876 3.9788 17.1472C 3.92183 17.1069 3.88141 17.0467 3.86522 16.9781C 3.74045 16.471 3.62985 16.4018 3.09672 16.6064C 3.07134 16.4567 3.03436 16.3093 2.98612 16.1656C 2.92373 16.0158 2.81881 15.8775 2.74507 15.7363C 2.69687 15.6384 2.67418 15.526 2.63448 15.4252C 2.59478 15.3243 2.52104 15.1774 2.47 15.0506C 2.20627 14.388 1.93687 13.7282 1.68731 13.0598C 1.61283 12.817 1.55316 12.5697 1.50866 12.3194L 1.70149 12.2589C 1.83761 12.2185 1.88015 12.1148 1.79224 12.0111C 1.75131 11.967 1.72692 11.9096 1.72329 11.8491C 1.71966 11.7886 1.73704 11.7287 1.77239 11.6798C 1.82324 11.5568 1.84084 11.4223 1.8234 11.2901C 1.80595 11.1579 1.75407 11.0328 1.67313 10.9278L 1.53134 11.2563L 1.43493 11.1929C 1.42437 11.1379 1.40919 11.0839 1.38955 11.0316C 1.36445 10.9873 1.33499 10.9458 1.30164 10.9077C 1.14284 11.0517 1.04642 10.8328 0.918806 10.8299C 0.785522 10.899 0.825224 11.1612 0.601194 11.118L 0.601194 11.4608L 0.283582 11.3917C 0.271565 11.5151 0.293582 11.6395 0.34717 11.7509C 0.400757 11.8623 0.483802 11.9564 0.587015 12.0226C 0.640407 12.0464 0.684322 12.0878 0.711612 12.1401C 0.738903 12.1924 0.747961 12.2525 0.737313 12.3107C 0.717463 12.5211 0.82806 12.547 1.09179 12.4317L 1.30731 12.7054C 1.30731 12.7227 1.34985 12.7458 1.34701 12.7602C 1.29313 13.0483 1.5597 13.2413 1.60507 13.5093C 1.66753 13.7808 1.74904 14.0475 1.84896 14.3073C 1.93687 14.581 2.03896 14.849 2.10985 15.1284C 2.20343 15.5001 2.26866 15.8775 2.35657 16.252C 2.38011 16.3069 2.41846 16.3538 2.46716 16.3874C 2.51204 16.4236 2.54829 16.4696 2.57321 16.5219C 2.59813 16.5743 2.61107 16.6318 2.61107 16.6899C 2.61107 16.7481 2.59813 16.8056 2.57321 16.8579C 2.54829 16.9103 2.51204 16.9563 2.46716 16.9925C 2.20343 17.1999 2.2006 17.2806 2.44448 17.5427C 2.46518 17.5738 2.48321 17.6065 2.49836 17.6407L 2.78194 18.0584C 2.73373 18.2111 2.85851 18.3321 3.06552 18.4099C 3.11373 18.4272 3.18463 18.4704 3.18463 18.505C 3.20164 18.7931 3.46821 18.9026 3.63552 19.0812C 3.66592 19.1067 3.70162 19.1249 3.73993 19.1344C 3.77824 19.1439 3.81817 19.1444 3.85672 19.136C 3.88861 19.1187 3.91572 19.0935 3.93554 19.0628C 3.95537 19.0321 3.96727 18.9968 3.97015 18.9602C 3.95313 18.7268 3.90209 18.4964 3.88224 18.263C 3.87917 18.2257 3.88447 18.1882 3.89773 18.1532C 3.911 18.1183 3.93188 18.0869 3.95881 18.0613C 4.22554 17.8951 4.51123 17.7626 4.80955 17.6666C 5.62627 17.4707 6.45149 17.318 7.30507 17.1452L 7.24269 16.6583L 7.78149 16.2491L 7.74463 16.1944C 7.72387 16.1925 7.70299 16.1925 7.68224 16.1944C 7.36463 16.1944 7.25119 16.1166 7.23985 15.889C 7.23027 15.763 7.26929 15.6381 7.34867 15.5408C 7.42805 15.4435 7.54157 15.3814 7.66522 15.3675C 7.83773 15.36 8.00851 15.4051 8.15558 15.497C 8.30265 15.5889 8.41928 15.7234 8.49045 15.8832C 8.53533 16.0255 8.52887 16.1793 8.47223 16.3171C 8.41558 16.4549 8.31245 16.5677 8.18134 16.6352C 8.10046 16.6788 8.03193 16.7428 7.98229 16.821C 7.93264 16.8991 7.90354 16.9889 7.89776 17.0818L 8.37418 16.9348L 8.41105 17.0011C 8.32988 17.068 8.24463 17.1295 8.15582 17.1855C 7.69358 17.439 7.22851 17.6954 6.75776 17.9288C 6.70109 17.9545 6.63973 17.9677 6.57769 17.9677C 6.51564 17.9677 6.45429 17.9545 6.39761 17.9288C 6.33239 17.8913 6.34657 17.7185 6.32388 17.6032C 6.22753 17.6096 6.13436 17.6408 6.05322 17.694C 5.97208 17.7472 5.90564 17.8205 5.8602 17.9071C 5.81476 17.9936 5.79182 18.0905 5.79357 18.1886C 5.79531 18.2867 5.82167 18.3827 5.87015 18.4676C 5.90001 18.5444 5.90001 18.6299 5.87015 18.7067C 5.79857 18.8485 5.75636 19.0038 5.74612 19.1628C 5.73588 19.3219 5.75782 19.4814 5.8106 19.6315C 5.85366 19.771 5.88683 19.9135 5.90985 20.0579C 6.20761 20.0176 6.14239 19.6978 6.29836 19.5508C 6.63298 20.3374 6.9506 20.4699 7.58298 20.0493C 7.67657 20.1559 7.76731 20.2797 7.86657 20.3863C 7.96188 20.4891 8.08329 20.5632 8.2174 20.6003C 8.35151 20.6374 8.49311 20.6361 8.62657 20.5967C 8.68658 20.5753 8.75192 20.575 8.8121 20.5959C 8.87227 20.6168 8.92378 20.6577 8.95836 20.7119C 9.04569 20.815 9.14048 20.9113 9.24194 21L 9.42627 21C 9.55105 20.8992 9.67299 20.7926 9.8006 20.6946C 9.83746 20.6658 9.90269 20.6312 9.93955 20.6427C 10.4358 20.8214 10.7903 20.5851 11.0739 20.2279C 11.0941 20.207 11.116 20.1878 11.1391 20.1703C 11.814 20.5678 12.2337 20.4094 12.4266 19.6805C 12.6194 19.8101 12.523 20.1616 12.8179 20.1962C 13.076 19.3549 13.0788 19.2368 12.8406 18.7326C 13.1242 18.2457 12.9427 17.7905 12.4918 17.7473C 12.4549 17.8683 12.4407 18.0671 12.3812 18.0815C 12.2434 18.1041 12.1022 18.0809 11.9785 18.0152C 11.5418 17.7934 11.1278 17.5543 10.6882 17.318C 10.5748 17.2546 10.4699 17.174 10.3593 17.0991L 10.3961 17.0241L 10.8952 17.174C 10.8527 17.0686 10.8044 16.9656 10.7506 16.8657C 10.7108 16.819 10.6639 16.7791 10.6116 16.7476C 10.3025 16.4998 10.1976 16.2175 10.311 15.9438C 10.3895 15.7918 10.51 15.6665 10.6575 15.583C 10.8051 15.4996 10.9735 15.4618 11.1419 15.4741C 11.2303 15.4778 11.3158 15.5068 11.3885 15.5578C 11.4613 15.6088 11.5184 15.6797 11.5531 15.7622C 11.5886 15.8191 11.6073 15.8852 11.6069 15.9525C 11.6065 16.0199 11.5871 16.0857 11.551 16.1421C 11.5148 16.1986 11.4635 16.2433 11.403 16.271C 11.3426 16.2986 11.2756 16.308 11.21 16.2981L 11.0285 16.2981C 11.1278 16.5689 11.3688 16.6438 11.5758 16.7476C 11.5787 16.7657 11.5787 16.7842 11.5758 16.8023C 11.451 17.269 11.451 17.2633 11.9019 17.3641C 12.5882 17.5168 13.2773 17.6522 13.9579 17.8424C 14.1797 17.9114 14.3921 18.0082 14.5903 18.1305C 14.7048 18.2092 14.8391 18.253 14.9773 18.2566C 15.1155 18.2601 15.2519 18.2234 15.3701 18.1506C 15.4196 18.1132 15.4787 18.0911 15.5403 18.0873C 15.909 18.1276 16.1585 17.8481 16.4648 17.7271C 16.4988 17.711 16.5294 17.6882 16.5547 17.66C 16.58 17.6319 16.5996 17.5988 16.6122 17.5629C 16.6324 17.4161 16.691 17.2775 16.7817 17.1615C 16.8725 17.0455 16.9922 16.9563 17.1284 16.9031C 17.2701 16.8513 17.2872 16.471 17.1766 16.3269C 17.1194 16.2665 17.0733 16.1963 17.0404 16.1195C 16.9884 15.894 16.8806 15.6858 16.7272 15.5144C 16.5739 15.343 16.3801 15.2141 16.1642 15.1399C 16.1443 15.1399 16.133 15.1111 16.0933 15.0737L 16.2975 15.0737L 16.2975 14.4975L 16.1046 14.5407L 16.133 14.3505L 15.546 14.3505L 15.546 14.5608L 15.3304 14.4917L 15.3304 15.0679L 15.5346 15.0477L 15.5516 15.091L 15.3872 15.1803C 15.262 15.2373 15.1408 15.3028 15.0242 15.3762C 14.678 15.6933 14.4422 16.1158 14.3521 16.5805C 14.3521 16.7216 14.3691 16.8369 14.5478 16.8686C 14.613 16.8686 14.6612 16.9867 14.7236 17.0558C 14.6289 17.1614 14.5087 17.2401 14.3749 17.284C 14.2411 17.328 14.0984 17.3357 13.9607 17.3065C 13.5498 17.1798 13.1488 17.0219 12.7612 16.834C 12.5485 16.7332 12.5457 16.6266 12.6534 16.4335L 12.869 16.7447L 12.9313 16.5805L 13.2603 16.8138C 13.2603 16.6294 13.2319 16.4767 13.2263 16.3241C 13.2292 16.2877 13.2368 16.2518 13.249 16.2175C 13.7934 16.3874 13.8672 16.373 14.06 16.0676C 13.7764 16.0878 13.7509 15.9063 13.7594 15.696C 13.7679 15.4857 13.7849 15.3243 13.7793 15.1371C 13.7845 14.9716 13.7335 14.8095 13.6348 14.6778C 13.5362 14.5461 13.3959 14.4529 13.2376 14.4139C 13.0132 14.3285 12.7802 14.2686 12.5428 14.2353C 12.3375 14.1885 12.1443 14.0982 11.9757 13.9702C 11.953 13.9468 11.9355 13.9188 11.9243 13.888C 11.9131 13.8572 11.9083 13.8244 11.9104 13.7916C 11.9104 13.4488 11.9246 13.1088 11.9501 12.7688C 11.9593 12.7325 11.9759 12.6986 11.9989 12.6693C 12.0218 12.64 12.0507 12.616 12.0834 12.5988C 12.2201 12.5335 12.3602 12.4758 12.5031 12.426L 12.9285 12.6449C 12.9413 12.9665 12.9802 13.2864 13.0448 13.6015C 13.0816 13.7397 13.2972 13.8291 13.473 13.976C 13.5921 13.662 14.0401 13.636 13.9976 13.201C 14.0242 13.3328 14.0592 13.4628 14.1025 13.5899C 14.136 13.6899 14.1958 13.7786 14.2755 13.8463C 14.647 14.1056 14.9788 13.927 15.0299 13.4459C 15.0299 13.3767 15.0299 13.3076 15.0299 13.2039C 15.0696 13.2644 15.1007 13.3047 15.1206 13.345C 15.1812 13.4699 15.281 13.5708 15.4042 13.6318C 15.5274 13.6928 15.667 13.7105 15.8012 13.6821C 15.8639 13.6608 15.9158 13.6152 15.9458 13.5554C 16.0114 13.436 16.0458 13.3016 16.0458 13.165C 16.0458 13.0283 16.0114 12.8939 15.9458 12.7746C 15.9036 12.706 15.8792 12.6277 15.8749 12.547C 15.9884 12.6853 16.099 12.8351 16.2124 12.959C 16.2892 13.0507 16.3939 13.1139 16.51 13.1384C 16.626 13.1629 16.7468 13.1474 16.8533 13.0944C 17.0093 13.0108 17.0319 12.5988 16.8845 12.3914C 16.8221 12.3194 16.767 12.2412 16.72 12.158C 16.7909 12.207 16.8646 12.2502 16.9327 12.3021C 17.0338 12.3732 17.1519 12.4155 17.2745 12.4246C 17.3972 12.4338 17.52 12.4094 17.6303 12.354C 17.659 12.3348 17.6826 12.3088 17.6989 12.2781C 17.7153 12.2474 17.7239 12.2131 17.7239 12.1782C 17.6984 11.9823 17.6473 11.7893 17.6019 11.5876C 17.7815 11.5586 17.9588 11.5163 18.1322 11.4608C 18.4158 11.3542 18.4158 11.2851 18.274 11.0258C 18.206 10.9048 18.1209 10.7953 18.0557 10.7002L 18.7873 10.124L 18.2457 9.68034L 18.9802 9.10413L 18.9575 9.0177L 18.1776 8.69214L 19 7.81342L 19 7.71834ZM 13.5722 5.51722L 14.2131 5.61805L 14.2387 5.0937C 14.3634 5.22623 14.3578 5.38181 14.1706 5.69872L 13.5637 5.55755L 13.5722 5.51722ZM 14.1252 3.42269C 14.0323 3.19225 13.9555 2.95541 13.8955 2.71395C 13.8416 2.42585 13.9409 2.35382 14.2131 2.44025C 14.7207 2.60447 15.2284 2.77734 15.7331 2.95596C 15.7843 2.96756 15.8315 2.99268 15.8701 3.02878C 15.9086 3.06488 15.9371 3.11068 15.9526 3.16154C 15.9682 3.21241 15.9702 3.26654 15.9586 3.31847C 15.9469 3.37039 15.922 3.41827 15.8863 3.45726C 15.8589 3.4944 15.8296 3.52999 15.7984 3.56386C 15.597 3.80587 15.5999 3.85197 15.8324 4.06805C 15.5658 4.02195 15.4751 3.83468 15.614 3.60996C 15.6728 3.52843 15.7362 3.45051 15.804 3.3766C 15.9203 3.23254 15.8891 3.1029 15.7246 3.04527C 15.2425 2.86089 14.7463 2.69955 14.2387 2.54685C 14.0515 2.48923 13.9778 2.57278 14.0288 2.76869C 14.094 3.02223 14.1876 3.27 14.25 3.52641C 14.3004 3.64171 14.3086 3.77148 14.2733 3.89241C 14.238 4.01333 14.1613 4.11749 14.0572 4.18617C 14.1414 4.07992 14.1928 3.95074 14.2049 3.81489C 14.217 3.67904 14.1893 3.54258 14.1252 3.42269ZM 13.1809 4.28701L 12.194 4.28701C 12.2763 4.16312 12.9143 4.14872 13.1809 4.30141L 13.1809 4.28701ZM 13.0448 4.73645C 12.9966 4.9266 12.9512 5.02456 12.7612 4.94965C 12.5514 4.89973 12.3381 4.86698 12.1231 4.85169L 13.0448 4.73645ZM 11.9104 5.35012L 11.9445 5.37893L 11.6609 5.7477L 11.5957 5.56908L 11.9104 5.35012ZM 4.84075 3.53217C 4.91164 3.24407 5.0109 2.98765 5.09313 2.71107C 5.17537 2.43449 5.09313 2.35382 4.83507 2.42297C 4.36433 2.55549 3.89925 2.71107 3.43418 2.85224C 3.21299 2.92427 3.18463 3.05104 3.32925 3.2383C 3.37179 3.29304 3.42284 3.34202 3.4597 3.39964C 3.62418 3.64741 3.53343 3.84621 3.23 3.90383C 3.51358 3.68487 3.51358 3.65894 3.28104 3.35643C 3.04851 3.05392 3.1194 2.86089 3.46821 2.76005C 3.93612 2.61888 4.40119 2.47194 4.8691 2.33077C 5.20657 2.23282 5.30582 2.33077 5.21791 2.67074C 5.15672 2.88669 5.08189 3.0984 4.99388 3.30457C 4.92583 3.42161 4.89403 3.55676 4.90263 3.69241C 4.91123 3.82807 4.95983 3.95796 5.04209 4.06517C 4.95372 4.01298 4.88558 3.93167 4.84895 3.83472C 4.81233 3.73777 4.80943 3.63102 4.84075 3.53217ZM 5.92403 4.12567L 6.91373 4.12567L 6.91373 4.20634C 6.58682 4.27014 6.25094 4.27014 5.92403 4.20634L 5.92403 4.12567ZM 6.20761 4.88339C 6.1509 4.88339 6.08567 4.76814 6.02612 4.70476L 6.08 4.64714L 6.79463 4.7595L 6.79463 4.78831C 6.6001 4.83093 6.40308 4.86076 6.20478 4.87762L 6.20761 4.88339ZM 5.80209 4.3792L 5.80209 4.29853L 7.50358 4.44258L 7.50358 4.46851L 5.80209 4.3792ZM 7.19731 5.32419C 7.53194 5.38469 7.43552 5.71601 7.54612 5.92057L 7.19731 5.32419ZM 0.348806 8.85636C 0.589851 8.65469 0.91597 8.61435 1.4094 8.72095L 0.643731 8.81891L 0.643731 8.89093C 0.870597 9.10989 1.19104 9.14735 1.46045 9.28275C 1.0539 9.26833 0.663296 9.1185 0.348806 8.85636ZM 0.777015 9.81575L 0.777015 9.8993L 1.37537 10.1471C 1.21949 10.1664 1.06132 10.1484 0.913566 10.0943C 0.765811 10.0403 0.632595 9.95177 0.524627 9.83592C 0.807951 9.62528 1.16103 9.53534 1.50866 9.58527L 0.777015 9.81575ZM 0.629552 7.65208L 0.587015 7.75868L 1.26478 8.26574C 0.869518 8.13849 0.525341 7.88483 0.283582 7.5426C 0.706594 7.48401 1.13664 7.57342 1.50299 7.79613L 0.629552 7.65208ZM 0.930149 6.5688L 0.873433 6.64659L 1.48313 7.32652C 1.111 7.12198 0.812919 6.80199 0.632388 6.41323C 1.01757 6.40338 1.39325 6.53538 1.69015 6.78488L 0.930149 6.5688ZM 1.83761 5.96666L 1.13433 5.45383L 1.08045 5.48841L 1.64761 6.33256C 1.4297 6.20908 1.2462 6.03145 1.11427 5.8163C 0.98234 5.60114 0.906306 5.35549 0.893284 5.10235C 0.915111 5.10517 0.936251 5.112 0.955672 5.12251L 1.87164 5.91768L 1.83761 5.96666ZM 5.38806 10.8673L 5.03358 10.9278C 4.8606 10.8184 4.99672 10.4842 4.66493 10.4582L 4.93149 10.3862C 4.92015 10.7723 4.99104 10.8443 5.38806 10.8673ZM 4.78403 8.15626L 4.27925 8.33489L 4.46075 8.9111L 4.1006 9.1992L 4.34731 8.8506L 4.19418 8.3032C 4.40119 8.23693 4.56284 8.06983 4.79537 8.15626L 4.78403 8.15626ZM 4.08358 9.21649C 4.11296 9.34594 4.18546 9.4611 4.28882 9.54248C 4.39217 9.62385 4.52003 9.66645 4.65075 9.66305C 4.33313 9.83304 4.36716 10.0952 4.30478 10.3401L 4.37567 9.70627C 4.27925 9.60543 4.14881 9.47579 4.0297 9.33749C 4.02119 9.32309 4.06373 9.25971 4.08358 9.21649ZM 1.72134 4.62409C 1.80075 4.81424 1.91134 4.98999 2.02194 5.2003C 1.55687 4.80848 1.27045 3.95569 1.45478 3.53217L 2.41328 4.91796L 2.38209 4.94677L 1.58239 4.04212L 1.53418 4.04212C 1.59657 4.24091 1.64478 4.4397 1.72134 4.62409ZM 2.2403 12.717C 2.18925 12.717 2.09567 12.6046 2.10701 12.5729C 2.17507 12.3684 2.26582 12.1725 2.3509 11.9737L 2.42746 12.0082C 2.37369 12.1004 2.32722 12.1967 2.28851 12.2963C 2.26866 12.3626 2.26866 12.4721 2.30552 12.5038C 2.34239 12.5355 2.44731 12.5211 2.51537 12.5038C 2.58936 12.4711 2.65971 12.4306 2.72522 12.3828C 2.69094 12.4843 2.62512 12.5718 2.53766 12.6321C 2.45021 12.6924 2.34585 12.7222 2.2403 12.717ZM 3.29806 13.2932C 3.1506 13.3508 3.04284 13.3191 3.04567 13.152C 3.05841 12.9587 3.08208 12.7663 3.11657 12.5758L 3.18746 12.5758C 3.16849 12.6482 3.15802 12.7227 3.15627 12.7976C 3.16939 12.8952 3.19025 12.9916 3.21866 13.0857C 3.31205 13.0671 3.40262 13.0361 3.48806 12.9936C 3.57749 12.9219 3.66009 12.8418 3.73478 12.7544C 3.70919 12.8726 3.65621 12.9829 3.58026 13.0761C 3.50431 13.1693 3.40756 13.2427 3.29806 13.2903L 3.29806 13.2932ZM 4.39836 13.5438C 4.23672 13.6533 4.11478 13.6015 4.1006 13.4315C 4.08665 13.2599 4.08665 13.0874 4.1006 12.9158C 4.16582 13.1088 4.19134 13.3767 4.27925 13.3998C 4.48343 13.4574 4.56284 13.2154 4.64507 13.0627L 4.72731 12.9244C 4.72473 13.0464 4.69354 13.1659 4.63633 13.2732C 4.57911 13.3804 4.49753 13.4722 4.39836 13.541L 4.39836 13.5438ZM 4.86627 11.8584C 4.70463 11.8757 4.52313 11.9506 4.40687 11.893C 4.2906 11.8354 4.26224 11.6452 4.19701 11.5185C 4.0297 11.5185 3.78582 11.5645 3.66955 11.4666C 3.55328 11.3686 3.56179 11.1151 3.51358 10.9221C 2.97194 10.7809 2.94642 10.7463 3.08821 10.2277C 2.70254 9.84456 2.70254 9.84456 2.87836 9.45562C 2.43597 9.01482 2.43597 9.01482 2.80746 8.5913C 2.70035 8.41265 2.62096 8.2183 2.57209 8.01509C 2.54657 7.72699 2.83298 7.7558 3.00881 7.68089C 2.9093 7.52732 2.81932 7.36759 2.7394 7.20263C 2.63731 6.95774 2.71388 6.85403 2.97761 6.84826C 3.08663 6.85035 3.19548 6.85804 3.30373 6.87131L 3.09955 6.13953L 3.1194 6.13953L 3.52493 7.07875C 3.40712 7.02506 3.28465 6.98262 3.1591 6.95198C 3.04855 6.94748 2.9379 6.95814 2.83015 6.98367C 2.82887 7.09459 2.84712 7.20484 2.88403 7.30923C 2.97828 7.45572 3.08251 7.59531 3.19597 7.72699C 3.02582 7.80477 2.71104 7.85375 2.67418 7.98628C 2.65665 8.10337 2.67955 8.22302 2.739 8.32491C 2.79844 8.42679 2.89077 8.50463 3.0003 8.54521C 2.87269 8.71231 2.66284 8.87076 2.64582 9.04939C 2.64582 9.17039 2.8897 9.32021 3.01164 9.44409C 2.96627 9.5651 2.83015 9.7322 2.86701 9.87049C 2.90388 10.0088 3.10806 10.0923 3.21582 10.1816C 3.1903 10.3142 3.08821 10.5101 3.14493 10.6282C 3.19235 10.7139 3.26895 10.7791 3.36034 10.8114C 3.45173 10.8438 3.5516 10.8411 3.64119 10.804C 3.66955 11.02 3.64119 11.2851 3.75179 11.4176C 3.86239 11.5501 4.11761 11.4176 4.31895 11.3946C 4.30194 11.9996 4.60254 11.9074 4.90597 11.7086C 5.00806 11.8613 5.0903 12.1033 5.21507 12.1321C 5.33985 12.1609 5.5497 12.0082 5.73403 11.9247C 5.75388 12.0831 5.55537 12.1206 5.45045 12.184C 5.20657 12.3136 5.05627 12.2128 4.86627 11.8555L 4.86627 11.8584ZM 5.58657 13.4632C 5.55073 13.4901 5.50988 13.5093 5.46649 13.5197C 5.4231 13.5301 5.37809 13.5315 5.33418 13.5237C 5.25499 13.4792 5.19271 13.4091 5.15725 13.3245C 5.12179 13.24 5.11519 13.1458 5.13851 13.0569L 5.42209 13.371L 5.7709 13.0252C 5.78578 13.1086 5.77624 13.1945 5.74347 13.2723C 5.7107 13.3502 5.65614 13.4165 5.58657 13.4632ZM 5.89851 12.2819C 6.18209 12.2819 6.31254 12.1119 6.41463 11.8296L 6.52239 12.0198C 6.29836 12.0803 6.19343 12.4145 5.89851 12.2819ZM 1.22224 11.9938L 0.975522 11.8008L 1.02373 11.7172L 1.25343 11.6539L 1.32149 11.6942L 1.22224 11.9938ZM 3.26403 16.713C 3.16478 16.8657 2.91522 16.9435 3.06836 17.1538C 3.11657 17.2201 3.24134 17.2316 3.32642 17.2662L 3.23851 17.4592L 2.83582 17.4073L 3.03716 17.3094C 2.91522 16.9464 2.94925 16.8455 3.26119 16.7245L 3.26403 16.713ZM 3.36612 17.8424C 3.12507 17.7358 2.79896 17.8827 2.63164 17.5543C 2.85 17.8769 3.17328 17.609 3.44269 17.7242C 3.41995 17.7654 3.39436 17.8049 3.36612 17.8424ZM 14.993 17.8654L 14.8824 17.8424C 14.9736 17.7828 15.0683 17.729 15.166 17.681C 15.1943 17.681 15.2454 17.6983 15.2879 17.7127L 15.1461 17.9634L 14.993 17.8654ZM 15.7501 17.6926C 15.7707 17.638 15.7878 17.5822 15.8012 17.5254C 15.8267 17.3641 15.6991 17.2373 15.5601 17.2921C 15.4864 17.3238 15.3701 17.3583 15.4921 17.488C 15.529 17.5254 15.5091 17.6176 15.5148 17.6868L 15.2936 17.6868L 15.5573 17.0846L 15.6339 17.0846L 15.9487 17.6436L 15.7501 17.6926ZM 16.1869 15.3877C 16.3646 15.4419 16.5229 15.5477 16.6423 15.692C 16.7617 15.8364 16.837 16.013 16.859 16.2002L 16.1642 16.1137L 16.1869 15.3877ZM 15.5063 15.3877L 15.5063 16.0734L 14.8001 16.1137C 14.8268 15.934 14.9086 15.7673 15.0338 15.6375C 15.1591 15.5077 15.3214 15.4213 15.4978 15.3906L 15.5063 15.3877ZM 14.82 16.8426L 16.8051 16.9233L 16.669 17.1394C 16.6151 17.0818 16.5725 16.9953 16.5243 16.9925C 16.0025 16.9579 15.4779 16.9348 14.9533 16.9089L 14.9164 16.9809L 15.2482 17.3555L 15.2 17.3987L 14.7831 16.9435L 14.82 16.8426ZM 11.2837 8.89093L 11.3064 8.58266L 11.6269 8.56249L 11.3149 8.27439L 11.9558 8.53656L 11.3688 8.70942L 11.4539 9.12142L 10.9831 8.70654L 10.9633 8.99465L 10.9151 9.02922L 10.3876 8.30608C 10.1863 8.47318 10.226 8.75552 10.1579 8.99177L 10.0955 8.99177L 9.92537 8.31472L 9.59075 8.74112C 9.54728 8.28069 9.62355 7.81674 9.81194 7.39566L 9.63045 8.43861L 9.69 8.46454L 9.97358 7.98916L 10.0984 8.68062L 10.4075 8.07559L 10.8187 8.77281L 10.8669 8.77281L 10.9066 8.41556L 11.2837 8.89093ZM 10.623 9.0321L 10.6031 9.05515L 10.4925 8.93991L 10.4188 9.0638L 10.3734 9.0638L 10.4046 8.6835L 10.4557 8.6835L 10.623 9.0321ZM 10.4216 3.86637L 9.95373 3.46303C 10.1324 3.4371 10.1324 3.4371 10.4216 3.86349L 10.4216 3.86637ZM 8.98388 3.23542L 8.98388 3.19797L 9.97925 3.19797L 9.97925 3.23542L 8.98388 3.23542ZM 10.0473 1.2475L 10.1324 1.26766L 9.94806 1.96776L 9.90552 1.96776L 10.0473 1.2475ZM 8.79105 3.06256L 10.2969 3.06256L 10.2969 3.09425L 8.79105 3.09425L 8.79105 3.06256ZM 9.07463 3.35067L 9.13702 3.42269L 8.63791 3.84909L 8.59821 3.80299L 9.07463 3.35067ZM 8.79105 3.90095C 8.99359 3.78286 9.22399 3.72309 9.45746 3.72808C 9.81638 3.72204 10.1676 3.83423 10.4585 4.04788C 10.6457 4.166 10.8584 4.23803 11.0484 4.37632L 10.4472 4.2121L 10.399 4.23515L 10.8158 4.77679L 10.4925 4.87762L 10.9264 5.16573C 10.7624 5.29744 10.5697 5.38735 10.3645 5.42795C 10.1592 5.46855 9.94741 5.45865 9.74672 5.39909C 9.87433 5.6872 10.1437 5.72465 10.3479 5.84278C 10.1976 6.09631 10.0473 6.33832 9.90836 6.58609C 9.7694 6.83386 9.64179 7.06722 9.50284 7.33516L 8.69179 5.76499L 9.27597 5.42214L 9.24761 5.33283C 8.85475 5.41173 8.44712 5.32994 8.11328 5.10523L 8.54716 4.84305L 8.21537 4.73933L 8.64925 4.21786L 8.61522 4.18041L 8.01403 4.33599L 8.01403 4.29853C 8.27941 4.17926 8.53873 4.04657 8.79105 3.90095ZM 8.06224 8.3176L 8.08209 8.66333L 8.12463 8.69214L 8.56418 8.00069L 8.84776 8.59418L 8.98672 7.91714L 9.2703 8.41556L 9.32701 8.41556L 9.16821 7.2833C 9.34547 7.7408 9.4135 8.23447 9.36672 8.72383L 9.03776 8.24846L 8.8194 8.99465L 8.59821 8.17067L 8.01403 8.93415L 7.95448 8.90534L 7.95448 8.55097L 7.59716 9.01194L 7.50925 8.9111L 8.06224 8.3176ZM 8.58403 8.99177L 8.52731 8.99177L 8.45925 8.84195L 8.33731 8.95432L 8.31463 8.93703L 8.49045 8.5769L 8.54149 8.5769L 8.58403 8.99177ZM 7.07821 8.39539L 7.64537 8.15338L 7.66239 8.17643L 7.37881 8.44437L 7.66239 8.49335C 7.47522 8.59706 7.28522 8.56249 7.07537 8.39539L 7.07821 8.39539ZM 7.26821 16.2924C 7.04985 16.3644 6.96761 16.1915 6.8797 15.9668L 6.75493 16.471L 6.6897 16.471L 6.50821 15.9322L 6.40896 16.4652L 6.09418 15.9293L 5.7794 16.3154L 5.66313 15.7392L 5.13851 16.0273C 5.26896 15.5548 5.08179 15.1111 5.28313 14.7049L 5.28313 15.8573L 5.69716 15.5836L 5.83896 16.1137L 6.07433 15.8256L 6.35791 16.1397L 6.50537 15.6902L 6.73224 16.1224L 6.83149 15.7536L 6.97328 15.8832L 7.04134 15.7334L 7.26821 16.2924ZM 8.34866 16.7879L 8.30896 16.7389L 8.60672 16.252L 8.60672 16.4681L 8.72015 16.4681L 8.74851 16.52L 8.34866 16.7879ZM 7.21433 20.055C 7.06119 20.1904 6.73507 20.0723 6.58761 19.8303C 6.48128 19.6365 6.38658 19.4364 6.30403 19.231L 5.98075 19.6056C 5.75672 19.1878 5.8106 18.9112 6.15657 18.5655C 6.07655 18.412 6.0092 18.2521 5.95522 18.0873C 5.93821 18.0239 6.02612 17.9317 6.06866 17.8424C 6.43731 18.2198 6.54507 18.2284 6.97045 17.9432C 7.13674 17.8276 7.31113 17.7246 7.49224 17.6349C 7.08955 17.9432 6.73224 18.3811 6.09134 18.2111L 6.35507 18.5943C 6.21612 18.7614 5.93537 18.8824 6.07149 19.2224C 6.10269 19.2224 6.1197 19.2224 6.13104 19.2224C 6.46 18.9775 6.46284 18.9804 6.58478 19.3664C 6.62375 19.4919 6.67605 19.6126 6.74075 19.7266C 6.89388 19.9916 7.06119 20.0147 7.30791 19.8533L 7.4894 19.7208C 7.33503 19.6406 7.19583 19.5333 7.07821 19.4039C 7.01015 19.2973 7.07821 19.1158 7.07821 18.9948L 7.60567 18.94C 7.53478 18.6836 7.39015 18.4531 7.44403 18.2889C 7.49791 18.1247 7.72761 17.9374 7.92045 17.7876C 7.77103 17.9417 7.64489 18.1175 7.54612 18.3091C 7.46672 18.5396 7.65672 18.7067 7.84388 18.8479C 7.77901 18.9618 7.67964 19.0514 7.56058 19.1033C 7.44151 19.1552 7.30912 19.1667 7.18313 19.136C 7.12358 19.3088 7.21433 19.3924 7.34194 19.4471C 7.46955 19.5019 7.62552 19.5451 7.74746 19.6027C 7.82287 19.6261 7.8866 19.678 7.92561 19.7476C 7.96462 19.8172 7.97596 19.8994 7.95731 19.9772C 7.84429 19.8933 7.70473 19.8549 7.56547 19.8692C 7.42622 19.8836 7.29711 19.9498 7.20298 20.055L 7.21433 20.055ZM 7.78149 20.055C 7.99134 20.1328 8.22955 20.2308 8.47343 20.3085C 8.53015 20.3258 8.60672 20.2682 8.71164 20.2308L 8.53582 20.0723C 8.43931 19.9942 8.36802 19.8885 8.33113 19.7689C 8.29424 19.6492 8.29343 19.5211 8.32881 19.401C 8.39119 19.1705 8.47627 18.9458 8.55851 18.7182C 8.6606 18.4301 8.76552 18.142 8.87045 17.8712L 8.91298 17.8971C 8.78821 18.2697 8.66438 18.6423 8.54149 19.015C 8.50715 19.1091 8.47874 19.2053 8.45642 19.3031C 8.36567 19.7727 8.52731 20.0118 8.97821 20.0752C 8.63224 20.5938 8.03388 20.5621 7.77582 20.0579L 7.78149 20.055ZM 9.37806 19.087L 9.32985 19.087L 9.32985 17.1826L 9.37806 17.1826L 9.37806 19.087ZM 10.9576 19.6632C 11.0994 19.6056 11.2412 19.571 11.3915 19.5163C 11.5418 19.4615 11.6127 19.4039 11.573 19.2483C 11.4373 19.2391 11.3031 19.214 11.1731 19.1734C 11.0617 19.108 10.9588 19.0286 10.8669 18.9372C 11.2724 18.5511 11.2894 18.456 11.0342 18.0901C 11.417 18.2774 11.4255 18.433 11.0767 18.9314C 11.227 19.1244 11.4255 19.0755 11.6212 19.0409C 11.8084 19.4414 11.6921 19.6171 11.1278 19.764C 11.2866 19.8649 11.4113 19.9484 11.5304 20.0204C 11.5933 20.0575 11.6678 20.0686 11.7386 20.0514C 11.8093 20.0343 11.8708 19.9902 11.9104 19.9282C 12.0074 19.7631 12.0918 19.5907 12.1628 19.4125C 12.1957 19.3184 12.2222 19.2222 12.2422 19.1244L 12.6563 19.3492C 12.7782 19.0294 12.5173 18.8882 12.3727 18.7153L 12.6563 18.3408C 12.0267 18.4848 11.6581 18.07 11.2384 17.7646L 11.2696 17.7098L 11.8367 18.1045C 12.1742 18.3408 12.3642 18.3149 12.6194 17.9979C 12.8604 18.1766 12.8434 18.3091 12.557 18.6174C 12.6748 18.7967 12.77 18.9903 12.8406 19.1936C 12.8458 19.4011 12.819 19.6081 12.7612 19.8072L 12.3925 19.3578C 12.3301 19.5134 12.2848 19.6459 12.2309 19.7611C 12.1929 19.8762 12.1247 19.9785 12.0338 20.0572C 11.9429 20.1358 11.8326 20.1879 11.7148 20.2077C 11.6267 20.2245 11.5356 20.207 11.4596 20.1587C 11.3703 20.0575 11.2498 19.9901 11.1179 19.9676C 10.986 19.9451 10.8505 19.9688 10.7336 20.0348C 10.7235 19.9966 10.7214 19.9566 10.7272 19.9175C 10.7331 19.8783 10.7468 19.8408 10.7676 19.8073C 10.7883 19.7737 10.8157 19.7449 10.8479 19.7226C 10.8801 19.7003 10.9165 19.685 10.9548 19.6776L 10.9576 19.6632ZM 10.1381 20.1184C 10.0842 20.1703 10.0246 20.2164 9.95373 20.2769C 10.3507 20.5419 10.606 20.2394 10.8981 20.0608C 10.8491 20.1734 10.7731 20.2718 10.677 20.3468C 10.5808 20.4218 10.4677 20.4711 10.3479 20.4901C 10.2065 20.5033 10.0646 20.4708 9.94246 20.3974C 9.82027 20.3239 9.72399 20.2132 9.66731 20.0809C 10.1409 20.0493 10.3337 19.7928 10.2118 19.3319C 10.0899 18.8709 9.92821 18.3696 9.83463 17.8741C 10.0076 18.4272 10.1948 18.9775 10.3507 19.5335C 10.3769 19.6439 10.3704 19.7596 10.3321 19.8662C 10.2937 19.9729 10.2253 20.0656 10.1352 20.1328L 10.1381 20.1184ZM 10.4216 16.7965L 10.3791 16.8513L 9.97925 16.5632L 10.0218 16.4969L 10.121 16.5459L 10.1437 16.3557L 10.4216 16.7965ZM 10.8413 15.0679L 10.8413 15.0016L 11.3943 14.9613L 11.3943 15.0276L 10.8413 15.0679ZM 10.8924 14.6732C 10.7109 14.6905 10.5266 14.6963 10.3422 14.7107C 9.93105 14.7424 9.54254 14.8115 9.38657 15.3445C 9.28164 14.8173 8.91866 14.7308 8.53582 14.679C 8.32313 14.6502 8.10761 14.6502 7.89776 14.6185C 7.6871 14.606 7.48907 14.5123 7.34413 14.3564C 7.19919 14.2006 7.11828 13.9945 7.11791 13.7801C 7.09945 13.6098 7.08998 13.4386 7.08955 13.2673C 7.08955 11.9861 7.08955 10.705 7.08955 9.42393C 7.08955 9.36919 7.08955 9.31733 7.08955 9.24242L 11.7687 9.24242C 11.7687 9.3375 11.7687 9.42105 11.7687 9.5046C 11.7687 10.755 11.7734 12.0034 11.7828 13.25C 11.7828 13.4199 11.7658 13.5899 11.7545 13.7599C 11.7611 13.8784 11.7436 13.9971 11.7031 14.1085C 11.6627 14.2198 11.6 14.3215 11.5191 14.4072C 11.4382 14.4929 11.3409 14.5608 11.233 14.6065C 11.1252 14.6523 11.0092 14.675 10.8924 14.6732ZM 11.9672 15.8977L 12.0749 16.2607L 12.2961 15.8256L 12.4379 16.2261L 12.6619 16.0446C 12.7045 16.0446 12.764 16.0244 12.7867 16.0446C 12.8483 16.1117 12.9043 16.184 12.954 16.2607L 13.1043 15.7161L 13.524 16.0043L 13.524 14.8C 13.7481 15.2494 13.5439 15.6931 13.6658 16.18L 13.1412 15.8919L 13.0221 16.4018L 12.9625 16.4595L 12.679 16.082L 12.4209 16.5661L 12.3699 16.5661L 12.2933 16.0849L 12.0976 16.5949L 12.0352 16.5949L 11.9104 16.0792C 11.8254 16.2924 11.7516 16.4825 11.5248 16.4105L 11.7601 15.8343L 11.8339 16.0187L 11.9672 15.8977ZM 12.4578 12.1667L 12.1458 12.4548L 12.1175 12.4231L 12.4776 12.0054C 12.574 12.2243 12.7016 12.426 12.9881 12.4202C 12.7328 12.5211 12.5939 12.3338 12.4578 12.1638L 12.4578 12.1667ZM 18.413 6.69269C 18.2172 7.08315 17.903 7.3993 17.5169 7.59446L 18.1493 6.92893L 18.0925 6.8425L 17.2418 7.08739C 17.5835 6.82322 18.0036 6.68504 18.4328 6.69557L 18.413 6.69269ZM 18.1606 5.32995C 18.2145 5.76211 17.8231 6.36425 17.2928 6.64371C 17.5825 6.39061 17.8065 6.06907 17.9451 5.70737L 17.117 6.28358L 17.0858 6.24324L 18.1606 5.32995ZM 17.6955 3.70504C 17.8033 4.45123 17.4545 4.96406 17.0518 5.45095C 17.2503 5.06201 17.5084 4.699 17.5537 4.20634L 16.7484 5.11963L 16.7058 5.08218L 17.6955 3.70504ZM 14.9788 9.45274L 14.6215 9.97133L 14.5761 9.8849C 14.5761 10.0693 14.613 10.2508 14.6101 10.4352C 14.6101 10.4842 14.5307 10.536 14.4882 10.585C 14.5559 10.4772 14.5837 10.3485 14.5665 10.2218C 14.5494 10.0951 14.4885 9.97876 14.3946 9.89354L 14.9618 9.47579L 14.803 9.27123L 14.9788 9.45274ZM 14.3975 8.09L 14.3351 8.26574L 14.7973 8.49047C 14.6839 8.64604 14.7973 8.89381 14.5903 9.00329L 14.5676 8.97448L 14.7009 8.52792L 14.199 8.33489L 14.3975 8.09ZM 14.0345 10.585L 14.491 10.585L 14.0628 10.6397C 14.0146 10.7867 14.0401 10.997 13.8473 11.069L 14.0345 10.585ZM 13.5439 13.6706C 13.5135 13.6861 13.48 13.6941 13.446 13.6941C 13.4121 13.6941 13.3786 13.6861 13.3482 13.6706C 13.2571 13.6303 13.1825 13.5592 13.137 13.4695C 13.0915 13.3797 13.078 13.2767 13.0987 13.1779L 13.4503 13.5208L 13.7339 13.2096C 13.7507 13.2969 13.7416 13.3874 13.7078 13.4694C 13.6739 13.5515 13.6169 13.6215 13.5439 13.6706ZM 14.6413 13.7887C 14.5081 13.8319 14.2528 13.5842 14.1791 13.3393C 14.1621 13.2817 14.1536 13.2212 14.1281 13.1088C 14.214 13.2511 14.3087 13.3878 14.4116 13.5179C 14.5534 13.6792 14.6527 13.6476 14.6952 13.4344C 14.7179 13.3393 14.7236 13.2384 14.7378 13.1462C 14.7378 13.1462 14.7604 13.1462 14.7633 13.1635C 14.8427 13.4171 14.7831 13.7426 14.6442 13.7887L 14.6413 13.7887ZM 15.7331 13.5208C 15.6829 13.5298 15.6314 13.5272 15.5823 13.5132C 15.5332 13.4993 15.4879 13.4743 15.4496 13.4401C 15.329 13.3206 15.2181 13.1915 15.1178 13.0541L 15.1688 13.008C 15.2462 13.091 15.3296 13.1681 15.4184 13.2384C 15.4807 13.2817 15.5999 13.3364 15.6367 13.3076C 15.6935 13.242 15.7265 13.1586 15.7303 13.0713C 15.7313 12.9966 15.7227 12.922 15.7048 12.8495L 15.7672 12.8495C 15.7992 12.9751 15.8201 13.1033 15.8296 13.2327C 15.8296 13.3335 15.7955 13.4862 15.7331 13.5208ZM 15.3957 11.1295C 15.2624 11.7864 15.2624 11.7864 14.7264 11.6798C 14.6499 11.821 14.6073 12.0169 14.491 12.0803C 14.3748 12.1436 14.2075 12.0543 14.0288 12.0284C 13.9097 12.1753 13.8331 12.4692 13.5099 12.3684C 13.3596 12.3039 13.2348 12.1904 13.1554 12.0457C 13.3482 12.1494 13.5297 12.3338 13.6715 12.3021C 13.8133 12.2704 13.904 12.0313 14.0033 11.9045C 14.1337 11.9333 14.3266 12.0342 14.4655 11.9823C 14.6045 11.9304 14.5846 11.6942 14.6272 11.5876C 14.7973 11.5876 15.0582 11.6913 15.1773 11.5876C 15.2964 11.4839 15.2567 11.2159 15.2879 11.0114C 15.3784 11.0493 15.4794 11.0527 15.5722 11.021C 15.6649 10.9892 15.7433 10.9244 15.7927 10.8385C 15.8522 10.7262 15.7615 10.5331 15.7388 10.366C 16.1982 10.1903 16.2407 10.0434 15.9316 9.69186C 16.0734 9.55069 16.3202 9.40376 16.3287 9.26547C 16.3372 9.12718 16.116 8.94567 15.9855 8.76993C 16.1755 8.66333 16.3996 8.46454 16.3145 8.19372C 16.2719 8.06119 15.9713 8.01797 15.804 7.94306C 15.9168 7.82765 16.0193 7.70231 16.1103 7.56853C 16.1575 7.45188 16.1862 7.32839 16.1954 7.20263C 16.0717 7.18193 15.9462 7.17516 15.821 7.18247C 15.7093 7.20686 15.6008 7.24458 15.4978 7.29483L 15.9401 6.31815L 15.7161 7.09027C 15.8012 7.09027 15.9033 7.07299 15.9997 7.07299C 16.3003 7.07299 16.3684 7.18535 16.2464 7.47057C 16.2117 7.54832 16.17 7.62259 16.1216 7.69241C 16.0763 7.76156 16.0196 7.82494 15.9685 7.89121C 16.5357 8.11305 16.5555 8.17931 16.1557 8.76993C 16.2464 8.93127 16.4137 9.09261 16.4052 9.2453C 16.3967 9.398 16.2096 9.53341 16.0848 9.70339C 16.1382 9.83291 16.1652 9.97208 16.1642 10.1125C 16.1105 10.2598 16.0109 10.3853 15.8806 10.4697C 15.9458 10.9999 15.9345 11.0171 15.3957 11.1295ZM 16.7824 12.8063C 16.7966 12.9388 16.7342 12.9936 16.6066 12.9763C 16.4951 12.9559 16.39 12.909 16.2998 12.8393C 16.2096 12.7697 16.1369 12.6794 16.0876 12.5758C 16.2011 12.6512 16.3195 12.7186 16.4421 12.7775C 16.564 12.8265 16.6463 12.7631 16.6122 12.6277C 16.5659 12.4833 16.5109 12.3418 16.4478 12.2041C 16.5413 12.2757 16.6193 12.3661 16.6769 12.4697C 16.7345 12.5733 16.7704 12.6879 16.7824 12.8063ZM 17.3893 12.2128C 17.2484 12.2284 17.1059 12.2105 16.973 12.1605C 16.8401 12.1105 16.7204 12.0298 16.6236 11.9247C 16.7522 11.9759 16.8851 12.0154 17.0206 12.0428C 17.1215 12.0398 17.2216 12.0233 17.3184 11.9938C 17.2956 11.9008 17.2643 11.8101 17.2248 11.723C 17.1822 11.6452 17.1085 11.5818 17.0575 11.5012C 17.1636 11.5485 17.2591 11.6174 17.3381 11.7036C 17.4171 11.7898 17.478 11.8915 17.5169 12.0025C 17.5651 12.1321 17.514 12.1926 17.3893 12.2128ZM 18.0954 11.2448C 17.9352 11.3252 17.7573 11.3622 17.5789 11.3521C 17.4005 11.342 17.2277 11.2852 17.0773 11.1871L 17.8657 11.1871L 17.8969 11.1209L 17.3297 10.6743C 17.4927 10.6999 17.6472 10.7648 17.7804 10.8635C 17.9137 10.9623 18.0217 11.092 18.0954 11.2419L 18.0954 11.2448ZM 18.4328 10.1211C 18.2941 10.2511 18.1265 10.3451 17.9443 10.3953C 17.7622 10.4454 17.5708 10.4502 17.3864 10.4092L 18.1776 10.2018L 18.1776 10.101L 17.3836 9.81287C 17.7587 9.7811 18.1323 9.89085 18.4328 10.1211ZM 18.6512 9.11277C 18.3358 9.38946 17.9336 9.5427 17.5169 9.54493L 18.3478 9.21361L 18.3478 9.11565L 17.6643 8.98889C 17.9977 8.89974 18.352 8.94409 18.654 9.11277L 18.6512 9.11277ZM 17.8657 8.44725L 18.413 8.02662L 18.379 7.94018L 17.5821 8.04678C 17.9247 7.84496 18.3251 7.76869 18.7164 7.8307C 18.5104 8.12883 18.2102 8.34638 17.8657 8.44725Z"/>
<path id="path1_fill" d="M 3.65537 2.79462C 3.45403 2.81767 3.31224 2.80903 3.27821 2.54397C 3.23348 2.34608 3.16985 2.15309 3.08821 1.96776C 3.06552 1.89573 3.04851 1.82083 3.03149 1.74592L 3.08537 1.72575C 3.14213 1.814 3.2077 1.89606 3.28104 1.97064C 3.34605 2.03424 3.4319 2.07118 3.52209 2.07436C 3.57881 2.07436 3.65537 1.95335 3.66388 1.88133C 3.65134 1.77441 3.63144 1.66851 3.60433 1.56441C 3.60433 1.38291 3.60433 1.2014 3.60433 1.01125C 3.51075 0.919057 3.39164 0.800933 3.26687 0.685691C 3.14209 0.570449 2.92373 0.458088 2.82164 0.593497C 2.71955 0.728907 2.5891 0.726026 2.48418 0.800933L 2.41896 0.841268L 2.53239 0.919057C 2.46605 1.0307 2.386 1.13332 2.29418 1.22445C 2.25748 1.24855 2.21547 1.26301 2.17191 1.26653C 2.12835 1.27005 2.08461 1.26252 2.04463 1.24461C 1.97489 1.15279 1.92118 1.0495 1.88582 0.939224L 1.9709 0.973796C 2.06233 0.915639 2.14376 0.842644 2.21194 0.757717C 2.28851 0.622308 2.34239 0.417753 2.18642 0.339964C 2.01976 0.280278 1.83996 0.269298 1.66746 0.308272C 1.58801 0.31627 1.51451 0.354644 1.46186 0.415625C 1.40921 0.476606 1.38133 0.555636 1.38388 0.636712L 1.57672 0.726025L 1.55687 0.783647L 1.04642 0.62807L 1.10597 0.576211L 0.768507 -2.19807e-07L 0.694776 0.028811L 0.720298 0.642475L 0.0879105 1.13225L 0.263732 1.32817L 0.221194 1.42324C 0.274393 1.53482 0.338019 1.64094 0.411194 1.74016C 0.468419 1.7881 0.538638 1.81724 0.612537 1.82371C 0.69719 1.83588 0.783109 1.83588 0.867761 1.82371C 0.95 1.82371 1.03224 1.77761 1.11448 1.7632C 1.19672 1.7488 1.26478 1.7488 1.36403 1.73728C 1.30448 1.86116 1.27045 1.92166 1.24493 1.98793C 1.2194 2.05419 1.21373 2.1752 1.15985 2.20689C 1.05209 2.27315 0.935821 2.36246 0.791194 2.22705C 0.762048 2.19858 0.727244 2.17676 0.689118 2.16307C 0.650992 2.14938 0.610425 2.14414 0.570139 2.14769C 0.529853 2.15123 0.49078 2.16349 0.45554 2.18364C 0.420301 2.20379 0.38971 2.23136 0.365821 2.26451C 0.138299 2.58812 0.0109321 2.9733 1.51449e-07 3.37083L 0.354478 3.27288L 0.374328 3.36507L 0.436716 3.38236L 0.700448 2.72548C 0.742985 2.90698 0.802537 3.12018 0.72597 3.24119C 0.653099 3.36935 0.607681 3.51171 0.592687 3.65894C 0.53597 3.94704 0.465075 4.2582 0.399851 4.56647C 0.133284 4.51749 0.232537 4.27837 0.178657 4.10262C 0.045373 4.30141 -0.014179 4.51749 0.0907463 4.61545C 0.211471 4.73682 0.36974 4.81213 0.538806 4.82865C 0.822388 4.82865 1.10597 4.75086 1.35552 5.00151C 1.35552 5.00151 1.38672 5.00151 1.39806 5.00151C 1.57105 4.96117 1.64478 5.04761 1.6391 5.24064C 1.84612 5.13116 1.92269 5.24064 1.99358 5.43655L 2.25448 5.21759C 2.35726 5.11059 2.49696 5.04836 2.64407 5.04406C 2.79117 5.03976 2.93416 5.09372 3.04284 5.19454C 3.06552 5.21471 3.08821 5.24352 3.11373 5.25216C 3.15877 5.27012 3.20758 5.27607 3.25552 5.26945C 3.27254 5.26945 3.29239 5.1859 3.27821 5.1542C 3.21582 4.99863 3.32075 4.97846 3.41149 5.00727C 3.61851 5.07354 3.61284 5.00727 3.54194 4.84593C 3.54194 4.83153 3.54194 4.8056 3.54194 4.78543L 3.66672 4.74798L 3.76881 4.23515L 3.3491 4.28989C 3.33209 4.23515 3.31507 4.19481 3.30373 4.14872C 3.24418 3.92111 3.17896 3.69639 3.13642 3.46591C 3.13642 3.39388 3.13642 3.26711 3.19313 3.24119C 3.34632 3.16719 3.5046 3.10461 3.66672 3.05392L 3.73478 3.14323L 3.32925 3.65894C 3.55612 3.77994 3.68373 3.70504 3.75746 3.53793C 3.81093 3.40165 3.85268 3.26091 3.88224 3.1173C 3.90776 3.02223 3.91627 2.92139 3.93328 2.82919C 3.84211 2.80775 3.74895 2.79616 3.65537 2.79462ZM 1.80358 4.20058C 1.67028 4.14789 1.5339 4.10363 1.39522 4.06805C 1.15418 4.01907 1.02657 4.12855 0.975522 4.37344C 0.94384 4.45539 0.901903 4.53286 0.850746 4.60392C 0.60403 4.08821 0.799702 3.64453 1.27328 3.50912C 1.38955 3.47455 1.45761 3.50912 1.41791 3.62148C 1.35552 3.7857 1.46045 3.84621 1.55403 3.90959L 1.83761 4.16024L 1.80358 4.20058ZM 2.21478 4.23515L 1.70716 3.68487L 1.96806 3.39676L 2.29418 4.18329L 2.21478 4.23515ZM 3.13075 4.3187L 2.67702 4.3792L 2.24313 3.63589L 2.62881 3.63589L 2.66567 3.58691L 2.31119 3.32474C 2.55507 3.20373 2.59478 3.21238 2.76209 3.50048C 2.87269 3.68487 2.97478 3.8779 3.07403 4.07669C 3.10385 4.15412 3.12663 4.23417 3.14209 4.31582L 3.13075 4.3187Z"/>
</defs>
</svg>
