<svg width="315" height="68" viewBox="0 0 315 68" version="1.1" xmlns="http://www.w3.org/2000/svg" xmlns:xlink="http://www.w3.org/1999/xlink" xmlns:figma="http://www.figma.com/figma/ns">
<title>Group</title>
<desc>Created using Figma</desc>
<g id="Canvas" transform="translate(-23961 8682)" figma:type="canvas">
<g id="Group" figma:type="frame">
<g id="Group" figma:type="frame">
<g id="&#208;&#145;&#208;&#181;&#209;&#129;&#209;&#129;&#208;&#188;&#208;&#181;&#209;&#128;&#209;&#130;&#208;&#189;&#209;&#139;&#208;&#185; &#208;&#191;&#208;&#190;&#208;&#187;&#208;&#186;" figma:type="text">
<use xlink:href="#path0_fill" transform="translate(24045 -8667)" fill="#581419"/>
</g>
</g>
<g id="Star" figma:type="star">
<use xlink:href="#path1_fill" transform="translate(23960 -8682)" fill="#C1001F"/>
</g>
</g>
</g>
<defs>
<path id="path0_fill" d="M 13.7461 17.6152C 12.9492 17.6152 12.2754 17.4863 11.7246 17.2285C 11.1855 16.9707 10.7754 16.6133 10.4941 16.1562C 10.2246 15.7109 10.0898 15.207 10.0898 14.6445C 10.0898 14.0469 10.2188 13.4492 10.4766 12.8516C 10.8398 13.3203 11.2148 13.6543 11.6016 13.8535C 12 14.0527 12.4277 14.1523 12.8848 14.1523C 13.5176 14.1523 14.0625 13.9648 14.5195 13.5898C 14.9766 13.2031 15.3574 12.6816 15.6621 12.0254C 15.9316 11.4395 16.1309 10.7832 16.2598 10.0566C 16.3887 9.31836 16.4531 8.58594 16.4531 7.85938C 16.4531 6.47656 16.2129 5.42773 15.7324 4.71289C 15.1582 3.85742 14.2559 3.42969 13.0254 3.42969C 12.3574 3.42969 11.7832 3.54687 11.3027 3.78125L 8.45508 17L 3.26953 17L 8.45508 -7.04688C 7.7168 -7.02344 7.06641 -6.88281 6.50391 -6.625C 5.95312 -6.37891 5.47852 -5.98633 5.08008 -5.44727C 4.21289 -4.26367 3.7793 -2.3125 3.7793 0.40625C 3.7793 1.17969 3.86719 1.77734 4.04297 2.19922C 4.08984 2.35156 4.14844 2.48633 4.21875 2.60352C 4.26562 2.68555 4.28906 2.76758 4.28906 2.84961C 3 2.84961 2.04492 2.5918 1.42383 2.07617C 0.767578 1.52539 0.439453 0.617188 0.439453 -0.648438C 0.439453 -1.89063 0.667969 -3.06836 1.125 -4.18164C 1.59375 -5.29492 2.30273 -6.27344 3.25195 -7.11719C 4.27148 -8.03125 5.56641 -8.74023 7.13672 -9.24414C 8.70703 -9.74805 10.5645 -10 12.709 -10C 13.1309 -10 13.582 -9.97656 14.0625 -9.92969L 14.9238 -9.85938C 16.5879 -9.71875 17.5371 -9.64258 17.7715 -9.63086C 18.3809 -9.58398 19.043 -9.56055 19.7578 -9.56055C 21.0117 -9.56055 22.0957 -9.70703 23.0098 -10C 22.9863 -9.89453 22.9395 -9.6543 22.8691 -9.2793C 22.8105 -8.9043 22.7285 -8.54102 22.623 -8.18945C 22.5293 -7.84961 22.4121 -7.54492 22.2715 -7.27539C 21.7324 -6.20898 20.8359 -5.67578 19.582 -5.67578C 17.8008 -5.67578 15.7734 -5.91602 13.5 -6.39648L 11.707 1.95312C 12.4336 1.73047 13.0781 1.56641 13.6406 1.46094C 14.2031 1.35547 14.7773 1.30273 15.3633 1.30273C 17.3789 1.30273 18.9199 1.92969 19.9863 3.18359C 20.4785 3.78125 20.8477 4.48438 21.0938 5.29297C 21.3398 6.10156 21.4629 6.99219 21.4629 7.96484C 21.4629 8.58594 21.3984 9.25391 21.2695 9.96875C 21.1406 10.6719 20.9473 11.3691 20.6895 12.0605C 20.4199 12.7988 20.0742 13.502 19.6523 14.1699C 19.2305 14.8262 18.7441 15.4062 18.1934 15.9102C 16.9395 17.0469 15.457 17.6152 13.7461 17.6152ZM 30.1535 17.2109C 28.384 17.2109 27.0187 16.7656 26.0578 15.875C 25.0383 14.9258 24.5285 13.4668 24.5285 11.498C 24.5285 10.7598 24.6047 9.93945 24.757 9.03711C 24.8977 8.13477 25.1145 7.23242 25.4074 6.33008C 25.7355 5.32227 26.1516 4.36719 26.6555 3.46484C 27.1711 2.5625 27.7687 1.76563 28.4484 1.07422C 30.0187 -0.519531 31.9523 -1.31641 34.2492 -1.31641C 35.7141 -1.31641 36.7805 -0.964844 37.4484 -0.261719C 37.9641 0.289063 38.2219 1.08594 38.2219 2.12891C 38.2219 3.14844 37.9992 4.10937 37.5539 5.01172C 37.1086 5.90234 36.4934 6.69336 35.7082 7.38477C 34.923 8.06445 34.0324 8.60938 33.0363 9.01953C 32.0402 9.41797 31.009 9.65234 29.9426 9.72266C 29.884 10.332 29.8547 10.8125 29.8547 11.1641C 29.8547 12.3359 30.0773 13.1445 30.5227 13.5898C 30.9094 13.9883 31.5539 14.1875 32.4562 14.1875C 33.757 14.1875 34.9465 13.8359 36.0246 13.1328C 36.4816 12.8398 36.9211 12.4941 37.343 12.0957C 37.7648 11.6855 38.257 11.1699 38.8195 10.5488L 40.05 10.5488C 38.9133 12.4707 37.6066 14 36.1301 15.1367C 34.3137 16.5195 32.3215 17.2109 30.1535 17.2109ZM 30.2238 8C 30.8918 7.95313 31.5422 7.75977 32.175 7.41992C 32.8078 7.08008 33.3703 6.63477 33.8625 6.08398C 34.3547 5.52148 34.7414 4.89453 35.0227 4.20312C 35.3039 3.5 35.4445 2.78516 35.4445 2.05859C 35.4445 1.57812 35.3742 1.21484 35.2336 0.96875C 35.1047 0.710938 34.8762 0.582031 34.548 0.582031C 34.1145 0.582031 33.675 0.792969 33.2297 1.21484C 32.7961 1.63672 32.3742 2.2168 31.9641 2.95508C 31.5891 3.64648 31.2492 4.43164 30.9445 5.31055C 30.6398 6.18945 30.3996 7.08594 30.2238 8ZM 45.7699 17.2109C 44.0004 17.2109 42.6352 16.7656 41.6742 15.875C 40.6547 14.9258 40.1449 13.4668 40.1449 11.498C 40.1449 10.7598 40.2211 9.93945 40.3734 9.03711C 40.5141 8.12305 40.7367 7.21484 41.0414 6.3125C 41.7562 4.12109 42.7699 2.375 44.0824 1.07422C 45.6996 -0.519531 47.6156 -1.31641 49.8305 -1.31641C 51.2719 -1.31641 52.3383 -0.970703 53.0297 -0.279297C 53.5687 0.271484 53.8383 1.02734 53.8383 1.98828C 53.8383 2.83203 53.6508 3.48828 53.2758 3.95703C 52.9242 4.39062 52.473 4.60742 51.9223 4.60742C 51.5238 4.60742 51.102 4.4668 50.6566 4.18555C 50.9496 3.42383 51.0961 2.71484 51.0961 2.05859C 51.0961 1.60156 51.0082 1.24414 50.8324 0.986328C 50.6684 0.716797 50.4223 0.582031 50.0941 0.582031C 49.391 0.582031 48.6586 1.20313 47.8969 2.44531C 47.2055 3.54687 46.6312 4.94727 46.1742 6.64648C 45.7055 8.31055 45.4711 9.81641 45.4711 11.1641C 45.4711 12.3359 45.6937 13.1445 46.1391 13.5898C 46.5258 13.9883 47.1703 14.1875 48.0727 14.1875C 49.3734 14.1875 50.5629 13.8359 51.641 13.1328C 52.098 12.8398 52.5375 12.4941 52.9594 12.0957C 53.3812 11.6855 53.8734 11.1699 54.4359 10.5488L 55.6664 10.5488C 54.5297 12.4707 53.223 14 51.7465 15.1367C 49.9301 16.5195 47.9379 17.2109 45.7699 17.2109ZM 61.3863 17.2109C 59.6168 17.2109 58.2516 16.7656 57.2906 15.875C 56.2711 14.9258 55.7613 13.4668 55.7613 11.498C 55.7613 10.7598 55.8375 9.93945 55.9898 9.03711C 56.1305 8.12305 56.3531 7.21484 56.6578 6.3125C 57.3727 4.12109 58.3863 2.375 59.6988 1.07422C 61.316 -0.519531 63.232 -1.31641 65.4469 -1.31641C 66.8883 -1.31641 67.9547 -0.970703 68.6461 -0.279297C 69.1852 0.271484 69.4547 1.02734 69.4547 1.98828C 69.4547 2.83203 69.2672 3.48828 68.8922 3.95703C 68.5406 4.39062 68.0895 4.60742 67.5387 4.60742C 67.1402 4.60742 66.7184 4.4668 66.273 4.18555C 66.566 3.42383 66.7125 2.71484 66.7125 2.05859C 66.7125 1.60156 66.6246 1.24414 66.4488 0.986328C 66.2848 0.716797 66.0387 0.582031 65.7105 0.582031C 65.0074 0.582031 64.275 1.20313 63.5133 2.44531C 62.8219 3.54687 62.2477 4.94727 61.7906 6.64648C 61.3219 8.31055 61.0875 9.81641 61.0875 11.1641C 61.0875 12.3359 61.3102 13.1445 61.7555 13.5898C 62.1422 13.9883 62.7867 14.1875 63.6891 14.1875C 64.9898 14.1875 66.1793 13.8359 67.2574 13.1328C 67.7145 12.8398 68.1539 12.4941 68.5758 12.0957C 68.9977 11.6855 69.4898 11.1699 70.0523 10.5488L 71.2828 10.5488C 70.1461 12.4707 68.8395 14 67.3629 15.1367C 65.5465 16.5195 63.5543 17.2109 61.3863 17.2109ZM 74.4363 17.2109C 73.7918 17.2109 73.2176 17.0938 72.7137 16.8594C 72.2098 16.6133 71.7879 16.2793 71.448 15.8574C 71.1316 15.4707 70.8914 15.0371 70.7273 14.5566C 70.5633 14.0645 70.4812 13.5723 70.4812 13.0801C 70.4812 12.2363 70.6805 11.5742 71.0789 11.0938C 71.4656 10.6133 72.0105 10.373 72.7137 10.373C 73.2762 10.373 73.7273 10.5488 74.0672 10.9004C 74.4187 11.2402 74.5945 11.6914 74.5945 12.2539C 74.5945 12.7695 74.4715 13.1797 74.2254 13.4844C 73.991 13.7773 73.698 13.9238 73.3465 13.9238C 73.2645 13.9238 73.2 13.918 73.1531 13.9062C 73.1297 14.2578 73.2117 14.5508 73.3992 14.7852C 73.6453 15.1133 74.032 15.2773 74.5594 15.2773C 75.1687 15.2773 75.6785 15.084 76.0887 14.6973C 76.4988 14.2988 76.8387 13.7305 77.1082 12.9922C 77.3543 12.2891 77.5652 11.5039 77.741 10.6367C 77.8934 9.80469 78.0691 8.90234 78.2684 7.92969L 80.1668 -1L 85.2117 -1L 85.9676 12.8164L 92.6648 -1L 97.991 -1L 96.075 7.92969L 95.4422 10.707C 95.2898 11.3867 95.2137 11.8906 95.2137 12.2188C 95.2137 13.2266 95.6941 13.7305 96.6551 13.7305C 97.0184 13.7305 97.3348 13.6719 97.6043 13.5547C 97.8738 13.4258 98.1258 13.2266 98.3602 12.957C 98.5711 12.7109 98.7703 12.4062 98.9578 12.043C 99.157 11.6797 99.3973 11.1816 99.6785 10.5488L 101.19 10.5488C 99.6785 14.9902 97.4461 17.2109 94.493 17.2109C 93.1102 17.2109 92.0437 16.8242 91.2937 16.0508C 90.9539 15.7109 90.6961 15.3125 90.5203 14.8555C 90.3445 14.3867 90.2566 13.9004 90.2566 13.3965C 90.2566 12.377 90.5086 10.7832 91.0125 8.61523L 91.575 6.04883L 86.2488 17L 81.2039 17L 80.5711 6.01367L 80.0965 8.28125C 79.7566 9.98047 79.452 11.334 79.1824 12.3418C 78.9129 13.3496 78.5965 14.1992 78.2332 14.8906C 77.823 15.6641 77.3133 16.2441 76.7039 16.6309C 76.1062 17.0176 75.3504 17.2109 74.4363 17.2109ZM 106.646 17.2109C 104.877 17.2109 103.512 16.7656 102.551 15.875C 101.531 14.9258 101.021 13.4668 101.021 11.498C 101.021 10.7598 101.098 9.93945 101.25 9.03711C 101.391 8.13477 101.607 7.23242 101.9 6.33008C 102.229 5.32227 102.645 4.36719 103.148 3.46484C 103.664 2.5625 104.262 1.76563 104.941 1.07422C 106.512 -0.519531 108.445 -1.31641 110.742 -1.31641C 112.207 -1.31641 113.273 -0.964844 113.941 -0.261719C 114.457 0.289063 114.715 1.08594 114.715 2.12891C 114.715 3.14844 114.492 4.10937 114.047 5.01172C 113.602 5.90234 112.986 6.69336 112.201 7.38477C 111.416 8.06445 110.525 8.60938 109.529 9.01953C 108.533 9.41797 107.502 9.65234 106.436 9.72266C 106.377 10.332 106.348 10.8125 106.348 11.1641C 106.348 12.3359 106.57 13.1445 107.016 13.5898C 107.402 13.9883 108.047 14.1875 108.949 14.1875C 110.25 14.1875 111.439 13.8359 112.518 13.1328C 112.975 12.8398 113.414 12.4941 113.836 12.0957C 114.258 11.6855 114.75 11.1699 115.312 10.5488L 116.543 10.5488C 115.406 12.4707 114.1 14 112.623 15.1367C 110.807 16.5195 108.814 17.2109 106.646 17.2109ZM 106.717 8C 107.385 7.95313 108.035 7.75977 108.668 7.41992C 109.301 7.08008 109.863 6.63477 110.355 6.08398C 110.848 5.52148 111.234 4.89453 111.516 4.20312C 111.797 3.5 111.938 2.78516 111.938 2.05859C 111.938 1.57812 111.867 1.21484 111.727 0.96875C 111.598 0.710938 111.369 0.582031 111.041 0.582031C 110.607 0.582031 110.168 0.792969 109.723 1.21484C 109.289 1.63672 108.867 2.2168 108.457 2.95508C 108.082 3.64648 107.742 4.43164 107.438 5.31055C 107.133 6.18945 106.893 7.08594 106.717 8ZM 119.855 -2.33594L 125.04 -2.33594L 124.46 0.371094C 125.679 -0.660156 127.079 -1.17578 128.661 -1.17578C 130.009 -1.17578 131.052 -0.765625 131.79 0.0546875C 132.634 1.01562 133.056 2.49805 133.056 4.50195C 133.056 6.43555 132.81 8.25195 132.318 9.95117C 131.696 12.1191 130.794 13.8008 129.611 14.9961C 128.157 16.4727 126.353 17.2109 124.196 17.2109C 123.364 17.2109 122.679 17.082 122.14 16.8242C 121.73 16.6367 121.396 16.3379 121.138 15.9277L 119.275 24.6992L 113.843 26L 119.855 -2.33594ZM 123.089 14.082C 124.249 14.082 125.245 13.4902 126.077 12.3066C 126.734 11.3809 127.261 10.0801 127.659 8.4043C 127.976 7.05664 128.134 5.7207 128.134 4.39648C 128.134 3.21289 127.917 2.36914 127.484 1.86523C 127.202 1.56055 126.816 1.4082 126.323 1.4082C 125.89 1.4082 125.45 1.56055 125.005 1.86523C 124.56 2.16992 124.173 2.60938 123.845 3.18359L 121.718 13.2559C 121.8 13.4902 121.952 13.6895 122.175 13.8535C 122.409 14.0059 122.714 14.082 123.089 14.082ZM 158.2 17.2109C 156.711 17.2109 155.61 16.7891 154.895 15.9453C 154.274 15.2188 153.963 14.2871 153.963 13.1504C 153.963 12.6113 154.028 11.9844 154.157 11.2695C 154.297 10.5547 154.502 9.63477 154.772 8.50977C 155.041 7.36133 155.241 6.44727 155.37 5.76758C 155.51 5.07617 155.58 4.47852 155.58 3.97461C 155.58 2.74414 155.147 2.12891 154.28 2.12891C 153.67 2.12891 153.108 2.45117 152.592 3.0957C 152.159 3.64648 151.784 4.43164 151.467 5.45117L 149.024 17L 143.838 17L 146.475 4.57227C 146.545 4.29102 146.58 3.99219 146.58 3.67578C 146.58 3.19531 146.504 2.82617 146.352 2.56836C 146.153 2.25195 145.866 2.09375 145.491 2.09375C 144.811 2.09375 144.219 2.42187 143.715 3.07812C 143.27 3.64062 142.889 4.43164 142.573 5.45117L 140.129 17L 134.944 17L 138.758 -1L 143.944 -1L 143.557 0.863281C 144.26 0.078125 145.028 -0.478516 145.86 -0.806641C 146.516 -1.05273 147.213 -1.17578 147.952 -1.17578C 148.959 -1.17578 149.762 -0.941406 150.36 -0.472656C 151.028 0.0546875 151.455 0.851563 151.643 1.91797C 152.416 0.722656 153.307 -0.121094 154.315 -0.613281C 155.03 -0.964844 155.809 -1.14062 156.653 -1.14062C 157.86 -1.14062 158.815 -0.824219 159.518 -0.191406C 160.268 0.5 160.643 1.53711 160.643 2.91992C 160.643 3.70508 160.496 4.78906 160.204 6.17188C 160.086 6.74609 159.946 7.32617 159.782 7.91211C 159.489 9.03711 159.248 10.0742 159.061 11.0234C 158.967 11.5156 158.92 11.9141 158.92 12.2188C 158.92 12.6992 159.026 13.0742 159.237 13.3438C 159.459 13.6016 159.834 13.7305 160.362 13.7305C 161.077 13.7305 161.68 13.4375 162.172 12.8516C 162.547 12.4062 162.952 11.6387 163.385 10.5488L 164.897 10.5488C 164.006 13.1855 162.881 15.0312 161.522 16.0859C 160.561 16.8359 159.454 17.2109 158.2 17.2109ZM 178.246 17.2109C 176.863 17.2109 175.796 16.8242 175.046 16.0508C 174.707 15.7109 174.449 15.3125 174.273 14.8555C 174.097 14.3867 174.009 13.9004 174.009 13.3965C 174.009 12.9512 174.074 12.3477 174.203 11.5859C 174.343 10.8242 174.554 9.74609 174.836 8.35156L 170.845 8.35156L 169 17L 163.814 17L 167.629 -1L 172.814 -1L 171.267 6.20703L 175.293 6.20703L 176.927 -1L 181.744 -1L 179.845 7.92969L 179.212 10.707C 179.048 11.4336 178.966 11.9375 178.966 12.2188C 178.966 13.2266 179.447 13.7305 180.408 13.7305C 180.771 13.7305 181.087 13.6719 181.357 13.5547C 181.627 13.4258 181.879 13.2266 182.113 12.957C 182.324 12.7109 182.523 12.4062 182.711 12.043C 182.91 11.6797 183.15 11.1816 183.431 10.5488L 184.943 10.5488C 183.431 14.9902 181.199 17.2109 178.246 17.2109ZM 190.171 17.2109C 188.53 17.2109 187.259 16.8066 186.356 15.998C 185.466 15.1895 185.02 14.0586 185.02 12.6055C 185.02 11.8203 185.102 11.1348 185.266 10.5488L 187.639 -1L 192.614 -1L 189.942 11.6738C 189.872 11.8379 189.837 12.043 189.837 12.2891C 189.837 12.5234 189.837 12.6523 189.837 12.6758C 189.837 13.6602 190.376 14.1523 191.454 14.1523C 191.934 14.1523 192.409 14 192.878 13.6953C 193.346 13.3789 193.762 12.9512 194.126 12.4121C 194.489 11.8613 194.776 11.2227 194.987 10.4961C 195.198 9.75781 195.304 8.98438 195.304 8.17578C 195.304 7.60156 195.128 7.14453 194.776 6.80469C 194.471 7.02734 194.12 7.13867 193.721 7.13867C 193.534 7.13867 193.346 7.10938 193.159 7.05078C 192.971 6.98047 192.807 6.88672 192.667 6.76953C 192.315 6.47656 192.139 6.08398 192.139 5.5918C 192.139 5.07617 192.356 4.66016 192.79 4.34375C 193.165 4.07422 193.622 3.93945 194.161 3.93945C 194.712 3.93945 195.204 4.00977 195.637 4.15039C 196.446 3.78711 197.208 3.41211 197.923 3.02539C 198.637 2.63867 199.434 2.18164 200.313 1.6543C 200.43 1.58398 200.565 1.50195 200.718 1.4082C 200.882 1.31445 201.057 1.20898 201.245 1.0918C 202.581 0.271484 203.794 -0.425781 204.884 -1L 207.116 -1L 205.218 7.92969L 204.585 10.707C 204.421 11.4336 204.339 11.9375 204.339 12.2188C 204.339 13.2266 204.819 13.7305 205.78 13.7305C 206.143 13.7305 206.46 13.6719 206.729 13.5547C 206.999 13.4258 207.251 13.2266 207.485 12.957C 207.696 12.7109 207.895 12.4062 208.083 12.043C 208.282 11.6797 208.522 11.1816 208.804 10.5488L 210.315 10.5488C 208.804 14.9902 206.589 17.2109 203.671 17.2109C 202.288 17.2109 201.21 16.8125 200.436 16.0156C 200.096 15.6758 199.839 15.2715 199.663 14.8027C 199.499 14.334 199.417 13.8301 199.417 13.291C 199.417 13.1621 199.423 13.0508 199.434 12.957C 199.47 12.6289 199.499 12.418 199.522 12.3242C 199.604 11.7266 199.78 10.7656 200.05 9.44141C 200.296 8.1875 200.747 6.08984 201.403 3.14844C 200.173 3.92188 198.825 4.70117 197.36 5.48633C 197.934 6.37695 198.221 7.57227 198.221 9.07227C 198.221 9.58789 198.151 10.1504 198.011 10.7598C 197.87 11.3574 197.665 11.9434 197.395 12.5176C 196.739 13.8887 195.866 14.9727 194.776 15.7695C 193.44 16.7305 191.905 17.2109 190.171 17.2109ZM 219.973 -2.75781C 218.484 -2.75781 217.33 -3.0332 216.51 -3.58398C 215.701 -4.13477 215.297 -4.89062 215.297 -5.85156C 215.297 -6.63672 215.514 -7.26953 215.947 -7.75C 216.381 -8.24219 216.967 -8.48828 217.705 -8.48828C 218.408 -8.48828 218.953 -8.31836 219.34 -7.97852C 219.738 -7.65039 219.938 -7.16992 219.938 -6.53711C 219.938 -6.25586 219.896 -6.00391 219.814 -5.78125C 219.662 -5.35938 219.416 -5.03711 219.076 -4.81445C 219.357 -4.7207 219.838 -4.67383 220.518 -4.67383C 221.666 -4.67383 222.686 -4.9668 223.576 -5.55273C 224.643 -6.24414 225.475 -7.35742 226.072 -8.89258L 227.584 -8.89258C 226.799 -6.63086 225.75 -5.01367 224.438 -4.04102C 223.277 -3.18555 221.789 -2.75781 219.973 -2.75781ZM 214.189 17.2109C 213.041 17.2109 212.133 16.8711 211.465 16.1914C 210.715 15.4414 210.34 14.3457 210.34 12.9043C 210.34 12.2246 210.434 11.4395 210.621 10.5488L 213.064 -1L 218.25 -1L 215.666 11.2344C 215.596 11.5977 215.561 11.9375 215.561 12.2539C 215.561 13.2383 215.918 13.7305 216.633 13.7305C 217.289 13.7305 217.881 13.4316 218.408 12.834C 218.83 12.3301 219.199 11.5684 219.516 10.5488L 221.959 -1L 227.145 -1L 224.561 11.2344C 224.455 11.5859 224.402 11.9727 224.402 12.3945C 224.402 12.8867 224.52 13.2324 224.754 13.4316C 224.988 13.6309 225.363 13.7305 225.879 13.7305C 226.547 13.7305 227.145 13.4316 227.672 12.834C 228.141 12.3066 228.516 11.5449 228.797 10.5488L 230.309 10.5488C 229.664 12.377 228.885 13.8242 227.971 14.8906C 227.197 15.7695 226.324 16.4023 225.352 16.7891C 224.637 17.0703 223.881 17.2109 223.084 17.2109C 222.053 17.2109 221.232 16.9238 220.623 16.3496C 220.014 15.7754 219.645 14.9258 219.516 13.8008C 218.695 15.1133 217.77 16.0508 216.738 16.6133C 216 17.0117 215.15 17.2109 214.189 17.2109ZM 23.2 30.8L 23.2 52L 16.2 52L 16.2 36.2L 9 36.2L 9 52L 2 52L 2 30.8L 23.2 30.8ZM 50.7953 46C 50.7953 48 50.222 49.5733 49.0753 50.72C 47.9553 51.84 46.3953 52.4 44.3953 52.4L 35.1953 52.4C 33.1953 52.4 31.622 51.84 30.4753 50.72C 29.3553 49.5733 28.7953 48 28.7953 46L 28.7953 36.8C 28.7953 34.8 29.3553 33.24 30.4753 32.12C 31.622 30.9733 33.1953 30.4 35.1953 30.4L 44.3953 30.4C 46.3953 30.4 47.9553 30.9733 49.0753 32.12C 50.222 33.24 50.7953 34.8 50.7953 36.8L 50.7953 46ZM 43.7953 37.4C 43.7953 36.3333 43.262 35.8 42.1953 35.8L 37.3953 35.8C 36.3286 35.8 35.7953 36.3333 35.7953 37.4L 35.7953 45.4C 35.7953 46.4667 36.3286 47 37.3953 47L 42.1953 47C 43.262 47 43.7953 46.4667 43.7953 45.4L 43.7953 37.4ZM 58.7906 52.4C 57.644 52.4 56.3106 52.2667 54.7906 52L 54.7906 46.8L 56.3906 46.8C 57.404 46.8 57.9373 46.2667 57.9906 45.2L 58.7906 30.8L 77.9906 30.8L 77.9906 52L 70.9906 52L 70.9906 36.2L 65.3906 36.2L 64.7906 46.4C 64.684 48.2133 64.084 49.6667 62.9906 50.76C 61.8973 51.8533 60.4973 52.4 58.7906 52.4ZM 93.9766 44L 90.9766 44L 90.9766 52L 83.9766 52L 83.9766 30.8L 90.9766 30.8L 90.9766 38.6L 94.1766 38.6L 96.3766 34.2C 97.1766 32.4933 98.4299 31.3333 100.137 30.72C 100.75 30.5067 101.337 30.4 101.897 30.4C 102.803 30.4 103.63 30.4667 104.377 30.6L 105.377 30.8L 105.377 36.2L 103.977 36.2C 103.07 36.2 102.403 36.6 101.977 37.4L 99.9766 41.4L 105.977 52L 98.3766 52L 93.9766 44Z"/>
<path id="path1_fill" d="M 37 0L 47.5956 22.4164L 72.1891 25.5664L 54.1441 42.5705L 58.7481 66.9336L 37 55.0264L 15.2519 66.9336L 19.8559 42.5705L 1.81091 25.5664L 26.4044 22.4164L 37 0Z"/>
</defs>
</svg>
