<svg width="287" height="137" viewBox="0 0 287 137" version="1.1" xmlns="http://www.w3.org/2000/svg" xmlns:xlink="http://www.w3.org/1999/xlink" xmlns:figma="http://www.figma.com/figma/ns">
<title>Group</title>
<desc>Created using Figma</desc>
<g id="Canvas" transform="translate(-30753 8720)" figma:type="canvas">
<g id="Group" figma:type="frame">
<g id="9&#208;&#188;&#208;&#176;&#209;&#143;" figma:type="text">
<use xlink:href="#path0_fill" transform="translate(30742 -8729)" fill="#C1001F"/>
</g>
<g id="&#208;&#159;&#208;&#176;&#208;&#188;&#209;&#143;&#209;&#130;&#208;&#189;&#209;&#139;&#208;&#181; &#209;&#132;&#209;&#131;&#209;&#130;&#208;&#177;&#208;&#190;&#208;&#187;&#208;&#186;&#208;&#184;, &#209;&#129;&#208;&#178;&#208;&#184;&#209;&#130;&#209;&#136;&#208;&#190;&#209;&#130;&#209;&#139;, &#209;&#133;&#209;&#131;&#208;&#180;&#208;&#184;" figma:type="text">
<use xlink:href="#path1_fill" transform="translate(30741 -8611)" fill="#581419"/>
</g>
<g id="Rectangle 35" figma:type="rounded-rectangle">
<use xlink:href="#path2_fill" transform="translate(30761 -8642)" fill="#581419"/>
</g>
<g id="&#208;&#145;&#208;&#181;&#209;&#129;&#209;&#129;&#208;&#188;&#208;&#181;&#209;&#128;&#209;&#130;&#208;&#189;&#209;&#139;&#208;&#185; &#208;&#191;&#208;&#190;&#208;&#187;&#208;&#186;" figma:type="text">
<use xlink:href="#path3_fill" transform="translate(30761 -8642)" fill="#FFFFFF"/>
</g>
<g id="&#208;&#154;&#208;&#176;&#209;&#129;&#209;&#130;&#208;&#190;&#208;&#188;&#208;&#184;&#208;&#183;&#208;&#184;&#209;&#128;&#208;&#190;&#208;&#178;&#208;&#176;&#208;&#189;&#208;&#189;&#208;&#176;&#209;&#143; &#208;&#190;&#208;&#180;&#208;&#181;&#208;&#182;&#208;&#180;&#208;&#176; &#208;&#186;" figma:type="text">
<use xlink:href="#path4_fill" transform="translate(30807 -8726)" fill="#581419"/>
</g>
</g>
</g>
<defs>
<path id="path0_fill" d="M 35.8168 57.688L 35.3368 58.264L 19.3048 79L 47.0488 79L 62.6008 57.208C 67.1128 50.968 71.0488 43.384 71.0488 34.84C 71.0488 17.368 57.1287 9.112 41.2888 9.112C 25.4488 9.112 11.5288 17.944 11.5288 35.032C 11.5288 49.528 23.0488 57.688 34.7608 57.688L 35.8168 57.688ZM 41.2888 41.56C 36.9688 41.56 34.0888 38.584 34.0888 34.744C 34.0888 30.808 36.9688 27.736 41.2888 27.736C 45.4168 27.736 48.2968 30.808 48.2968 34.744C 48.2968 38.584 45.4168 41.56 41.2888 41.56ZM 88.6355 79L 108.315 79L 108.315 50.488L 108.604 50.488L 117.916 79L 131.739 79L 141.148 50.584L 141.628 50.68L 141.628 79L 161.883 79L 161.883 28.504L 133.756 28.504L 125.788 55.672L 125.5 55.672L 116.38 28.504L 88.6355 28.504L 88.6355 79ZM 195.689 80.344C 200.105 80.344 205.577 78.808 208.073 74.968L 208.265 74.968L 208.265 79L 228.329 79L 228.329 52.408C 228.329 38.2 223.241 26.584 204.041 26.584C 195.113 26.584 186.089 29.944 180.041 35.8L 191.081 46.744C 193.865 44.44 197.705 42.424 201.737 42.424C 205.193 42.424 207.497 43.864 207.497 46.936L 207.497 47.128C 194.153 47.128 178.121 50.008 178.121 64.12C 178.121 76.12 187.817 80.344 195.689 80.344ZM 201.929 67C 199.817 67 196.841 65.848 196.841 63.064C 196.841 59.224 201.161 58.072 207.689 58.072L 208.937 58.072L 208.937 59.8C 208.937 64.024 206.153 67 201.929 67ZM 241.944 79L 267 79L 273.336 64.024L 275.352 64.024L 275.352 79L 297.624 79L 297.624 28.504L 265.368 28.504C 254.712 28.504 243.864 33.496 243.864 46.456C 243.864 54.424 247.512 59.032 252.696 61.528L 241.944 79ZM 270.84 51.16C 267.576 51.16 264.696 50.2 264.696 46.36C 264.696 43 267.768 41.656 270.84 41.656L 276.504 41.656L 276.504 51.16L 270.84 51.16Z"/>
<path id="path1_fill" d="M 35.1648 25L 33.8455 25L 33.8455 16.127L 28.9373 16.127L 28.9373 25L 27.6248 25L 27.6248 15.0469L 35.1648 15.0469L 35.1648 25ZM 42.6256 25C 42.5527 24.8542 42.4934 24.5944 42.4478 24.2207C 41.86 24.8314 41.1581 25.1367 40.3424 25.1367C 39.6132 25.1367 39.0139 24.9316 38.5445 24.5215C 38.0797 24.1068 37.8473 23.5827 37.8473 22.9492C 37.8473 22.179 38.1389 21.582 38.7223 21.1582C 39.3102 20.7298 40.135 20.5156 41.1969 20.5156L 42.4273 20.5156L 42.4273 19.9346C 42.4273 19.4925 42.2952 19.1416 42.0309 18.8818C 41.7665 18.6175 41.3769 18.4854 40.8619 18.4854C 40.4107 18.4854 40.0325 18.5993 39.7271 18.8271C 39.4218 19.055 39.2691 19.3307 39.2691 19.6543L 37.9977 19.6543C 37.9977 19.2852 38.1275 18.9297 38.3873 18.5879C 38.6516 18.2415 39.0071 17.9681 39.4537 17.7676C 39.9049 17.5671 40.3993 17.4668 40.9371 17.4668C 41.7893 17.4668 42.457 17.681 42.94 18.1094C 43.4231 18.5332 43.6738 19.1188 43.692 19.8662L 43.692 23.2705C 43.692 23.9495 43.7786 24.4896 43.9518 24.8906L 43.9518 25L 42.6256 25ZM 40.527 24.0361C 40.9234 24.0361 41.2994 23.9336 41.6549 23.7285C 42.0103 23.5234 42.2678 23.2568 42.4273 22.9287L 42.4273 21.4111L 41.4361 21.4111C 39.8867 21.4111 39.1119 21.8646 39.1119 22.7715C 39.1119 23.168 39.2441 23.4779 39.5084 23.7012C 39.7727 23.9245 40.1122 24.0361 40.527 24.0361ZM 50.6332 23.3252L 53.1488 17.6035L 54.7279 17.6035L 54.7279 25L 53.4633 25L 53.4633 19.6201L 51.0707 25L 50.1957 25L 47.7553 19.5039L 47.7553 25L 46.4906 25L 46.4906 17.6035L 48.1312 17.6035L 50.6332 23.3252ZM 63.1184 17.6035L 63.1184 25L 61.8469 25L 61.8469 22.1221L 59.9396 22.1221L 58.1965 25L 56.8293 25L 58.6887 21.9307C 58.2147 21.7575 57.8501 21.4909 57.5949 21.1309C 57.3443 20.7663 57.2189 20.3424 57.2189 19.8594C 57.2189 19.1849 57.4719 18.6426 57.9777 18.2324C 58.4836 17.8177 59.1603 17.6081 60.008 17.6035L 63.1184 17.6035ZM 58.4904 19.873C 58.4904 20.2331 58.6135 20.5247 58.8596 20.748C 59.1057 20.9668 59.4315 21.0785 59.8371 21.083L 61.8469 21.083L 61.8469 18.6289L 60.0285 18.6289C 59.5591 18.6289 59.1854 18.7451 58.9074 18.9775C 58.6294 19.2054 58.4904 19.5039 58.4904 19.873ZM 71.3447 18.6289L 68.8633 18.6289L 68.8633 25L 67.5986 25L 67.5986 18.6289L 65.165 18.6289L 65.165 17.6035L 71.3447 17.6035L 71.3447 18.6289ZM 79.3182 25L 78.0535 25L 78.0535 21.8418L 74.6561 21.8418L 74.6561 25L 73.3846 25L 73.3846 17.6035L 74.6561 17.6035L 74.6561 20.8096L 78.0535 20.8096L 78.0535 17.6035L 79.3182 17.6035L 79.3182 25ZM 83.4361 20.1533L 85.357 20.1533C 86.1956 20.1624 86.8587 20.3812 87.3463 20.8096C 87.8339 21.238 88.0777 21.819 88.0777 22.5527C 88.0777 23.291 87.8271 23.8835 87.3258 24.3301C 86.8245 24.7767 86.15 25 85.3023 25L 82.1715 25L 82.1715 17.6035L 83.4361 17.6035L 83.4361 20.1533ZM 90.7164 25L 89.4449 25L 89.4449 17.6035L 90.7164 17.6035L 90.7164 25ZM 83.4361 21.1855L 83.4361 23.9678L 85.316 23.9678C 85.79 23.9678 86.1568 23.847 86.4166 23.6055C 86.6764 23.3594 86.8062 23.0244 86.8062 22.6006C 86.8062 22.1904 86.6786 21.8555 86.4234 21.5957C 86.1728 21.3314 85.8196 21.1947 85.3639 21.1855L 83.4361 21.1855ZM 96.6937 25.1367C 95.6911 25.1367 94.8754 24.8086 94.2465 24.1523C 93.6176 23.4915 93.3031 22.6097 93.3031 21.5068L 93.3031 21.2744C 93.3031 20.5407 93.4421 19.8867 93.7201 19.3125C 94.0027 18.7337 94.3946 18.2826 94.8959 17.959C 95.4018 17.6309 95.9486 17.4668 96.5365 17.4668C 97.4981 17.4668 98.2455 17.7835 98.7787 18.417C 99.3119 19.0505 99.5785 19.9574 99.5785 21.1377L 99.5785 21.6641L 94.5678 21.6641C 94.586 22.3932 94.7979 22.9834 95.2035 23.4346C 95.6137 23.8812 96.1332 24.1045 96.7621 24.1045C 97.2087 24.1045 97.587 24.0133 97.8969 23.8311C 98.2068 23.6488 98.4779 23.4072 98.7104 23.1064L 99.4828 23.708C 98.863 24.6605 97.9333 25.1367 96.6937 25.1367ZM 96.5365 18.5059C 96.0261 18.5059 95.5977 18.6927 95.2514 19.0664C 94.905 19.4355 94.6908 19.9551 94.6088 20.625L 98.3139 20.625L 98.3139 20.5293C 98.2774 19.8867 98.1042 19.39 97.7943 19.0391C 97.4844 18.6836 97.0652 18.5059 96.5365 18.5059ZM 105.647 21.4385C 105.647 20.2035 105.887 19.2327 106.365 18.5264C 106.844 17.82 107.5 17.4668 108.334 17.4668C 108.721 17.4668 109.061 17.5329 109.353 17.665L 109.353 14.5L 110.617 14.5L 110.617 17.7061C 110.936 17.5465 111.31 17.4668 111.738 17.4668C 112.577 17.4668 113.235 17.82 113.714 18.5264C 114.192 19.2327 114.432 20.2513 114.432 21.582C 114.432 22.6712 114.192 23.5371 113.714 24.1797C 113.24 24.8223 112.586 25.1436 111.752 25.1436C 111.31 25.1436 110.932 25.0706 110.617 24.9248L 110.617 27.8438L 109.353 27.8438L 109.353 24.9453C 109.052 25.0775 108.708 25.1436 108.32 25.1436C 107.491 25.1436 106.837 24.8223 106.358 24.1797C 105.884 23.5371 105.647 22.6576 105.647 21.541L 105.647 21.4385ZM 113.167 21.4385C 113.167 20.5088 113.007 19.7887 112.688 19.2783C 112.369 18.7633 111.93 18.5059 111.369 18.5059C 111.082 18.5059 110.831 18.5514 110.617 18.6426L 110.617 23.9951C 110.822 24.0726 111.077 24.1113 111.383 24.1113C 111.948 24.1113 112.385 23.8926 112.695 23.4551C 113.01 23.0176 113.167 22.3454 113.167 21.4385ZM 106.912 21.582C 106.912 22.4115 107.06 23.0404 107.356 23.4688C 107.653 23.8971 108.079 24.1113 108.635 24.1113C 108.899 24.1113 109.138 24.0703 109.353 23.9883L 109.353 18.6221C 109.161 18.5446 108.926 18.5059 108.648 18.5059C 108.092 18.5059 107.664 18.7542 107.363 19.251C 107.062 19.7477 106.912 20.5247 106.912 21.582ZM 119.117 23.1475L 120.84 17.6035L 122.193 17.6035L 119.22 26.1416C 118.759 27.3721 118.028 27.9873 117.025 27.9873L 116.786 27.9668L 116.314 27.8779L 116.314 26.8525L 116.656 26.8799C 117.084 26.8799 117.417 26.7933 117.654 26.6201C 117.896 26.4469 118.094 26.1302 118.249 25.6699L 118.529 24.918L 115.89 17.6035L 117.271 17.6035L 119.117 23.1475ZM 129.524 18.6289L 127.043 18.6289L 127.043 25L 125.778 25L 125.778 18.6289L 123.344 18.6289L 123.344 17.6035L 129.524 17.6035L 129.524 18.6289ZM 134.702 18.0273C 135.631 18.0273 136.374 18.3395 136.93 18.9639C 137.491 19.5837 137.771 20.4017 137.771 21.418L 137.771 21.5342C 137.771 22.2314 137.636 22.8558 137.368 23.4072C 137.099 23.9541 136.711 24.3802 136.205 24.6855C 135.704 24.9863 135.125 25.1367 134.469 25.1367C 133.476 25.1367 132.676 24.8063 132.07 24.1455C 131.464 23.4801 131.161 22.5892 131.161 21.4727L 131.161 20.8574C 131.161 19.3034 131.448 18.0684 132.022 17.1523C 132.601 16.2363 133.453 15.6781 134.579 15.4775C 135.217 15.3636 135.647 15.2246 135.87 15.0605C 136.094 14.8965 136.205 14.6709 136.205 14.3838L 137.245 14.3838C 137.245 14.9535 137.115 15.3978 136.855 15.7168C 136.6 16.0358 136.19 16.2614 135.624 16.3936L 134.681 16.6055C 133.929 16.7832 133.364 17.084 132.986 17.5078C 132.612 17.9271 132.368 18.4876 132.254 19.1895C 132.924 18.4147 133.74 18.0273 134.702 18.0273ZM 134.455 19.0664C 133.836 19.0664 133.343 19.276 132.979 19.6953C 132.614 20.11 132.432 20.6865 132.432 21.4248L 132.432 21.5342C 132.432 22.3271 132.614 22.9561 132.979 23.4209C 133.348 23.8812 133.845 24.1113 134.469 24.1113C 135.098 24.1113 135.595 23.8789 135.959 23.4141C 136.324 22.9492 136.506 22.2702 136.506 21.377C 136.506 20.6797 136.322 20.1214 135.953 19.7021C 135.588 19.2783 135.089 19.0664 134.455 19.0664ZM 139.558 21.2334C 139.558 20.5088 139.699 19.8571 139.982 19.2783C 140.269 18.6995 140.665 18.2529 141.171 17.9385C 141.681 17.624 142.263 17.4668 142.914 17.4668C 143.921 17.4668 144.735 17.8154 145.355 18.5127C 145.979 19.21 146.291 20.1374 146.291 21.2949L 146.291 21.3838C 146.291 22.1038 146.152 22.751 145.874 23.3252C 145.601 23.8949 145.207 24.3392 144.692 24.6582C 144.181 24.9772 143.593 25.1367 142.928 25.1367C 141.925 25.1367 141.112 24.7881 140.487 24.0908C 139.868 23.3936 139.558 22.4707 139.558 21.3223L 139.558 21.2334ZM 140.829 21.3838C 140.829 22.2041 141.018 22.8626 141.397 23.3594C 141.779 23.8561 142.29 24.1045 142.928 24.1045C 143.57 24.1045 144.081 23.8538 144.459 23.3525C 144.837 22.8467 145.027 22.1403 145.027 21.2334C 145.027 20.4222 144.833 19.766 144.445 19.2646C 144.063 18.7588 143.552 18.5059 142.914 18.5059C 142.29 18.5059 141.786 18.7542 141.404 19.251C 141.021 19.7477 140.829 20.4587 140.829 21.3838ZM 154.531 17.6035L 154.531 25L 153.26 25L 153.26 18.6494L 150.744 18.6494L 150.594 21.418C 150.512 22.6895 150.298 23.5986 149.951 24.1455C 149.609 24.6924 149.065 24.9772 148.317 25L 147.812 25L 147.812 23.8857L 148.174 23.8584C 148.584 23.8128 148.878 23.5758 149.056 23.1475C 149.233 22.7191 149.347 21.9261 149.397 20.7686L 149.534 17.6035L 154.531 17.6035ZM 159.565 21.8486L 158.642 21.8486L 158.642 25L 157.371 25L 157.371 17.6035L 158.642 17.6035L 158.642 20.7344L 159.47 20.7344L 161.958 17.6035L 163.489 17.6035L 160.563 21.1582L 163.735 25L 162.129 25L 159.565 21.8486ZM 170.307 17.6035L 171.572 17.6035L 171.572 25L 170.307 25L 170.307 19.6064L 166.896 25L 165.631 25L 165.631 17.6035L 166.896 17.6035L 166.896 23.0039L 170.307 17.6035ZM 174.261 26.9824L 173.543 26.4902C 173.972 25.8932 174.195 25.278 174.213 24.6445L 174.213 23.5029L 175.451 23.5029L 175.451 24.4941C 175.451 24.9544 175.337 25.4147 175.109 25.875C 174.885 26.3353 174.603 26.7044 174.261 26.9824ZM 184.89 24.1045C 185.341 24.1045 185.735 23.9678 186.072 23.6943C 186.41 23.4209 186.596 23.0791 186.633 22.6689L 187.829 22.6689C 187.806 23.0928 187.66 23.4961 187.392 23.8789C 187.123 24.2617 186.763 24.5671 186.312 24.7949C 185.865 25.0228 185.391 25.1367 184.89 25.1367C 183.882 25.1367 183.08 24.8018 182.483 24.1318C 181.891 23.4574 181.595 22.5368 181.595 21.3701L 181.595 21.1582C 181.595 20.4382 181.727 19.7979 181.991 19.2373C 182.256 18.6768 182.634 18.2415 183.126 17.9316C 183.623 17.6217 184.208 17.4668 184.883 17.4668C 185.712 17.4668 186.4 17.7152 186.947 18.2119C 187.499 18.7087 187.793 19.3535 187.829 20.1465L 186.633 20.1465C 186.596 19.668 186.414 19.276 186.086 18.9707C 185.762 18.6608 185.361 18.5059 184.883 18.5059C 184.24 18.5059 183.741 18.7383 183.386 19.2031C 183.035 19.6634 182.859 20.3311 182.859 21.2061L 182.859 21.4453C 182.859 22.2975 183.035 22.9538 183.386 23.4141C 183.737 23.8743 184.238 24.1045 184.89 24.1045ZM 190.067 25L 190.067 17.6035L 192.952 17.6035C 193.936 17.6035 194.691 17.7767 195.215 18.123C 195.743 18.4648 196.008 18.9684 196.008 19.6338C 196.008 19.9756 195.905 20.2855 195.7 20.5635C 195.495 20.8369 195.192 21.0465 194.791 21.1924C 195.237 21.2972 195.595 21.5023 195.864 21.8076C 196.137 22.113 196.274 22.4775 196.274 22.9014C 196.274 23.5804 196.024 24.0999 195.522 24.46C 195.026 24.82 194.321 25 193.41 25L 190.067 25ZM 191.332 21.7529L 191.332 23.9814L 193.424 23.9814C 193.952 23.9814 194.346 23.8835 194.606 23.6875C 194.871 23.4915 195.003 23.2158 195.003 22.8604C 195.003 22.1221 194.46 21.7529 193.376 21.7529L 191.332 21.7529ZM 191.332 20.7412L 192.966 20.7412C 194.151 20.7412 194.743 20.3949 194.743 19.7021C 194.743 19.0094 194.182 18.6517 193.061 18.6289L 191.332 18.6289L 191.332 20.7412ZM 203.434 17.6035L 204.699 17.6035L 204.699 25L 203.434 25L 203.434 19.6064L 200.023 25L 198.758 25L 198.758 17.6035L 200.023 17.6035L 200.023 23.0039L 203.434 17.6035ZM 212.925 18.6289L 210.444 18.6289L 210.444 25L 209.179 25L 209.179 18.6289L 206.745 18.6289L 206.745 17.6035L 212.925 17.6035L 212.925 18.6289ZM 216.237 17.6035L 216.237 23.9678L 218.944 23.9678L 218.944 17.6035L 220.208 17.6035L 220.208 23.9678L 222.908 23.9678L 222.908 17.6035L 224.18 17.6035L 224.18 25L 214.965 25L 214.965 17.6035L 216.237 17.6035ZM 226.541 21.2334C 226.541 20.5088 226.682 19.8571 226.965 19.2783C 227.252 18.6995 227.648 18.2529 228.154 17.9385C 228.665 17.624 229.246 17.4668 229.897 17.4668C 230.905 17.4668 231.718 17.8154 232.338 18.5127C 232.962 19.21 233.274 20.1374 233.274 21.2949L 233.274 21.3838C 233.274 22.1038 233.135 22.751 232.857 23.3252C 232.584 23.8949 232.19 24.3392 231.675 24.6582C 231.164 24.9772 230.576 25.1367 229.911 25.1367C 228.909 25.1367 228.095 24.7881 227.471 24.0908C 226.851 23.3936 226.541 22.4707 226.541 21.3223L 226.541 21.2334ZM 227.812 21.3838C 227.812 22.2041 228.002 22.8626 228.38 23.3594C 228.763 23.8561 229.273 24.1045 229.911 24.1045C 230.554 24.1045 231.064 23.8538 231.442 23.3525C 231.821 22.8467 232.01 22.1403 232.01 21.2334C 232.01 20.4222 231.816 19.766 231.429 19.2646C 231.046 18.7588 230.535 18.5059 229.897 18.5059C 229.273 18.5059 228.77 18.7542 228.387 19.251C 228.004 19.7477 227.812 20.4587 227.812 21.3838ZM 240.906 18.6289L 238.425 18.6289L 238.425 25L 237.16 25L 237.16 18.6289L 234.726 18.6289L 234.726 17.6035L 240.906 17.6035L 240.906 18.6289ZM 244.217 20.1533L 246.138 20.1533C 246.977 20.1624 247.64 20.3812 248.128 20.8096C 248.615 21.238 248.859 21.819 248.859 22.5527C 248.859 23.291 248.608 23.8835 248.107 24.3301C 247.606 24.7767 246.931 25 246.084 25L 242.953 25L 242.953 17.6035L 244.217 17.6035L 244.217 20.1533ZM 251.498 25L 250.226 25L 250.226 17.6035L 251.498 17.6035L 251.498 25ZM 244.217 21.1855L 244.217 23.9678L 246.097 23.9678C 246.571 23.9678 246.938 23.847 247.198 23.6055C 247.458 23.3594 247.587 23.0244 247.587 22.6006C 247.587 22.1904 247.46 21.8555 247.205 21.5957C 246.954 21.3314 246.601 21.1947 246.145 21.1855L 244.217 21.1855ZM 254.365 26.9824L 253.647 26.4902C 254.075 25.8932 254.299 25.278 254.317 24.6445L 254.317 23.5029L 255.554 23.5029L 255.554 24.4941C 255.554 24.9544 255.44 25.4147 255.212 25.875C 254.989 26.3353 254.706 26.7044 254.365 26.9824ZM 264.508 20.3037L 266.148 17.6035L 267.625 17.6035L 265.205 21.2607L 267.7 25L 266.237 25L 264.528 22.2314L 262.819 25L 261.35 25L 263.845 21.2607L 261.425 17.6035L 262.888 17.6035L 264.508 20.3037ZM 272.092 23.1475L 273.814 17.6035L 275.168 17.6035L 272.194 26.1416C 271.734 27.3721 271.002 27.9873 270 27.9873L 269.761 27.9668L 269.289 27.8779L 269.289 26.8525L 269.631 26.8799C 270.059 26.8799 270.392 26.7933 270.629 26.6201C 270.87 26.4469 271.069 26.1302 271.223 25.6699L 271.504 24.918L 268.865 17.6035L 270.246 17.6035L 272.092 23.1475ZM 276.558 23.9678L 276.996 23.4277C 277.488 22.7897 277.768 21.8327 277.837 20.5566L 277.953 17.6035L 282.717 17.6035L 282.717 23.9678L 283.668 23.9678L 283.668 27.1738L 282.403 27.1738L 282.403 25L 277.242 25L 277.242 27.1738L 275.977 27.1738L 275.984 23.9678L 276.558 23.9678ZM 278.055 23.9678L 281.453 23.9678L 281.453 18.7725L 279.176 18.7725L 279.101 20.5361C 279.024 22.0081 278.675 23.152 278.055 23.9678ZM 290.554 17.6035L 291.819 17.6035L 291.819 25L 290.554 25L 290.554 19.6064L 287.143 25L 285.878 25L 285.878 17.6035L 287.143 17.6035L 287.143 23.0039L 290.554 17.6035Z"/>
<path id="path2_fill" d="M 0 0L 278 0L 278 31L 0 31L 0 0Z"/>
<path id="path3_fill" d="M 35.4156 23.4102C 34.8844 23.4102 34.4352 23.3242 34.068 23.1523C 33.7086 22.9805 33.4352 22.7422 33.2477 22.4375C 33.068 22.1406 32.9781 21.8047 32.9781 21.4297C 32.9781 21.0312 33.0641 20.6328 33.2359 20.2344C 33.4781 20.5469 33.7281 20.7695 33.9859 20.9023C 34.2516 21.0352 34.5367 21.1016 34.8414 21.1016C 35.2633 21.1016 35.6266 20.9766 35.9313 20.7266C 36.2359 20.4688 36.4898 20.1211 36.693 19.6836C 36.8727 19.293 37.0055 18.8555 37.0914 18.3711C 37.1773 17.8789 37.2203 17.3906 37.2203 16.9062C 37.2203 15.9844 37.0602 15.2852 36.7398 14.8086C 36.357 14.2383 35.7555 13.9531 34.9352 13.9531C 34.4898 13.9531 34.107 14.0313 33.7867 14.1875L 31.8883 23L 28.4313 23L 31.8883 6.96875C 31.3961 6.98438 30.9625 7.07813 30.5875 7.25C 30.2203 7.41406 29.9039 7.67578 29.6383 8.03516C 29.0602 8.82422 28.7711 10.125 28.7711 11.9375C 28.7711 12.4531 28.8297 12.8516 28.9469 13.1328C 28.9781 13.2344 29.0172 13.3242 29.0641 13.4023C 29.0953 13.457 29.1109 13.5117 29.1109 13.5664C 28.2516 13.5664 27.6148 13.3945 27.2008 13.0508C 26.7633 12.6836 26.5445 12.0781 26.5445 11.2344C 26.5445 10.4063 26.6969 9.62109 27.0016 8.87891C 27.3141 8.13672 27.7867 7.48438 28.4195 6.92188C 29.0992 6.3125 29.9625 5.83984 31.0094 5.50391C 32.0563 5.16797 33.2945 5 34.7242 5C 35.0055 5 35.3063 5.01563 35.6266 5.04688L 36.2008 5.09375C 37.3102 5.1875 37.943 5.23828 38.0992 5.24609C 38.5055 5.27734 38.9469 5.29297 39.4234 5.29297C 40.2594 5.29297 40.982 5.19531 41.5914 5C 41.5758 5.07031 41.5445 5.23047 41.4977 5.48047C 41.4586 5.73047 41.4039 5.97266 41.3336 6.20703C 41.2711 6.43359 41.193 6.63672 41.0992 6.81641C 40.7398 7.52734 40.1422 7.88281 39.3063 7.88281C 38.1188 7.88281 36.7672 7.72266 35.2516 7.40234L 34.0563 12.9688C 34.5406 12.8203 34.9703 12.7109 35.3453 12.6406C 35.7203 12.5703 36.1031 12.5352 36.4938 12.5352C 37.8375 12.5352 38.8648 12.9531 39.5758 13.7891C 39.9039 14.1875 40.15 14.6562 40.3141 15.1953C 40.4781 15.7344 40.5602 16.3281 40.5602 16.9766C 40.5602 17.3906 40.5172 17.8359 40.4313 18.3125C 40.3453 18.7812 40.2164 19.2461 40.0445 19.707C 39.8648 20.1992 39.6344 20.668 39.3531 21.1133C 39.0719 21.5508 38.7477 21.9375 38.3805 22.2734C 37.5445 23.0313 36.5563 23.4102 35.4156 23.4102ZM 46.3539 23.1406C 45.1742 23.1406 44.2641 22.8438 43.6234 22.25C 42.9438 21.6172 42.6039 20.6445 42.6039 19.332C 42.6039 18.8398 42.6547 18.293 42.7563 17.6914C 42.85 17.0898 42.9945 16.4883 43.1898 15.8867C 43.4086 15.2148 43.6859 14.5781 44.0219 13.9766C 44.3656 13.375 44.7641 12.8437 45.2172 12.3828C 46.2641 11.3203 47.5531 10.7891 49.0844 10.7891C 50.0609 10.7891 50.7719 11.0234 51.2172 11.4922C 51.5609 11.8594 51.7328 12.3906 51.7328 13.0859C 51.7328 13.7656 51.5844 14.4063 51.2875 15.0078C 50.9906 15.6016 50.5805 16.1289 50.057 16.5898C 49.5336 17.043 48.9398 17.4062 48.2758 17.6797C 47.6117 17.9453 46.9242 18.1016 46.2133 18.1484C 46.1742 18.5547 46.1547 18.875 46.1547 19.1094C 46.1547 19.8906 46.3031 20.4297 46.6 20.7266C 46.8578 20.9922 47.2875 21.125 47.8891 21.125C 48.7563 21.125 49.5492 20.8906 50.268 20.4219C 50.5727 20.2266 50.8656 19.9961 51.1469 19.7305C 51.4281 19.457 51.7563 19.1133 52.1313 18.6992L 52.9516 18.6992C 52.1938 19.9805 51.3227 21 50.3383 21.7578C 49.1273 22.6797 47.7992 23.1406 46.3539 23.1406ZM 46.4008 17C 46.8461 16.9687 47.2797 16.8398 47.7016 16.6133C 48.1234 16.3867 48.4984 16.0898 48.8266 15.7227C 49.1547 15.3477 49.4125 14.9297 49.6 14.4688C 49.7875 14 49.8813 13.5234 49.8813 13.0391C 49.8813 12.7188 49.8344 12.4766 49.7406 12.3125C 49.6547 12.1406 49.5023 12.0547 49.2836 12.0547C 48.9945 12.0547 48.7016 12.1953 48.4047 12.4766C 48.1156 12.7578 47.8344 13.1445 47.5609 13.6367C 47.3109 14.0977 47.0844 14.6211 46.8813 15.207C 46.6781 15.793 46.518 16.3906 46.4008 17ZM 56.7648 23.1406C 55.5852 23.1406 54.675 22.8438 54.0344 22.25C 53.3547 21.6172 53.0148 20.6445 53.0148 19.332C 53.0148 18.8398 53.0656 18.293 53.1672 17.6914C 53.2609 17.082 53.4094 16.4766 53.6125 15.875C 54.0891 14.4141 54.7648 13.25 55.6398 12.3828C 56.718 11.3203 57.9953 10.7891 59.4719 10.7891C 60.4328 10.7891 61.1438 11.0195 61.6047 11.4805C 61.9641 11.8477 62.1438 12.3516 62.1438 12.9922C 62.1438 13.5547 62.0188 13.9922 61.7688 14.3047C 61.5344 14.5938 61.2336 14.7383 60.8664 14.7383C 60.6008 14.7383 60.3195 14.6445 60.0227 14.457C 60.218 13.9492 60.3156 13.4766 60.3156 13.0391C 60.3156 12.7344 60.257 12.4961 60.1398 12.3242C 60.0305 12.1445 59.8664 12.0547 59.6477 12.0547C 59.1789 12.0547 58.6906 12.4687 58.1828 13.2969C 57.7219 14.0313 57.3391 14.9648 57.0344 16.0977C 56.7219 17.207 56.5656 18.2109 56.5656 19.1094C 56.5656 19.8906 56.7141 20.4297 57.0109 20.7266C 57.2688 20.9922 57.6984 21.125 58.3 21.125C 59.1672 21.125 59.9602 20.8906 60.6789 20.4219C 60.9836 20.2266 61.2766 19.9961 61.5578 19.7305C 61.8391 19.457 62.1672 19.1133 62.5422 18.6992L 63.3625 18.6992C 62.6047 19.9805 61.7336 21 60.7492 21.7578C 59.5383 22.6797 58.2102 23.1406 56.7648 23.1406ZM 67.1758 23.1406C 65.9961 23.1406 65.0859 22.8438 64.4453 22.25C 63.7656 21.6172 63.4258 20.6445 63.4258 19.332C 63.4258 18.8398 63.4766 18.293 63.5781 17.6914C 63.6719 17.082 63.8203 16.4766 64.0234 15.875C 64.5 14.4141 65.1758 13.25 66.0508 12.3828C 67.1289 11.3203 68.4062 10.7891 69.8828 10.7891C 70.8438 10.7891 71.5547 11.0195 72.0156 11.4805C 72.375 11.8477 72.5547 12.3516 72.5547 12.9922C 72.5547 13.5547 72.4297 13.9922 72.1797 14.3047C 71.9453 14.5938 71.6445 14.7383 71.2773 14.7383C 71.0117 14.7383 70.7305 14.6445 70.4336 14.457C 70.6289 13.9492 70.7266 13.4766 70.7266 13.0391C 70.7266 12.7344 70.668 12.4961 70.5508 12.3242C 70.4414 12.1445 70.2773 12.0547 70.0586 12.0547C 69.5898 12.0547 69.1016 12.4687 68.5938 13.2969C 68.1328 14.0313 67.75 14.9648 67.4453 16.0977C 67.1328 17.207 66.9766 18.2109 66.9766 19.1094C 66.9766 19.8906 67.125 20.4297 67.4219 20.7266C 67.6797 20.9922 68.1094 21.125 68.7109 21.125C 69.5781 21.125 70.3711 20.8906 71.0898 20.4219C 71.3945 20.2266 71.6875 19.9961 71.9688 19.7305C 72.25 19.457 72.5781 19.1133 72.9531 18.6992L 73.7734 18.6992C 73.0156 19.9805 72.1445 21 71.1602 21.7578C 69.9492 22.6797 68.6211 23.1406 67.1758 23.1406ZM 75.8758 23.1406C 75.4461 23.1406 75.0633 23.0625 74.7273 22.9062C 74.3914 22.7422 74.1102 22.5195 73.8836 22.2383C 73.6727 21.9805 73.5125 21.6914 73.4031 21.3711C 73.2937 21.043 73.2391 20.7148 73.2391 20.3867C 73.2391 19.8242 73.3719 19.3828 73.6375 19.0625C 73.8953 18.7422 74.2586 18.582 74.7273 18.582C 75.1023 18.582 75.4031 18.6992 75.6297 18.9336C 75.8641 19.1602 75.9812 19.4609 75.9812 19.8359C 75.9812 20.1797 75.8992 20.4531 75.7352 20.6562C 75.5789 20.8516 75.3836 20.9492 75.1492 20.9492C 75.0945 20.9492 75.0516 20.9453 75.0203 20.9375C 75.0047 21.1719 75.0594 21.3672 75.1844 21.5234C 75.3484 21.7422 75.6062 21.8516 75.9578 21.8516C 76.3641 21.8516 76.7039 21.7227 76.9773 21.4648C 77.2508 21.1992 77.4773 20.8203 77.657 20.3281C 77.8211 19.8594 77.9617 19.3359 78.0789 18.7578C 78.1805 18.2031 78.2977 17.6016 78.4305 16.9531L 79.6961 11L 83.0594 11L 83.5633 20.2109L 88.0281 11L 91.5789 11L 90.3016 16.9531L 89.8797 18.8047C 89.7781 19.2578 89.7273 19.5938 89.7273 19.8125C 89.7273 20.4844 90.0477 20.8203 90.6883 20.8203C 90.9305 20.8203 91.1414 20.7813 91.3211 20.7031C 91.5008 20.6172 91.6687 20.4844 91.825 20.3047C 91.9656 20.1406 92.0984 19.9375 92.2234 19.6953C 92.3562 19.4531 92.5164 19.1211 92.7039 18.6992L 93.7117 18.6992C 92.7039 21.6602 91.2156 23.1406 89.2469 23.1406C 88.325 23.1406 87.6141 22.8828 87.1141 22.3672C 86.8875 22.1406 86.7156 21.875 86.5984 21.5703C 86.4812 21.2578 86.4227 20.9336 86.4227 20.5977C 86.4227 19.918 86.5906 18.8555 86.9266 17.4102L 87.3016 15.6992L 83.7508 23L 80.3875 23L 79.9656 15.6758L 79.6492 17.1875C 79.4227 18.3203 79.2195 19.2227 79.0398 19.8945C 78.8602 20.5664 78.6492 21.1328 78.407 21.5938C 78.1336 22.1094 77.7937 22.4961 77.3875 22.7539C 76.9891 23.0117 76.4852 23.1406 75.8758 23.1406ZM 97.3492 23.1406C 96.1695 23.1406 95.2594 22.8438 94.6188 22.25C 93.9391 21.6172 93.5992 20.6445 93.5992 19.332C 93.5992 18.8398 93.65 18.293 93.7516 17.6914C 93.8453 17.0898 93.9898 16.4883 94.1852 15.8867C 94.4039 15.2148 94.6813 14.5781 95.0172 13.9766C 95.3609 13.375 95.7594 12.8437 96.2125 12.3828C 97.2594 11.3203 98.5484 10.7891 100.08 10.7891C 101.056 10.7891 101.767 11.0234 102.213 11.4922C 102.556 11.8594 102.728 12.3906 102.728 13.0859C 102.728 13.7656 102.58 14.4063 102.283 15.0078C 101.986 15.6016 101.576 16.1289 101.052 16.5898C 100.529 17.043 99.9352 17.4062 99.2711 17.6797C 98.607 17.9453 97.9195 18.1016 97.2086 18.1484C 97.1695 18.5547 97.15 18.875 97.15 19.1094C 97.15 19.8906 97.2984 20.4297 97.5953 20.7266C 97.8531 20.9922 98.2828 21.125 98.8844 21.125C 99.7516 21.125 100.545 20.8906 101.263 20.4219C 101.568 20.2266 101.861 19.9961 102.142 19.7305C 102.423 19.457 102.752 19.1133 103.127 18.6992L 103.947 18.6992C 103.189 19.9805 102.318 21 101.334 21.7578C 100.123 22.6797 98.7945 23.1406 97.3492 23.1406ZM 97.3961 17C 97.8414 16.9687 98.275 16.8398 98.6969 16.6133C 99.1188 16.3867 99.4938 16.0898 99.8219 15.7227C 100.15 15.3477 100.408 14.9297 100.595 14.4688C 100.783 14 100.877 13.5234 100.877 13.0391C 100.877 12.7188 100.83 12.4766 100.736 12.3125C 100.65 12.1406 100.498 12.0547 100.279 12.0547C 99.9898 12.0547 99.6969 12.1953 99.4 12.4766C 99.1109 12.7578 98.8297 13.1445 98.5563 13.6367C 98.3063 14.0977 98.0797 14.6211 97.8766 15.207C 97.6734 15.793 97.5133 16.3906 97.3961 17ZM 106.155 10.1094L 109.612 10.1094L 109.225 11.9141C 110.037 11.2266 110.971 10.8828 112.026 10.8828C 112.924 10.8828 113.62 11.1562 114.112 11.7031C 114.674 12.3438 114.955 13.332 114.955 14.668C 114.955 15.957 114.791 17.168 114.463 18.3008C 114.049 19.7461 113.448 20.8672 112.659 21.6641C 111.69 22.6484 110.487 23.1406 109.049 23.1406C 108.495 23.1406 108.037 23.0547 107.678 22.8828C 107.405 22.7578 107.182 22.5586 107.01 22.2852L 105.768 28.1328L 102.147 29L 106.155 10.1094ZM 108.311 21.0547C 109.084 21.0547 109.748 20.6602 110.303 19.8711C 110.741 19.2539 111.092 18.3867 111.358 17.2695C 111.569 16.3711 111.674 15.4805 111.674 14.5977C 111.674 13.8086 111.53 13.2461 111.241 12.9102C 111.053 12.707 110.795 12.6055 110.467 12.6055C 110.178 12.6055 109.885 12.707 109.588 12.9102C 109.291 13.1133 109.034 13.4062 108.815 13.7891L 107.397 20.5039C 107.452 20.6602 107.553 20.793 107.702 20.9023C 107.858 21.0039 108.061 21.0547 108.311 21.0547ZM 131.718 23.1406C 130.726 23.1406 129.991 22.8594 129.515 22.2969C 129.101 21.8125 128.894 21.1914 128.894 20.4336C 128.894 20.0742 128.937 19.6562 129.023 19.1797C 129.116 18.7031 129.253 18.0898 129.433 17.3398C 129.613 16.5742 129.745 15.9648 129.831 15.5117C 129.925 15.0508 129.972 14.6523 129.972 14.3164C 129.972 13.4961 129.683 13.0859 129.105 13.0859C 128.698 13.0859 128.323 13.3008 127.98 13.7305C 127.691 14.0977 127.441 14.6211 127.23 15.3008L 125.601 23L 122.144 23L 123.902 14.7148C 123.948 14.5273 123.972 14.3281 123.972 14.1172C 123.972 13.7969 123.921 13.5508 123.82 13.3789C 123.687 13.168 123.495 13.0625 123.245 13.0625C 122.792 13.0625 122.398 13.2813 122.062 13.7188C 121.765 14.0938 121.511 14.6211 121.3 15.3008L 119.671 23L 116.214 23L 118.757 11L 122.214 11L 121.956 12.2422C 122.425 11.7187 122.937 11.3477 123.491 11.1289C 123.929 10.9648 124.394 10.8828 124.886 10.8828C 125.558 10.8828 126.093 11.0391 126.491 11.3516C 126.937 11.7031 127.222 12.2344 127.347 12.9453C 127.863 12.1484 128.456 11.5859 129.128 11.2578C 129.605 11.0234 130.124 10.9062 130.687 10.9062C 131.491 10.9062 132.128 11.1172 132.597 11.5391C 133.097 12 133.347 12.6914 133.347 13.6133C 133.347 14.1367 133.249 14.8594 133.054 15.7812C 132.976 16.1641 132.882 16.5508 132.773 16.9414C 132.577 17.6914 132.417 18.3828 132.292 19.0156C 132.23 19.3438 132.198 19.6094 132.198 19.8125C 132.198 20.1328 132.269 20.3828 132.409 20.5625C 132.558 20.7344 132.808 20.8203 133.159 20.8203C 133.636 20.8203 134.038 20.625 134.366 20.2344C 134.616 19.9375 134.886 19.4258 135.175 18.6992L 136.183 18.6992C 135.589 20.457 134.839 21.6875 133.933 22.3906C 133.292 22.8906 132.554 23.1406 131.718 23.1406ZM 145.082 23.1406C 144.16 23.1406 143.449 22.8828 142.949 22.3672C 142.723 22.1406 142.551 21.875 142.434 21.5703C 142.316 21.2578 142.258 20.9336 142.258 20.5977C 142.258 20.3008 142.301 19.8984 142.387 19.3906C 142.48 18.8828 142.621 18.1641 142.809 17.2344L 140.148 17.2344L 138.918 23L 135.461 23L 138.004 11L 141.461 11L 140.43 15.8047L 143.113 15.8047L 144.203 11L 147.414 11L 146.148 16.9531L 145.727 18.8047C 145.617 19.2891 145.562 19.625 145.562 19.8125C 145.562 20.4844 145.883 20.8203 146.523 20.8203C 146.766 20.8203 146.977 20.7813 147.156 20.7031C 147.336 20.6172 147.504 20.4844 147.66 20.3047C 147.801 20.1406 147.934 19.9375 148.059 19.6953C 148.191 19.4531 148.352 19.1211 148.539 18.6992L 149.547 18.6992C 148.539 21.6602 147.051 23.1406 145.082 23.1406ZM 153.032 23.1406C 151.938 23.1406 151.091 22.8711 150.489 22.332C 149.895 21.793 149.598 21.0391 149.598 20.0703C 149.598 19.5469 149.653 19.0898 149.763 18.6992L 151.345 11L 154.661 11L 152.88 19.4492C 152.833 19.5586 152.809 19.6953 152.809 19.8594C 152.809 20.0156 152.809 20.1016 152.809 20.1172C 152.809 20.7734 153.169 21.1016 153.888 21.1016C 154.208 21.1016 154.524 21 154.837 20.7969C 155.149 20.5859 155.427 20.3008 155.669 19.9414C 155.911 19.5742 156.102 19.1484 156.243 18.6641C 156.384 18.1719 156.454 17.6562 156.454 17.1172C 156.454 16.7344 156.337 16.4297 156.102 16.2031C 155.899 16.3516 155.665 16.4258 155.399 16.4258C 155.274 16.4258 155.149 16.4062 155.024 16.3672C 154.899 16.3203 154.79 16.2578 154.696 16.1797C 154.462 15.9844 154.345 15.7227 154.345 15.3945C 154.345 15.0508 154.489 14.7734 154.778 14.5625C 155.028 14.3828 155.333 14.293 155.692 14.293C 156.059 14.293 156.388 14.3398 156.677 14.4336C 157.216 14.1914 157.723 13.9414 158.2 13.6836C 158.677 13.4258 159.208 13.1211 159.794 12.7695C 159.872 12.7227 159.962 12.668 160.063 12.6055C 160.173 12.543 160.29 12.4727 160.415 12.3945C 161.305 11.8477 162.114 11.3828 162.841 11L 164.329 11L 163.063 16.9531L 162.641 18.8047C 162.532 19.2891 162.477 19.625 162.477 19.8125C 162.477 20.4844 162.798 20.8203 163.438 20.8203C 163.68 20.8203 163.891 20.7813 164.071 20.7031C 164.251 20.6172 164.419 20.4844 164.575 20.3047C 164.716 20.1406 164.848 19.9375 164.973 19.6953C 165.106 19.4531 165.266 19.1211 165.454 18.6992L 166.462 18.6992C 165.454 21.6602 163.977 23.1406 162.032 23.1406C 161.11 23.1406 160.391 22.875 159.876 22.3438C 159.649 22.1172 159.477 21.8477 159.36 21.5352C 159.251 21.2227 159.196 20.8867 159.196 20.5273C 159.196 20.4414 159.2 20.3672 159.208 20.3047C 159.231 20.0859 159.251 19.9453 159.266 19.8828C 159.321 19.4844 159.438 18.8438 159.618 17.9609C 159.782 17.125 160.083 15.7266 160.52 13.7656C 159.7 14.2812 158.802 14.8008 157.825 15.3242C 158.208 15.918 158.399 16.7148 158.399 17.7148C 158.399 18.0586 158.352 18.4336 158.259 18.8398C 158.165 19.2383 158.028 19.6289 157.848 20.0117C 157.411 20.9258 156.829 21.6484 156.102 22.1797C 155.212 22.8203 154.188 23.1406 153.032 23.1406ZM 172.9 9.82812C 171.908 9.82812 171.138 9.64453 170.591 9.27734C 170.052 8.91016 169.783 8.40625 169.783 7.76562C 169.783 7.24219 169.927 6.82031 170.216 6.5C 170.505 6.17188 170.896 6.00781 171.388 6.00781C 171.857 6.00781 172.22 6.12109 172.478 6.34766C 172.744 6.56641 172.877 6.88672 172.877 7.30859C 172.877 7.49609 172.849 7.66406 172.795 7.8125C 172.693 8.09375 172.529 8.30859 172.302 8.45703C 172.49 8.51953 172.81 8.55078 173.263 8.55078C 174.029 8.55078 174.709 8.35547 175.302 7.96484C 176.013 7.50391 176.568 6.76172 176.966 5.73828L 177.974 5.73828C 177.451 7.24609 176.752 8.32422 175.877 8.97266C 175.103 9.54297 174.111 9.82812 172.9 9.82812ZM 169.045 23.1406C 168.279 23.1406 167.673 22.9141 167.228 22.4609C 166.728 21.9609 166.478 21.2305 166.478 20.2695C 166.478 19.8164 166.541 19.293 166.666 18.6992L 168.295 11L 171.752 11L 170.029 19.1562C 169.982 19.3984 169.959 19.625 169.959 19.8359C 169.959 20.4922 170.197 20.8203 170.673 20.8203C 171.111 20.8203 171.505 20.6211 171.857 20.2227C 172.138 19.8867 172.384 19.3789 172.595 18.6992L 174.224 11L 177.681 11L 175.959 19.1562C 175.888 19.3906 175.853 19.6484 175.853 19.9297C 175.853 20.2578 175.931 20.4883 176.087 20.6211C 176.244 20.7539 176.494 20.8203 176.837 20.8203C 177.283 20.8203 177.681 20.6211 178.033 20.2227C 178.345 19.8711 178.595 19.3633 178.783 18.6992L 179.791 18.6992C 179.361 19.918 178.841 20.8828 178.232 21.5938C 177.716 22.1797 177.134 22.6016 176.486 22.8594C 176.009 23.0469 175.505 23.1406 174.974 23.1406C 174.287 23.1406 173.74 22.9492 173.334 22.5664C 172.927 22.1836 172.681 21.6172 172.595 20.8672C 172.048 21.7422 171.431 22.3672 170.744 22.7422C 170.252 23.0078 169.685 23.1406 169.045 23.1406ZM 200.892 10.28L 200.892 23L 196.692 23L 196.692 13.52L 192.372 13.52L 192.372 23L 188.172 23L 188.172 10.28L 200.892 10.28ZM 217.449 19.4C 217.449 20.6 217.105 21.544 216.417 22.232C 215.745 22.904 214.809 23.24 213.609 23.24L 208.089 23.24C 206.889 23.24 205.945 22.904 205.257 22.232C 204.585 21.544 204.249 20.6 204.249 19.4L 204.249 13.88C 204.249 12.68 204.585 11.744 205.257 11.072C 205.945 10.384 206.889 10.04 208.089 10.04L 213.609 10.04C 214.809 10.04 215.745 10.384 216.417 11.072C 217.105 11.744 217.449 12.68 217.449 13.88L 217.449 19.4ZM 213.249 14.24C 213.249 13.6 212.929 13.28 212.289 13.28L 209.409 13.28C 208.769 13.28 208.449 13.6 208.449 14.24L 208.449 19.04C 208.449 19.68 208.769 20 209.409 20L 212.289 20C 212.929 20 213.249 19.68 213.249 19.04L 213.249 14.24ZM 222.246 23.24C 221.558 23.24 220.758 23.16 219.846 23L 219.846 19.88L 220.806 19.88C 221.414 19.88 221.734 19.56 221.766 18.92L 222.246 10.28L 233.766 10.28L 233.766 23L 229.566 23L 229.566 13.52L 226.206 13.52L 225.846 19.64C 225.782 20.728 225.422 21.6 224.766 22.256C 224.11 22.912 223.27 23.24 222.246 23.24ZM 243.358 18.2L 241.558 18.2L 241.558 23L 237.358 23L 237.358 10.28L 241.558 10.28L 241.558 14.96L 243.478 14.96L 244.798 12.32C 245.278 11.296 246.03 10.6 247.054 10.232C 247.422 10.104 247.774 10.04 248.11 10.04C 248.654 10.04 249.15 10.08 249.598 10.16L 250.198 10.28L 250.198 13.52L 249.358 13.52C 248.814 13.52 248.414 13.76 248.158 14.24L 246.958 16.64L 250.558 23L 245.998 23L 243.358 18.2Z"/>
<path id="path4_fill" d="M 27.0426 13.9326L 25.86 13.9326L 25.86 18L 23.8092 18L 23.8092 8.04688L 25.86 8.04688L 25.86 12.0322L 26.7965 12.0322L 29.2301 8.04688L 31.7321 8.04688L 28.6627 12.7568L 32.0534 18L 29.6061 18L 27.0426 13.9326ZM 37.2826 18C 37.1914 17.8223 37.1254 17.6012 37.0843 17.3369C 36.6058 17.8701 35.9837 18.1367 35.2181 18.1367C 34.4935 18.1367 33.892 17.9271 33.4134 17.5078C 32.9395 17.0885 32.7025 16.5599 32.7025 15.9219C 32.7025 15.138 32.9919 14.5365 33.5707 14.1172C 34.154 13.6979 34.9948 13.486 36.0931 13.4814L 37.0023 13.4814L 37.0023 13.0576C 37.0023 12.7158 36.9134 12.4424 36.7357 12.2373C 36.5625 12.0322 36.2868 11.9297 35.9086 11.9297C 35.5759 11.9297 35.3138 12.0094 35.1224 12.1689C 34.9356 12.3285 34.8421 12.5472 34.8421 12.8252L 32.8666 12.8252C 32.8666 12.3968 32.9987 12.0003 33.263 11.6357C 33.5274 11.2712 33.9011 10.9863 34.3841 10.7812C 34.8672 10.5716 35.4095 10.4668 36.0111 10.4668C 36.9226 10.4668 37.6449 10.6969 38.1781 11.1572C 38.7158 11.613 38.9847 12.2555 38.9847 13.085L 38.9847 16.291C 38.9893 16.9928 39.0873 17.5238 39.2787 17.8838L 39.2787 18L 37.2826 18ZM 35.6488 16.626C 35.9405 16.626 36.2093 16.5622 36.4554 16.4346C 36.7015 16.3024 36.8838 16.127 37.0023 15.9082L 37.0023 14.6367L 36.264 14.6367C 35.2751 14.6367 34.7487 14.9785 34.6849 15.6621L 34.6781 15.7783C 34.6781 16.0244 34.7647 16.2272 34.9379 16.3867C 35.111 16.5462 35.348 16.626 35.6488 16.626ZM 43.8585 16.5439C 44.2231 16.5439 44.5193 16.4437 44.7471 16.2432C 44.975 16.0426 45.0935 15.776 45.1026 15.4434L 46.9552 15.4434C 46.9506 15.9447 46.8139 16.4049 46.545 16.8242C 46.2761 17.2389 45.907 17.5625 45.4376 17.7949C 44.9727 18.0228 44.4578 18.1367 43.8927 18.1367C 42.8354 18.1367 42.0014 17.8018 41.3907 17.1318C 40.78 16.4574 40.4747 15.5277 40.4747 14.3428L 40.4747 14.2129C 40.4747 13.0736 40.7777 12.1644 41.3839 11.4854C 41.99 10.8063 42.8217 10.4668 43.879 10.4668C 44.8041 10.4668 45.5447 10.7311 46.1007 11.2598C 46.6612 11.7839 46.946 12.4834 46.9552 13.3584L 45.1026 13.3584C 45.0935 12.9756 44.975 12.6657 44.7471 12.4287C 44.5193 12.1872 44.2185 12.0664 43.8448 12.0664C 43.3845 12.0664 43.0359 12.235 42.7989 12.5723C 42.5665 12.9049 42.4503 13.4473 42.4503 14.1992L 42.4503 14.4043C 42.4503 15.1654 42.5665 15.7122 42.7989 16.0449C 43.0313 16.3776 43.3845 16.5439 43.8585 16.5439ZM 54.5018 12.1895L 52.1297 12.1895L 52.1297 18L 50.1473 18L 50.1473 12.1895L 47.8162 12.1895L 47.8162 10.6035L 54.5018 10.6035L 54.5018 12.1895ZM 55.2671 14.2334C 55.2671 13.4997 55.4084 12.8457 55.6909 12.2715C 55.9735 11.6973 56.3791 11.2529 56.9077 10.9385C 57.4409 10.624 58.0585 10.4668 58.7603 10.4668C 59.7583 10.4668 60.5718 10.7721 61.2007 11.3828C 61.8342 11.9935 62.1874 12.8229 62.2603 13.8711L 62.2739 14.377C 62.2739 15.5117 61.9572 16.4232 61.3238 17.1113C 60.6903 17.7949 59.8404 18.1367 58.7739 18.1367C 57.7075 18.1367 56.8553 17.7949 56.2173 17.1113C 55.5838 16.4277 55.2671 15.498 55.2671 14.3223L 55.2671 14.2334ZM 57.2427 14.377C 57.2427 15.0788 57.3749 15.6165 57.6392 15.9902C 57.9035 16.3594 58.2818 16.5439 58.7739 16.5439C 59.2525 16.5439 59.6262 16.3617 59.895 15.9971C 60.1639 15.6279 60.2984 15.04 60.2984 14.2334C 60.2984 13.5452 60.1639 13.012 59.895 12.6338C 59.6262 12.2555 59.2479 12.0664 58.7603 12.0664C 58.2772 12.0664 57.9035 12.2555 57.6392 12.6338C 57.3749 13.0075 57.2427 13.5885 57.2427 14.377ZM 68.2756 15.6689L 70.2102 10.6035L 72.6848 10.6035L 72.6848 18L 70.7092 18L 70.7092 13.4609L 68.9387 18L 67.6125 18L 65.8762 13.5361L 65.8762 18L 63.9006 18L 63.9006 10.6035L 66.3547 10.6035L 68.2756 15.6689ZM 79.1445 10.6035L 81.1201 10.6035L 81.1201 18L 79.1445 18L 79.1445 13.4336L 76.6699 18L 74.6875 18L 74.6875 10.6035L 76.6699 10.6035L 76.6699 15.1631L 79.1445 10.6035ZM 86.7936 12.7842C 86.7936 12.5244 86.707 12.3239 86.5339 12.1826C 86.3652 12.0368 86.1237 11.9639 85.8093 11.9639C 85.4857 11.9639 85.2214 12.0322 85.0163 12.1689C 84.8158 12.3011 84.7155 12.4902 84.7155 12.7363L 82.7399 12.7363C 82.7399 12.0664 83.0179 11.5218 83.5739 11.1025C 84.1299 10.6833 84.8408 10.4736 85.7067 10.4736C 86.6592 10.4736 87.4066 10.6605 87.9489 11.0342C 88.4958 11.4079 88.7692 11.9388 88.7692 12.627C 88.7692 12.9551 88.669 13.2581 88.4684 13.5361C 88.2725 13.8096 87.9945 14.0283 87.6345 14.1924C 88.4776 14.4886 88.8991 15.0605 88.8991 15.9082C 88.8991 16.5872 88.6074 17.1296 88.0241 17.5352C 87.4453 17.9362 86.6729 18.1367 85.7067 18.1367C 84.8089 18.1367 84.0707 17.9271 83.4919 17.5078C 82.9131 17.0885 82.6237 16.5234 82.6237 15.8125L 84.5993 15.8125C 84.5993 16.0632 84.711 16.266 84.9343 16.4209C 85.1576 16.5758 85.4492 16.6533 85.8093 16.6533C 86.1602 16.6533 86.4336 16.5713 86.6296 16.4072C 86.8255 16.2432 86.9235 16.029 86.9235 15.7646C 86.9235 15.4411 86.8301 15.2109 86.6432 15.0742C 86.4564 14.9329 86.1761 14.8623 85.8024 14.8623L 84.7292 14.8623L 84.7292 13.5771L 85.8708 13.5771C 86.486 13.5589 86.7936 13.2946 86.7936 12.7842ZM 94.8393 10.6035L 96.8148 10.6035L 96.8148 18L 94.8393 18L 94.8393 13.4336L 92.3646 18L 90.3822 18L 90.3822 10.6035L 92.3646 10.6035L 92.3646 15.1631L 94.8393 10.6035ZM 105.264 14.3701C 105.264 15.5094 105.004 16.4232 104.484 17.1113C 103.97 17.7949 103.272 18.1367 102.393 18.1367C 101.645 18.1367 101.041 17.877 100.581 17.3574L 100.581 20.8438L 98.6056 20.8438L 98.6056 10.6035L 100.438 10.6035L 100.506 11.3281C 100.984 10.7539 101.609 10.4668 102.379 10.4668C 103.29 10.4668 103.999 10.804 104.505 11.4785C 105.011 12.153 105.264 13.0827 105.264 14.2676L 105.264 14.3701ZM 103.288 14.2266C 103.288 13.5384 103.165 13.0075 102.919 12.6338C 102.678 12.2601 102.324 12.0732 101.859 12.0732C 101.24 12.0732 100.814 12.3102 100.581 12.7842L 100.581 15.8125C 100.823 16.3001 101.253 16.5439 101.873 16.5439C 102.817 16.5439 103.288 15.7715 103.288 14.2266ZM 106.467 14.2334C 106.467 13.4997 106.608 12.8457 106.89 12.2715C 107.173 11.6973 107.579 11.2529 108.107 10.9385C 108.64 10.624 109.258 10.4668 109.96 10.4668C 110.958 10.4668 111.771 10.7721 112.4 11.3828C 113.034 11.9935 113.387 12.8229 113.46 13.8711L 113.473 14.377C 113.473 15.5117 113.157 16.4232 112.523 17.1113C 111.89 17.7949 111.04 18.1367 109.973 18.1367C 108.907 18.1367 108.055 17.7949 107.417 17.1113C 106.783 16.4277 106.467 15.498 106.467 14.3223L 106.467 14.2334ZM 108.442 14.377C 108.442 15.0788 108.574 15.6165 108.839 15.9902C 109.103 16.3594 109.481 16.5439 109.973 16.5439C 110.452 16.5439 110.826 16.3617 111.095 15.9971C 111.363 15.6279 111.498 15.04 111.498 14.2334C 111.498 13.5452 111.363 13.012 111.095 12.6338C 110.826 12.2555 110.447 12.0664 109.96 12.0664C 109.477 12.0664 109.103 12.2555 108.839 12.6338C 108.574 13.0075 108.442 13.5885 108.442 14.377ZM 115.1 18L 115.1 10.6035L 118.19 10.6035C 119.197 10.6035 119.97 10.7812 120.507 11.1367C 121.045 11.4922 121.314 12.0026 121.314 12.668C 121.314 13.0098 121.2 13.3174 120.972 13.5908C 120.749 13.8597 120.421 14.0671 119.988 14.2129C 120.516 14.3132 120.931 14.5114 121.232 14.8076C 121.537 15.0993 121.69 15.4593 121.69 15.8877C 121.69 16.5758 121.43 17.0999 120.911 17.46C 120.396 17.82 119.646 18 118.662 18L 115.1 18ZM 117.076 14.9307L 117.076 16.4209L 118.669 16.4209C 119.366 16.4209 119.714 16.1771 119.714 15.6895C 119.714 15.1927 119.382 14.9398 118.716 14.9307L 117.076 14.9307ZM 117.076 13.6045L 118.299 13.6045C 118.992 13.5954 119.338 13.3721 119.338 12.9346C 119.338 12.6657 119.243 12.4743 119.051 12.3604C 118.864 12.2464 118.577 12.1895 118.19 12.1895L 117.076 12.1895L 117.076 13.6045ZM 127.466 18C 127.375 17.8223 127.309 17.6012 127.268 17.3369C 126.789 17.8701 126.167 18.1367 125.402 18.1367C 124.677 18.1367 124.075 17.9271 123.597 17.5078C 123.123 17.0885 122.886 16.5599 122.886 15.9219C 122.886 15.138 123.175 14.5365 123.754 14.1172C 124.338 13.6979 125.178 13.486 126.277 13.4814L 127.186 13.4814L 127.186 13.0576C 127.186 12.7158 127.097 12.4424 126.919 12.2373C 126.746 12.0322 126.47 11.9297 126.092 11.9297C 125.759 11.9297 125.497 12.0094 125.306 12.1689C 125.119 12.3285 125.026 12.5472 125.026 12.8252L 123.05 12.8252C 123.05 12.3968 123.182 12.0003 123.447 11.6357C 123.711 11.2712 124.085 10.9863 124.568 10.7812C 125.051 10.5716 125.593 10.4668 126.195 10.4668C 127.106 10.4668 127.828 10.6969 128.362 11.1572C 128.899 11.613 129.168 12.2555 129.168 13.085L 129.168 16.291C 129.173 16.9928 129.271 17.5238 129.462 17.8838L 129.462 18L 127.466 18ZM 125.832 16.626C 126.124 16.626 126.393 16.5622 126.639 16.4346C 126.885 16.3024 127.067 16.127 127.186 15.9082L 127.186 14.6367L 126.448 14.6367C 125.459 14.6367 124.932 14.9785 124.868 15.6621L 124.862 15.7783C 124.862 16.0244 124.948 16.2272 125.121 16.3867C 125.295 16.5462 125.532 16.626 125.832 16.626ZM 137.378 18L 135.396 18L 135.396 15.1562L 132.941 15.1562L 132.941 18L 130.966 18L 130.966 10.6035L 132.941 10.6035L 132.941 13.5703L 135.396 13.5703L 135.396 10.6035L 137.378 10.6035L 137.378 18ZM 145.601 18L 143.619 18L 143.619 15.1562L 141.165 15.1562L 141.165 18L 139.189 18L 139.189 10.6035L 141.165 10.6035L 141.165 13.5703L 143.619 13.5703L 143.619 10.6035L 145.601 10.6035L 145.601 18ZM 151.699 18C 151.608 17.8223 151.541 17.6012 151.5 17.3369C 151.022 17.8701 150.4 18.1367 149.634 18.1367C 148.91 18.1367 148.308 17.9271 147.83 17.5078C 147.356 17.0885 147.119 16.5599 147.119 15.9219C 147.119 15.138 147.408 14.5365 147.987 14.1172C 148.57 13.6979 149.411 13.486 150.509 13.4814L 151.418 13.4814L 151.418 13.0576C 151.418 12.7158 151.33 12.4424 151.152 12.2373C 150.979 12.0322 150.703 11.9297 150.325 11.9297C 149.992 11.9297 149.73 12.0094 149.539 12.1689C 149.352 12.3285 149.258 12.5472 149.258 12.8252L 147.283 12.8252C 147.283 12.3968 147.415 12.0003 147.679 11.6357C 147.943 11.2712 148.317 10.9863 148.8 10.7812C 149.283 10.5716 149.826 10.4668 150.427 10.4668C 151.339 10.4668 152.061 10.6969 152.594 11.1572C 153.132 11.613 153.401 12.2555 153.401 13.085L 153.401 16.291C 153.405 16.9928 153.503 17.5238 153.695 17.8838L 153.695 18L 151.699 18ZM 150.065 16.626C 150.357 16.626 150.625 16.5622 150.872 16.4346C 151.118 16.3024 151.3 16.127 151.418 15.9082L 151.418 14.6367L 150.68 14.6367C 149.691 14.6367 149.165 14.9785 149.101 15.6621L 149.094 15.7783C 149.094 16.0244 149.181 16.2272 149.354 16.3867C 149.527 16.5462 149.764 16.626 150.065 16.626ZM 161.364 10.6035L 161.364 18L 159.396 18L 159.396 15.4434L 158.145 15.4434L 156.723 18L 154.72 18L 156.333 15.1084C 155.891 14.9033 155.549 14.6253 155.308 14.2744C 155.071 13.9235 154.952 13.5247 154.952 13.0781C 154.952 12.3626 155.228 11.777 155.779 11.3213C 156.335 10.861 157.078 10.6217 158.008 10.6035L 161.364 10.6035ZM 158.042 14.0625L 159.396 14.0625L 159.396 12.1895L 158.111 12.1895C 157.76 12.1895 157.475 12.2829 157.256 12.4697C 157.037 12.652 156.928 12.8753 156.928 13.1396C 156.928 13.404 157.033 13.6227 157.242 13.7959C 157.452 13.9691 157.719 14.0579 158.042 14.0625ZM 166.771 14.2334C 166.771 13.4997 166.912 12.8457 167.195 12.2715C 167.477 11.6973 167.883 11.2529 168.412 10.9385C 168.945 10.624 169.562 10.4668 170.264 10.4668C 171.262 10.4668 172.076 10.7721 172.705 11.3828C 173.338 11.9935 173.691 12.8229 173.764 13.8711L 173.778 14.377C 173.778 15.5117 173.461 16.4232 172.828 17.1113C 172.194 17.7949 171.344 18.1367 170.278 18.1367C 169.212 18.1367 168.359 17.7949 167.721 17.1113C 167.088 16.4277 166.771 15.498 166.771 14.3223L 166.771 14.2334ZM 168.747 14.377C 168.747 15.0788 168.879 15.6165 169.143 15.9902C 169.407 16.3594 169.786 16.5439 170.278 16.5439C 170.756 16.5439 171.13 16.3617 171.399 15.9971C 171.668 15.6279 171.802 15.04 171.802 14.2334C 171.802 13.5452 171.668 13.012 171.399 12.6338C 171.13 12.2555 170.752 12.0664 170.264 12.0664C 169.781 12.0664 169.407 12.2555 169.143 12.6338C 168.879 13.0075 168.747 13.5885 168.747 14.377ZM 174.885 16.4072C 175.332 15.9333 175.635 15.4639 175.794 14.999C 175.954 14.5342 176.043 13.8757 176.061 13.0234L 176.116 10.6035L 181.557 10.6035L 181.557 16.4072L 182.623 16.4072L 182.623 20.2217L 180.648 20.2217L 180.648 18L 176.266 18L 176.266 20.2217L 174.249 20.2217L 174.249 16.4072L 174.885 16.4072ZM 177.216 16.4072L 179.588 16.4072L 179.588 12.2373L 178.05 12.2373L 178.036 13.126C 177.995 14.484 177.722 15.5778 177.216 16.4072ZM 187.313 18.1367C 186.228 18.1367 185.344 17.804 184.66 17.1387C 183.981 16.4733 183.642 15.5869 183.642 14.4795L 183.642 14.2881C 183.642 13.5452 183.785 12.8822 184.072 12.2988C 184.359 11.7109 184.765 11.2598 185.289 10.9453C 185.818 10.6263 186.419 10.4668 187.094 10.4668C 188.105 10.4668 188.901 10.7858 189.48 11.4238C 190.063 12.0618 190.355 12.9665 190.355 14.1377L 190.355 14.9443L 185.645 14.9443C 185.708 15.4274 185.9 15.8148 186.219 16.1064C 186.542 16.3981 186.95 16.5439 187.442 16.5439C 188.203 16.5439 188.798 16.2682 189.227 15.7168L 190.197 16.8037C 189.901 17.223 189.5 17.5511 188.994 17.7881C 188.488 18.0205 187.928 18.1367 187.313 18.1367ZM 187.087 12.0664C 186.695 12.0664 186.376 12.1986 186.13 12.4629C 185.888 12.7272 185.733 13.1055 185.665 13.5977L 188.413 13.5977L 188.413 13.4404C 188.404 13.0029 188.286 12.6657 188.058 12.4287C 187.83 12.1872 187.506 12.0664 187.087 12.0664ZM 198.879 15.2588L 197.983 15.2588L 197.983 18L 196.008 18L 196.008 15.2588L 195.126 15.2588L 193.656 18L 191.27 18L 193.601 14.1309L 191.298 10.6035L 193.745 10.6035L 195.283 13.3652L 196.008 13.3652L 196.008 10.6035L 197.983 10.6035L 197.983 13.3652L 198.721 13.3652L 200.266 10.6035L 202.714 10.6035L 200.424 14.083L 202.775 18L 200.348 18L 198.879 15.2588ZM 204.108 16.4072C 204.555 15.9333 204.858 15.4639 205.017 14.999C 205.177 14.5342 205.265 13.8757 205.284 13.0234L 205.338 10.6035L 210.78 10.6035L 210.78 16.4072L 211.846 16.4072L 211.846 20.2217L 209.871 20.2217L 209.871 18L 205.489 18L 205.489 20.2217L 203.472 20.2217L 203.472 16.4072L 204.108 16.4072ZM 206.439 16.4072L 208.811 16.4072L 208.811 12.2373L 207.273 12.2373L 207.259 13.126C 207.218 14.484 206.945 15.5778 206.439 16.4072ZM 217.417 18C 217.326 17.8223 217.26 17.6012 217.219 17.3369C 216.74 17.8701 216.118 18.1367 215.353 18.1367C 214.628 18.1367 214.027 17.9271 213.548 17.5078C 213.074 17.0885 212.837 16.5599 212.837 15.9219C 212.837 15.138 213.127 14.5365 213.705 14.1172C 214.289 13.6979 215.129 13.486 216.228 13.4814L 217.137 13.4814L 217.137 13.0576C 217.137 12.7158 217.048 12.4424 216.87 12.2373C 216.697 12.0322 216.421 11.9297 216.043 11.9297C 215.71 11.9297 215.448 12.0094 215.257 12.1689C 215.07 12.3285 214.977 12.5472 214.977 12.8252L 213.001 12.8252C 213.001 12.3968 213.133 12.0003 213.398 11.6357C 213.662 11.2712 214.036 10.9863 214.519 10.7812C 215.002 10.5716 215.544 10.4668 216.146 10.4668C 217.057 10.4668 217.779 10.6969 218.313 11.1572C 218.85 11.613 219.119 12.2555 219.119 13.085L 219.119 16.291C 219.124 16.9928 219.222 17.5238 219.413 17.8838L 219.413 18L 217.417 18ZM 215.783 16.626C 216.075 16.626 216.344 16.5622 216.59 16.4346C 216.836 16.3024 217.018 16.127 217.137 15.9082L 217.137 14.6367L 216.399 14.6367C 215.41 14.6367 214.883 14.9785 214.82 15.6621L 214.813 15.7783C 214.813 16.0244 214.899 16.2272 215.072 16.3867C 215.246 16.5462 215.483 16.626 215.783 16.626ZM 227.582 15.2725L 226.789 15.2725L 226.789 18L 224.813 18L 224.813 10.6035L 226.789 10.6035L 226.789 13.3857L 227.493 13.3857L 229.106 10.6035L 231.601 10.6035L 229.181 14.124L 231.827 18L 229.195 18L 227.582 15.2725Z"/>
</defs>
</svg>
