<svg xmlns="http://www.w3.org/2000/svg" viewBox="0 0 32.2 48"><title>icon-8</title><g id="Слой_2" data-name="Слой 2"><g id="Слой_1-2" data-name="Слой 1"><path d="M19.6,30l-.7-.7H13.2l-.7.7v5.2l.7.8h5.7l.8-.8h-.1ZM19,34.9l-.3.3H13.6l-.3-.3V30.3l.3-.4h5.1l.3.4Z"/><path d="M13.3,12l-.7.8v4.7l.7.7H19l.7-.7V12.8L19,12ZM19,17.2l-.3.3H13.6l-.3-.3V13.1l.3-.3h5.1l.3.3Z"/><path d="M10.3,3,3,9.7V20.4l3.7,3.3L3,27V38.3L10.3,45H22l7.2-6.7V27.1l-3.5-3.3,3.5-3.3V9.7L22,3ZM22,36.1l-2.1,2.2H12.4l-2.1-2.1V29.1L12.4,27h7.5L22,29Zm0-17.7-2.1,2.1H12.4l-2.1-2.1V11.9l2.1-2.1h7.5L22,11.9Z"/><path d="M32.2,8.3,23.1,0H9.1L0,8.3V21.9l2.2,1.9L0,25.7v14L9.1,48h14l9.1-8.3V25.6l-2.1-1.9,2.1-1.9Zm-.7,13.1-2.4,2.3L31.5,26V39.3l-8.7,8H9.3L.7,39.4V26l2.5-2.2L.7,21.6V8.7L9.3.8H22.9l8.6,7.9Z"/></g></g></svg>