<svg xmlns="http://www.w3.org/2000/svg" viewBox="0 0 32.2 48"><title>icon-0</title><g id="Слой_2" data-name="Слой 2"><g id="Слой_1-2" data-name="Слой 1"><path d="M19.6,12.8l-.7-.8H13.2l-.7.8V35.2l.7.8h5.7l.8-.8h-.1ZM19,34.9l-.3.4H13.6l-.3-.3V13.1l.3-.3h5.1l.3.3Z"/><path d="M23.1,0H9.1L0,8.3V39.7L9.1,48h14l9.1-8.3V8.3Zm8.4,39.3-8.7,8H9.3L.7,39.4V8.7L9.3.8H22.9l8.6,7.9Z"/><path d="M10.3,3,3,9.7V38.3L10.3,45H22l7.2-6.7V9.7L22,3ZM22,36.1l-2.1,2.2H12.4l-2.1-2.1V11.9l2.1-2.1h7.5L22,11.9Z"/></g></g></svg>